<svg width="302" height="240" viewBox="0 0 302 240" fill="none" xmlns="http://www.w3.org/2000/svg">
<g clip-path="url(#clip0_9_3)">
<path d="M23.2162 11.9601H242.706V174.387H23.2161L23.2162 11.9601ZM241.55 13.1157H24.3717V173.232H241.55V13.1157Z" fill="#00EBC7"/>
<g style="mix-blend-mode:screen" opacity="0.1">
<path d="M27.2606 170.343H238.661V16.0046H27.2606V170.343Z" fill="#0068E8"/>
<path d="M26.9717 15.7157H238.95V170.632H26.9717V15.7157ZM238.372 16.2935H27.5495V170.054H238.372V16.2935Z" fill="#00EBC7"/>
</g>
<g style="mix-blend-mode:screen" opacity="0.2">
<path d="M32.5183 149.658H47.9453V165.085H32.5183V149.658ZM46.7897 150.814H33.6739V163.929H46.7897V150.814Z" fill="#0068E8"/>
<path d="M46.7898 149.658H62.2167V165.085H46.7898V149.658ZM61.0611 150.814H47.9454V163.929H61.0611V150.814Z" fill="#0068E8"/>
<path d="M61.0496 149.658H76.4765V165.085H61.0496V149.658ZM75.3209 150.814H62.2052V163.929H75.3209V150.814Z" fill="#0068E8"/>
<path d="M75.3208 149.658H90.7361V165.085H75.3208V149.658ZM89.5806 150.814H76.4764V163.929H89.5806V150.814Z" fill="#0068E8"/>
<path d="M89.5806 149.658H105.008V165.085H89.5806V149.658ZM103.852 150.814H90.7362V163.929H103.852V150.814Z" fill="#0068E8"/>
<path d="M103.852 149.658H119.279V165.085H103.852V149.658ZM118.123 150.814H105.008V163.929H118.123V150.814Z" fill="#0068E8"/>
<path d="M118.112 149.658H133.539V165.085H118.112V149.658ZM132.383 150.814H119.267V163.929H132.383V150.814Z" fill="#0068E8"/>
<path d="M132.383 149.658H147.81V165.085H132.383V149.658ZM146.654 150.814H133.539V163.929H146.654V150.814Z" fill="#0068E8"/>
<path d="M146.654 149.658H162.081V165.085H146.654V149.658ZM160.926 150.814H147.81V163.929H160.926V150.814Z" fill="#0068E8"/>
<path d="M160.914 149.658H176.33V165.085H160.914V149.658ZM175.174 150.814H162.07V163.929H175.174V150.814Z" fill="#0068E8"/>
<path d="M175.185 149.658H190.612V165.085H175.185V149.658ZM189.457 150.814H176.341V163.929H189.457V150.814Z" fill="#0068E8"/>
<path d="M189.445 149.658H204.872V165.085H189.445V149.658ZM203.717 150.814H190.601V163.929H203.717V150.814Z" fill="#0068E8"/>
<path d="M203.717 149.658H219.143V165.085H203.717V149.658ZM217.988 150.814H204.872V163.929H217.988V150.814Z" fill="#0068E8"/>
<path d="M217.976 149.658H233.403V165.085H217.976V149.658ZM232.248 150.814H219.132V163.929H232.248V150.814Z" fill="#0068E8"/>
<path d="M32.5186 135.398H47.9455V150.814H32.5186V135.398ZM46.79 136.554H33.6742V149.658H46.79V136.554Z" fill="#0068E8"/>
<path d="M46.7899 135.398H62.2168V150.814H46.7899V135.398ZM61.0612 136.554H47.9455V149.658H61.0612V136.554Z" fill="#0068E8"/>
<path d="M61.0496 135.398H76.4764V150.814H61.0496V135.398ZM75.3209 136.554H62.2051V149.658H75.3209V136.554Z" fill="#0068E8"/>
<path d="M75.3209 135.398H90.7363V150.814H75.3209V135.398ZM89.5807 136.554H76.4765V149.658H89.5807V136.554Z" fill="#0068E8"/>
<path d="M89.5807 135.398H105.008V150.814H89.5807V135.398ZM103.852 136.554H90.7363V149.658H103.852V136.554Z" fill="#0068E8"/>
<path d="M103.852 135.398H119.279V150.814H103.852V135.398ZM118.123 136.554H105.008V149.658H118.123V136.554Z" fill="#0068E8"/>
<path d="M118.112 135.398H133.539V150.814H118.112V135.398ZM132.383 136.554H119.267V149.658H132.383V136.554Z" fill="#0068E8"/>
<path d="M132.383 135.398H147.81V150.814H132.383V135.398ZM146.655 136.554H133.539V149.658H146.655V136.554Z" fill="#0068E8"/>
<path d="M146.654 135.398H162.081V150.814H146.654V135.398ZM160.926 136.554H147.81V149.658H160.926V136.554Z" fill="#0068E8"/>
<path d="M160.914 135.398H176.33V150.814H160.914V135.398ZM175.174 136.554H162.07V149.658H175.174V136.554Z" fill="#0068E8"/>
<path d="M175.186 135.398H190.613V150.814H175.186V135.398ZM189.457 136.554H176.341V149.658H189.457V136.554Z" fill="#0068E8"/>
<path d="M189.445 135.398H204.872V150.814H189.445V135.398ZM203.717 136.554H190.601V149.658H203.717V136.554Z" fill="#0068E8"/>
<path d="M203.717 135.398H219.144V150.814H203.717V135.398ZM217.988 136.554H204.872V149.658H217.988V136.554Z" fill="#0068E8"/>
<path d="M217.976 135.398H233.403V150.814H217.976V135.398ZM232.248 136.554H219.132V149.658H232.248V136.554Z" fill="#0068E8"/>
<path d="M32.5186 121.127H47.9455V136.554H32.5186V121.127ZM46.79 122.283H33.6742V135.398H46.79V122.283Z" fill="#0068E8"/>
<path d="M46.7898 121.127H62.2167V136.554H46.7898V121.127ZM61.0612 122.283H47.9454V135.398H61.0612V122.283Z" fill="#0068E8"/>
<path d="M61.0496 121.127H76.4764V136.554H61.0496V121.127ZM75.3209 122.283H62.2051V135.398H75.3209V122.283Z" fill="#0068E8"/>
<path d="M75.321 121.127H90.7363V136.554H75.321V121.127ZM89.5808 122.283H76.4765V135.398H89.5808V122.283Z" fill="#0068E8"/>
<path d="M89.5807 121.127H105.008V136.554H89.5807V121.127ZM103.852 122.283H90.7362V135.398H103.852V122.283Z" fill="#0068E8"/>
<path d="M103.852 121.127H119.279V136.554H103.852V121.127ZM118.123 122.283H105.008V135.398H118.123V122.283Z" fill="#0068E8"/>
<path d="M118.112 121.127H133.539V136.554H118.112V121.127ZM132.383 122.283H119.267V135.398H132.383V122.283Z" fill="#0068E8"/>
<path d="M132.383 121.127H147.81V136.554H132.383V121.127ZM146.655 122.283H133.539V135.398H146.655V122.283Z" fill="#0068E8"/>
<path d="M146.654 121.127H162.081V136.554H146.654V121.127ZM160.926 122.283H147.81V135.398H160.926V122.283Z" fill="#0068E8"/>
<path d="M160.914 121.127H176.33V136.554H160.914V121.127ZM175.174 122.283H162.07V135.398H175.174V122.283Z" fill="#0068E8"/>
<path d="M175.186 121.127H190.613V136.554H175.186V121.127ZM189.457 122.283H176.341V135.398H189.457V122.283Z" fill="#0068E8"/>
<path d="M189.445 121.127H204.872V136.554H189.445V121.127ZM203.717 122.283H190.601V135.398H203.717V122.283Z" fill="#0068E8"/>
<path d="M203.717 121.127H219.144V136.554H203.717V121.127ZM217.988 122.283H204.872V135.398H217.988V122.283Z" fill="#0068E8"/>
<path d="M217.976 121.127H233.403V136.554H217.976V121.127ZM232.248 122.283H219.132V135.398H232.248V122.283Z" fill="#0068E8"/>
<path d="M32.5186 106.867H47.9455V122.294H32.5186V106.867ZM46.79 108.023H33.6742V121.138H46.79V108.023Z" fill="#0068E8"/>
<path d="M46.7899 106.867H62.2168V122.294H46.7899V106.867ZM61.0612 108.023H47.9455V121.138H61.0612V108.023Z" fill="#0068E8"/>
<path d="M61.0496 106.867H76.4764V122.294H61.0496V106.867ZM75.3209 108.023H62.2051V121.138H75.3209V108.023Z" fill="#0068E8"/>
<path d="M75.3209 106.867H90.7363V122.294H75.3209V106.867ZM89.5807 108.023H76.4765V121.138H89.5807V108.023Z" fill="#0068E8"/>
<path d="M89.5807 106.867H105.008V122.294H89.5807V106.867ZM103.852 108.023H90.7363V121.138H103.852V108.023Z" fill="#0068E8"/>
<path d="M103.852 106.867H119.279V122.294H103.852V106.867ZM118.123 108.023H105.008V121.138H118.123V108.023Z" fill="#0068E8"/>
<path d="M118.112 106.867H133.539V122.294H118.112V106.867ZM132.383 108.023H119.267V121.138H132.383V108.023Z" fill="#0068E8"/>
<path d="M132.383 106.867H147.81V122.294H132.383V106.867ZM146.655 108.023H133.539V121.138H146.655V108.023Z" fill="#0068E8"/>
<path d="M146.654 106.867H162.081V122.294H146.654V106.867ZM160.926 108.023H147.81V121.138H160.926V108.023Z" fill="#0068E8"/>
<path d="M160.914 106.867H176.33V122.294H160.914V106.867ZM175.174 108.023H162.07V121.138H175.174V108.023Z" fill="#0068E8"/>
<path d="M175.186 106.867H190.612V122.294H175.186V106.867ZM189.457 108.023H176.341V121.138H189.457V108.023Z" fill="#0068E8"/>
<path d="M189.445 106.867H204.872V122.294H189.445V106.867ZM203.717 108.023H190.601V121.138H203.717V108.023Z" fill="#0068E8"/>
<path d="M203.717 106.867H219.144V122.294H203.717V106.867ZM217.988 108.023H204.872V121.138H217.988V108.023Z" fill="#0068E8"/>
<path d="M217.976 106.867H233.403V122.294H217.976V106.867ZM232.248 108.023H219.132V121.138H232.248V108.023Z" fill="#0068E8"/>
<path d="M32.5186 92.5959H47.9455V108.023H32.5186V92.5959ZM46.79 93.7515H33.6742V106.867H46.79V93.7515Z" fill="#0068E8"/>
<path d="M46.7898 92.5959H62.2167V108.023H46.7898V92.5959ZM61.0612 93.7515H47.9454V106.867H61.0612V93.7515Z" fill="#0068E8"/>
<path d="M61.0496 92.5959H76.4764V108.023H61.0496V92.5959ZM75.3209 93.7515H62.2051V106.867H75.3209V93.7515Z" fill="#0068E8"/>
<path d="M75.321 92.5959H90.7363V108.023H75.321V92.5959ZM89.5808 93.7515H76.4765V106.867H89.5808V93.7515Z" fill="#0068E8"/>
<path d="M89.5807 92.5959H105.008V108.023H89.5807V92.5959ZM103.852 93.7515H90.7362V106.867H103.852V93.7515Z" fill="#0068E8"/>
<path d="M103.852 92.5959H119.279V108.023H103.852V92.5959ZM118.123 93.7515H105.008V106.867H118.123V93.7515Z" fill="#0068E8"/>
<path d="M118.112 92.5959H133.539V108.023H118.112V92.5959ZM132.383 93.7515H119.267V106.867H132.383V93.7515Z" fill="#0068E8"/>
<path d="M132.383 92.5959H147.81V108.023H132.383V92.5959ZM146.655 93.7515H133.539V106.867H146.655V93.7515Z" fill="#0068E8"/>
<path d="M146.654 92.5959H162.081V108.023H146.654V92.5959ZM160.926 93.7515H147.81V106.867H160.926V93.7515Z" fill="#0068E8"/>
<path d="M160.914 92.5959H176.33V108.023H160.914V92.5959ZM175.174 93.7515H162.07V106.867H175.174V93.7515Z" fill="#0068E8"/>
<path d="M175.186 92.5959H190.613V108.023H175.186V92.5959ZM189.457 93.7515H176.341V106.867H189.457V93.7515Z" fill="#0068E8"/>
<path d="M189.445 92.5959H204.872V108.023H189.445V92.5959ZM203.717 93.7515H190.601V106.867H203.717V93.7515Z" fill="#0068E8"/>
<path d="M203.717 92.5959H219.144V108.023H203.717V92.5959ZM217.988 93.7515H204.872V106.867H217.988V93.7515Z" fill="#0068E8"/>
<path d="M217.976 92.5959H233.403V108.023H217.976V92.5959ZM232.248 93.7515H219.132V106.867H232.248V93.7515Z" fill="#0068E8"/>
<path d="M32.5186 78.3246H47.9455V93.7515H32.5186V78.3246ZM46.79 79.4801H33.6742V92.5959H46.79V79.4801Z" fill="#0068E8"/>
<path d="M46.7899 78.3246H62.2168V93.7515H46.7899V78.3246ZM61.0612 79.4801H47.9455V92.5959H61.0612V79.4801Z" fill="#0068E8"/>
<path d="M61.0496 78.3246H76.4764V93.7515H61.0496V78.3246ZM75.3209 79.4801H62.2051V92.5959H75.3209V79.4801Z" fill="#0068E8"/>
<path d="M75.3209 78.3246H90.7363V93.7515H75.3209V78.3246ZM89.5807 79.4801H76.4765V92.5959H89.5807V79.4801Z" fill="#0068E8"/>
<path d="M89.5807 78.3246H105.008V93.7515H89.5807V78.3246ZM103.852 79.4801H90.7363V92.5959H103.852V79.4801Z" fill="#0068E8"/>
<path d="M103.852 78.3246H119.279V93.7515H103.852V78.3246ZM118.123 79.4801H105.008V92.5959H118.123V79.4801Z" fill="#0068E8"/>
<path d="M118.112 78.3246H133.539V93.7515H118.112V78.3246ZM132.383 79.4801H119.267V92.5959H132.383V79.4801Z" fill="#0068E8"/>
<path d="M132.383 78.3246H147.81V93.7515H132.383V78.3246ZM146.655 79.4801H133.539V92.5959H146.655V79.4801Z" fill="#0068E8"/>
<path d="M146.654 78.3246H162.081V93.7515H146.654V78.3246ZM160.926 79.4801H147.81V92.5959H160.926V79.4801Z" fill="#0068E8"/>
<path d="M160.914 78.3246H176.33V93.7515H160.914V78.3246ZM175.174 79.4801H162.07V92.5959H175.174V79.4801Z" fill="#0068E8"/>
<path d="M175.186 78.3246H190.612V93.7515H175.186V78.3246ZM189.457 79.4801H176.341V92.5959H189.457V79.4801Z" fill="#0068E8"/>
<path d="M189.445 78.3246H204.872V93.7515H189.445V78.3246ZM203.717 79.4801H190.601V92.5959H203.717V79.4801Z" fill="#0068E8"/>
<path d="M203.717 78.3246H219.144V93.7515H203.717V78.3246ZM217.988 79.4801H204.872V92.5959H217.988V79.4801Z" fill="#0068E8"/>
<path d="M217.976 78.3246H233.403V93.7515H217.976V78.3246ZM232.248 79.4801H219.132V92.5959H232.248V79.4801Z" fill="#0068E8"/>
<path d="M32.5186 64.0648H47.9455V79.4917H32.5186V64.0648ZM46.79 65.2204H33.6742V78.3361H46.79V65.2204Z" fill="#0068E8"/>
<path d="M46.7898 64.0648H62.2167V79.4917H46.7898V64.0648ZM61.0612 65.2204H47.9454V78.3361H61.0612V65.2204Z" fill="#0068E8"/>
<path d="M61.0496 64.0648H76.4764V79.4917H61.0496V64.0648ZM75.3209 65.2204H62.2051V78.3361H75.3209V65.2204Z" fill="#0068E8"/>
<path d="M75.321 64.0648H90.7363V79.4917H75.321V64.0648ZM89.5808 65.2204H76.4765V78.3361H89.5808V65.2204Z" fill="#0068E8"/>
<path d="M89.5807 64.0648H105.008V79.4917H89.5807V64.0648ZM103.852 65.2204H90.7362V78.3361H103.852V65.2204Z" fill="#0068E8"/>
<path d="M103.852 64.0648H119.279V79.4917H103.852V64.0648ZM118.123 65.2204H105.008V78.3361H118.123V65.2204Z" fill="#0068E8"/>
<path d="M118.112 64.0648H133.539V79.4917H118.112V64.0648ZM132.383 65.2204H119.267V78.3361H132.383V65.2204Z" fill="#0068E8"/>
<path d="M132.383 64.0648H147.81V79.4917H132.383V64.0648ZM146.655 65.2204H133.539V78.3361H146.655V65.2204Z" fill="#0068E8"/>
<path d="M146.654 64.0648H162.081V79.4917H146.654V64.0648ZM160.926 65.2204H147.81V78.3361H160.926V65.2204Z" fill="#0068E8"/>
<path d="M160.914 64.0648H176.33V79.4917H160.914V64.0648ZM175.174 65.2204H162.07V78.3361H175.174V65.2204Z" fill="#0068E8"/>
<path d="M175.186 64.0648H190.613V79.4917H175.186V64.0648ZM189.457 65.2204H176.341V78.3361H189.457V65.2204Z" fill="#0068E8"/>
<path d="M189.445 64.0648H204.872V79.4917H189.445V64.0648ZM203.717 65.2204H190.601V78.3361H203.717V65.2204Z" fill="#0068E8"/>
<path d="M203.717 64.0648H219.144V79.4917H203.717V64.0648ZM217.988 65.2204H204.872V78.3361H217.988V65.2204Z" fill="#0068E8"/>
<path d="M217.976 64.0648H233.403V79.4917H217.976V64.0648ZM232.248 65.2204H219.132V78.3361H232.248V65.2204Z" fill="#0068E8"/>
<path d="M32.5186 49.7935H47.9455V65.2089H32.5186V49.7935ZM46.79 50.9491H33.6742V64.0533H46.79V50.9491Z" fill="#0068E8"/>
<path d="M46.7898 49.7935H62.2167V65.2089H46.7898V49.7935ZM61.0612 50.9491H47.9454V64.0533H61.0612V50.9491Z" fill="#0068E8"/>
<path d="M61.0496 49.7935H76.4764V65.2089H61.0496V49.7935ZM75.3209 50.9491H62.2051V64.0533H75.3209V50.9491Z" fill="#0068E8"/>
<path d="M75.3209 49.7935H90.7363V65.2089H75.3209V49.7935ZM89.5807 50.9491H76.4765V64.0533H89.5807V50.9491Z" fill="#0068E8"/>
<path d="M89.5807 49.7935H105.008V65.2089H89.5807V49.7935ZM103.852 50.9491H90.7363V64.0533H103.852V50.9491Z" fill="#0068E8"/>
<path d="M103.852 49.7935H119.279V65.2089H103.852V49.7935ZM118.123 50.9491H105.008V64.0533H118.123V50.9491Z" fill="#0068E8"/>
<path d="M118.112 49.7935H133.539V65.2089H118.112V49.7935ZM132.383 50.9491H119.267V64.0533H132.383V50.9491Z" fill="#0068E8"/>
<path d="M132.383 49.7935H147.81V65.2089H132.383V49.7935ZM146.655 50.9491H133.539V64.0533H146.655V50.9491Z" fill="#0068E8"/>
<path d="M146.654 49.7935H162.081V65.2089H146.654V49.7935ZM160.926 50.9491H147.81V64.0533H160.926V50.9491Z" fill="#0068E8"/>
<path d="M160.914 49.7935H176.33V65.2089H160.914V49.7935ZM175.174 50.9491H162.07V64.0533H175.174V50.9491Z" fill="#0068E8"/>
<path d="M175.186 49.7935H190.613V65.2089H175.186V49.7935ZM189.457 50.9491H176.341V64.0533H189.457V50.9491Z" fill="#0068E8"/>
<path d="M189.445 49.7935H204.872V65.2089H189.445V49.7935ZM203.717 50.9491H190.601V64.0533H203.717V50.9491Z" fill="#0068E8"/>
<path d="M203.717 49.7935H219.144V65.2089H203.717V49.7935ZM217.988 50.9491H204.872V64.0533H217.988V50.9491Z" fill="#0068E8"/>
<path d="M217.976 49.7935H233.403V65.2089H217.976V49.7935ZM232.248 50.9491H219.132V64.0533H232.248V50.9491Z" fill="#0068E8"/>
<path d="M32.5186 35.5337H47.9455V50.9606H32.5186V35.5337ZM46.79 36.6892H33.6742V49.805H46.79V36.6892Z" fill="#0068E8"/>
<path d="M46.7898 35.5337H62.2167V50.9606H46.7898V35.5337ZM61.0612 36.6892H47.9454V49.805H61.0612V36.6892Z" fill="#0068E8"/>
<path d="M61.0496 35.5337H76.4764V50.9606H61.0496V35.5337ZM75.3209 36.6892H62.2051V49.805H75.3209V36.6892Z" fill="#0068E8"/>
<path d="M75.321 35.5337H90.7363V50.9606H75.321V35.5337ZM89.5808 36.6892H76.4765V49.805H89.5808V36.6892Z" fill="#0068E8"/>
<path d="M89.5807 35.5337H105.008V50.9606H89.5807V35.5337ZM103.852 36.6892H90.7362V49.805H103.852V36.6892Z" fill="#0068E8"/>
<path d="M103.852 35.5337H119.279V50.9606H103.852V35.5337ZM118.123 36.6892H105.008V49.805H118.123V36.6892Z" fill="#0068E8"/>
<path d="M118.112 35.5337H133.539V50.9606H118.112V35.5337ZM132.383 36.6892H119.267V49.805H132.383V36.6892Z" fill="#0068E8"/>
<path d="M132.383 35.5337H147.81V50.9606H132.383V35.5337ZM146.655 36.6892H133.539V49.805H146.655V36.6892Z" fill="#0068E8"/>
<path d="M146.654 35.5337H162.081V50.9606H146.654V35.5337ZM160.926 36.6892H147.81V49.805H160.926V36.6892Z" fill="#0068E8"/>
<path d="M160.914 35.5337H176.33V50.9606H160.914V35.5337ZM175.174 36.6892H162.07V49.805H175.174V36.6892Z" fill="#0068E8"/>
<path d="M175.186 35.5337H190.612V50.9606H175.186V35.5337ZM189.457 36.6892H176.341V49.805H189.457V36.6892Z" fill="#0068E8"/>
<path d="M189.445 35.5337H204.872V50.9606H189.445V35.5337ZM203.717 36.6892H190.601V49.805H203.717V36.6892Z" fill="#0068E8"/>
<path d="M203.717 35.5337H219.144V50.9606H203.717V35.5337ZM217.988 36.6892H204.872V49.805H217.988V36.6892Z" fill="#0068E8"/>
<path d="M217.976 35.5338H233.403V50.9607H217.976V35.5338ZM232.248 36.6894H219.132V49.8051H232.248V36.6894Z" fill="#0068E8"/>
<path d="M32.5186 21.2623H47.9455V36.6892H32.5186V21.2623ZM46.79 22.4179H33.6742V35.5336H46.79V22.4179Z" fill="#0068E8"/>
<path d="M46.7899 21.2623H62.2168V36.6892H46.7899V21.2623ZM61.0612 22.4179H47.9455V35.5336H61.0612V22.4179Z" fill="#0068E8"/>
<path d="M61.0496 21.2623H76.4764V36.6892H61.0496V21.2623ZM75.3209 22.4179H62.2051V35.5336H75.3209V22.4179Z" fill="#0068E8"/>
<path d="M75.3209 21.2623H90.7363V36.6892H75.3209V21.2623ZM89.5807 22.4179H76.4765V35.5336H89.5807V22.4179Z" fill="#0068E8"/>
<path d="M89.5807 21.2623H105.008V36.6892H89.5807V21.2623ZM103.852 22.4179H90.7363V35.5336H103.852V22.4179Z" fill="#0068E8"/>
<path d="M103.852 21.2623H119.279V36.6892H103.852V21.2623ZM118.123 22.4179H105.008V35.5336H118.123V22.4179Z" fill="#0068E8"/>
<path d="M118.112 21.2623H133.539V36.6892H118.112V21.2623ZM132.383 22.4179H119.267V35.5336H132.383V22.4179Z" fill="#0068E8"/>
<path d="M132.383 21.2623H147.81V36.6892H132.383V21.2623ZM146.655 22.4179H133.539V35.5336H146.655V22.4179Z" fill="#0068E8"/>
<path d="M146.654 21.2623H162.081V36.6892H146.654V21.2623ZM160.926 22.4179H147.81V35.5336H160.926V22.4179Z" fill="#0068E8"/>
<path d="M160.914 21.2623H176.33V36.6892H160.914V21.2623ZM175.174 22.4179H162.07V35.5336H175.174V22.4179Z" fill="#0068E8"/>
<path d="M175.186 21.2623H190.612V36.6892H175.186V21.2623ZM189.457 22.4179H176.341V35.5336H189.457V22.4179Z" fill="#0068E8"/>
<path d="M189.445 21.2623H204.872V36.6892H189.445V21.2623ZM203.717 22.4179H190.601V35.5336H203.717V22.4179Z" fill="#0068E8"/>
<path d="M203.717 21.2623H219.144V36.6892H203.717V21.2623ZM217.988 22.4179H204.872V35.5336H217.988V22.4179Z" fill="#0068E8"/>
<path d="M217.976 21.2623H233.403V36.6892H217.976V21.2623ZM232.248 22.4179H219.132V35.5336H232.248V22.4179Z" fill="#0068E8"/>
</g>
<path d="M244.185 3.74413H250.922V10.4927H249.766V4.89971H244.185V3.74413Z" fill="#00EBC7"/>
<path d="M249.766 175.867H250.922V182.604H244.185V181.448H249.766V175.867Z" fill="#00EBC7"/>
<path d="M15.0001 3.74389H21.7371V4.89946H16.1556V10.4924H15.0001V3.74389Z" fill="#00EBC7"/>
<path d="M14.9998 175.867H16.1554V181.448H21.7368V182.604H14.9998V175.867Z" fill="#00EBC7"/>
<path d="M121.375 171.757C125.448 171.757 128.75 168.453 128.75 164.378C128.75 160.303 125.448 157 121.375 157C117.302 157 114 160.303 114 164.378C114 168.453 117.302 171.757 121.375 171.757Z" fill="#BEFFFF"/>
<path d="M119 161C120.6 163.4 171.333 213.667 196.5 238.5H301.5" stroke="#BEFFFF" stroke-width="3"/>
<path style="mix-blend-mode:color-dodge" d="M121 219C158.555 219 189 190.794 189 156C189 121.206 158.555 93 121 93C83.4446 93 53 121.206 53 156C53 190.794 83.4446 219 121 219Z" fill="url(#paint0_radial_9_3)"/>
<g filter="url(#filter0_d_9_3)">
<path d="M154.306 149.221L154.456 148.65L153.261 148.229L153.209 149.041L154.306 149.221Z" fill="#00B1FF"/>
<path d="M172.688 122.53L172.913 123.259C173.642 125.603 174.634 128.818 174.025 130.238L173.8 130.771L173.499 130.275C173.109 129.622 172.598 129.006 172.38 128.9C172.32 129.043 172.207 129.652 172.695 131.95C172.883 132.544 173.74 135.353 173.131 136.195C172.996 136.383 172.801 136.48 172.575 136.48C172.275 136.48 171.907 136.3 171.456 135.932C171.554 136.931 171.614 138.546 171.08 139.17C170.757 139.553 170.261 139.568 169.683 139.177C169.54 140.003 169.383 141.799 170.367 143.091C171.14 144.113 172.493 144.631 174.371 144.631H174.573C174.573 144.631 178.149 144.961 181.68 146.208L181.83 146.261L182.056 147.102L152.931 148.973L172.703 122.53H172.688ZM174.521 145.224H174.356C172.282 145.224 170.78 144.631 169.878 143.451C168.398 141.498 169.157 138.689 169.195 138.569L169.322 138.103L169.676 138.426C170.104 138.816 170.337 138.869 170.442 138.869C170.487 138.869 170.547 138.862 170.615 138.779C171.05 138.276 170.93 136.322 170.757 135.211L170.615 134.309L171.261 134.955C172.094 135.789 172.448 135.879 172.56 135.879C172.598 135.879 172.613 135.872 172.635 135.842C172.958 135.398 172.523 133.4 172.109 132.116V132.086C171.539 129.411 171.696 128.765 171.922 128.48C172.019 128.352 172.162 128.284 172.32 128.284C172.733 128.284 173.229 128.848 173.597 129.359C173.695 127.961 172.973 125.527 172.448 123.807L154.14 148.289L180.891 146.569C177.736 145.54 174.731 145.239 174.506 145.217L174.521 145.224Z" fill="#00B1FF"/>
<path d="M172.958 122.635L172.741 122.455L174.709 119.818L174.626 120.84C174.513 122.222 174.175 122.891 173.574 122.891C173.372 122.891 173.169 122.8 172.958 122.628V122.635ZM173.597 122.297C173.642 122.282 173.717 122.207 173.792 122.042L173.597 122.297Z" fill="#00B1FF"/>
<path d="M154.306 149.221L152.067 148.432L181.883 146.516L183.881 154.051L154.313 149.213L154.306 149.221ZM155.47 148.808L183.062 153.323L181.425 147.14L155.462 148.808H155.47Z" fill="#00B1FF"/>
<path d="M143.255 136.36L152.803 130.253L153.877 149.544L143.248 136.368L143.255 136.36ZM144.134 136.503L153.186 147.734L152.27 131.297L144.134 136.503Z" fill="#00B1FF"/>
<path d="M152.225 130.621L173.988 116.701L174.641 119.165V119.232C174.671 119.803 174.664 120.367 174.626 120.847V120.93L173.199 122.831L172.958 122.635C172.846 122.545 172.733 122.425 172.613 122.29C172.688 122.56 172.778 122.846 172.853 123.086L172.898 123.229L153.276 149.469L152.225 130.621ZM171.884 121.14C171.944 121.058 172.049 121.005 172.155 121.005C172.357 121.005 172.515 121.148 172.868 121.644C172.951 121.764 173.033 121.869 173.109 121.952L174.04 120.705C174.07 120.276 174.078 119.781 174.055 119.277L173.619 117.632L152.833 130.929L153.78 147.801L172.245 123.108C171.779 121.606 171.734 121.336 171.884 121.133V121.14Z" fill="#00B1FF"/>
<path d="M153.795 149.138L153.862 148.222L151.939 148.838L153.795 149.138Z" fill="#00B1FF"/>
<path d="M129.493 145.164L143.758 136.045L154.035 148.793L153.231 149.048L129.493 145.164ZM131.115 144.826L152.953 148.395L143.623 136.818L131.115 144.819V144.826Z" fill="#00B1FF"/>
<path d="M183.25 153.247L187.201 155.208L186.368 155.388C185.511 155.569 184.437 155.696 183.182 155.756L182.814 155.779L183.25 153.247ZM183.701 154.134L183.528 155.14C184.204 155.103 184.82 155.035 185.368 154.96L183.701 154.134Z" fill="#00B1FF"/>
<path d="M196.472 79.9734L197.275 78.6362L194.458 78.5386L195.33 79.117C195.48 79.2147 195.615 79.3424 195.75 79.4626C195.908 79.6053 196.058 79.7405 196.224 79.8307L196.479 79.9734H196.472Z" fill="#00B1FF"/>
<path d="M179.945 78.0128L195.307 78.5687L193.654 79.1547C191.348 79.966 185.226 82.1295 183.1 91.1892L182.784 92.5264L179.945 78.0128ZM180.673 78.6363L182.859 89.7995C184.948 82.7004 189.523 80.1463 192.242 79.0495L180.673 78.6363Z" fill="#00B1FF"/>
<path d="M173.259 109.008L173.935 111.855C174.235 113.117 174.671 114.582 174.987 115.589L175.024 115.717L173.537 118.196L173.251 109.016L173.259 109.008ZM174.018 114.44L174.07 116.152L174.378 115.634C174.265 115.273 174.138 114.868 174.018 114.44Z" fill="#00B1FF"/>
<path d="M175.881 111.577C175.084 110.623 173.995 109.587 173.619 109.587L173.281 109.647L173.251 108.708L175.633 108.069L175.7 108.37C175.911 109.301 176.144 110.293 176.399 111.314L176.714 112.576L175.881 111.577ZM174.048 109.106C174.513 109.324 175.077 109.827 175.535 110.308C175.407 109.797 175.295 109.294 175.182 108.805L174.048 109.113V109.106Z" fill="#00B1FF"/>
<path d="M173.079 103.186L172.297 77.7349L180.561 78.0353L183.122 91.1291L183.107 91.1892C182.98 91.7451 182.874 92.2259 182.799 92.6992L182.784 92.7517C182.724 92.9095 181.996 94.4119 175.678 97.507L175.573 97.552L175.467 97.5295C175.467 97.5295 175.452 97.5295 175.43 97.5295C175.347 97.5295 175.227 97.5595 175.092 97.7173C174.761 98.0929 174.273 99.3024 174.754 103.149L174.806 103.569L173.079 103.186ZM175.497 96.9435C181.162 94.1565 182.123 92.7217 182.213 92.5639C182.289 92.1057 182.386 91.6474 182.506 91.1216L180.057 78.6138L172.898 78.3584L173.649 102.713L174.108 102.811C173.785 99.9409 173.957 98.0929 174.641 97.3267C174.934 96.9886 175.257 96.9435 175.422 96.9435C175.452 96.9435 175.475 96.9435 175.49 96.9435H175.497Z" fill="#00B1FF"/>
<path d="M173.056 102.57L174.724 102.938L174.754 103.149C174.942 104.628 175.257 106.386 175.693 108.369L175.753 108.647L173.266 109.316L173.056 102.57ZM174.19 103.426L173.68 103.314L173.837 108.55L175.054 108.219C174.664 106.424 174.371 104.809 174.19 103.426Z" fill="#00B1FF"/>
<path d="M49.4429 101.068L47.4672 94.3894L61.4323 87.7711L56.5043 102.39L49.4429 101.068ZM48.1808 94.7049L49.9086 100.549L56.1137 101.706L60.4257 88.8979L48.1808 94.7049Z" fill="#00B1FF"/>
<path d="M51.6139 108.392L53.8901 110.172L52.9586 112.937L51.6139 108.392ZM52.7107 110L52.9961 110.969L53.1915 110.383L52.7032 110.007L52.7107 110Z" fill="#00B1FF"/>
<path d="M51.8994 109.376L49.2551 100.429L56.6997 101.819L53.6797 110.773L51.8994 109.376ZM50.0964 101.188L52.4102 109.023L53.3868 109.789L55.9184 102.277L50.0964 101.188Z" fill="#00B1FF"/>
<path d="M40.3982 70.4706L63.0024 83.1211L61.1769 88.5449L47.6475 94.9603L40.4057 70.4706H40.3982ZM62.2812 83.3991L41.3823 71.7026L48.0156 94.134L60.6961 88.1242L62.2887 83.4066L62.2812 83.3991Z" fill="#00B1FF"/>
<path d="M192.069 48.8354H191.957L190.867 47.7462L208.506 36.7183L215.395 49.6618L192.069 48.8354ZM191.806 47.8513L192.205 48.2495L214.388 49.0307L208.281 37.5521L191.814 47.8513H191.806Z" fill="#00B1FF"/>
<path d="M171.201 24.2705L179.779 17.9528H179.877C180.628 17.9678 181.447 17.9753 182.454 17.9753C183.077 17.9753 183.701 17.9753 184.302 17.9753C184.88 17.9753 185.436 17.9753 185.977 17.9753C188.005 17.9753 191.168 18.2457 193.842 18.6514L194.601 18.7641L173.514 32.8119L171.201 24.2705ZM185.977 18.5612C185.436 18.5612 184.88 18.5612 184.302 18.5612C183.701 18.5612 183.077 18.5612 182.454 18.5612C181.485 18.5612 180.696 18.5612 179.967 18.5387L171.877 24.4959L173.867 31.8428L192.986 19.1021C190.522 18.7641 187.787 18.5387 185.969 18.5387L185.977 18.5612Z" fill="#00B1FF"/>
<path d="M192.821 48.8655L191.318 47.363L190.101 48.7678L192.821 48.8655Z" fill="#00B1FF"/>
<path d="M175.302 48.242L173.304 31.595L191.746 47.7687L190.86 48.7904L175.302 48.242ZM174.078 33.0598L175.828 47.6636L190.597 48.1894L190.913 47.8213L174.078 33.0598Z" fill="#00B1FF"/>
<path d="M193.639 18.689L193.737 18.6289L193.85 18.6439C198.124 19.2975 198.462 19.8309 198.575 20.0112C198.71 20.229 199.116 20.3868 199.702 20.4544L199.86 20.4694L205.126 30.3705L172.598 32.7068L193.639 18.689ZM199.484 21.0253C198.763 20.9201 198.305 20.6948 198.072 20.3267C197.951 20.1464 196.922 19.7182 193.872 19.2449L174.799 31.9555L204.179 29.8446L199.484 21.0253Z" fill="#00B1FF"/>
<path d="M172.966 32.0831L204.825 29.7994L208.784 37.244L191.311 48.1668L172.973 32.0831H172.966ZM204.48 30.4154L174.423 32.5714L191.363 47.4306L207.995 37.0337L204.472 30.4154H204.48Z" fill="#00B1FF"/>
<path d="M166.693 27.5835L171.711 23.8875L174.198 33.0674L166.693 27.5835ZM167.7 27.5835L173.191 31.5875L171.373 24.8791L167.707 27.5835H167.7Z" fill="#00B1FF"/>
<path d="M142.376 47.0775L173.942 31.8804L175.911 48.2645L142.384 47.0775H142.376ZM144.795 46.5742L175.227 47.6485L173.447 32.7743L144.795 46.5667V46.5742Z" fill="#00B1FF"/>
<path d="M167.189 27.2153L174.536 32.579L158.7 33.473L167.189 27.2228V27.2153ZM167.189 27.9515L160.653 32.7668L172.846 32.0832L167.189 27.959V27.9515Z" fill="#00B1FF"/>
<path d="M140.318 47.0024L159.504 32.8719L159.579 32.8194L175.167 31.9404L143.713 47.085L143.646 47.1151L140.318 46.9949V47.0024ZM159.782 33.4053L142.038 46.469L143.518 46.5216L172.215 32.7067L159.782 33.4053Z" fill="#00B1FF"/>
<path d="M196.674 79.9584C196.952 79.9584 197.223 79.8232 197.508 79.5377L197.749 79.2973L196.674 78.4785L195.953 79.6805L196.216 79.8307C196.366 79.9209 196.517 79.9584 196.674 79.9584Z" fill="#00B1FF"/>
<path d="M173.221 117.564L174.431 117.377V117.129C174.431 117.069 174.438 117.031 174.446 117.001C174.506 117.031 174.611 117.091 174.761 117.219L174.866 117.309L175.505 117.211L175.392 116.881C175.302 116.618 175.152 116.16 174.979 115.596L174.784 114.965L173.221 117.572V117.564Z" fill="#00B1FF"/>
<path d="M207.995 37.0337L221.84 28.3796L222.569 40.4217L214.839 49.8795L208.003 37.0262L207.995 37.0337ZM221.307 29.4088L208.777 37.244L214.937 48.8203L221.96 40.2339L221.307 29.4163V29.4088Z" fill="#00B1FF"/>
<path d="M223.23 18.7642L223.628 19.1623C225.221 20.7699 226.1 23.1212 226.625 24.5335C226.813 25.0293 226.971 25.4575 227.076 25.6153C227.226 25.8482 227.903 26.4867 230.697 28.2145L231.508 28.7178L221.217 29.2136L223.23 18.7717V18.7642ZM226.573 25.9458C226.43 25.728 226.272 25.3148 226.062 24.7439C225.596 23.5044 224.853 21.4986 223.591 20.0112L221.938 28.5826L229.57 28.2145C226.994 26.5768 226.678 26.1111 226.573 25.9458Z" fill="#00B1FF"/>
<path d="M220.653 28.6351L230.607 28.1619L230.682 28.2069C230.99 28.4023 231.313 28.5901 231.636 28.7854L231.929 28.9657L228.143 33.6007L220.653 28.6426V28.6351ZM230.449 28.7628L222.486 29.146L228.015 32.8119L231.028 29.1234C230.832 29.0032 230.637 28.883 230.442 28.7628H230.449Z" fill="#00B1FF"/>
<path d="M221.239 28.3196L228.519 33.1424L222.013 41.1053L221.239 28.3271V28.3196ZM221.9 29.4689L222.509 39.5503L227.64 33.2701L221.9 29.4689Z" fill="#00B1FF"/>
<path d="M199.138 20.3943L199.694 20.4619C199.912 20.4844 200.145 20.4994 200.408 20.4994C200.814 20.4994 201.167 20.4694 201.332 20.4544C202.151 19.7557 204.051 19.5078 205.599 19.5078C206.831 19.5078 207.89 19.6581 208.431 19.906C209.625 20.4619 211.511 20.9502 212.044 21.0854C214.891 18.6514 217.438 17.4194 219.617 17.4194C221.127 17.4194 222.471 18.0054 223.628 19.1698L223.741 19.2825L221.833 29.1835L204.487 30.4306L199.153 20.4093L199.138 20.3943ZM223.087 19.4703C222.081 18.5012 220.909 18.0054 219.609 18.0054C217.551 18.0054 215.094 19.2224 212.307 21.6263L212.195 21.7239L212.044 21.6864C211.947 21.6638 209.625 21.1079 208.176 20.4318C207.725 20.2215 206.711 20.0863 205.599 20.0863C203.766 20.0863 202.188 20.4318 201.67 20.9351L201.602 21.0028L201.505 21.0178C201.505 21.0178 201.009 21.0779 200.415 21.0779C200.34 21.0779 200.258 21.0779 200.183 21.0779L204.825 29.792L221.329 28.6051L223.095 19.4628L223.087 19.4703Z" fill="#00B1FF"/>
<path d="M204.172 29.8446L222.742 28.5074L208.273 37.5521L204.172 29.8371V29.8446ZM205.126 30.3705L208.506 36.7183L220.413 29.2737L205.133 30.3705H205.126Z" fill="#00B1FF"/>
<path d="M206.177 62.9884L214.786 48.9406L223.395 54.1014L224.567 73.4754L224.184 73.3927C223.914 73.3326 223.177 73.1899 222.088 73.1899C220.556 73.1899 219.001 73.4604 217.476 74.0012L217.303 74.0613L206.177 62.9884ZM223.929 72.7392L222.824 54.4545L214.989 49.7594L206.929 62.9057L217.461 73.3852C218.993 72.8669 220.548 72.604 222.088 72.604C222.892 72.604 223.523 72.6791 223.929 72.7467V72.7392Z" fill="#00B1FF"/>
<path d="M225.514 74.5196C225.469 74.2642 225.206 73.3176 224.74 73.3176C224.665 73.3176 224.575 73.3402 224.477 73.3927L224.379 73.4453L223.959 73.3477L222.772 53.7408L246.555 67.999L245.661 68.0891C245.286 68.1267 244.918 68.1567 244.565 68.1868C242.348 68.3821 240.591 68.5399 239.103 69.554C236.361 71.417 234.356 73.6331 234.333 73.6557L234.07 73.9411L233.86 73.6181C233.8 73.5205 233.679 73.4078 233.664 73.3927C233.664 73.3927 233.492 73.5129 233.394 74.3844C233.364 74.6623 233.319 75.1206 232.951 75.1206C232.665 75.1206 232.545 74.8426 232.32 74.3393C232.162 73.9937 231.801 73.1899 231.561 73.1899C231.531 73.1899 231.291 73.2125 230.915 74.1289L230.892 74.1665C230.892 74.1665 230.502 74.805 229.781 74.805C229.059 74.805 228.338 74.2116 227.587 73.0397C227.504 72.9045 227.256 72.619 227.054 72.619C226.798 72.619 226.415 73.1223 226.107 74.5271L225.784 75.9995L225.521 74.5196H225.514ZM231.553 72.604C232.169 72.604 232.538 73.4003 232.838 74.0613C232.906 73.5655 233.078 72.8068 233.642 72.8068C233.83 72.8068 233.995 72.9045 234.123 73.0171C234.731 72.3786 236.512 70.6057 238.773 69.0657C240.395 67.9614 242.213 67.8037 244.52 67.5933C244.587 67.5933 244.647 67.5858 244.715 67.5783L223.448 54.8226L224.53 72.7542C224.605 72.7392 224.68 72.7317 224.755 72.7317C225.251 72.7317 225.574 73.0847 225.784 73.4679C226.107 72.5063 226.528 72.0406 227.054 72.0406C227.647 72.0406 228.045 72.6716 228.09 72.7392C228.706 73.7007 229.307 74.2266 229.788 74.2266C230.134 74.2266 230.336 73.9562 230.389 73.8886C230.622 73.3326 230.998 72.6115 231.576 72.6115L231.553 72.604Z" fill="#00B1FF"/>
<path d="M204.818 79.3124L204.727 79.2223C204.412 78.8993 204.284 78.3659 204.194 77.8926C204.194 77.8701 204.194 77.8551 204.179 77.8401C204.021 77.9001 203.593 78.2232 202.864 79.1697L202.774 79.2899L201.647 79.2749L201.565 79.1922C201.272 78.8993 200.994 78.734 200.806 78.734C200.753 78.734 200.626 78.734 200.483 78.9969C200.453 79.0495 200.43 79.0946 200.4 79.1321L200.31 79.2599L199.304 79.2448L199.131 79.1021C198.928 78.9293 198.71 78.749 198.492 78.749C198.312 78.749 198.102 78.8767 197.869 79.1246L197.779 79.2223L196.224 79.2073L200.663 71.973L212.991 76.4578L212.503 76.8484C211.443 77.5921 210.106 78.4711 209.753 78.4711H209.415L209.46 78.133C209.49 77.9001 209.475 77.502 209.347 77.3593C209.325 77.3292 209.287 77.3067 209.212 77.3067C209.047 77.3067 208.649 77.4194 207.822 78.1706C207.229 78.7115 206.726 79.0796 206.29 79.2974L206.222 79.3275L204.803 79.3124H204.818ZM209.806 76.9686C209.986 77.179 210.054 77.472 210.069 77.7199C210.474 77.4945 211.143 77.0663 211.774 76.6306L200.926 72.6867L197.29 78.6213H197.538C197.861 78.3058 198.169 78.1556 198.5 78.1556C198.936 78.1556 199.259 78.426 199.521 78.6514H199.995C200.25 78.2307 200.581 78.1405 200.814 78.1405C201.144 78.1405 201.512 78.3283 201.903 78.6889H202.496C203.638 77.2391 204.066 77.2391 204.232 77.2391C204.337 77.2391 204.69 77.2766 204.788 77.7875C204.848 78.1105 204.93 78.4936 205.088 78.7265L206.102 78.7415C206.47 78.5462 206.921 78.2081 207.432 77.7349C208.183 77.0513 208.769 76.7132 209.22 76.7132C209.453 76.7132 209.655 76.8034 209.806 76.9686Z" fill="#00B1FF"/>
<path d="M200.355 72.4837L206.493 62.47L217.919 73.8434L217.476 74.0012C215.77 74.6022 214.125 75.5412 212.593 76.7807L212.465 76.8859L200.355 72.4837ZM206.605 63.424L201.242 72.1757L212.352 76.2173C213.765 75.0905 215.275 74.2115 216.837 73.603L206.605 63.424Z" fill="#00B1FF"/>
<path d="M222.516 39.5503L223.102 49.2335L214.238 49.6842L222.516 39.5578V39.5503ZM222.013 41.0978L215.537 49.0157L222.471 48.6701L222.013 41.0978Z" fill="#00B1FF"/>
<path d="M227.647 33.2701L231.418 28.6576L231.636 28.7928C234.153 30.3103 236.835 31.7827 237.143 31.9554C244.715 34.134 244.257 39.062 244.084 40.0461C245.737 41.7063 249.898 43.9674 256.787 46.9648L257.944 47.4681L249.71 47.8813L227.647 33.2626V33.2701ZM243.543 40.3391L243.43 40.2189L243.475 40.0611C243.49 40.0085 244.82 34.765 236.947 32.5113L236.887 32.4888C236.887 32.4888 234.16 30.9939 231.554 29.4313L228.526 33.1349L249.883 47.2803L255.405 47.0024C248.974 44.1553 245.09 41.9692 243.55 40.3391H243.543Z" fill="#00B1FF"/>
<path d="M221.96 40.2264L228.023 32.8119L250.71 47.8363L222.509 49.2636L221.96 40.2264ZM228.143 33.6007L222.569 40.4217L223.065 48.6401L248.877 47.3405L228.143 33.6082V33.6007Z" fill="#00B1FF"/>
<path d="M213.9 49.0983L223.065 48.6326L223.44 54.8151L213.9 49.0908V49.0983ZM215.876 49.5941L222.779 53.7333L222.509 49.2636L215.876 49.5941Z" fill="#00B1FF"/>
<path d="M248.877 47.333L256.719 46.9348L256.787 46.9649C257.966 47.4757 259.033 47.9339 259.912 48.302C260.348 48.4898 260.723 48.6476 261.046 48.7828C261.76 49.0908 262.181 49.5491 262.301 50.1575C262.511 51.2243 261.73 52.6591 259.987 54.4094L259.814 54.5822L248.877 47.3405V47.333ZM250.71 47.8363L259.732 53.816C261.167 52.3361 261.873 51.0815 261.715 50.2702C261.64 49.8646 261.339 49.5566 260.806 49.3312C260.483 49.196 260.1 49.0307 259.672 48.8504C258.815 48.4898 257.764 48.0391 256.607 47.5433L250.702 47.8438L250.71 47.8363Z" fill="#00B1FF"/>
<path d="M222.824 54.4546L222.471 48.6702L249.876 47.288L260.243 54.1541L259.987 54.4095C259.476 54.9204 259.026 55.3185 258.778 55.5288C259.063 56.1073 259.732 57.6999 259.168 59.007C258.823 59.8183 258.079 60.3592 256.96 60.6221C256.562 60.7123 256.178 60.8024 255.818 60.885C254.376 61.2156 253.008 61.5386 252.61 61.764C252.685 61.809 252.828 61.8766 253.061 61.9593C254.083 62.3199 255.104 63.1537 255.067 64.1904C255.037 65.0167 254.315 66.1962 251.018 67.1202C248.944 67.6986 247.149 67.9315 245.661 68.0742H245.564L222.817 54.4396L222.824 54.4546ZM249.718 47.8889L223.11 49.2336L223.403 54.109L245.714 67.4883C247.156 67.3455 248.884 67.1202 250.867 66.5643C253.97 65.6928 254.466 64.7012 254.481 64.1829C254.503 63.4467 253.662 62.8082 252.866 62.5302C252.37 62.3574 251.919 62.1396 251.942 61.7489C251.972 61.2005 252.805 60.9827 255.69 60.3141C256.051 60.2315 256.426 60.1413 256.824 60.0512C257.748 59.8333 258.357 59.4051 258.627 58.7816C259.198 57.4595 258.162 55.6265 258.154 55.604L258.026 55.3861L258.222 55.2284C258.222 55.2284 258.71 54.8302 259.311 54.2518L249.718 47.8964V47.8889Z" fill="#00B1FF"/>
<path d="M205.464 79.5303C205.712 79.5303 205.989 79.4551 206.305 79.2974L207.387 78.749L204.239 78.7114L204.735 79.2223C204.93 79.4251 205.178 79.5303 205.471 79.5303H205.464Z" fill="#00B1FF"/>
<path d="M202.248 80.0336L202.489 79.688C202.489 79.688 202.647 79.4627 202.872 79.1697L203.232 78.6964L201.046 78.6664L201.572 79.1847C201.82 79.4326 202 79.688 202.008 79.688L202.256 80.0336H202.248Z" fill="#00B1FF"/>
<path d="M199.845 79.4701C200.062 79.4701 200.25 79.3499 200.408 79.1245L200.723 78.6663L198.582 78.6362L199.236 79.1771C199.409 79.3198 199.612 79.4701 199.852 79.4701H199.845Z" fill="#00B1FF"/>
<path d="M197.328 79.718L197.508 79.5377C197.591 79.4551 197.673 79.3649 197.764 79.2598C197.801 79.2072 197.839 79.1696 197.876 79.1245L198.327 78.6363L195.871 78.6062L197.328 79.718Z" fill="#00B1FF"/>
<path d="M160.42 76.3526L166.618 71.6725L173.462 78.4861L160.42 76.3526ZM161.885 75.992L171.734 77.5996L166.565 72.4538L161.885 75.992Z" fill="#00B1FF"/>
<path d="M145.757 73.9561L142.421 55.356L152.638 57.7373L167.046 72.0931L161.232 76.4878L145.757 73.9561ZM152.337 58.2782L143.165 56.1372L146.268 73.4378L161.074 75.8567L166.137 72.0255L152.337 58.2707V58.2782Z" fill="#00B1FF"/>
<path d="M142.541 55.9871L141.054 47.7161L142.083 47.2203L153.442 58.5337L142.541 55.9871ZM141.723 48.0542L143.06 55.4988L151.549 57.482L141.971 47.934L141.73 48.0542H141.723Z" fill="#00B1FF"/>
<path d="M141.159 48.3171L142.526 47.6635L140.724 45.8606L141.159 48.3171Z" fill="#00B1FF"/>
<path d="M182.514 153.548L189.072 152.489L189.162 152.707C189.335 153.12 189.32 153.54 189.125 153.916C188.772 154.585 187.848 155.08 186.368 155.388L186.27 155.411L182.514 153.548ZM184.437 153.841L186.345 154.787C187.885 154.442 188.426 153.976 188.599 153.638C188.681 153.488 188.704 153.323 188.681 153.157L184.437 153.841Z" fill="#00B1FF"/>
<path d="M139.176 7.4958L139.912 7.39815C142.399 7.06761 145.005 7 146.756 7C148.641 7 149.964 7.07512 149.956 7.07512C151.999 7.07512 156.89 7.99161 160.894 9.96732L161.908 10.4706L144.54 11.4172L139.176 7.50332V7.4958ZM149.941 7.66859C149.941 7.66859 148.626 7.59346 146.756 7.59346C145.193 7.59346 142.947 7.65356 140.731 7.90146L144.72 10.8162L159.549 10.0124C155.74 8.36722 151.526 7.6761 149.933 7.6761L149.941 7.66859Z" fill="#00B1FF"/>
<path d="M128.832 11.605L128.989 11.5374C130.92 10.6885 132.738 9.79453 134.105 9.02828C135.42 8.29209 137.373 7.7437 139.912 7.40565L140.032 7.39062L145.486 11.3721L128.772 12.2811L128.832 11.6125V11.605ZM139.875 8.00663C137.471 8.33716 135.63 8.84799 134.398 9.53911C133.271 10.1701 131.844 10.8838 130.304 11.5899L143.788 10.8613L139.875 8.00663Z" fill="#00B1FF"/>
<path d="M181.432 147.148L183.701 147.005L182.461 146.516C182.198 146.411 181.928 146.314 181.665 146.216L181.139 146.028L181.432 147.148Z" fill="#00B1FF"/>
<path d="M181.282 146.561L182.409 146.486L182.469 146.509C186.105 147.944 188.283 149.889 188.944 152.308C188.997 152.383 189.087 152.519 189.162 152.699L189.305 153.044L183.258 154.021L181.282 146.554V146.561ZM188.388 152.526C187.802 150.288 185.752 148.455 182.311 147.087L182.041 147.102L183.693 153.352L188.411 152.594L188.388 152.526Z" fill="#00B1FF"/>
<path d="M174.761 121.952L174.649 119.225C174.626 118.631 174.566 118.06 174.491 117.617C174.468 117.489 174.453 117.384 174.446 117.287L174.431 117.099L173.364 116.686L174.761 121.959V121.952Z" fill="#00B1FF"/>
<path d="M201.347 58.1806L215.861 48.3322L206.605 63.4242L201.339 58.1806H201.347ZM202.271 58.2633L206.493 62.4701L213.915 50.368L202.271 58.2708V58.2633Z" fill="#00B1FF"/>
<path d="M195.397 79.1622L195.33 79.1171C194.939 78.8542 194.548 78.8316 194.053 79.0194L193.805 79.1096L180.072 78.6138L179.036 73.3252L187.893 67.3154L201.257 72.1758L196.937 79.2147L195.405 79.1622H195.397ZM187.968 67.9765L179.689 73.5956L180.561 78.0353L193.707 78.5086L193.842 78.456C194.496 78.2156 195.059 78.2532 195.585 78.5762L196.599 78.6138L200.355 72.4838L187.96 67.9765H187.968Z" fill="#00B1FF"/>
<path d="M187.277 67.7211L201.843 57.8351L206.929 62.8983L200.926 72.6867L187.277 67.7211ZM201.775 58.6013L188.576 67.5559L200.678 71.958L206.185 62.9809L201.783 58.6013H201.775Z" fill="#00B1FF"/>
<path d="M171.681 78.3058L179.562 72.9572L180.673 78.6289L171.681 78.3058ZM173.514 77.78L179.945 78.0129L179.148 73.9563L173.514 77.78Z" fill="#00B1FF"/>
<path d="M175.933 118.436L175.325 116.633L174.281 116.798L174.769 117.219C174.889 117.324 174.979 117.422 174.987 117.429L175.933 118.443V118.436Z" fill="#00B1FF"/>
<path d="M174.483 117.752L174.446 117.279C174.446 117.219 174.446 117.166 174.446 117.121V116.768L172.68 117.046L174.483 117.752Z" fill="#00B1FF"/>
<path d="M191.333 48.2194L215.808 49.0833L201.775 58.6087L191.333 48.2194ZM192.821 48.8654L201.843 57.8425L213.967 49.6166L192.821 48.8654Z" fill="#00B1FF"/>
<path d="M177.083 63.3866L188.569 67.5634L179.148 73.9563L177.075 63.3866H177.083ZM177.864 64.3031L179.562 72.9646L187.277 67.7286L177.864 64.3031Z" fill="#00B1FF"/>
<path d="M176.97 63.9724L190.604 48.1893L192.205 48.2494L202.271 58.2707L187.96 67.9764L176.962 63.9724H176.97ZM191.957 48.8354L190.867 48.7978L177.984 63.717L187.885 67.3154L201.347 58.1805L191.957 48.8354Z" fill="#00B1FF"/>
<path d="M175.235 47.6484L191.363 48.2194L177.255 64.5434L175.227 47.6484H175.235ZM175.903 48.2644L177.691 63.1386L190.109 48.7678L175.911 48.2644H175.903Z" fill="#00B1FF"/>
<path d="M166.145 72.033L177.676 63.3188L179.689 73.5955L172.568 78.4259L166.152 72.033H166.145ZM177.278 64.363L167.046 72.0931L172.635 77.6596L179.028 73.3251L177.278 64.3706V64.363Z" fill="#00B1FF"/>
<path d="M151.541 57.4819L178.157 63.6945L166.565 72.4537L151.541 57.4819ZM153.442 58.5336L166.626 71.665L176.797 63.98L153.449 58.5261L153.442 58.5336Z" fill="#00B1FF"/>
<path d="M152.42 58.3007L152.337 58.2782L141.512 47.4907L143.518 46.5216L175.828 47.6635L177.811 64.2203L152.413 58.2932L152.42 58.3007ZM143.646 47.1301L142.526 47.671L152.638 57.7448L177.128 63.4616L175.302 48.2494L143.646 47.1301Z" fill="#00B1FF"/>
<path d="M140.438 46.4165L144.795 46.5743L141.963 47.9415L140.438 46.424V46.4165ZM141.925 47.0626L142.083 47.2203L142.376 47.0776L141.925 47.0626Z" fill="#00B1FF"/>
<path d="M168.834 15.5264L169.42 15.8118C171.922 17.0363 174.003 17.4119 174.04 17.4119C175.347 17.7199 177.203 17.8852 179.885 17.9453L180.756 17.9678L171.366 24.879L168.834 15.5264ZM173.927 17.9979C173.845 17.9829 172.057 17.6673 169.751 16.6231L171.719 23.8874L179.013 18.5162C176.745 18.4411 175.114 18.2758 173.927 17.9979Z" fill="#00B1FF"/>
<path d="M143.789 10.8613L160.826 9.93726L160.894 9.97482C162.516 10.7786 163.854 11.6801 164.868 12.6642C166.137 13.9037 167.67 14.9629 169.42 15.8193L169.54 15.8794L171.884 24.5109L167.197 27.959L143.789 10.8688V10.8613ZM169.037 16.2851C167.287 15.4136 165.739 14.3319 164.455 13.0849C163.501 12.1609 162.246 11.3045 160.706 10.5382L145.486 11.3646L167.197 27.2153L171.201 24.263L169.037 16.2851Z" fill="#00B1FF"/>
<path d="M128.689 11.68L144.727 10.8086L167.7 27.5833L159.789 33.4053L136.689 34.7049L128.689 11.68ZM166.693 27.5833L144.547 11.4171L129.508 12.2359L137.103 34.0964L159.579 32.8343L166.693 27.5908V27.5833Z" fill="#00B1FF"/>
<path d="M136.487 34.1266L160.661 32.7668L141.032 47.2203L136.487 34.1266ZM137.305 34.6749L141.332 46.2663L158.708 33.473L137.305 34.6749Z" fill="#00B1FF"/>
<path d="M152.473 158.566L153.254 148.447L154.403 148.635L175.693 156.155L174.198 156.23C171.403 156.373 169.751 156.44 169.27 156.44C169.097 156.44 169.097 156.44 169.037 156.823C168.887 157.785 168.616 159.565 162.434 160.144C162.404 160.144 159.331 160.196 155.305 160.196H155.222L152.48 158.559L152.473 158.566ZM162.396 159.558C168.09 159.024 168.323 157.537 168.444 156.741C168.504 156.365 168.579 155.854 169.262 155.854C169.638 155.854 170.78 155.809 172.665 155.719L154.283 149.221L153.795 149.138L153.089 158.243L155.372 159.61C159.324 159.61 162.336 159.558 162.381 159.558H162.396Z" fill="#00B1FF"/>
<path d="M154.253 149.206L154.403 148.635L183.813 153.443L183.415 155.742L183.077 155.757C183.002 155.757 182.927 155.764 182.852 155.764C182.807 155.764 178.059 156.035 174.19 156.23H174.13L154.253 149.198V149.206ZM183.13 153.931L157.588 149.754L174.22 155.636C178.074 155.441 182.769 155.186 182.822 155.178H182.912L183.13 153.931Z" fill="#00B1FF"/>
<path d="M141.67 152.121L153.119 148.455L153.186 148.432L153.84 148.537L153.036 158.897L141.67 152.113V152.121ZM143.105 152.286L152.518 157.905L153.201 149.056L143.097 152.286H143.105Z" fill="#00B1FF"/>
<path d="M128.817 144.451L154.478 148.65L142.354 152.526L128.817 144.451ZM131.799 145.54L142.429 151.88L151.947 148.83L131.799 145.532V145.54Z" fill="#00B1FF"/>
<path d="M132.197 65.0618L137.343 54.1616L143.052 55.4913L146.343 73.8285L134.436 81.5811L132.197 65.0543V65.0618ZM142.541 55.9871L137.681 54.8527L132.813 65.1595L134.902 80.582L145.689 73.5581L142.541 55.9946V55.9871Z" fill="#00B1FF"/>
<path d="M137.088 54.7175L140.198 48.1293L141.61 47.4457L143.165 56.1373L137.08 54.7175H137.088ZM140.648 48.5725L137.937 54.3043L142.429 55.356L141.167 48.3246L140.648 48.5725Z" fill="#00B1FF"/>
<path d="M139.792 48.9782L141.715 48.0542L141.31 45.778L139.792 48.9782Z" fill="#00B1FF"/>
<path d="M122.221 86.1786L132.663 64.0852L134.992 81.2355L124.865 87.8313L122.229 86.1786H122.221ZM132.34 66.1436L122.98 85.9532L124.843 87.1251L134.338 80.9426L132.332 66.1511L132.34 66.1436Z" fill="#00B1FF"/>
<path d="M122.476 85.6377L125.406 87.4707L119.93 91.039L122.484 85.6377H122.476ZM122.724 86.4941L121.35 89.3938L124.294 87.4782L122.724 86.4941Z" fill="#00B1FF"/>
<path d="M98.505 14.5574L99.6994 14.7602C100.413 14.8804 101.142 15.0006 101.878 15.1133L102.306 15.1809L101.397 16.7509L98.505 14.5649V14.5574ZM100.789 15.5415L101.217 15.8645L101.352 15.6241C101.164 15.5941 100.969 15.564 100.781 15.534L100.789 15.5415Z" fill="#00B1FF"/>
<path d="M161.074 75.8568L174.115 77.9903L151.12 83.3765L161.074 75.8568ZM161.232 76.4803L153.72 82.1595L171.08 78.0954L161.239 76.4878L161.232 76.4803Z" fill="#00B1FF"/>
<path d="M134.346 80.935L145.945 73.3777L161.878 75.9844L152.54 83.0384L135.172 87.11L134.338 80.935H134.346ZM160.421 76.3525L146.08 74.0087L134.984 81.2354L135.683 86.3963L152.292 82.505L160.421 76.36V76.3525Z" fill="#00B1FF"/>
<path d="M124.302 87.4781L134.902 80.5819L135.765 86.9823L126.841 89.0707L124.302 87.4781ZM134.436 81.5885L125.406 87.4706L126.946 88.4322L135.104 86.5241L134.436 81.5885Z" fill="#00B1FF"/>
<path d="M124.85 87.1251L127.652 88.883L119.058 90.8962L124.85 87.1251ZM124.85 87.8313L122.213 89.544L126.127 88.6276L124.85 87.8313Z" fill="#00B1FF"/>
<path d="M139.296 131.462L151.887 113.981L152.833 130.936L143.623 136.826L139.296 131.462ZM151.391 115.686L140.04 131.44L143.751 136.037L152.225 130.621L151.391 115.686Z" fill="#00B1FF"/>
<path d="M151.331 114.612L163.132 111.435L174.393 117.144L152.255 131.304L151.323 114.612H151.331ZM163.072 112.066L151.954 115.063L152.803 130.26L173.206 117.204L163.072 112.066Z" fill="#00B1FF"/>
<path d="M136.494 97.9202L140.971 100.189L152.007 114.83L139.439 132.273L136.487 97.9202H136.494ZM140.581 100.662L137.178 98.9343L139.897 130.628L151.271 114.838L140.581 100.662Z" fill="#00B1FF"/>
<path d="M139.769 99.5803L163.929 111.825L151.526 115.168L139.769 99.5803ZM141.783 101.271L151.759 114.5L162.276 111.66L141.783 101.271Z" fill="#00B1FF"/>
<path d="M129.921 144.518L139.657 130.959L144.127 136.503L130.086 145.487L129.913 144.526L129.921 144.518ZM139.687 131.935L130.785 144.338L143.255 136.36L139.687 131.935Z" fill="#00B1FF"/>
<path d="M127.675 131.77L140.28 131.116L130.071 145.33L127.675 131.763V131.77ZM128.374 132.326L130.409 143.842L139.078 131.77L128.381 132.326H128.374Z" fill="#00B1FF"/>
<path d="M120.245 89.6866L132.866 96.087L121.898 99.0694L120.245 89.6942V89.6866ZM121.034 90.7534L122.371 98.3182L131.221 95.9143L121.034 90.7534Z" fill="#00B1FF"/>
<path d="M126.623 125.843L121.793 98.4761L132.077 95.6815L137.118 98.2357L140.01 131.928L126.623 125.843ZM132.009 96.3125L122.469 98.9042L127.149 125.43L139.326 130.966L136.547 98.6113L132.002 96.3125H132.009Z" fill="#00B1FF"/>
<path d="M126.495 125.137L140.896 131.687L127.772 132.364L126.495 125.137ZM127.277 126.143L128.261 131.748L138.432 131.222L127.269 126.143H127.277Z" fill="#00B1FF"/>
<path d="M115.873 27.7938L122.033 14.2192L122.161 14.1817C124.167 13.5131 126.353 12.6792 128.471 11.7627L129.305 11.62L137.313 34.6674L125.744 35.321L115.881 27.7938H115.873ZM128.899 12.2886L128.666 12.3261C126.586 13.2201 124.445 14.0464 122.469 14.7075L116.609 27.6135L125.924 34.72L136.487 34.1265L128.899 12.2886Z" fill="#00B1FF"/>
<path d="M125.008 34.7726L137.095 34.089L141.783 47.5734L125.008 34.7726ZM126.646 35.2759L140.573 45.9057L136.682 34.7125L126.638 35.2759H126.646Z" fill="#00B1FF"/>
<path d="M100.571 16.1199L104.582 15.4888H104.627C108.459 15.9922 111.576 16.18 113.822 16.0523C115.948 15.9321 118.833 15.286 122.161 14.1817L122.807 13.9639L116.369 28.1619L100.586 16.1124L100.571 16.1199ZM113.845 16.6457C111.569 16.7734 108.436 16.5856 104.582 16.0898L102.028 16.488L116.114 27.2379L121.688 14.9555C118.548 15.9621 115.911 16.5255 113.837 16.6457H113.845Z" fill="#00B1FF"/>
<path d="M162.284 111.66L173.837 108.55L173.86 109.286L173.89 109.534L173.634 109.579C173.634 109.579 173.597 109.632 173.597 109.819C173.597 110.233 173.71 110.924 173.935 111.855L174.123 117.662L162.284 111.66ZM173.003 109.812C173.003 109.624 173.034 109.474 173.079 109.369L163.929 111.833L173.492 116.678L173.349 111.96C173.116 110.984 173.003 110.278 173.003 109.812Z" fill="#00B1FF"/>
<path d="M136.554 98.6187L136.141 93.7809L141.79 101.271L136.554 98.6187ZM137.118 98.2431L139.77 99.5878L136.9 95.7866L137.11 98.2431H137.118Z" fill="#00B1FF"/>
<path d="M135.833 94.9302L152.24 82.5351L152.292 82.4975L172.883 77.6747L173.68 103.314L135.833 94.9302ZM152.548 83.0384L137.215 94.6222L173.056 102.563L172.312 78.4034L152.548 83.0309V83.0384Z" fill="#00B1FF"/>
<path d="M140.648 100.692L140.588 100.662L135.803 94.3218L173.657 102.705L173.852 109.158L163.072 112.066L140.648 100.7V100.692ZM173.079 103.186L137.245 95.2458L140.971 100.196L163.132 111.435L173.244 108.715L173.071 103.194L173.079 103.186Z" fill="#00B1FF"/>
<path d="M135.104 86.5242L153.72 82.1671L136.299 95.3285L135.104 86.5242ZM135.765 86.9824L136.75 94.2467L151.128 83.3841L135.765 86.9824Z" fill="#00B1FF"/>
<path d="M126.127 88.6276L135.683 86.3889L136.9 95.3735L126.127 88.6276ZM127.652 88.883L136.141 94.2016L135.18 87.1176L127.645 88.883H127.652Z" fill="#00B1FF"/>
<path d="M119.78 90.1149L126.946 88.4397L137.253 94.8927L132.009 96.32L119.78 90.1149ZM126.841 89.0707L121.5 90.3253L132.077 95.689L135.788 94.6823L126.833 89.0782L126.841 89.0707Z" fill="#00B1FF"/>
<path d="M131.221 95.9144L136.787 94.4044L137.178 98.9343L131.221 95.9144ZM132.866 96.0796L136.494 97.9201L136.254 95.1632L132.858 96.0871L132.866 96.0796Z" fill="#00B1FF"/>
<path d="M152.66 160.204H152.345L152.518 157.912L156.364 160.211H154.816C154.118 160.211 153.397 160.211 152.653 160.211L152.66 160.204ZM152.983 159.61C153.404 159.61 153.81 159.61 154.215 159.61L153.036 158.904L152.983 159.603V159.61Z" fill="#00B1FF"/>
<path d="M152.66 160.204C146.891 160.181 139.356 160.031 136.224 159.475C135.322 159.317 134.518 159.265 133.82 159.22C131.807 159.099 130.357 159.009 129.343 156.395L129.23 156.102L142.429 151.88L153.096 158.243L152.946 160.196H152.668L152.66 160.204ZM142.346 152.534L130.011 156.478C130.868 158.453 131.949 158.513 133.85 158.634C134.571 158.679 135.382 158.731 136.321 158.897C139.364 159.43 146.681 159.58 152.382 159.61L152.465 158.573L142.346 152.534Z" fill="#00B1FF"/>
<path d="M129.343 156.395C128.712 154.772 128.223 152.121 127.757 147.794L127.742 147.673L130.236 144.608L143.105 152.286L129.44 156.658L129.343 156.395ZM130.372 145.382L128.358 147.861C128.794 151.828 129.237 154.344 129.801 155.922L141.678 152.121L130.379 145.382H130.372Z" fill="#00B1FF"/>
<path d="M99.1886 67.2928L101.179 69.3812L97.4984 71.3795L99.1886 67.3004V67.2928ZM99.3914 68.3596L98.6853 70.0573L100.21 69.231L99.3839 68.3671L99.3914 68.3596Z" fill="#00B1FF"/>
<path d="M97.5059 70.6959L100.759 68.9305L109.751 78.3583L97.5059 70.6884V70.6959ZM98.6853 70.7335L106.062 75.3535L100.646 69.6742L98.6853 70.7335Z" fill="#00B1FF"/>
<path d="M93.3141 87.2378L97.9115 70.2527L108.061 76.608L121.425 90.6107L93.3141 87.2378ZM98.2721 71.1842L94.0653 86.7344L119.855 89.8295L107.715 77.0963L98.2721 71.1842Z" fill="#00B1FF"/>
<path d="M77.7488 46.5216L78.2446 45.3347L99.6318 67.7586L98.1744 71.2818L77.7488 46.5141V46.5216ZM78.4399 46.4015V46.4165L98.0017 70.1475L98.9332 67.8938L78.4399 46.4015Z" fill="#00B1FF"/>
<path d="M68.7642 84.2929L98.5501 70.1775L93.9075 87.3128L68.7642 84.2929ZM70.8751 83.9473L93.4718 86.6592L97.6411 71.2592L70.8751 83.9473Z" fill="#00B1FF"/>
<path d="M68.2308 69.1859L78.0117 45.9056L98.7529 71.0565L68.2308 69.1859ZM69.1022 68.6451L97.4307 70.3804L78.1845 47.04L69.1098 68.6451H69.1022Z" fill="#00B1FF"/>
<path d="M62.2136 83.5042L68.4712 68.6075L99.2562 70.4931L69.861 84.4282L62.2061 83.5117L62.2136 83.5042ZM68.8543 69.2235L63.0624 83.0084L69.7633 83.8122L96.9199 70.9363L68.8543 69.216V69.2235Z" fill="#00B1FF"/>
<path d="M126.315 12.6942L129.365 12.2135L129.448 11.327L128.982 11.5299C128.809 11.605 128.636 11.6876 128.456 11.7627L126.308 12.6867L126.315 12.6942Z" fill="#00B1FF"/>
<path d="M101.675 15.0756L101.878 15.1056C102.817 15.2483 103.741 15.3836 104.627 15.4962L106.686 15.7592L100.736 16.6907L101.668 15.0756H101.675ZM101.983 15.7216L101.878 15.9094L102.554 15.8042C102.366 15.7742 102.178 15.7517 101.983 15.7216Z" fill="#00B1FF"/>
<path d="M93.4718 86.6593L122.026 90.0849L89.7383 100.459L93.4718 86.6593ZM93.9076 87.3129L90.5947 99.5653L119.261 90.3553L93.9151 87.3129H93.9076Z" fill="#00B1FF"/>
<path d="M55.9183 102.277L60.6886 88.1242L69.7633 83.8197L94.0578 86.7344L90.3993 100.241L73.7222 105.598L55.9108 102.277H55.9183ZM93.3065 87.2377L69.861 84.4282L61.1619 88.5524L56.6921 101.819L73.6847 104.989L89.911 99.7756L93.3065 87.2377Z" fill="#00B1FF"/>
<path d="M53.3866 109.789L55.5126 111.449L52.5002 112.419L53.3866 109.789ZM53.6796 110.773L53.4392 111.495L54.2656 111.232L53.6796 110.773Z" fill="#00B1FF"/>
<path d="M53.1914 110.383L56.1136 101.706L74.9242 105.214L54.8366 111.667L53.1914 110.383ZM56.5118 102.382L53.89 110.172L54.9568 111.006L72.5128 105.365L56.5193 102.382H56.5118Z" fill="#00B1FF"/>
<path d="M62.4389 82.9332L70.8751 83.9474L60.4257 88.8979L62.4314 82.9332H62.4389ZM62.8446 83.5793L61.4398 87.7636L68.7642 84.2929L62.8446 83.5868V83.5793Z" fill="#00B1FF"/>
<path d="M81.1218 156.493L95.2222 153.112L95.2823 153.413C95.4175 154.074 95.3348 154.63 95.0344 155.058C94.6212 155.651 93.9451 155.771 93.9376 155.771C90.5571 156.658 86.4404 157.154 81.3622 157.274H81.0166L81.1143 156.5L81.1218 156.493ZM83.1651 156.613C87.3719 156.433 90.8651 155.959 93.8174 155.193C93.8174 155.193 94.2756 155.11 94.5461 154.72C94.7038 154.487 94.7714 154.194 94.7414 153.833L83.1651 156.613Z" fill="#00B1FF"/>
<path d="M127.833 148.507L131.093 144.503L129.696 144.841L127.727 147.576L127.833 148.507Z" fill="#00B1FF"/>
<path d="M127.742 147.688C127.675 147.035 127.6 146.351 127.532 145.622L127.51 145.367L130.575 144.631L127.825 148.462L127.742 147.688ZM128.148 145.825C128.178 146.178 128.216 146.524 128.253 146.854L129.162 145.585L128.148 145.825Z" fill="#00B1FF"/>
<path d="M77.6737 157.319L80.333 157.282C80.6786 157.282 81.0241 157.274 81.3622 157.267H81.6176L81.7378 156.343L77.6737 157.319Z" fill="#00B1FF"/>
<path d="M130.499 52.569L137.937 54.3043L132.34 66.1435L130.499 52.569ZM131.206 53.3427L132.663 64.0777L137.088 54.7175L131.206 53.3427Z" fill="#00B1FF"/>
<path d="M129.966 53.0497L141.047 47.7161L137.674 54.8526L129.966 53.0497ZM131.739 52.8544L137.343 54.1615L139.792 48.9706L131.739 52.8469V52.8544Z" fill="#00B1FF"/>
<path d="M123.235 46.1912L141.648 46.4466L140.648 48.565L130.8 53.3052L123.235 46.1912ZM140.716 47.025L124.753 46.7997L130.905 52.5916L140.198 48.1218L140.716 47.025Z" fill="#00B1FF"/>
<path d="M98.9407 67.8938L108.023 45.9883L124.114 46.2136L131.356 53.0272L100.638 69.6817L98.9407 67.9014V67.8938ZM123.874 46.7996L108.421 46.5817L99.6394 67.7661L100.759 68.938L130.357 52.892L123.881 46.7996H123.874Z" fill="#00B1FF"/>
<path d="M107.745 77.1113L100.21 69.2235L131.085 52.4863L132.806 65.1519L122.724 86.4865L107.745 77.1038V77.1113ZM130.62 53.4178L101.179 69.3737L108.091 76.623L122.476 85.6301L132.197 65.0617L130.62 53.4178Z" fill="#00B1FF"/>
<path d="M106.055 75.3535L122.98 85.9532L120.719 90.731L106.055 75.3535ZM109.743 78.3659L120.553 89.7018L122.213 86.1786L109.743 78.3659Z" fill="#00B1FF"/>
<path d="M77.6436 45.5601L108.661 45.9883L99.3839 68.3596L77.6436 45.5601ZM79.0484 46.1761L99.1886 67.2928L107.783 46.5742L79.0559 46.1761H79.0484Z" fill="#00B1FF"/>
<path d="M116.121 27.2454L126.646 35.2759L112.11 36.0947L116.129 27.2454H116.121ZM116.354 28.1694L113.049 35.4487L125 34.7801L116.346 28.1769L116.354 28.1694Z" fill="#00B1FF"/>
<path d="M92.3375 27.373L113.897 35.9745L84.0365 38.0629L92.3375 27.373ZM92.5328 28.0867L85.3211 37.3793L111.268 35.5613L92.5328 28.0867Z" fill="#00B1FF"/>
<path d="M123.874 46.7996L111.877 35.5088L125.925 34.72L142.076 47.0475L123.874 46.7921V46.7996ZM113.289 36.0271L124.114 46.2136L140.288 46.439L125.737 35.336L113.289 36.0346V36.0271Z" fill="#00B1FF"/>
<path d="M107.783 46.5742L112.478 35.2533L124.753 46.8071L107.783 46.5742ZM108.669 45.9957L123.243 46.1986L112.703 36.2825L108.676 45.9957H108.669Z" fill="#00B1FF"/>
<path d="M77.7488 46.161L84.5248 37.4318L113.041 35.4336L108.421 46.5817L77.7488 46.161ZM84.8328 38.0103L78.9507 45.5826L108.023 45.9882L112.125 36.1022L84.8328 38.0103Z" fill="#00B1FF"/>
<path d="M91.9619 27.8613L101.254 15.8944L116.609 27.6134L112.741 36.1473L91.9619 27.8613ZM101.36 16.7208L92.9084 27.5984L112.425 35.3886L115.866 27.8012L101.352 16.7283L101.36 16.7208Z" fill="#00B1FF"/>
<path d="M30.5046 160.902C28.4538 160.827 26.3654 160.722 24.4723 160.594L24.0366 160.564L26.2978 155.787L31.2333 160.932L30.5046 160.902ZM24.9456 160.031C26.4856 160.129 28.1383 160.219 29.791 160.279L26.4706 156.816L24.9456 160.031Z" fill="#00B1FF"/>
<path d="M30.5046 160.902H30.3844L25.6818 155.997L40.2704 156.237L40.3531 156.402C40.7663 157.251 40.8038 158.033 40.4583 158.724C39.707 160.204 37.4233 160.767 36.4693 160.94C36.2364 160.985 35.6955 161 34.8166 161C33.7273 161 32.1948 160.97 30.5121 160.902H30.5046ZM27.0941 156.613L30.6473 160.316C32.2775 160.376 33.7499 160.406 34.8091 160.406C35.8683 160.406 36.2514 160.376 36.3566 160.354C37.0327 160.234 39.2713 159.73 39.9174 158.453C40.1578 157.973 40.1502 157.439 39.8873 156.823L27.0865 156.613H27.0941Z" fill="#00B1FF"/>
<path d="M130.695 145.487L130.409 143.85L129.575 145.007L130.695 145.487Z" fill="#00B1FF"/>
<path d="M127.389 144.075L127.352 143.617C126.931 143.219 125.248 141.453 125.008 138.418C124.933 138.433 124.858 138.448 124.783 138.448C123.596 138.448 123.28 136.3 123.205 135.444C122.409 135.301 121.53 134.617 121.357 132.409L121.335 132.108L128.268 131.748L130.552 144.669L130.131 145.247L127.389 144.075ZM121.981 132.664C122.101 133.708 122.476 134.828 123.498 134.88L123.769 134.895L123.784 135.158C123.851 136.247 124.212 137.855 124.783 137.855C124.88 137.855 124.993 137.817 125.121 137.735L125.556 137.449L125.571 137.975C125.677 141.378 127.803 143.241 127.825 143.256L127.915 143.339L127.945 143.677L129.914 144.526L127.773 132.379L121.973 132.679L121.981 132.664Z" fill="#00B1FF"/>
<path d="M89.9186 99.7756L120.869 89.8295L122.469 98.9042L87.5823 108.385L89.9111 99.7756H89.9186ZM120.403 90.6032L90.4069 100.241L88.4312 107.536L121.793 98.476L120.403 90.6032Z" fill="#00B1FF"/>
<path d="M118.54 122.17L118.51 122.019C117.721 117.955 116.497 115.236 116.482 115.213L116.452 115.146V115.07C116.624 112.539 116.151 111.472 115.73 111.029C115.437 110.713 115.129 110.668 114.979 110.668C114.942 110.668 114.912 110.668 114.904 110.668L114.581 110.728L114.551 110.405C114.273 107.633 113.522 104.636 112.808 104.636C112.696 104.636 112.282 104.749 111.644 106.229L111.373 106.86L111.103 106.229C110.863 105.658 110.352 104.876 110.036 104.876C109.991 104.876 109.578 104.929 109.247 106.687L109.202 106.957L109 108.047L108.714 106.875L108.624 106.86C108.639 106.792 108.646 106.717 108.661 106.649C108.444 105.793 108.106 104.982 107.933 104.854C107.873 104.914 107.7 105.177 107.527 106.169C107.106 108.542 106.22 109.046 105.551 109.046C104.883 109.046 104.312 108.527 104.154 108.032C103.884 108.212 103.335 109.023 103.268 109.526L103.065 110.954L102.689 109.557C102.426 108.572 101.968 107.603 101.758 107.551C101.758 107.551 101.495 107.663 101.247 108.971C100.939 110.571 100.391 111.344 99.5867 111.344C98.7829 111.344 98.0167 110.503 97.5134 109.947C97.4232 109.842 97.3331 109.752 97.2655 109.684C97.2504 109.669 97.2354 109.662 97.2279 109.654C97.0702 109.759 96.7622 110.473 96.5743 111.75L96.5143 112.141L94.8315 111.374L94.7864 111.299C94.7489 111.232 94.7038 111.172 94.6662 111.104V111.292L87.1541 107.881L122.386 98.3108L127.299 126.136L118.555 122.162L118.54 122.17ZM88.8819 108.032L94.0878 110.398C94.0878 110.218 94.1028 110.052 94.1028 109.895L94.1404 108.219L94.6813 109.804C94.7864 110.12 94.9893 110.526 95.2297 110.916L96.0335 111.284C96.2964 109.804 96.687 109.061 97.2129 109.061C97.3781 109.061 97.5284 109.136 97.6711 109.271C97.7462 109.346 97.8364 109.444 97.9341 109.557C98.3397 110.007 99.0233 110.758 99.5642 110.758C100.15 110.758 100.473 109.729 100.638 108.865C100.894 107.551 101.232 106.965 101.728 106.965C102.276 106.965 102.704 107.814 102.975 108.572C103.283 107.987 103.771 107.401 104.192 107.401C104.282 107.401 104.575 107.431 104.688 107.829C104.755 108.084 105.123 108.445 105.529 108.445C106.145 108.445 106.656 107.573 106.919 106.063C107.144 104.786 107.437 104.245 107.895 104.245C108.323 104.245 108.661 104.809 108.917 105.5C109.135 104.839 109.473 104.283 110.021 104.283C110.57 104.283 111.058 104.922 111.351 105.432C111.832 104.486 112.297 104.043 112.801 104.043C114.288 104.043 114.919 108.355 115.107 110.075C115.377 110.097 115.783 110.21 116.159 110.616C116.88 111.39 117.18 112.869 117.045 115.033C117.24 115.484 118.322 118.06 119.058 121.756L126.495 125.137L121.898 99.062L88.8819 108.032Z" fill="#00B1FF"/>
<path d="M85.1182 126.016L87.77 107.528L94.6662 110.661L94.6287 111.472C94.6061 112.028 94.5761 112.546 94.5836 112.719C94.5836 112.862 94.531 112.952 94.4859 112.997C94.4258 113.065 94.3357 113.102 94.238 113.102C94.1103 113.102 93.8399 113.102 92.4652 111.442C92.4652 114.627 92.3149 124.618 90.8801 126.061C90.7223 126.219 90.5495 126.301 90.3617 126.301C90.1138 126.301 89.8885 126.173 89.6556 125.896C89.5955 126.309 89.5054 126.85 89.4002 127.451L89.3326 127.819L85.1107 126.016H85.1182ZM89.7457 124.941C90.1439 125.7 90.3617 125.708 90.3693 125.708C90.4068 125.708 90.4519 125.663 90.4669 125.648C91.5562 124.551 91.9093 116.055 91.8792 110.608V110.052L88.2433 108.4L85.7718 125.655L88.8818 126.985C89.0696 125.88 89.1898 125.047 89.1898 125.039L89.3175 124.123L89.7457 124.941ZM92.2473 110.218L92.4051 110.42C92.9534 111.112 93.607 111.87 93.9976 112.268C93.9976 112.043 94.0202 111.765 94.0352 111.457L94.0577 111.044L92.2473 110.218Z" fill="#00B1FF"/>
<path d="M96.071 112.554C96.2588 112.554 96.4767 112.434 96.5142 112.088C96.5217 111.99 96.5368 111.878 96.5593 111.758L96.5894 111.54L94.238 110.473L94.7714 111.314C95.132 111.885 95.6503 112.569 96.071 112.569V112.554Z" fill="#00B1FF"/>
<path d="M121.357 132.401C121.312 131.763 121.335 131.177 121.357 130.839C121.237 130.801 121.124 130.726 121.027 130.628C120.433 130.02 120.373 128.239 120.373 127.503H119.156L119.141 127.218C119.058 125.512 118.84 123.762 118.502 122.019L118.39 121.456L127.141 125.437L128.358 132.333L121.365 132.694L121.342 132.401H121.357ZM126.623 125.843L119.194 122.462C119.464 123.95 119.637 125.445 119.719 126.902H120.981V127.21C120.944 128.149 121.049 129.794 121.455 130.215C121.537 130.298 121.575 130.29 121.628 130.275L122.033 130.192L121.981 130.598C121.981 130.598 121.898 131.267 121.936 132.063L127.675 131.763L126.631 125.835L126.623 125.843Z" fill="#00B1FF"/>
<path d="M72.5052 105.365L90.5947 99.5577L88.2282 108.302L72.5052 105.365ZM74.9166 105.214L87.7925 107.618L89.7307 100.459L74.9166 105.214Z" fill="#00B1FF"/>
<path d="M52.1248 111.915L54.9494 111.006L60.8915 115.656L52.1248 111.915ZM53.815 111.99L56.9551 113.335L54.8292 111.667L53.815 111.99Z" fill="#00B1FF"/>
<path d="M58.8106 114.77L54.2657 111.224L73.6922 104.981L88.341 107.716L85.6817 126.248L58.8031 114.762L58.8106 114.77ZM73.7298 105.597L55.5127 111.449L59.0735 114.236L85.2084 125.4L87.6799 108.197L73.7373 105.597H73.7298Z" fill="#00B1FF"/>
<path d="M82.5416 145.292L82.8496 145.345C83.9013 145.525 84.8929 145.705 85.4788 146.013C86.17 146.374 86.9362 146.539 87.7475 146.712C89.6181 147.11 91.729 147.561 93.885 150.588C94.6587 151.67 95.1245 152.624 95.2822 153.405L95.3348 153.683L81.0391 157.116L82.5416 145.292ZM93.3967 150.934C91.3759 148.087 89.4678 147.681 87.6198 147.29C86.7709 147.11 85.9671 146.937 85.2009 146.539C84.7501 146.299 83.9163 146.133 83.0524 145.983L81.7378 156.342L94.6287 153.247C94.4409 152.594 94.0277 151.82 93.3967 150.934Z" fill="#00B1FF"/>
<path d="M129.162 145.577L131.243 145.074L129.928 144.511L129.162 145.577Z" fill="#00B1FF"/>
<path d="M127.532 145.615C127.48 145.067 127.427 144.488 127.374 143.895L127.329 143.399L130.484 144.744L130.041 145.36L127.562 145.953L127.532 145.615ZM128.005 144.33C128.035 144.631 128.058 144.924 128.088 145.217L129.365 144.909L128.013 144.33H128.005Z" fill="#00B1FF"/>
<path d="M86.0648 133.573C85.9671 133.25 85.6591 132.574 85.3135 132.574C85.1408 132.574 84.9154 132.747 84.675 133.055L83.9839 133.964L85.2084 125.4L89.4453 127.21L89.4077 127.443C88.9044 130.343 88.4461 132.123 88.0555 132.747L87.725 133.272L87.5296 132.679C87.4771 132.536 87.3644 132.356 87.3118 132.341C87.3118 132.341 87.0413 132.409 86.6357 133.58L86.3352 134.452L86.0723 133.565L86.0648 133.573ZM87.77 131.965C88.063 131.169 88.4161 129.659 88.7842 127.578L85.6892 126.256L84.8478 132.108C85.0055 132.025 85.1558 131.988 85.3135 131.988C85.7868 131.988 86.1173 132.356 86.3352 132.724C86.6432 132.063 86.9512 131.762 87.3118 131.762C87.4996 131.762 87.6573 131.853 87.7775 131.973L87.77 131.965Z" fill="#00B1FF"/>
<path d="M70.6723 142.64L80.9114 136.082L80.1527 137.239C79.3339 138.486 78.7404 139.357 78.3873 139.831L78.3648 139.853C77.0877 141.205 76.5694 142.28 76.8323 143.053C77.2906 144.413 80.0926 144.879 82.3463 145.254L83.12 145.382L81.6476 156.958L80.3931 157.259H80.3255C80.0325 157.274 79.7395 157.274 79.4466 157.274H79.2738L70.6648 142.625L70.6723 142.64ZM81.1218 156.493L82.4665 145.885L82.2561 145.848C79.7245 145.427 76.8473 144.946 76.2764 143.249C75.9384 142.242 76.4792 141.003 77.9291 139.463C78.1545 139.162 78.47 138.704 78.8906 138.08L71.4761 142.828L79.6268 156.688C79.8522 156.688 80.0776 156.688 80.2954 156.688L81.1218 156.493Z" fill="#00B1FF"/>
<path d="M82.8045 135.932C83.383 135.932 83.6609 135.09 83.7135 134.918L83.9464 134.151L82.0308 135.368L82.2561 135.624C82.4214 135.819 82.6092 135.924 82.812 135.924L82.8045 135.932Z" fill="#00B1FF"/>
<path d="M52.2599 111.329L59.0435 114.229L84.1718 133.896L84.0666 134.106C83.9464 134.362 83.8262 134.64 83.706 134.94L83.6684 135.03L82.4139 135.834L82.2486 135.639C82.0834 135.443 81.9256 135.151 81.7754 134.745C81.4073 135.323 80.7838 136.292 80.1602 137.254L80.1227 137.307L70.9728 143.159L52.2599 111.329ZM81.6101 133.896L81.9632 133.34L82.151 133.971C82.3087 134.512 82.4515 134.843 82.5641 135.038L83.1952 134.632C83.2703 134.437 83.3529 134.249 83.4356 134.069L58.7805 114.762L53.6948 112.591L71.1832 142.332L79.702 136.878C80.6636 135.398 81.6026 133.919 81.6176 133.903L81.6101 133.896Z" fill="#00B1FF"/>
<path d="M56.9626 113.335L85.7794 125.648L84.7277 132.995L84.6826 133.055C84.4873 133.31 84.2844 133.663 84.0741 134.099L83.9163 134.437L56.9701 113.335H56.9626ZM85.1258 126.016L60.8915 115.664L83.6985 133.52C83.8562 133.227 84.0065 132.972 84.1567 132.769L85.1258 126.023V126.016Z" fill="#00B1FF"/>
<path d="M78.1771 47.0401L79.0034 45.0719L77.4333 46.1311L78.1771 47.0401Z" fill="#00B1FF"/>
<path d="M45.2661 67.7812L77.9216 45.8005L78.4324 46.424L68.8543 69.2311L45.2661 67.7887V67.7812ZM47.0464 67.2929L68.4712 68.6076L77.6887 46.672L47.0464 67.3004V67.2929Z" fill="#00B1FF"/>
<path d="M40.3231 71.1091L46.0774 67.2328L69.1023 68.6451L62.7845 83.6845L40.3231 71.1166V71.1091ZM46.2427 67.8413L41.4574 71.064L62.4991 82.8356L68.2309 69.186L46.2427 67.8413Z" fill="#00B1FF"/>
<path d="M77.8089 46.5892L78.8681 45.8755L74.819 42.9608L77.8089 46.5892Z" fill="#00B1FF"/>
<path d="M39.9625 43.329V43.2764L46.7084 22.738L70.462 39.8358L40.3681 61.4634L39.955 43.329H39.9625ZM47.0239 23.6921L40.5559 43.3665L40.9391 60.3291L69.4478 39.8358L47.0164 23.6996L47.0239 23.6921Z" fill="#00B1FF"/>
<path d="M40.5108 67.4881L40.3606 60.7422L69.9586 39.4677L76.6821 44.3055L78.3047 46.2587L46.2426 67.8412L40.5108 67.4881ZM76.2989 44.7637L69.9586 40.2038L40.9541 61.0502L41.0893 66.9397L46.0774 67.2477L77.4258 46.1385L76.2989 44.7713V44.7637Z" fill="#00B1FF"/>
<path d="M40.4958 66.8948L47.0541 67.2929L40.6086 71.635L40.5034 66.8948H40.4958ZM41.1044 67.5258L41.172 70.5382L45.2662 67.7812L41.1044 67.5258Z" fill="#00B1FF"/>
<path d="M39.4667 21.6864L39.9625 21.3709C40.7287 20.8826 41.5776 20.3868 42.4866 19.8985L42.6518 19.8083L47.2193 23.0987L40 45.0493L39.4667 21.6864ZM42.5993 20.507C41.7654 20.9577 40.9841 21.416 40.278 21.8667L40.0676 22.0019L40.5109 41.5787L46.5131 23.3165L42.5993 20.4995V20.507Z" fill="#00B1FF"/>
<path d="M55.1447 17.3143L66.3453 16.9988L92.916 27.5985L84.8329 38.0029L71.4912 38.9344L55.1447 17.3068V17.3143ZM91.9619 27.8614L66.2402 17.5922L56.3166 17.8702L71.7767 38.3259L84.5324 37.4319L91.9694 27.8539L91.9619 27.8614Z" fill="#00B1FF"/>
<path d="M76.3291 44.7863L71.033 38.3784L85.3212 37.3793L78.41 46.2812L76.3366 44.7863H76.3291ZM72.2199 38.8892L76.7047 44.3281L78.2823 45.4624L84.0291 38.0629L72.2199 38.8892Z" fill="#00B1FF"/>
<path d="M64.8503 17.0363L101.931 15.9921L92.5403 28.0867L64.8503 17.0363ZM67.735 17.5471L92.345 27.3655L100.691 16.6156L67.735 17.5471Z" fill="#00B1FF"/>
<path d="M46.5206 23.3314L48.4362 17.502L55.8732 17.2916L72.0545 38.6939L69.9661 40.1963L46.5206 23.3239V23.3314ZM55.5878 17.8926L48.8719 18.0804L47.2192 23.0986L69.9586 39.4676L71.2056 38.5662L55.5803 17.8926H55.5878Z" fill="#00B1FF"/>
<path d="M69.4478 39.8358L71.6789 38.2357L78.192 46.131L69.4478 39.8433V39.8358ZM70.462 39.8358L74.8115 42.9684L71.5738 39.0395L70.462 39.8358Z" fill="#00B1FF"/>
<path d="M42.0659 20.1238L42.4865 19.8984C44.0265 19.0721 45.7318 18.2758 47.5422 17.5396L47.5948 17.5171L49.0672 17.4795L47.0239 23.6921L42.0659 20.1238ZM47.715 18.1105C46.1074 18.7641 44.5824 19.4627 43.1852 20.1914L46.7084 22.7305L48.2334 18.0955L47.7075 18.1105H47.715Z" fill="#00B1FF"/>
<path d="M53.6947 15.3986L54.1079 15.2785C55.6404 14.8277 57.2329 14.4221 58.8406 14.0615L58.9307 14.0389L67.735 17.5546L55.5878 17.9002L53.7022 15.3986H53.6947ZM58.8781 14.6625C57.4583 14.9855 56.0535 15.3386 54.6863 15.7292L55.8732 17.2917L64.8503 17.0363L58.8856 14.6549L58.8781 14.6625Z" fill="#00B1FF"/>
<path d="M57.9091 14.2719L58.8406 14.0615C61.4023 13.4906 64.0391 13.0248 66.6759 12.6943C69.3727 12.3563 72.4302 12.1835 75.7731 12.1835C84.4798 12.1835 92.3676 13.3554 92.4652 13.3779C93.7799 13.6634 96.4617 14.2193 99.692 14.7677L99.7671 14.7827L102.156 16.5931L66.2326 17.6073L57.9016 14.2869L57.9091 14.2719ZM99.5342 15.3386C96.319 14.7977 93.6521 14.2418 92.3676 13.9563C92.2924 13.9413 84.4422 12.7769 75.7806 12.7769C72.4602 12.7769 69.4253 12.9497 66.7585 13.2878C64.4598 13.5732 62.1685 13.9639 59.9224 14.4371L66.3528 16.9988L100.466 16.0372L99.5417 15.3386H99.5342Z" fill="#00B1FF"/>
<path d="M48.5489 17.1414L48.6841 17.0889C50.4044 16.4278 52.2224 15.8193 54.1079 15.2709L54.3033 15.2108L56.309 17.8626L48.2334 18.088L48.5489 17.1339V17.1414ZM54.0779 15.9019C52.4477 16.3827 50.8552 16.9086 49.3527 17.472L55.1446 17.3067L54.0779 15.8944V15.9019Z" fill="#00B1FF"/>
<path d="M46.0173 18.1632L48.8719 18.0806L49.2701 16.8711L48.6841 17.0965C48.2935 17.2467 47.9179 17.3969 47.5423 17.5472L46.0173 18.1632Z" fill="#00B1FF"/>
<path d="M51.9519 155.028C49.563 152.361 50.9678 147.613 51.396 146.359C51.0429 146.216 50.78 145.976 50.6072 145.637C50.1039 144.616 50.6072 142.941 51.0505 141.881C50.8627 141.926 50.6598 141.949 50.442 141.949C49.7509 141.949 48.9846 141.701 48.9095 141.243C48.887 141.085 48.917 140.792 49.4504 140.612C50.1715 140.371 50.5021 138.463 50.5772 136.968C49.0823 138.26 47.8428 139.019 46.8737 139.222L46.5807 139.282L44.0115 126.316L52.9736 111.367L71.4686 142.828L52.335 155.073L52.1247 155.208L51.9594 155.02L51.9519 155.028ZM52.9661 112.539L44.635 126.436L47.0389 138.568C47.7451 138.336 48.9095 137.705 50.6824 136.082L51.1782 135.631V136.307C51.1782 136.751 51.1331 140.687 49.6307 141.19C49.6156 141.19 49.6081 141.19 49.6006 141.198C49.7659 141.28 50.0739 141.363 50.442 141.363C50.6974 141.363 51.1631 141.318 51.4561 141.017L52.7332 139.718L51.9294 141.356C51.2909 142.663 50.7049 144.503 51.1406 145.382C51.2758 145.652 51.5012 145.818 51.8392 145.885L52.1848 145.953L52.0571 146.284C52.0346 146.336 50.0138 151.64 52.2299 154.449L70.6648 142.655L52.9661 112.546V112.539Z" fill="#00B1FF"/>
<path d="M28.589 152.053L44.4698 125.565L47.1591 139.162L46.8737 139.222C46.5807 139.282 46.3103 139.282 46.1225 139.252C44.8003 142.535 41.5926 143.527 39.2713 143.992C36.5594 144.533 35.1171 145.405 35.1021 145.412L35.057 145.435C33.2991 146.163 32.3827 147.035 32.3376 148.011C32.2399 150.243 36.4918 152.511 36.5369 152.534L36.5745 152.556C36.905 152.797 37.228 153.045 37.5285 153.285L38.475 154.044L28.5815 152.053H28.589ZM29.528 151.632L36.1012 152.954C35.2448 152.474 31.654 150.325 31.7591 147.981C31.7591 147.959 31.7591 147.936 31.7591 147.914L29.528 151.64V151.632ZM39.1587 143.406C41.5926 142.918 44.5299 141.957 45.6717 138.771L45.7994 138.373L46.1225 138.629C46.1225 138.629 46.2351 138.689 46.4605 138.674L44.1843 127.18L32.931 145.953C33.4118 145.562 34.0428 145.209 34.8241 144.886C35.0194 144.766 36.4843 143.94 39.1662 143.399L39.1587 143.406Z" fill="#00B1FF"/>
<path d="M68.028 156.996C64.963 156.868 62.0708 156.748 59.5016 156.748C58.6978 156.748 57.9767 156.763 57.293 156.786C57.1428 156.786 56.9926 156.786 56.8423 156.786C54.6487 156.786 53.0036 156.192 51.9519 155.02L51.719 154.757L71.1681 142.31L79.9648 157.274H79.4465C79.1986 157.274 78.9507 157.274 78.6953 157.274C75.0819 157.274 71.4911 157.124 68.0205 156.981L68.028 156.996ZM70.9728 143.151L52.643 154.878C53.582 155.757 54.9943 156.192 56.8423 156.192C56.985 156.192 57.1278 156.192 57.2705 156.185C57.9616 156.162 58.6903 156.147 59.5016 156.147C62.0858 156.147 64.978 156.267 68.0505 156.395C71.5136 156.538 75.0969 156.688 78.7028 156.688H78.9357L70.9728 143.144V143.151Z" fill="#00B1FF"/>
<path d="M25.8696 156.59L28.912 151.512L37.4834 153.232L37.5435 153.277C38.9483 154.404 39.8948 155.456 40.3531 156.395L40.5634 156.831L25.8696 156.59ZM29.205 152.173L26.9063 156.012L39.5718 156.222C39.0985 155.486 38.3173 154.667 37.228 153.788L29.205 152.181V152.173Z" fill="#00B1FF"/>
<path d="M7.1567 139.057C6.10499 134.039 10.6123 130.966 12.7758 129.486C13.1665 129.223 13.6022 128.923 13.6923 128.81L13.7224 128.698L16.9751 127.285L7.28441 139.68L7.1567 139.057ZM14.1881 129.141C14.0529 129.329 13.7449 129.546 13.1139 129.975C11.1532 131.312 7.17924 134.024 7.63748 138.268L15.0821 128.75L14.1956 129.133L14.1881 129.141Z" fill="#00B1FF"/>
<path d="M42.0508 116.378L53.7098 111.314L44.1918 127.188L42.0508 116.378ZM42.7269 116.731L44.4773 125.557L52.2524 112.591L42.7345 116.731H42.7269Z" fill="#00B1FF"/>
<path d="M14.0379 149.131L9.72587 146.501L9.68831 146.411C8.39621 143.061 7.53231 140.341 7.5248 140.326C7.36704 139.906 7.23934 139.478 7.14919 139.057L7.11914 138.922L15.8333 127.774L42.5992 116.137L44.635 126.429L29.205 152.173L14.0379 149.131ZM42.1635 116.979L16.2089 128.262L7.75768 139.072C7.8328 139.417 7.94548 139.771 8.0807 140.131C8.08821 140.161 8.93709 142.805 10.1991 146.103L14.2482 148.567L28.9045 151.512L44.004 126.324L42.156 116.979H42.1635Z" fill="#00B1FF"/>
<path d="M12.558 148.222L29.5355 151.632L26.4931 156.711L12.558 148.229V148.222ZM15.7432 149.469L26.2903 155.892L28.5965 152.053L15.7432 149.476V149.469Z" fill="#00B1FF"/>
<path d="M13.6773 128.855C13.6773 128.179 13.79 127.518 13.7975 127.496L13.8276 127.338L13.9778 127.278C16.1413 126.346 16.5996 121.516 16.6071 121.463L16.6221 121.298L16.7724 121.223C18.8157 120.186 19.8599 117.82 19.8824 114.184V113.906L27.8679 113.365L16.224 128.262L13.5421 129.426L13.6924 128.855H13.6773ZM26.5683 114.049L20.4608 114.462C20.3857 118.098 19.2739 120.524 17.1705 121.674C17.0728 122.56 16.5019 126.647 14.3534 127.743C14.3309 127.901 14.3008 128.157 14.2783 128.45L15.8258 127.774L26.5608 114.041L26.5683 114.049Z" fill="#00B1FF"/>
<path d="M41.2697 112.449L54.6639 111.54L42.1636 116.971L41.2697 112.449ZM41.9834 112.997L42.6069 116.137L51.2834 112.366L41.9834 112.997Z" fill="#00B1FF"/>
<path d="M27.064 113.418L41.8706 112.411L42.727 116.731L15.0746 128.75L27.064 113.41V113.418ZM41.3898 113.042L27.372 113.996L16.9827 127.285L42.0509 116.385L41.3898 113.042Z" fill="#00B1FF"/>
<path d="M18.7931 106.454C18.4701 105.184 18.1771 104.275 18.0945 104.028C16.6521 102.6 16.4793 100.407 16.284 97.8826C16.1563 96.275 16.0286 94.6148 15.5553 92.9621L15.5027 92.7818L19.7922 89.0482L39.6094 98.8216L18.8757 106.777L18.7931 106.454ZM19.8899 89.7544L16.1788 92.9846C16.6221 94.6298 16.7498 96.2599 16.8775 97.8375C17.0728 100.279 17.2381 102.382 18.5602 103.652L18.6128 103.705L18.6353 103.772C18.6353 103.772 18.9358 104.651 19.2889 105.988L38.137 98.7615L19.8899 89.7619V89.7544Z" fill="#00B1FF"/>
<path d="M19.8748 114.177C19.8974 111.382 19.2964 108.43 18.7931 106.454L18.7255 106.199L39.7596 98.1305L27.3645 113.989L19.8673 114.5V114.184L19.8748 114.177ZM37.9792 99.4451L19.4316 106.559C19.9124 108.49 20.4458 111.217 20.4683 113.861L27.064 113.418L37.9792 99.4526V99.4451Z" fill="#00B1FF"/>
<path d="M37.9191 98.9192L48.0155 94.1339L50.1039 101.195L37.9191 98.9192ZM39.8272 98.6713L49.2625 100.429L47.6474 94.9678L39.8272 98.6713Z" fill="#00B1FF"/>
<path d="M38.4225 98.0627L52.4177 109.023L53.3642 112.223L41.3898 113.035L38.4225 98.0627ZM51.8994 109.369L39.3164 99.5126L41.8706 112.404L52.583 111.675L51.8994 109.361V109.369Z" fill="#00B1FF"/>
<path d="M37.7313 98.2806L49.9086 100.549L52.7031 110.007L37.7313 98.2806ZM40.0075 99.3098L51.6139 108.4L49.4503 101.075L40.015 99.3173L40.0075 99.3098Z" fill="#00B1FF"/>
<path d="M34.1931 76.5178L41.0442 70.5607L48.1808 94.7049L38.6478 99.2197L34.1931 76.5178ZM40.7362 71.6124L34.8392 76.7432L39.0836 98.3633L47.4672 94.3894L40.7362 71.6124Z" fill="#00B1FF"/>
<path d="M39.0385 98.1004L41.9908 112.997L26.5757 114.041L39.0385 98.0929V98.1004ZM38.7079 99.4827L27.8603 113.358L41.2771 112.449L38.7079 99.4827Z" fill="#00B1FF"/>
<path d="M19.3115 89.4763L34.7115 76.0746L39.2789 99.3248L19.3115 89.4763ZM20.3707 89.3411L38.46 98.2656L34.3208 77.1939L20.3632 89.3411H20.3707Z" fill="#00B1FF"/>
<path d="M40.5108 41.5862L40.9541 61.0428L31.9995 67.4807L40.5108 41.5937V41.5862ZM40 45.0493L33.1339 65.9332L40.3531 60.7423L39.9925 45.0493H40Z" fill="#00B1FF"/>
<path d="M31.7216 66.9549L40.939 60.3291L41.1043 67.5333L31.7216 66.9624V66.9549ZM33.4193 66.4666L40.4958 66.9023L40.3756 61.471L33.4193 66.4666Z" fill="#00B1FF"/>
<path d="M32.6305 68.5625L32.2023 66.3915L41.0893 66.9324L41.1944 71.5073L32.6305 68.5625ZM32.931 67.03L33.1414 68.1118L40.5784 70.6734L40.5033 67.4958L32.9235 67.03H32.931Z" fill="#00B1FF"/>
<path d="M20.1528 43.5618L20.2579 43.4116C22.1585 40.6997 23.9765 38.4986 25.7268 36.3652C27.0114 34.8101 28.3336 33.21 29.6707 31.4297L30.4971 30.3254C34.3283 25.202 34.6438 24.7889 39.6019 21.6037L40.0451 21.3182L40.5484 43.3665L32.623 67.4657L20.1453 43.5618H20.1528ZM39.4817 22.385C35.0344 25.2546 34.6288 25.7955 30.9703 30.6784L30.144 31.7827C28.7993 33.5781 27.4697 35.1858 26.1851 36.7408C24.4648 38.8217 22.6919 40.9701 20.8439 43.5994L32.5028 65.9407L39.9549 43.2689L39.4817 22.3775V22.385Z" fill="#00B1FF"/>
<path d="M29.8436 67.6009L32.7884 66.2863L33.2766 68.7803L29.8361 67.5934L29.8436 67.6009ZM31.4587 67.5333L32.5029 67.8939L32.3526 67.1351L31.4587 67.5333Z" fill="#00B1FF"/>
<path d="M19.8148 64.1452L11.8969 61.4258L11.9345 61.1779C12.28 59.1345 12.851 57.0837 13.6397 55.093L13.7674 54.7625L34.2232 67.3829L19.8073 64.1452H19.8148ZM12.573 61.0276L19.965 63.5667L30.9102 66.0307L14.0754 55.6414C13.3994 57.4143 12.896 59.2247 12.573 61.0276Z" fill="#00B1FF"/>
<path d="M13.5571 55.3184L13.6472 55.0855C14.098 53.9437 14.6088 52.8319 15.1722 51.7726C16.8174 48.6926 18.4776 45.9582 20.258 43.4116L20.5359 43.0134L33.3292 67.5257L13.5496 55.3184H13.5571ZM15.698 52.0581C15.1797 53.0272 14.7064 54.0413 14.2933 55.078L31.8117 65.8881L20.4683 44.1553C18.8081 46.5667 17.2456 49.1584 15.698 52.0506V52.0581Z" fill="#00B1FF"/>
<path d="M19.7847 64.1378L19.9425 63.5669L33.5095 66.6168L30.6624 67.8864L19.7772 64.1378H19.7847ZM25.0508 65.3247L30.6399 67.2479L31.639 66.8046L25.0583 65.3247H25.0508Z" fill="#00B1FF"/>
<path d="M19.2438 160.114C18.7556 160.053 18.3198 159.986 17.9668 159.918C16.9827 159.738 15.9235 158.761 14.714 156.943L14.421 156.508L15.3976 156.47L20.3406 160.256L19.2438 160.114ZM18.0719 159.332C18.1095 159.332 18.1471 159.347 18.1921 159.355L15.931 157.619C16.7348 158.641 17.4559 159.22 18.0795 159.332H18.0719Z" fill="#00B1FF"/>
<path d="M24.4798 160.594C22.3313 160.452 20.566 160.286 19.2438 160.114H19.1612L14.4661 156.508L26.8687 155.982L24.6751 160.602L24.4723 160.587L24.4798 160.594ZM16.1263 157.034L19.3941 159.543C20.6561 159.7 22.3088 159.851 24.3146 159.993L25.9071 156.62L16.1187 157.034H16.1263Z" fill="#00B1FF"/>
<path d="M10.4846 148.417L10.4245 148.267C10.1691 147.636 9.92119 147.012 9.68831 146.411L9.3728 145.6L15.7356 149.476L10.4771 148.417H10.4846ZM10.9128 147.899L12.558 148.229L10.5597 147.012C10.6724 147.305 10.7926 147.598 10.9128 147.899Z" fill="#00B1FF"/>
<path d="M14.804 157.086L16.1262 157.026L13.4969 155.013L14.3608 156.395C14.481 156.583 14.5937 156.771 14.7139 156.943L14.804 157.086Z" fill="#00B1FF"/>
<path d="M14.3834 156.44L14.3534 156.395C13.1439 154.449 11.8218 151.715 10.4245 148.267L10.2142 147.756L14.2557 148.567L27.3795 156.553L15.2023 157.071L14.3834 156.44ZM14.0454 149.123L11.1908 148.552C12.4904 151.707 13.7149 154.224 14.8342 156.034L15.3976 156.463L25.4038 156.034L14.0454 149.116V149.123Z" fill="#00B1FF"/>
<path d="M15.5553 92.9696C15.4051 92.4512 15.2398 91.9855 15.052 91.5347C14.5487 90.3553 14.1881 88.7252 13.9778 86.6894L13.9252 86.156L20.3781 89.3337L15.6905 93.4128L15.5628 92.9621L15.5553 92.9696ZM14.6238 87.1702C14.8341 88.898 15.1572 90.2802 15.5929 91.3019C15.7356 91.6399 15.8708 91.993 15.991 92.3686L19.3114 89.4839L14.6313 87.1777L14.6238 87.1702Z" fill="#00B1FF"/>
<path d="M33.4343 72.6491L42.0133 70.5006L34.3208 77.194L33.4268 72.6491H33.4343ZM34.1255 73.0848L34.7114 76.0671L39.7596 71.6725L34.1255 73.0848Z" fill="#00B1FF"/>
<path d="M13.9929 86.8546L13.9779 86.6894C13.6323 83.3389 13.7826 79.6504 13.9028 77.7499L13.9178 77.532L34.0129 72.5063L34.8468 76.7432L19.89 89.7619L13.9929 86.8546ZM33.5472 73.235L14.4812 78.0053C14.3685 79.9134 14.2408 83.3314 14.5488 86.4715L19.7923 89.0557L34.1932 76.5254L33.5472 73.235Z" fill="#00B1FF"/>
<path d="M32.4954 67.8864L41.9307 71.1316L33.5471 73.2275L32.4954 67.8864ZM33.2766 68.7803L34.0053 72.4988L39.8423 71.034L33.2766 68.7728V68.7803Z" fill="#00B1FF"/>
<path d="M13.9027 77.7498C13.9478 77.0436 13.9928 76.5403 14.0078 76.3375C13.8125 76.0145 13.6172 75.6464 13.4219 75.2407L13.2942 74.9628L30.6323 67.2402L33.1414 68.1041L34.118 73.0847L13.8726 78.1555L13.8952 77.7498H13.9027ZM32.6306 68.5624L30.6624 67.8863L14.0905 75.2708C14.2482 75.5788 14.406 75.8642 14.5638 76.1196L14.6163 76.2023V76.2999C14.6163 76.2999 14.5638 76.7131 14.5187 77.3892L33.4344 72.6565L32.6306 68.5699V68.5624Z" fill="#00B1FF"/>
<path d="M11.7692 62.3349L11.8067 62.0645C11.8443 61.7715 11.8894 61.471 11.9419 61.1705L12.002 60.825L19.98 63.5669L19.8222 64.1378L11.7767 62.3274L11.7692 62.3349ZM12.4302 61.8767L14.7064 62.3875L12.4678 61.6137C12.4528 61.7039 12.4378 61.7865 12.4302 61.8691V61.8767Z" fill="#00B1FF"/>
<path d="M13.4219 75.2407C11.7617 71.7401 11.1532 66.8196 11.7992 62.0644L11.8443 61.7413L19.9349 63.5593L31.4511 67.5182L13.5421 75.4962L13.4144 75.2332L13.4219 75.2407ZM19.7922 64.1377L12.3476 62.4625C11.7992 66.8872 12.3476 71.4246 13.835 74.7224L29.836 67.5933L19.7922 64.1377Z" fill="#00B1FF"/>
<path d="M170.802 31.8504C170.802 33.5406 172.177 34.9154 173.867 34.9154C175.558 34.9154 176.932 33.5406 176.932 31.8504C176.932 30.1601 175.558 28.7854 173.867 28.7854C172.177 28.7854 170.802 30.1601 170.802 31.8504Z" fill="#00B1FF"/>
<path d="M218.602 28.4549C218.602 30.1451 219.977 31.5198 221.667 31.5198C223.358 31.5198 224.732 30.1451 224.732 28.4549C224.732 26.7646 223.358 25.3899 221.667 25.3899C219.977 25.3899 218.602 26.7646 218.602 28.4549Z" fill="#00B1FF"/>
<path d="M169.585 78.2758C169.585 79.966 170.96 81.3408 172.65 81.3408C174.341 81.3408 175.715 79.966 175.715 78.2758C175.715 76.5855 174.341 75.2108 172.65 75.2108C170.96 75.2108 169.585 76.5855 169.585 78.2758Z" fill="#00B1FF"/>
<path d="M185.121 68.1267C185.121 69.817 186.495 71.1917 188.186 71.1917C189.876 71.1917 191.251 69.817 191.251 68.1267C191.251 66.4365 189.876 65.0618 188.186 65.0618C186.495 65.0618 185.121 66.4365 185.121 68.1267Z" fill="#00B1FF"/>
<path d="M197.756 72.5514C197.756 74.2417 199.131 75.6164 200.821 75.6164C202.511 75.6164 203.886 74.2417 203.886 72.5514C203.886 70.8612 202.511 69.4865 200.821 69.4865C199.131 69.4865 197.756 70.8612 197.756 72.5514Z" fill="#00B1FF"/>
<path d="M112.748 27.0951C112.748 28.7854 114.123 30.1601 115.813 30.1601C117.503 30.1601 118.878 28.7854 118.878 27.0951C118.878 25.4049 117.503 24.0302 115.813 24.0302C114.123 24.0302 112.748 25.4049 112.748 27.0951Z" fill="#00B1FF"/>
<path d="M109.135 36.3651C109.135 38.0554 110.509 39.4301 112.2 39.4301C113.89 39.4301 115.265 38.0554 115.265 36.3651C115.265 34.6749 113.89 33.3002 112.2 33.3002C110.509 33.3002 109.135 34.6749 109.135 36.3651Z" fill="#00B1FF"/>
<path d="M174.025 64.0175C174.025 65.7077 175.4 67.0825 177.09 67.0825C178.78 67.0825 180.155 65.7077 180.155 64.0175C180.155 62.3272 178.78 60.9525 177.09 60.9525C175.4 60.9525 174.025 62.3272 174.025 64.0175Z" fill="#00B1FF"/>
<path d="M95.9283 70.0498C95.9283 71.7401 97.3031 73.1148 98.9933 73.1148C100.684 73.1148 102.058 71.7401 102.058 70.0498C102.058 68.3596 100.684 66.9849 98.9933 66.9849C97.3031 66.9849 95.9283 68.3596 95.9283 70.0498Z" fill="#00B1FF"/>
<path d="M131.822 80.935C131.822 82.6252 133.196 83.9999 134.887 83.9999C136.577 83.9999 137.952 82.6252 137.952 80.935C137.952 79.2447 136.577 77.87 134.887 77.87C133.196 77.87 131.822 79.2447 131.822 80.935Z" fill="#00B1FF"/>
<path d="M142.992 74.2266C142.992 75.9168 144.367 77.2916 146.057 77.2916C147.747 77.2916 149.122 75.9168 149.122 74.2266C149.122 72.5363 147.747 71.1616 146.057 71.1616C144.367 71.1616 142.992 72.5363 142.992 74.2266Z" fill="#00B1FF"/>
<path d="M119.487 88.8304C119.487 90.5206 120.861 91.8953 122.552 91.8953C124.242 91.8953 125.617 90.5206 125.617 88.8304C125.617 87.1401 124.242 85.7654 122.552 85.7654C120.861 85.7654 119.487 87.1401 119.487 88.8304Z" fill="#00B1FF"/>
<path d="M88.7241 28.222C88.7241 29.9122 90.0989 31.2869 91.7891 31.2869C93.4793 31.2869 94.8541 29.9122 94.8541 28.222C94.8541 26.5317 93.4793 25.157 91.7891 25.157C90.0989 25.157 88.7241 26.5317 88.7241 28.222Z" fill="#00B1FF"/>
<path d="M36.89 42.6679C36.89 44.3581 38.2647 45.7329 39.9549 45.7329C41.6452 45.7329 43.0199 44.3581 43.0199 42.6679C43.0199 40.9776 41.6452 39.6029 39.9549 39.6029C38.2647 39.6029 36.89 40.9776 36.89 42.6679Z" fill="#00B1FF"/>
<path d="M38.0093 71.5749C38.0093 73.2651 39.384 74.6398 41.0743 74.6398C42.7645 74.6398 44.1392 73.2651 44.1392 71.5749C44.1392 69.8846 42.7645 68.5099 41.0743 68.5099C39.384 68.5099 38.0093 69.8846 38.0093 71.5749Z" fill="#00B1FF"/>
<path d="M35.4927 98.9943C35.4927 100.685 36.8674 102.059 38.5576 102.059C40.2479 102.059 41.6226 100.685 41.6226 98.9943C41.6226 97.3041 40.2479 95.9293 38.5576 95.9293C36.8674 95.9293 35.4927 97.3041 35.4927 98.9943Z" fill="#00B1FF"/>
<path d="M68.3585 142.888C68.3585 144.578 69.7333 145.953 71.4235 145.953C73.1137 145.953 74.4885 144.578 74.4885 142.888C74.4885 141.198 73.1137 139.823 71.4235 139.823C69.7333 139.823 68.3585 141.198 68.3585 142.888Z" fill="#00B1FF"/>
<path d="M85.4563 108.572C85.4563 110.263 86.831 111.637 88.5213 111.637C90.2115 111.637 91.5862 110.263 91.5862 108.572C91.5862 106.882 90.2115 105.507 88.5213 105.507C86.831 105.507 85.4563 106.882 85.4563 108.572Z" fill="#00B1FF"/>
<path d="M124.467 125.197C124.467 126.887 125.842 128.262 127.532 128.262C129.222 128.262 130.597 126.887 130.597 125.197C130.597 123.507 129.222 122.132 127.532 122.132C125.842 122.132 124.467 123.507 124.467 125.197Z" fill="#00B1FF"/>
<path d="M119.742 98.4159C119.742 100.106 121.117 101.481 122.807 101.481C124.497 101.481 125.872 100.106 125.872 98.4159C125.872 96.7257 124.497 95.351 122.807 95.351C121.117 95.351 119.742 96.7257 119.742 98.4159Z" fill="#00B1FF"/>
<path d="M16.4944 88.9955C16.4944 90.6858 17.8691 92.0605 19.5594 92.0605C21.2496 92.0605 22.6243 90.6858 22.6243 88.9955C22.6243 87.3053 21.2496 85.9305 19.5594 85.9305C17.8691 85.9305 16.4944 87.3053 16.4944 88.9955Z" fill="#00B1FF"/>
<path d="M148.529 114.552C148.529 116.242 149.903 117.617 151.594 117.617C153.284 117.617 154.659 116.242 154.659 114.552C154.659 112.862 153.284 111.487 151.594 111.487C149.903 111.487 148.529 112.862 148.529 114.552Z" fill="#00B1FF"/>
<path d="M151.241 148.184C151.241 149.874 152.615 151.249 154.306 151.249C155.996 151.249 157.371 149.874 157.371 148.184C157.371 146.494 155.996 145.119 154.306 145.119C152.615 145.119 151.241 146.494 151.241 148.184Z" fill="#00B1FF"/>
<path d="M159.887 111.96C159.887 113.651 161.262 115.025 162.952 115.025C164.642 115.025 166.017 113.651 166.017 111.96C166.017 110.27 164.642 108.895 162.952 108.895C161.262 108.895 159.887 110.27 159.887 111.96Z" fill="#00B1FF"/>
<path d="M127.48 144.804C127.48 146.494 128.854 147.869 130.545 147.869C132.235 147.869 133.609 146.494 133.609 144.804C133.609 143.114 132.235 141.739 130.545 141.739C128.854 141.739 127.48 143.114 127.48 144.804Z" fill="#00B1FF"/>
<path d="M90.7224 87.4858C90.7224 89.176 92.0971 90.5507 93.7873 90.5507C95.4776 90.5507 96.8523 89.176 96.8523 87.4858C96.8523 85.7955 95.4776 84.4208 93.7873 84.4208C92.0971 84.4208 90.7224 85.7955 90.7224 87.4858Z" fill="#00B1FF"/>
<path d="M136.359 131.229C136.359 132.919 137.734 134.294 139.424 134.294C141.114 134.294 142.489 132.919 142.489 131.229C142.489 129.539 141.114 128.164 139.424 128.164C137.734 128.164 136.359 129.539 136.359 131.229Z" fill="#00B1FF"/>
<path d="M210.7 48.5575C210.7 51.4421 213.036 53.786 215.921 53.786C218.805 53.786 221.149 51.4497 221.149 48.5575C221.149 45.6728 218.813 43.329 215.921 43.329C213.028 43.329 210.7 45.6728 210.7 48.5575Z" fill="#00B1FF"/>
<path d="M130.064 95.6289C130.064 98.5136 132.4 100.857 135.285 100.857C138.169 100.857 140.513 98.5211 140.513 95.6289C140.513 92.7367 138.177 90.4004 135.285 90.4004C132.392 90.4004 130.064 92.7367 130.064 95.6289Z" fill="#00B1FF"/>
<path d="M71.9419 46.6344C71.9419 49.5191 74.2782 51.8629 77.1629 51.8629C80.0476 51.8629 82.3914 49.5266 82.3914 46.6344C82.3914 43.7422 80.0551 41.4059 77.1629 41.4059C74.2707 41.4059 71.9419 43.7422 71.9419 46.6344Z" fill="#00B1FF"/>
<path d="M58.3749 84.7212C58.3749 87.6058 60.7112 89.9496 63.5959 89.9496C66.4805 89.9496 68.8243 87.6134 68.8243 84.7212C68.8243 81.829 66.488 79.4927 63.5959 79.4927C60.7037 79.4927 58.3749 81.829 58.3749 84.7212Z" fill="#00B1FF"/>
<path d="M27.327 66.1585C27.327 69.0432 29.6633 71.387 32.5479 71.387C35.4326 71.387 37.7764 69.0507 37.7764 66.1585C37.7764 63.2663 35.4401 60.9301 32.5479 60.9301C29.6557 60.9301 27.327 63.2663 27.327 66.1585Z" fill="#00B1FF"/>
<path d="M47.8278 110.931C47.8278 113.816 50.1641 116.16 53.0488 116.16C55.9335 116.16 58.2773 113.823 58.2773 110.931C58.2773 108.039 55.941 105.703 53.0488 105.703C50.1566 105.703 47.8278 108.039 47.8278 110.931Z" fill="#00B1FF"/>
<path d="M135.938 46.8447C135.938 49.7294 138.275 52.0732 141.159 52.0732C144.044 52.0732 146.388 49.7369 146.388 46.8447C146.388 43.9525 144.051 41.6162 141.159 41.6162C138.267 41.6162 135.938 43.96 135.938 46.8447Z" fill="#00B1FF"/>
</g>
</g>
<defs>
<filter id="filter0_d_9_3" x="0" y="0" width="269.334" height="168" filterUnits="userSpaceOnUse" color-interpolation-filters="sRGB">
<feFlood flood-opacity="0" result="BackgroundImageFix"/>
<feColorMatrix in="SourceAlpha" type="matrix" values="0 0 0 0 0 0 0 0 0 0 0 0 0 0 0 0 0 0 127 0" result="hardAlpha"/>
<feOffset/>
<feGaussianBlur stdDeviation="3.5"/>
<feComposite in2="hardAlpha" operator="out"/>
<feColorMatrix type="matrix" values="0 0 0 0 0 0 0 0 0 0.694118 0 0 0 0 1 0 0 0 1 0"/>
<feBlend mode="normal" in2="BackgroundImageFix" result="effect1_dropShadow_9_3"/>
<feBlend mode="normal" in="SourceGraphic" in2="effect1_dropShadow_9_3" result="shape"/>
</filter>
<radialGradient id="paint0_radial_9_3" cx="0" cy="0" r="1" gradientUnits="userSpaceOnUse" gradientTransform="translate(121.354 166.01) rotate(-180) scale(68.0279 63.1344)">
<stop stop-color="white"/>
<stop offset="1" stop-opacity="0"/>
</radialGradient>
<clipPath id="clip0_9_3">
<rect width="302" height="240" fill="white"/>
</clipPath>
</defs>
</svg>
