<svg width="252" height="84" viewBox="0 0 252 84" fill="none" xmlns="http://www.w3.org/2000/svg">
<g clip-path="url(#clip0_23_2)">
<path d="M245.99 74.5834H11.3868L5.50415 68.7008V10.2862L11.3868 4.40356L243.611 4.51477L251.072 11.9764L251.884 68.6897L246.001 74.5723L245.99 74.5834Z" fill="url(#paint0_linear_23_2)"/>
<path d="M205.568 8.25122H147.91V11.5873H205.568V8.25122Z" fill="#0068E8"/>
<path d="M214.687 78H212.5L218.932 61H221.118L214.687 78ZM228.579 61H226.392L219.961 78H222.147L228.579 61ZM236.039 61H233.853L227.421 78H229.608L236.039 61ZM243.5 61H241.313L234.882 78H237.068L243.5 61Z" fill="#0068E8"/>
<path d="M137.824 0H76.7627V9.91925H137.824V0Z" fill="#0068E8"/>
<path d="M14 67H0V65.46H14V67ZM14 61.06H0V59.52H14V61.06ZM14 55.12H0V53.58H14V55.12ZM14 49.18H0V47.64H14V49.18ZM14 43.24H0V41.7H14V43.24ZM14 37.3H0V35.76H14V37.3ZM14 31.36H0V29.82H14V31.36ZM14 25.42H0V23.88H14V25.42ZM14 19.48H0V17.94H14V19.48ZM14 13.54H0V12H14V13.54Z" fill="#4DFFFF"/>
<path d="M19.1487 83.4461H17.781V76.9741H19.1487V83.4461ZM21.8176 76.9741H20.4498V83.4461H21.8176V76.9741ZM24.4865 76.9741H23.1187V83.4461H24.4865V76.9741ZM27.1553 76.9741H25.7875V83.4461H27.1553V76.9741ZM29.8242 76.9741H28.4564V83.4461H29.8242V76.9741ZM32.493 76.9741H31.1252V83.4461H32.493V76.9741ZM35.1619 76.9741H33.7941V83.4461H35.1619V76.9741ZM37.8307 76.9741H36.4629V83.4461H37.8307V76.9741ZM40.4996 76.9741H39.1318V83.4461H40.4996V76.9741ZM43.1685 76.9741H41.8007V83.4461H43.1685V76.9741ZM45.8373 76.9741H44.4695V83.4461H45.8373V76.9741ZM48.5062 76.9741H47.1384V83.4461H48.5062V76.9741ZM51.175 76.9741H49.8072V83.4461H51.175V76.9741ZM53.8439 76.9741H52.4761V83.4461H53.8439V76.9741ZM56.5127 76.9741H55.1449V83.4461H56.5127V76.9741ZM59.1816 76.9741H57.8138V83.4461H59.1816V76.9741ZM61.8504 76.9741H60.4827V83.4461H61.8504V76.9741ZM64.5193 76.9741H63.1515V83.4461H64.5193V76.9741ZM67.1882 76.9741H65.8204V83.4461H67.1882V76.9741ZM69.857 76.9741H68.4892V83.4461H69.857V76.9741ZM72.5259 76.9741H71.1581V83.4461H72.5259V76.9741ZM75.1947 76.9741H73.8269V83.4461H75.1947V76.9741ZM77.8636 76.9741H76.4958V83.4461H77.8636V76.9741ZM80.5324 76.9741H79.1647V83.4461H80.5324V76.9741ZM83.2013 76.9741H81.8335V83.4461H83.2013V76.9741ZM85.8702 76.9741H84.5024V83.4461H85.8702V76.9741ZM88.539 76.9741H87.1712V83.4461H88.539V76.9741ZM91.2079 76.9741H89.8401V83.4461H91.2079V76.9741ZM93.8767 76.9741H92.5089V83.4461H93.8767V76.9741ZM96.5456 76.9741H95.1778V83.4461H96.5456V76.9741ZM99.2144 76.9741H97.8466V83.4461H99.2144V76.9741ZM101.883 76.9741H100.515V83.4461H101.883V76.9741ZM104.552 76.9741H103.184V83.4461H104.552V76.9741ZM107.221 76.9741H105.853V83.4461H107.221V76.9741ZM109.89 76.9741H108.522V83.4461H109.89V76.9741ZM112.559 76.9741H111.191V83.4461H112.559V76.9741ZM115.227 76.9741H113.86V83.4461H115.227V76.9741ZM117.896 76.9741H116.529V83.4461H117.896V76.9741ZM120.565 76.9741H119.197V83.4461H120.565V76.9741ZM123.234 76.9741H121.866V83.4461H123.234V76.9741ZM125.903 76.9741H124.535V83.4461H125.903V76.9741Z" fill="#0068E8"/>
<path d="M198.14 76.9741H128.694V78.0862H198.14V76.9741Z" fill="#0068E8"/>
</g>
<defs>
<linearGradient id="paint0_linear_23_2" x1="1.91111" y1="85.9876" x2="265.575" y2="37.6893" gradientUnits="userSpaceOnUse">
<stop stop-color="#00B1FF"/>
<stop offset="1" stop-color="#00EBC7"/>
</linearGradient>
<clipPath id="clip0_23_2">
<rect width="252" height="84" fill="white"/>
</clipPath>
</defs>
</svg>
