<svg width="273" height="290" viewBox="0 0 273 290" fill="none" xmlns="http://www.w3.org/2000/svg">
<path d="M9.47455 67.168L262.582 67.1689V254.473H9.47455V67.168ZM261.249 68.5009H10.8071V253.141H261.249V68.5009Z" fill="#00EBC7"/>
<g style="mix-blend-mode:screen" opacity="0.1">
<path d="M14.1386 249.81H257.918V71.833H14.1386V249.81Z" fill="#0068E8"/>
<path d="M13.8054 71.499H258.251V250.143H13.8054V71.499ZM257.584 72.166H14.4717V249.476H257.584V72.166Z" fill="#00EBC7"/>
</g>
<g style="mix-blend-mode:screen" opacity="0.2">
<path d="M20.2017 225.957H37.9914V243.746H20.2017V225.957ZM36.6588 227.289H21.5342V242.414H36.6588V227.289Z" fill="#0068E8"/>
<path d="M36.6588 225.957H54.4485V243.746H36.6588V225.957ZM53.1159 227.289H37.9913V242.414H53.1159V227.289Z" fill="#0068E8"/>
<path d="M53.1026 225.957H70.8923V243.746H53.1026V225.957ZM69.5597 227.289H54.4352V242.414H69.5597V227.289Z" fill="#0068E8"/>
<path d="M69.5597 225.957H87.3361V243.746H69.5597V225.957ZM86.0035 227.289H70.8923V242.414H86.0035V227.289Z" fill="#0068E8"/>
<path d="M86.0035 225.957H103.793V243.746H86.0035V225.957ZM102.461 227.289H87.336V242.414H102.461V227.289Z" fill="#0068E8"/>
<path d="M102.461 225.957H120.251V243.746H102.461V225.957ZM118.918 227.289H103.793V242.414H118.918V227.289Z" fill="#0068E8"/>
<path d="M118.905 225.957H136.694V243.746H118.905V225.957ZM135.362 227.289H120.237V242.414H135.362V227.289Z" fill="#0068E8"/>
<path d="M135.362 225.957H153.151V243.746H135.362V225.957ZM151.819 227.289H136.694V242.414H151.819V227.289Z" fill="#0068E8"/>
<path d="M151.819 225.957H169.609V243.746H151.819V225.957ZM168.276 227.289H153.152V242.414H168.276V227.289Z" fill="#0068E8"/>
<path d="M168.263 225.957H186.039V243.746H168.263V225.957ZM184.707 227.289H169.595V242.414H184.707V227.289Z" fill="#0068E8"/>
<path d="M184.72 225.957H202.51V243.746H184.72V225.957ZM201.177 227.289H186.052V242.414H201.177V227.289Z" fill="#0068E8"/>
<path d="M201.164 225.957H218.953V243.746H201.164V225.957ZM217.621 227.289H202.496V242.414H217.621V227.289Z" fill="#0068E8"/>
<path d="M217.621 225.957H235.41V243.746H217.621V225.957ZM234.078 227.289H218.953V242.414H234.078V227.289Z" fill="#0068E8"/>
<path d="M234.065 225.957H251.854V243.746H234.065V225.957ZM250.522 227.289H235.397V242.414H250.522V227.289Z" fill="#0068E8"/>
<path d="M20.2017 209.513H37.9914V227.289H20.2017V209.513ZM36.6588 210.845H21.5342V225.956L36.6588 225.957V210.845Z" fill="#0068E8"/>
<path d="M36.6588 209.513H54.4485V227.289H36.6588V209.513ZM53.1159 210.845H37.9914V225.956L53.1159 225.957V210.845Z" fill="#0068E8"/>
<path d="M53.1026 209.513H70.8923V227.289H53.1026V209.513ZM69.5597 210.845H54.4351V225.956L69.5597 225.957V210.845Z" fill="#0068E8"/>
<path d="M69.5597 209.513H87.3361V227.289H69.5597V209.513ZM86.0035 210.845H70.8923V225.956L86.0035 225.957V210.845Z" fill="#0068E8"/>
<path d="M86.0035 209.513H103.793V227.289H86.0035V209.513ZM102.461 210.845H87.336V225.956L102.461 225.957V210.845Z" fill="#0068E8"/>
<path d="M102.461 209.513H120.251V227.289H102.461V209.513ZM118.918 210.845H103.793V225.956L118.918 225.957V210.845Z" fill="#0068E8"/>
<path d="M118.905 209.513H136.694V227.289H118.905V209.513ZM135.362 210.845H120.237V225.956L135.362 225.957V210.845Z" fill="#0068E8"/>
<path d="M135.362 209.513H153.151V227.289H135.362V209.513ZM151.819 210.845H136.694V225.956L151.819 225.957V210.845Z" fill="#0068E8"/>
<path d="M151.819 209.513H169.609V227.289H151.819V209.513ZM168.276 210.845H153.152V225.956L168.276 225.957V210.845Z" fill="#0068E8"/>
<path d="M168.263 209.513H186.039V227.289H168.263V209.513ZM184.707 210.845H169.595V225.956L184.707 225.957V210.845Z" fill="#0068E8"/>
<path d="M184.72 209.513H202.51V227.289H184.72V209.513ZM201.177 210.845H186.053V225.956L201.177 225.957V210.845Z" fill="#0068E8"/>
<path d="M201.164 209.513H218.953V227.289H201.164V209.513ZM217.621 210.845H202.496V225.956L217.621 225.957V210.845Z" fill="#0068E8"/>
<path d="M217.621 209.513H235.41V227.289H217.621V209.513ZM234.078 210.845H218.953V225.956L234.078 225.957V210.845Z" fill="#0068E8"/>
<path d="M234.065 209.513H251.854V227.289H234.065V209.513ZM250.522 210.845H235.397V225.956L250.522 225.957V210.845Z" fill="#0068E8"/>
<path d="M20.2017 193.056H37.9914V210.845H20.2017V193.056ZM36.6588 194.388H21.5342V209.513H36.6588V194.388Z" fill="#0068E8"/>
<path d="M36.6588 193.056H54.4484V210.845H36.6588V193.056ZM53.1159 194.388H37.9913V209.513H53.1159V194.388Z" fill="#0068E8"/>
<path d="M53.1026 193.056H70.8923V210.845H53.1026V193.056ZM69.5597 194.388H54.4351V209.513H69.5597V194.388Z" fill="#0068E8"/>
<path d="M69.5597 193.056H87.3361V210.845H69.5597V193.056ZM86.0035 194.388H70.8922V209.513H86.0035V194.388Z" fill="#0068E8"/>
<path d="M86.0035 193.056H103.793V210.845H86.0035V193.056ZM102.461 194.388H87.336V209.513H102.461V194.388Z" fill="#0068E8"/>
<path d="M102.461 193.056H120.251V210.845H102.461V193.056ZM118.918 194.388H103.793V209.513H118.918V194.388Z" fill="#0068E8"/>
<path d="M118.905 193.056H136.694V210.845H118.905V193.056ZM135.362 194.388H120.237V209.513H135.362V194.388Z" fill="#0068E8"/>
<path d="M135.362 193.056H153.151V210.845H135.362V193.056ZM151.819 194.388H136.694V209.513H151.819V194.388Z" fill="#0068E8"/>
<path d="M151.819 193.056H169.609V210.845H151.819V193.056ZM168.276 194.388H153.152V209.513H168.276V194.388Z" fill="#0068E8"/>
<path d="M168.263 193.056H186.039V210.845H168.263V193.056ZM184.707 194.388H169.595V209.513H184.707V194.388Z" fill="#0068E8"/>
<path d="M184.72 193.056H202.51V210.845H184.72V193.056ZM201.177 194.388H186.052V209.513H201.177V194.388Z" fill="#0068E8"/>
<path d="M201.164 193.056H218.953V210.845H201.164V193.056ZM217.621 194.388H202.496V209.513H217.621V194.388Z" fill="#0068E8"/>
<path d="M217.621 193.056H235.41V210.845H217.621V193.056ZM234.078 194.388H218.953V209.513H234.078V194.388Z" fill="#0068E8"/>
<path d="M234.065 193.056H251.854V210.845H234.065V193.056ZM250.522 194.388H235.397V209.513H250.522V194.388Z" fill="#0068E8"/>
<path d="M20.2017 176.612H37.9914V194.401H20.2017V176.612ZM36.6588 177.944H21.5343V193.069H36.6588V177.944Z" fill="#0068E8"/>
<path d="M36.6588 176.612H54.4485V194.401H36.6588V176.612ZM53.1159 177.944H37.9914V193.069H53.1159V177.944Z" fill="#0068E8"/>
<path d="M53.1026 176.612H70.8923V194.401H53.1026V176.612ZM69.5597 177.944H54.4351V193.069H69.5597V177.944Z" fill="#0068E8"/>
<path d="M69.5597 176.612H87.3361V194.401H69.5597V176.612ZM86.0035 177.944H70.8923V193.069H86.0035V177.944Z" fill="#0068E8"/>
<path d="M86.0035 176.612H103.793V194.401H86.0035V176.612ZM102.461 177.944H87.336V193.069H102.461V177.944Z" fill="#0068E8"/>
<path d="M102.461 176.612H120.251V194.401H102.461V176.612ZM118.918 177.944H103.793V193.069H118.918V177.944Z" fill="#0068E8"/>
<path d="M118.905 176.612H136.694V194.401H118.905V176.612ZM135.362 177.944H120.237V193.069H135.362V177.944Z" fill="#0068E8"/>
<path d="M135.362 176.612H153.151V194.401H135.362V176.612ZM151.819 177.944H136.694V193.069H151.819V177.944Z" fill="#0068E8"/>
<path d="M151.819 176.612H169.609V194.401H151.819V176.612ZM168.276 177.944H153.152V193.069H168.276V177.944Z" fill="#0068E8"/>
<path d="M168.263 176.612H186.039V194.401H168.263V176.612ZM184.707 177.944H169.595V193.069H184.707V177.944Z" fill="#0068E8"/>
<path d="M184.72 176.612H202.51V194.401H184.72V176.612ZM201.177 177.944H186.052V193.069H201.177V177.944Z" fill="#0068E8"/>
<path d="M201.164 176.612H218.953V194.401H201.164V176.612ZM217.621 177.944H202.496V193.069H217.621V177.944Z" fill="#0068E8"/>
<path d="M217.621 176.612H235.41V194.401H217.621V176.612ZM234.078 177.944H218.953V193.069H234.078V177.944Z" fill="#0068E8"/>
<path d="M234.065 176.612H251.854V194.401H234.065V176.612ZM250.522 177.944H235.397V193.069H250.522V177.944Z" fill="#0068E8"/>
<path d="M20.2017 160.155H37.9914V177.944H20.2017V160.155ZM36.6588 161.487H21.5343V176.612H36.6588V161.487Z" fill="#0068E8"/>
<path d="M36.6588 160.155H54.4485V177.944H36.6588V160.155ZM53.1159 161.487H37.9914V176.612H53.1159V161.487Z" fill="#0068E8"/>
<path d="M53.1026 160.155H70.8923V177.944H53.1026V160.155ZM69.5597 161.487H54.4351V176.612H69.5597V161.487Z" fill="#0068E8"/>
<path d="M69.5597 160.155H87.3361V177.944H69.5597V160.155ZM86.0035 161.487H70.8923V176.612H86.0035V161.487Z" fill="#0068E8"/>
<path d="M86.0035 160.155H103.793V177.944H86.0035V160.155ZM102.461 161.487H87.336V176.612H102.461V161.487Z" fill="#0068E8"/>
<path d="M102.461 160.155H120.251V177.944H102.461V160.155ZM118.918 161.487H103.793V176.612H118.918V161.487Z" fill="#0068E8"/>
<path d="M118.905 160.155H136.694V177.944H118.905V160.155ZM135.362 161.487H120.237V176.612H135.362V161.487Z" fill="#0068E8"/>
<path d="M135.362 160.155H153.151V177.944H135.362V160.155ZM151.819 161.487H136.694V176.612H151.819V161.487Z" fill="#0068E8"/>
<path d="M151.819 160.155H169.609V177.944H151.819V160.155ZM168.276 161.487H153.152V176.612H168.276V161.487Z" fill="#0068E8"/>
<path d="M168.263 160.155H186.039V177.944H168.263V160.155ZM184.707 161.487H169.595V176.612H184.707V161.487Z" fill="#0068E8"/>
<path d="M184.72 160.155H202.51V177.944H184.72V160.155ZM201.177 161.487H186.053V176.612H201.177V161.487Z" fill="#0068E8"/>
<path d="M201.164 160.155H218.953V177.944H201.164V160.155ZM217.621 161.487H202.496V176.612H217.621V161.487Z" fill="#0068E8"/>
<path d="M217.621 160.155H235.41V177.944H217.621V160.155ZM234.078 161.487H218.953V176.612H234.078V161.487Z" fill="#0068E8"/>
<path d="M234.065 160.155H251.854V177.944H234.065V160.155ZM250.522 161.487H235.397V176.612H250.522V161.487Z" fill="#0068E8"/>
<path d="M20.2017 143.697H37.9914V161.487H20.2017V143.697ZM36.6588 145.03H21.5342V160.155H36.6588V145.03Z" fill="#0068E8"/>
<path d="M36.6588 143.697H54.4484V161.487H36.6588V143.697ZM53.1159 145.03H37.9913V160.155H53.1159V145.03Z" fill="#0068E8"/>
<path d="M53.1026 143.697H70.8923V161.487H53.1026V143.697ZM69.5597 145.03H54.4351V160.155H69.5597V145.03Z" fill="#0068E8"/>
<path d="M69.5597 143.698H87.3361V161.487H69.5597V143.698ZM86.0035 145.03H70.8922V160.155H86.0035V145.03Z" fill="#0068E8"/>
<path d="M86.0035 143.698H103.793V161.487H86.0035V143.698ZM102.461 145.03H87.336V160.155H102.461V145.03Z" fill="#0068E8"/>
<path d="M102.461 143.698H120.251V161.487H102.461V143.698ZM118.918 145.03H103.793V160.155H118.918V145.03Z" fill="#0068E8"/>
<path d="M118.905 143.698H136.694V161.487H118.905V143.698ZM135.362 145.03H120.237V160.155H135.362V145.03Z" fill="#0068E8"/>
<path d="M135.362 143.698H153.151V161.487H135.362V143.698ZM151.819 145.03H136.694V160.155H151.819V145.03Z" fill="#0068E8"/>
<path d="M151.819 143.698H169.609V161.487H151.819V143.698ZM168.276 145.03H153.152V160.155H168.276V145.03Z" fill="#0068E8"/>
<path d="M168.263 143.698H186.039V161.487H168.263V143.698ZM184.707 145.03H169.595V160.155H184.707V145.03Z" fill="#0068E8"/>
<path d="M184.72 143.698H202.51V161.487H184.72V143.698ZM201.177 145.03H186.052V160.155H201.177V145.03Z" fill="#0068E8"/>
<path d="M201.164 143.698H218.953V161.487H201.164V143.698ZM217.621 145.03H202.496V160.155H217.621V145.03Z" fill="#0068E8"/>
<path d="M217.621 143.698H235.41V161.487H217.621V143.698ZM234.078 145.03H218.953V160.155H234.078V145.03Z" fill="#0068E8"/>
<path d="M234.065 143.697H251.854V161.487H234.065V143.697ZM250.522 145.03H235.397V160.155H250.522V145.03Z" fill="#0068E8"/>
<path d="M20.2017 127.254H37.9914V145.043H20.2017V127.254ZM36.6588 128.586H21.5342V143.711H36.6588V128.586Z" fill="#0068E8"/>
<path d="M36.6588 127.254H54.4484V145.043H36.6588V127.254ZM53.1159 128.586H37.9913V143.711H53.1159V128.586Z" fill="#0068E8"/>
<path d="M53.1026 127.254H70.8923V145.043H53.1026V127.254ZM69.5597 128.586H54.4351V143.711H69.5597V128.586Z" fill="#0068E8"/>
<path d="M69.5597 127.254H87.3361V145.043H69.5597V127.254ZM86.0035 128.586H70.8922V143.711H86.0035V128.586Z" fill="#0068E8"/>
<path d="M86.0035 127.254H103.793V145.043H86.0035V127.254ZM102.461 128.586H87.336V143.711H102.461V128.586Z" fill="#0068E8"/>
<path d="M102.461 127.254H120.251V145.043H102.461V127.254ZM118.918 128.586H103.793V143.711H118.918V128.586Z" fill="#0068E8"/>
<path d="M118.905 127.254H136.694V145.043H118.905V127.254ZM135.362 128.586H120.237V143.711H135.362V128.586Z" fill="#0068E8"/>
<path d="M135.362 127.254H153.151V145.043H135.362V127.254ZM151.819 128.586H136.694V143.711H151.819V128.586Z" fill="#0068E8"/>
<path d="M151.819 127.254H169.609V145.043H151.819V127.254ZM168.276 128.586H153.152V143.711H168.276V128.586Z" fill="#0068E8"/>
<path d="M168.263 127.254H186.039V145.043H168.263V127.254ZM184.707 128.586H169.595V143.711H184.707V128.586Z" fill="#0068E8"/>
<path d="M184.72 127.254H202.51V145.043H184.72V127.254ZM201.177 128.586H186.052V143.711H201.177V128.586Z" fill="#0068E8"/>
<path d="M201.164 127.254H218.953V145.043H201.164V127.254ZM217.621 128.586H202.496V143.711H217.621V128.586Z" fill="#0068E8"/>
<path d="M217.621 127.254H235.41V145.043H217.621V127.254ZM234.078 128.586H218.953V143.711H234.078V128.586Z" fill="#0068E8"/>
<path d="M234.065 127.254H251.854V145.043H234.065V127.254ZM250.522 128.586H235.397V143.711H250.522V128.586Z" fill="#0068E8"/>
<path d="M20.2017 110.796H37.9914V128.573H20.2017V110.796ZM36.6588 112.129H21.5342V127.24H36.6588V112.129Z" fill="#0068E8"/>
<path d="M36.6588 110.796H54.4485V128.573H36.6588V110.796ZM53.1159 112.129H37.9913V127.24H53.1159V112.129Z" fill="#0068E8"/>
<path d="M53.1026 110.796H70.8923V128.573H53.1026V110.796ZM69.5597 112.129H54.4352V127.24H69.5597V112.129Z" fill="#0068E8"/>
<path d="M69.5597 110.796H87.3361V128.573H69.5597V110.796ZM86.0035 112.129H70.8923V127.24H86.0035V112.129Z" fill="#0068E8"/>
<path d="M86.0035 110.796H103.793V128.573H86.0035V110.796ZM102.461 112.129H87.336V127.24H102.461V112.129Z" fill="#0068E8"/>
<path d="M102.461 110.796H120.251V128.573H102.461V110.796ZM118.918 112.129H103.793V127.24H118.918V112.129Z" fill="#0068E8"/>
<path d="M118.905 110.796H136.694V128.573H118.905V110.796ZM135.362 112.129H120.237V127.24H135.362V112.129Z" fill="#0068E8"/>
<path d="M135.362 110.796H153.151V128.573H135.362V110.796ZM151.819 112.129H136.694V127.24H151.819V112.129Z" fill="#0068E8"/>
<path d="M151.819 110.796H169.609V128.573H151.819V110.796ZM168.276 112.129H153.152V127.24H168.276V112.129Z" fill="#0068E8"/>
<path d="M168.263 110.796H186.039V128.573H168.263V110.796ZM184.707 112.129H169.595V127.24H184.707V112.129Z" fill="#0068E8"/>
<path d="M184.72 110.796H202.51V128.573H184.72V110.796ZM201.177 112.129H186.052V127.24H201.177V112.129Z" fill="#0068E8"/>
<path d="M201.164 110.796H218.953V128.573H201.164V110.796ZM217.621 112.129H202.496V127.24H217.621V112.129Z" fill="#0068E8"/>
<path d="M217.621 110.796H235.41V128.573H217.621V110.796ZM234.078 112.129H218.953V127.24H234.078V112.129Z" fill="#0068E8"/>
<path d="M234.065 110.796H251.854V128.573H234.065V110.796ZM250.522 112.129H235.397V127.24H250.522V112.129Z" fill="#0068E8"/>
<path d="M20.2017 94.353H37.9914V112.142H20.2017V94.353ZM36.6588 95.685H21.5343V110.81H36.6588V95.685Z" fill="#0068E8"/>
<path d="M36.6588 94.353H54.4485V112.142H36.6588V94.353ZM53.1159 95.685H37.9914V110.81H53.1159V95.685Z" fill="#0068E8"/>
<path d="M53.1026 94.353H70.8923V112.142H53.1026V94.353ZM69.5597 95.685H54.4352V110.81H69.5597V95.685Z" fill="#0068E8"/>
<path d="M69.5597 94.353H87.3361V112.142H69.5597V94.353ZM86.0036 95.685H70.8923V110.81H86.0036V95.685Z" fill="#0068E8"/>
<path d="M86.0035 94.353H103.793V112.142H86.0035V94.353ZM102.461 95.685H87.336V110.81H102.461V95.685Z" fill="#0068E8"/>
<path d="M102.461 94.353H120.251V112.142H102.461V94.353ZM118.918 95.685H103.793V110.81H118.918V95.685Z" fill="#0068E8"/>
<path d="M118.905 94.353H136.694V112.142H118.905V94.353ZM135.362 95.685H120.237V110.81H135.362V95.685Z" fill="#0068E8"/>
<path d="M135.362 94.353H153.151V112.142H135.362V94.353ZM151.819 95.685H136.694V110.81H151.819V95.685Z" fill="#0068E8"/>
<path d="M151.819 94.353H169.609V112.142H151.819V94.353ZM168.276 95.685H153.152V110.81H168.276V95.685Z" fill="#0068E8"/>
<path d="M168.263 94.353H186.039V112.142H168.263V94.353ZM184.707 95.685H169.595V110.81H184.707V95.685Z" fill="#0068E8"/>
<path d="M184.72 94.353H202.51V112.142H184.72V94.353ZM201.177 95.685H186.053V110.81H201.177V95.685Z" fill="#0068E8"/>
<path d="M201.164 94.353H218.953V112.142H201.164V94.353ZM217.621 95.685H202.496V110.81H217.621V95.685Z" fill="#0068E8"/>
<path d="M217.621 94.353H235.41V112.142H217.621V94.353ZM234.078 95.685H218.953V110.81H234.078V95.685Z" fill="#0068E8"/>
<path d="M234.065 94.353H251.854V112.142H234.065V94.353ZM250.522 95.685H235.397V110.81H250.522V95.685Z" fill="#0068E8"/>
<path d="M20.2017 77.895H37.9914V95.685H20.2017V77.895ZM36.6588 79.228H21.5342V94.353H36.6588V79.228Z" fill="#0068E8"/>
<path d="M36.6588 77.896H54.4484V95.685H36.6588V77.896ZM53.1159 79.228H37.9913V94.353H53.1159V79.228Z" fill="#0068E8"/>
<path d="M53.1026 77.896H70.8923V95.685H53.1026V77.896ZM69.5597 79.228H54.4351V94.353H69.5597V79.228Z" fill="#0068E8"/>
<path d="M69.5597 77.896H87.3361V95.685H69.5597V77.896ZM86.0035 79.228H70.8922V94.353H86.0035V79.228Z" fill="#0068E8"/>
<path d="M86.0035 77.896H103.793V95.685H86.0035V77.896ZM102.461 79.228H87.336V94.353H102.461V79.228Z" fill="#0068E8"/>
<path d="M102.461 77.896H120.251V95.685H102.461V77.896ZM118.918 79.228H103.793V94.353H118.918V79.228Z" fill="#0068E8"/>
<path d="M118.905 77.896H136.694V95.685H118.905V77.896ZM135.362 79.228H120.237V94.353H135.362V79.228Z" fill="#0068E8"/>
<path d="M135.362 77.896H153.151V95.685H135.362V77.896ZM151.819 79.228H136.694V94.353H151.819V79.228Z" fill="#0068E8"/>
<path d="M151.819 77.896H169.609V95.685H151.819V77.896ZM168.276 79.228H153.152V94.353H168.276V79.228Z" fill="#0068E8"/>
<path d="M168.263 77.896H186.039V95.685H168.263V77.896ZM184.707 79.228H169.595V94.353H184.707V79.228Z" fill="#0068E8"/>
<path d="M184.72 77.896H202.51V95.685H184.72V77.896ZM201.177 79.228H186.052V94.353H201.177V79.228Z" fill="#0068E8"/>
<path d="M201.164 77.896H218.953V95.685H201.164V77.896ZM217.621 79.228H202.496V94.353H217.621V79.228Z" fill="#0068E8"/>
<path d="M217.621 77.896H235.41V95.685H217.621V77.896ZM234.078 79.228H218.953V94.353H234.078V79.228Z" fill="#0068E8"/>
<path d="M234.065 77.895H251.854V95.685H234.065V77.895ZM250.522 79.228H235.397V94.353H250.522V79.228Z" fill="#0068E8"/>
</g>
<path d="M264.287 57.694H272.056V65.476H270.723V59.027H264.287V57.694Z" fill="#00EBC7"/>
<path d="M270.723 256.179H272.056V263.948H264.287V262.615H270.723V256.179Z" fill="#00EBC7"/>
<path d="M6.20484e-05 57.694H7.7689V59.026H1.33262V65.476H6.10352e-05L6.20484e-05 57.694Z" fill="#00EBC7"/>
<path d="M1.01328e-06 256.179H1.33257V262.615H7.76884V263.948H0L1.01328e-06 256.179Z" fill="#00EBC7"/>
<g filter="url(#filter0_d_9_1250)">
<path d="M151.962 47.159L146.218 46.224L138.788 40.129L151.962 47.159Z" stroke="#00B1FF" stroke-miterlimit="10"/>
<path d="M198.251 80.9081L202.31 72.2881L204.58 87.2371L198.251 80.9081Z" stroke="#00B1FF" stroke-miterlimit="10"/>
<path d="M196.614 137.64L202.943 115.434L209.74 146.06L196.614 137.64Z" stroke="#00B1FF" stroke-miterlimit="10"/>
<path d="M196.614 137.64L184.892 171.863L205.75 160.141L196.614 137.64Z" stroke="#00B1FF" stroke-miterlimit="10"/>
<path d="M196.614 137.64L191.455 123.345L202.943 115.434L196.614 137.64Z" stroke="#00B1FF" stroke-miterlimit="10"/>
<path d="M176.218 128.03L191.455 123.345L196.614 137.64L176.218 128.03Z" stroke="#00B1FF" stroke-miterlimit="10"/>
<path d="M176.218 128.03L185.828 98.725L191.455 123.345L176.218 128.03Z" stroke="#00B1FF" stroke-miterlimit="10"/>
<path d="M175.984 90.5181L182.78 85.1321L185.828 98.725L175.984 90.5181Z" stroke="#00B1FF" stroke-miterlimit="10"/>
<path d="M175.984 90.5181L176.218 128.03L185.828 98.725L175.984 90.5181Z" stroke="#00B1FF" stroke-miterlimit="10"/>
<path d="M174.58 78.803L172.001 66.145L182.78 85.132L174.58 78.803Z" stroke="#00B1FF" stroke-miterlimit="10"/>
<path d="M174.581 78.803L175.984 90.518L182.78 85.132L174.581 78.803Z" stroke="#00B1FF" stroke-miterlimit="10"/>
<path d="M174.581 78.803L165.204 84.189L175.984 90.518L174.581 78.803Z" stroke="#00B1FF" stroke-miterlimit="10"/>
<path d="M172.001 66.145L166.608 72.24L174.58 78.803L172.001 66.145Z" stroke="#00B1FF" stroke-miterlimit="10"/>
<path d="M167.316 60.2839L166.608 72.2399L172.001 66.145L167.316 60.2839Z" stroke="#00B1FF" stroke-miterlimit="10"/>
<path d="M167.316 60.2841L158.339 57.113L166.608 72.2401L167.316 60.2841Z" stroke="#00B1FF" stroke-miterlimit="10"/>
<path d="M142.001 51.844L156.764 51.61L158.339 57.113L142.001 51.844Z" stroke="#00B1FF" stroke-miterlimit="10"/>
<path d="M127.232 48.824L124.865 50.977L142.001 51.844L127.232 48.824Z" stroke="#00B1FF" stroke-miterlimit="10"/>
<path d="M127.232 48.824L110.804 33.8L124.865 50.9771L127.232 48.824Z" stroke="#00B1FF" stroke-miterlimit="10"/>
<path d="M136.842 47.8611L127.232 48.824L142.001 51.8441L136.842 47.8611Z" stroke="#00B1FF" stroke-miterlimit="10"/>
<path d="M136.842 47.861L127.232 48.824L132.391 45.563L136.842 47.861Z" stroke="#00B1FF" stroke-miterlimit="10"/>
<path d="M110.804 33.8L127.232 48.824L132.391 45.563L110.804 33.8Z" stroke="#00B1FF" stroke-miterlimit="10"/>
<path d="M138.72 44.579L136.842 47.861L142.001 51.844L138.72 44.579Z" stroke="#00B1FF" stroke-miterlimit="10"/>
<path d="M138.72 44.579L132.391 45.563L136.842 47.861L138.72 44.579Z" stroke="#00B1FF" stroke-miterlimit="10"/>
<path d="M138.72 44.579L126.53 33.332L132.391 45.563L138.72 44.579Z" stroke="#00B1FF" stroke-miterlimit="10"/>
<path d="M141.32 31.44L134.874 30.388L139.47 12L141.32 31.44Z" stroke="#00B1FF" stroke-miterlimit="10"/>
<path d="M138.789 40.129L134.874 30.3879L141.32 31.4399L138.789 40.129Z" stroke="#00B1FF" stroke-miterlimit="10"/>
<path d="M138.789 40.1291L126.53 33.332L138.72 44.579L138.789 40.1291Z" stroke="#00B1FF" stroke-miterlimit="10"/>
<path d="M146.218 46.224L142.001 51.844L156.764 51.61L146.218 46.224Z" stroke="#00B1FF" stroke-miterlimit="10"/>
<path d="M146.218 46.224L138.72 44.58L138.788 40.129L146.218 46.224Z" stroke="#00B1FF" stroke-miterlimit="10"/>
<path d="M146.218 46.224L138.72 44.579L142.001 51.844L146.218 46.224Z" stroke="#00B1FF" stroke-miterlimit="10"/>
<path d="M157.706 48.095L146.218 46.224L156.764 51.61L157.706 48.095Z" stroke="#00B1FF" stroke-miterlimit="10"/>
<path d="M160.045 37.3149L151.962 47.1589L157.706 48.0949L160.045 37.3149Z" stroke="#00B1FF" stroke-miterlimit="10"/>
<path d="M160.045 37.315L159.577 23.922L151.962 47.159L160.045 37.315Z" stroke="#00B1FF" stroke-miterlimit="10"/>
<path d="M151.962 47.1589L141.32 31.4399L138.788 40.129L151.962 47.1589Z" stroke="#00B1FF" stroke-miterlimit="10"/>
<path d="M161.455 38.952L160.045 37.315L159.577 23.922L161.455 38.952Z" stroke="#00B1FF" stroke-miterlimit="10"/>
<path d="M161.455 38.952L157.706 48.0949L160.045 37.3149L161.455 38.952Z" stroke="#00B1FF" stroke-miterlimit="10"/>
<path d="M163.092 46.925L157.706 48.095L161.455 38.952L163.092 46.925Z" stroke="#00B1FF" stroke-miterlimit="10"/>
<path d="M166.608 51.61L158.339 57.113L167.316 60.284L166.608 51.61Z" stroke="#00B1FF" stroke-miterlimit="10"/>
<path d="M166.608 51.61L157.706 48.095L163.092 46.925L166.608 51.61Z" stroke="#00B1FF" stroke-miterlimit="10"/>
<path d="M166.608 51.61H156.764L157.706 48.095L166.608 51.61Z" stroke="#00B1FF" stroke-miterlimit="10"/>
<path d="M166.608 51.61H156.764L158.339 57.113L166.608 51.61Z" stroke="#00B1FF" stroke-miterlimit="10"/>
<path d="M172.702 60.051L167.316 60.284L172.001 66.145L172.702 60.051Z" stroke="#00B1FF" stroke-miterlimit="10"/>
<path d="M172.702 60.051L166.608 51.61L167.316 60.284L172.702 60.051Z" stroke="#00B1FF" stroke-miterlimit="10"/>
<path d="M179.265 63.8L172.001 66.1451L190.169 69.6611L179.265 63.8Z" stroke="#00B1FF" stroke-miterlimit="10"/>
<path d="M175.75 44.579L169.304 55.345L172.702 60.051L175.75 44.579Z" stroke="#00B1FF" stroke-miterlimit="10"/>
<path d="M175.75 59.583L179.265 63.8L175.75 44.579V59.583Z" stroke="#00B1FF" stroke-miterlimit="10"/>
<path d="M175.75 59.583L172.702 60.051L175.75 44.579V59.583Z" stroke="#00B1FF" stroke-miterlimit="10"/>
<path d="M175.75 59.583L172.001 66.145L179.265 63.8L175.75 59.583Z" stroke="#00B1FF" stroke-miterlimit="10"/>
<path d="M175.75 59.583L172.001 66.145L172.702 60.051L175.75 59.583Z" stroke="#00B1FF" stroke-miterlimit="10"/>
<path d="M190.169 69.661L198.251 80.908L202.31 72.288L190.169 69.661Z" stroke="#00B1FF" stroke-miterlimit="10"/>
<path d="M190.169 69.661L182.78 85.132L198.251 80.908L190.169 69.661Z" stroke="#00B1FF" stroke-miterlimit="10"/>
<path d="M190.169 69.661L172.001 66.145L182.78 85.132L190.169 69.661Z" stroke="#00B1FF" stroke-miterlimit="10"/>
<path d="M208.095 72.708L216.77 77.627L218.641 73.878L208.095 72.708Z" stroke="#00B1FF" stroke-miterlimit="10"/>
<path d="M220.051 74.5789L216.77 77.627L218.641 73.877L220.051 74.5789Z" stroke="#00B1FF" stroke-miterlimit="10"/>
<path d="M220.285 80.908L216.77 77.627L220.051 74.579L220.285 80.908Z" stroke="#00B1FF" stroke-miterlimit="10"/>
<path d="M213.021 80.2059L216.77 77.627L220.285 80.908L213.021 80.2059Z" stroke="#00B1FF" stroke-miterlimit="10"/>
<path d="M213.021 80.2061L209.74 88.4131L220.285 80.9081L213.021 80.2061Z" stroke="#00B1FF" stroke-miterlimit="10"/>
<path d="M213.021 80.206L208.095 72.708L216.77 77.627L213.021 80.206Z" stroke="#00B1FF" stroke-miterlimit="10"/>
<path d="M213.021 80.2061L204.58 87.2371L209.739 88.4131L213.021 80.2061Z" stroke="#00B1FF" stroke-miterlimit="10"/>
<path d="M213.021 80.2061L202.31 72.2881L208.095 72.7081L213.021 80.2061Z" stroke="#00B1FF" stroke-miterlimit="10"/>
<path d="M213.021 80.2061L202.31 72.2881L204.58 87.2371L213.021 80.2061Z" stroke="#00B1FF" stroke-miterlimit="10"/>
<path d="M169.304 130.025L184.892 171.863L196.614 137.64L169.304 130.025Z" stroke="#00B1FF" stroke-miterlimit="10"/>
<path d="M169.304 130.025L176.218 128.03L196.614 137.64L169.304 130.025Z" stroke="#00B1FF" stroke-miterlimit="10"/>
<path d="M169.304 130.025L175.984 90.5181L176.218 128.03L169.304 130.025Z" stroke="#00B1FF" stroke-miterlimit="10"/>
<path d="M81.7606 164.358L69.1031 163.891L83.5561 154.845L81.7606 164.358Z" stroke="#00B1FF" stroke-miterlimit="10"/>
<path d="M81.7606 164.358L69.1031 163.891L71.9166 175.145L81.7606 164.358Z" stroke="#00B1FF" stroke-miterlimit="10"/>
<path d="M78.0114 176.548L71.9165 175.145L81.7605 164.358L78.0114 176.548Z" stroke="#00B1FF" stroke-miterlimit="10"/>
<path d="M79.8825 192.253L71.9165 175.145L78.0114 176.548L79.8825 192.253Z" stroke="#00B1FF" stroke-miterlimit="10"/>
<path d="M55.6819 172.799L71.9165 175.145L74.9641 181.687L55.6819 172.799Z" stroke="#00B1FF" stroke-miterlimit="10"/>
<path d="M55.6819 172.799L69.1031 163.891L71.9165 175.145L55.6819 172.799Z" stroke="#00B1FF" stroke-miterlimit="10"/>
<path d="M39.8049 271.48L36.0558 269.134L40.9744 265.385L39.8049 271.48Z" stroke="#00B1FF" stroke-miterlimit="10"/>
<path d="M39.8049 271.48L36.0558 269.134L38.8694 278.51L39.8049 271.48Z" stroke="#00B1FF" stroke-miterlimit="10"/>
<path d="M47.7709 269.368L39.8049 271.48L40.9743 265.385L47.7709 269.368Z" stroke="#00B1FF" stroke-miterlimit="10"/>
<path d="M47.771 269.368L38.8694 278.51L39.805 271.48L47.771 269.368Z" stroke="#00B1FF" stroke-miterlimit="10"/>
<path d="M63.476 232.338L40.9744 265.385L58.7913 224.599L63.476 232.338Z" stroke="#00B1FF" stroke-miterlimit="10"/>
<path d="M63.476 232.338L40.9744 265.385L47.771 269.368L63.476 232.338Z" stroke="#00B1FF" stroke-miterlimit="10"/>
<path d="M69.103 230.927L58.7912 224.599L74.964 209.128L69.103 230.927Z" stroke="#00B1FF" stroke-miterlimit="10"/>
<path d="M69.103 230.927L58.7912 224.599L63.4759 232.338L69.103 230.927Z" stroke="#00B1FF" stroke-miterlimit="10"/>
<path d="M69.1031 230.927L47.771 269.368L63.4759 232.338L69.1031 230.927Z" stroke="#00B1FF" stroke-miterlimit="10"/>
<path d="M81.7606 218.036L69.1031 230.927L74.9641 209.128L81.7606 218.036Z" stroke="#00B1FF" stroke-miterlimit="10"/>
<path d="M86.2113 200.46L74.9641 209.128L81.7605 218.036L86.2113 200.46Z" stroke="#00B1FF" stroke-miterlimit="10"/>
<path d="M86.2113 200.46L74.9641 209.128L79.8825 192.253L86.2113 200.46Z" stroke="#00B1FF" stroke-miterlimit="10"/>
<path d="M100.747 189.206L81.7607 218.036L86.2114 200.46L100.747 189.206Z" stroke="#00B1FF" stroke-miterlimit="10"/>
<path d="M100.747 189.206L79.8826 192.253L86.2114 200.46L100.747 189.206Z" stroke="#00B1FF" stroke-miterlimit="10"/>
<path d="M100.747 189.206L78.0114 176.548L81.7605 164.358L100.747 189.206Z" stroke="#00B1FF" stroke-miterlimit="10"/>
<path d="M100.747 189.206L78.0114 176.548L79.8825 192.253L100.747 189.206Z" stroke="#00B1FF" stroke-miterlimit="10"/>
<path d="M123.483 190.375L81.7607 218.036L100.747 189.206L123.483 190.375Z" stroke="#00B1FF" stroke-miterlimit="10"/>
<path d="M182.079 188.992L170.831 188.876L184.892 171.864L182.079 188.992Z" stroke="#00B1FF" stroke-miterlimit="10"/>
<path d="M190.444 186.461L182.079 188.992L184.892 171.864L190.444 186.461Z" stroke="#00B1FF" stroke-miterlimit="10"/>
<path d="M199.662 172.331L184.892 171.863L205.75 160.141L199.662 172.331Z" stroke="#00B1FF" stroke-miterlimit="10"/>
<path d="M199.662 172.331L184.892 171.864L190.444 186.461L199.662 172.331Z" stroke="#00B1FF" stroke-miterlimit="10"/>
<path d="M208.329 174.911L199.662 172.331L205.75 160.141L208.329 174.911Z" stroke="#00B1FF" stroke-miterlimit="10"/>
<path d="M208.329 174.911L190.444 186.461L199.662 172.331L208.329 174.911Z" stroke="#00B1FF" stroke-miterlimit="10"/>
<path d="M210.675 155.691L196.614 137.64L209.74 146.06L210.675 155.691Z" stroke="#00B1FF" stroke-miterlimit="10"/>
<path d="M210.675 155.691L196.614 137.64L205.75 160.141L210.675 155.691Z" stroke="#00B1FF" stroke-miterlimit="10"/>
<path d="M190.753 219.446L180.909 218.036L187.472 214.989L190.753 219.446Z" stroke="#00B1FF" stroke-miterlimit="10"/>
<path d="M190.753 219.446L179.031 228.348L180.909 218.036L190.753 219.446Z" stroke="#00B1FF" stroke-miterlimit="10"/>
<path d="M205.66 203.267L187.472 214.989L200.129 197.88L205.66 203.267Z" stroke="#00B1FF" stroke-miterlimit="10"/>
<path d="M205.66 203.267L187.472 214.989L190.753 219.446L205.66 203.267Z" stroke="#00B1FF" stroke-miterlimit="10"/>
<path d="M213.956 182.409L200.129 197.88L208.329 174.911L213.956 182.409Z" stroke="#00B1FF" stroke-miterlimit="10"/>
<path d="M213.956 182.409L200.129 197.88L205.66 203.267L213.956 182.409Z" stroke="#00B1FF" stroke-miterlimit="10"/>
<path d="M237.772 168.885L208.329 174.911L213.956 182.409L237.772 168.885Z" stroke="#00B1FF" stroke-miterlimit="10"/>
<path d="M237.772 168.885L205.66 203.267L213.956 182.409L237.772 168.885Z" stroke="#00B1FF" stroke-miterlimit="10"/>
<path d="M237.772 168.885L205.75 160.142L208.329 174.911L237.772 168.885Z" stroke="#00B1FF" stroke-miterlimit="10"/>
<path d="M235.736 158.711L205.75 160.142L237.772 168.885L235.736 158.711Z" stroke="#00B1FF" stroke-miterlimit="10"/>
<path d="M210.675 155.691L205.75 160.142L235.736 158.711L210.675 155.691Z" stroke="#00B1FF" stroke-miterlimit="10"/>
<path d="M199.421 97.3151L204.58 87.2371L209.74 88.4131L199.421 97.3151Z" stroke="#00B1FF" stroke-miterlimit="10"/>
<path d="M199.421 97.3149L198.251 80.908L204.58 87.2369L199.421 97.3149Z" stroke="#00B1FF" stroke-miterlimit="10"/>
<path d="M199.421 97.3149L191.455 123.345L202.943 115.434L199.421 97.3149Z" stroke="#00B1FF" stroke-miterlimit="10"/>
<path d="M199.421 97.3149L182.78 85.132L198.251 80.908L199.421 97.3149Z" stroke="#00B1FF" stroke-miterlimit="10"/>
<path d="M199.421 97.3149L185.828 98.7249L191.455 123.345L199.421 97.3149Z" stroke="#00B1FF" stroke-miterlimit="10"/>
<path d="M199.421 97.3151L182.78 85.1321L185.828 98.725L199.421 97.3151Z" stroke="#00B1FF" stroke-miterlimit="10"/>
<path d="M137.543 178.426L123.483 190.375L154.425 188.738L137.543 178.426Z" stroke="#00B1FF" stroke-miterlimit="10"/>
<path d="M137.543 178.426L118.674 146.665L142.744 141.492L137.543 178.426Z" stroke="#00B1FF" stroke-miterlimit="10"/>
<path d="M149.85 146.782L170.831 188.875L184.892 171.863L149.85 146.782Z" stroke="#00B1FF" stroke-miterlimit="10"/>
<path d="M149.85 146.782L169.304 130.025L184.892 171.863L149.85 146.782Z" stroke="#00B1FF" stroke-miterlimit="10"/>
<path d="M149.85 146.782L154.425 188.738L170.831 188.875L149.85 146.782Z" stroke="#00B1FF" stroke-miterlimit="10"/>
<path d="M149.85 146.782L142.744 141.492L169.304 130.025L149.85 146.782Z" stroke="#00B1FF" stroke-miterlimit="10"/>
<path d="M149.85 146.782L137.543 178.426L154.425 188.738L149.85 146.782Z" stroke="#00B1FF" stroke-miterlimit="10"/>
<path d="M149.85 146.782L137.543 178.426L142.744 141.492L149.85 146.782Z" stroke="#00B1FF" stroke-miterlimit="10"/>
<path d="M114.34 167.406L118.674 146.665L137.543 178.426L114.34 167.406Z" stroke="#00B1FF" stroke-miterlimit="10"/>
<path d="M114.34 167.406L123.483 190.375L137.543 178.426L114.34 167.406Z" stroke="#00B1FF" stroke-miterlimit="10"/>
<path d="M114.34 167.406L98.1466 149.362L118.674 146.665L114.34 167.406Z" stroke="#00B1FF" stroke-miterlimit="10"/>
<path d="M114.34 167.406L100.747 189.206L123.483 190.375L114.34 167.406Z" stroke="#00B1FF" stroke-miterlimit="10"/>
<path d="M114.34 167.406L81.7607 164.358L100.747 189.206L114.34 167.406Z" stroke="#00B1FF" stroke-miterlimit="10"/>
<path d="M114.34 167.406L83.556 154.845L98.1466 149.362L114.34 167.406Z" stroke="#00B1FF" stroke-miterlimit="10"/>
<path d="M114.34 167.406L81.7607 164.358L83.556 154.845L114.34 167.406Z" stroke="#00B1FF" stroke-miterlimit="10"/>
<path d="M165.204 76.691L166.608 72.24L174.581 78.803L165.204 76.691Z" stroke="#00B1FF" stroke-miterlimit="10"/>
<path d="M165.204 76.6909V84.189L174.581 78.8029L165.204 76.6909Z" stroke="#00B1FF" stroke-miterlimit="10"/>
<path d="M165.204 76.691L159.577 72.708L166.608 72.24L165.204 76.691Z" stroke="#00B1FF" stroke-miterlimit="10"/>
<path d="M165.204 76.691L159.577 72.708L165.204 84.189V76.691Z" stroke="#00B1FF" stroke-miterlimit="10"/>
</g>
<g filter="url(#filter1_d_9_1250)">
<path d="M198.199 138.772C199.553 138.772 200.65 137.675 200.65 136.321C200.65 134.967 199.553 133.87 198.199 133.87C196.845 133.87 195.747 134.967 195.747 136.321C195.747 137.675 196.845 138.772 198.199 138.772Z" fill="#00B1FF"/>
</g>
<g filter="url(#filter2_d_9_1250)">
<path d="M188.394 99.5504C189.748 99.5504 190.845 98.4529 190.845 97.099C190.845 95.7451 189.748 94.6476 188.394 94.6476C187.04 94.6476 185.942 95.7451 185.942 97.099C185.942 98.4529 187.04 99.5504 188.394 99.5504Z" fill="#00B1FF"/>
</g>
<g filter="url(#filter3_d_9_1250)">
<path d="M175.436 82.0397C178.144 82.0397 180.339 79.8447 180.339 77.137C180.339 74.4292 178.144 72.2341 175.436 72.2341C172.728 72.2341 170.533 74.4292 170.533 77.137C170.533 79.8447 172.728 82.0397 175.436 82.0397Z" fill="#00B1FF"/>
</g>
<g filter="url(#filter4_d_9_1250)">
<path d="M170.883 65.9314C172.237 65.9314 173.334 64.8339 173.334 63.48C173.334 62.1261 172.237 61.0286 170.883 61.0286C169.529 61.0286 168.431 62.1261 168.431 63.48C168.431 64.8339 169.529 65.9314 170.883 65.9314Z" fill="#00B1FF"/>
</g>
<g filter="url(#filter5_d_9_1250)">
<path d="M201.701 81.3394C203.055 81.3394 204.152 80.2418 204.152 78.8879C204.152 77.5341 203.055 76.4365 201.701 76.4365C200.347 76.4365 199.249 77.5341 199.249 78.8879C199.249 80.2418 200.347 81.3394 201.701 81.3394Z" fill="#00B1FF"/>
</g>
<g filter="url(#filter6_d_9_1250)">
<path d="M207.304 161.886C208.658 161.886 209.755 160.789 209.755 159.435C209.755 158.081 208.658 156.984 207.304 156.984C205.95 156.984 204.852 158.081 204.852 159.435C204.852 160.789 205.95 161.886 207.304 161.886Z" fill="#00B1FF"/>
</g>
<g filter="url(#filter7_d_9_1250)">
<path d="M177.887 129.667C179.241 129.667 180.338 128.57 180.338 127.216C180.338 125.862 179.241 124.765 177.887 124.765C176.533 124.765 175.435 125.862 175.435 127.216C175.435 128.57 176.533 129.667 177.887 129.667Z" fill="#00B1FF"/>
</g>
<g filter="url(#filter8_d_9_1250)">
<path d="M150.572 147.878C151.926 147.878 153.023 146.781 153.023 145.427C153.023 144.073 151.926 142.976 150.572 142.976C149.218 142.976 148.12 144.073 148.12 145.427C148.12 146.781 149.218 147.878 150.572 147.878Z" fill="#00B1FF"/>
</g>
<g filter="url(#filter9_d_9_1250)">
<path d="M136.564 180.096C137.918 180.096 139.015 178.999 139.015 177.645C139.015 176.291 137.918 175.194 136.564 175.194C135.21 175.194 134.112 176.291 134.112 177.645C134.112 178.999 135.21 180.096 136.564 180.096Z" fill="#00B1FF"/>
</g>
<g filter="url(#filter10_d_9_1250)">
<path d="M209.406 177.295C210.76 177.295 211.857 176.198 211.857 174.844C211.857 173.49 210.76 172.393 209.406 172.393C208.052 172.393 206.954 173.49 206.954 174.844C206.954 176.198 208.052 177.295 209.406 177.295Z" fill="#00B1FF"/>
</g>
<g filter="url(#filter11_d_9_1250)">
<path d="M208.005 205.311C209.359 205.311 210.456 204.214 210.456 202.86C210.456 201.506 209.359 200.409 208.005 200.409C206.651 200.409 205.553 201.506 205.553 202.86C205.553 204.214 206.651 205.311 208.005 205.311Z" fill="#00B1FF"/>
</g>
<g filter="url(#filter12_d_9_1250)">
<path d="M238.122 171.692C240.249 171.692 241.974 169.968 241.974 167.84C241.974 165.713 240.249 163.988 238.122 163.988C235.994 163.988 234.27 165.713 234.27 167.84C234.27 169.968 235.994 171.692 238.122 171.692Z" fill="#00B1FF"/>
</g>
<g filter="url(#filter13_d_9_1250)">
<path d="M114.151 168.89C115.505 168.89 116.602 167.793 116.602 166.439C116.602 165.085 115.505 163.988 114.151 163.988C112.797 163.988 111.699 165.085 111.699 166.439C111.699 167.793 112.797 168.89 114.151 168.89Z" fill="#00B1FF"/>
</g>
<g filter="url(#filter14_d_9_1250)">
<path d="M61.6205 236.128C62.9744 236.128 64.072 235.031 64.072 233.677C64.072 232.323 62.9744 231.226 61.6205 231.226C60.2667 231.226 59.1691 232.323 59.1691 233.677C59.1691 235.031 60.2667 236.128 61.6205 236.128Z" fill="#00B1FF"/>
</g>
<g filter="url(#filter15_d_9_1250)">
<path d="M81.9321 220.019C83.286 220.019 84.3835 218.922 84.3835 217.568C84.3835 216.214 83.286 215.117 81.9321 215.117C80.5782 215.117 79.4807 216.214 79.4807 217.568C79.4807 218.922 80.5782 220.019 81.9321 220.019Z" fill="#00B1FF"/>
</g>
<g filter="url(#filter16_d_9_1250)">
<path d="M82.6326 166.789C83.9864 166.789 85.084 165.692 85.084 164.338C85.084 162.984 83.9864 161.887 82.6326 161.887C81.2787 161.887 80.1812 162.984 80.1812 164.338C80.1812 165.692 81.2787 166.789 82.6326 166.789Z" fill="#00B1FF"/>
</g>
<g filter="url(#filter17_d_9_1250)">
<path d="M185.592 176.594C188.493 176.594 190.845 174.242 190.845 171.341C190.845 168.44 188.493 166.088 185.592 166.088C182.691 166.088 180.339 168.44 180.339 171.341C180.339 174.242 182.691 176.594 185.592 176.594Z" fill="#00B1FF"/>
</g>
<defs>
<filter id="filter0_d_9_1250" x="26.1779" y="0.0512695" width="223.582" height="289.828" filterUnits="userSpaceOnUse" color-interpolation-filters="sRGB">
<feFlood flood-opacity="0" result="BackgroundImageFix"/>
<feColorMatrix in="SourceAlpha" type="matrix" values="0 0 0 0 0 0 0 0 0 0 0 0 0 0 0 0 0 0 127 0" result="hardAlpha"/>
<feOffset/>
<feGaussianBlur stdDeviation="4.5"/>
<feComposite in2="hardAlpha" operator="out"/>
<feColorMatrix type="matrix" values="0 0 0 0 0 0 0 0 0 0.694118 0 0 0 0 1 0 0 0 1 0"/>
<feBlend mode="normal" in2="BackgroundImageFix" result="effect1_dropShadow_9_1250"/>
<feBlend mode="normal" in="SourceGraphic" in2="effect1_dropShadow_9_1250" result="shape"/>
</filter>
<filter id="filter1_d_9_1250" x="186.747" y="124.87" width="22.9028" height="22.9028" filterUnits="userSpaceOnUse" color-interpolation-filters="sRGB">
<feFlood flood-opacity="0" result="BackgroundImageFix"/>
<feColorMatrix in="SourceAlpha" type="matrix" values="0 0 0 0 0 0 0 0 0 0 0 0 0 0 0 0 0 0 127 0" result="hardAlpha"/>
<feOffset/>
<feGaussianBlur stdDeviation="4.5"/>
<feComposite in2="hardAlpha" operator="out"/>
<feColorMatrix type="matrix" values="0 0 0 0 0 0 0 0 0 0.694118 0 0 0 0 1 0 0 0 1 0"/>
<feBlend mode="normal" in2="BackgroundImageFix" result="effect1_dropShadow_9_1250"/>
<feBlend mode="normal" in="SourceGraphic" in2="effect1_dropShadow_9_1250" result="shape"/>
</filter>
<filter id="filter2_d_9_1250" x="176.942" y="85.6476" width="22.9028" height="22.9028" filterUnits="userSpaceOnUse" color-interpolation-filters="sRGB">
<feFlood flood-opacity="0" result="BackgroundImageFix"/>
<feColorMatrix in="SourceAlpha" type="matrix" values="0 0 0 0 0 0 0 0 0 0 0 0 0 0 0 0 0 0 127 0" result="hardAlpha"/>
<feOffset/>
<feGaussianBlur stdDeviation="4.5"/>
<feComposite in2="hardAlpha" operator="out"/>
<feColorMatrix type="matrix" values="0 0 0 0 0 0 0 0 0 0.694118 0 0 0 0 1 0 0 0 1 0"/>
<feBlend mode="normal" in2="BackgroundImageFix" result="effect1_dropShadow_9_1250"/>
<feBlend mode="normal" in="SourceGraphic" in2="effect1_dropShadow_9_1250" result="shape"/>
</filter>
<filter id="filter3_d_9_1250" x="161.533" y="63.2341" width="27.8057" height="27.8057" filterUnits="userSpaceOnUse" color-interpolation-filters="sRGB">
<feFlood flood-opacity="0" result="BackgroundImageFix"/>
<feColorMatrix in="SourceAlpha" type="matrix" values="0 0 0 0 0 0 0 0 0 0 0 0 0 0 0 0 0 0 127 0" result="hardAlpha"/>
<feOffset/>
<feGaussianBlur stdDeviation="4.5"/>
<feComposite in2="hardAlpha" operator="out"/>
<feColorMatrix type="matrix" values="0 0 0 0 0 0 0 0 0 0.694118 0 0 0 0 1 0 0 0 1 0"/>
<feBlend mode="normal" in2="BackgroundImageFix" result="effect1_dropShadow_9_1250"/>
<feBlend mode="normal" in="SourceGraphic" in2="effect1_dropShadow_9_1250" result="shape"/>
</filter>
<filter id="filter4_d_9_1250" x="159.431" y="52.0286" width="22.9028" height="22.9028" filterUnits="userSpaceOnUse" color-interpolation-filters="sRGB">
<feFlood flood-opacity="0" result="BackgroundImageFix"/>
<feColorMatrix in="SourceAlpha" type="matrix" values="0 0 0 0 0 0 0 0 0 0 0 0 0 0 0 0 0 0 127 0" result="hardAlpha"/>
<feOffset/>
<feGaussianBlur stdDeviation="4.5"/>
<feComposite in2="hardAlpha" operator="out"/>
<feColorMatrix type="matrix" values="0 0 0 0 0 0 0 0 0 0.694118 0 0 0 0 1 0 0 0 1 0"/>
<feBlend mode="normal" in2="BackgroundImageFix" result="effect1_dropShadow_9_1250"/>
<feBlend mode="normal" in="SourceGraphic" in2="effect1_dropShadow_9_1250" result="shape"/>
</filter>
<filter id="filter5_d_9_1250" x="190.249" y="67.4365" width="22.9028" height="22.9028" filterUnits="userSpaceOnUse" color-interpolation-filters="sRGB">
<feFlood flood-opacity="0" result="BackgroundImageFix"/>
<feColorMatrix in="SourceAlpha" type="matrix" values="0 0 0 0 0 0 0 0 0 0 0 0 0 0 0 0 0 0 127 0" result="hardAlpha"/>
<feOffset/>
<feGaussianBlur stdDeviation="4.5"/>
<feComposite in2="hardAlpha" operator="out"/>
<feColorMatrix type="matrix" values="0 0 0 0 0 0 0 0 0 0.694118 0 0 0 0 1 0 0 0 1 0"/>
<feBlend mode="normal" in2="BackgroundImageFix" result="effect1_dropShadow_9_1250"/>
<feBlend mode="normal" in="SourceGraphic" in2="effect1_dropShadow_9_1250" result="shape"/>
</filter>
<filter id="filter6_d_9_1250" x="195.852" y="147.984" width="22.9028" height="22.9028" filterUnits="userSpaceOnUse" color-interpolation-filters="sRGB">
<feFlood flood-opacity="0" result="BackgroundImageFix"/>
<feColorMatrix in="SourceAlpha" type="matrix" values="0 0 0 0 0 0 0 0 0 0 0 0 0 0 0 0 0 0 127 0" result="hardAlpha"/>
<feOffset/>
<feGaussianBlur stdDeviation="4.5"/>
<feComposite in2="hardAlpha" operator="out"/>
<feColorMatrix type="matrix" values="0 0 0 0 0 0 0 0 0 0.694118 0 0 0 0 1 0 0 0 1 0"/>
<feBlend mode="normal" in2="BackgroundImageFix" result="effect1_dropShadow_9_1250"/>
<feBlend mode="normal" in="SourceGraphic" in2="effect1_dropShadow_9_1250" result="shape"/>
</filter>
<filter id="filter7_d_9_1250" x="166.435" y="115.765" width="22.9028" height="22.9028" filterUnits="userSpaceOnUse" color-interpolation-filters="sRGB">
<feFlood flood-opacity="0" result="BackgroundImageFix"/>
<feColorMatrix in="SourceAlpha" type="matrix" values="0 0 0 0 0 0 0 0 0 0 0 0 0 0 0 0 0 0 127 0" result="hardAlpha"/>
<feOffset/>
<feGaussianBlur stdDeviation="4.5"/>
<feComposite in2="hardAlpha" operator="out"/>
<feColorMatrix type="matrix" values="0 0 0 0 0 0 0 0 0 0.694118 0 0 0 0 1 0 0 0 1 0"/>
<feBlend mode="normal" in2="BackgroundImageFix" result="effect1_dropShadow_9_1250"/>
<feBlend mode="normal" in="SourceGraphic" in2="effect1_dropShadow_9_1250" result="shape"/>
</filter>
<filter id="filter8_d_9_1250" x="139.12" y="133.976" width="22.9028" height="22.9028" filterUnits="userSpaceOnUse" color-interpolation-filters="sRGB">
<feFlood flood-opacity="0" result="BackgroundImageFix"/>
<feColorMatrix in="SourceAlpha" type="matrix" values="0 0 0 0 0 0 0 0 0 0 0 0 0 0 0 0 0 0 127 0" result="hardAlpha"/>
<feOffset/>
<feGaussianBlur stdDeviation="4.5"/>
<feComposite in2="hardAlpha" operator="out"/>
<feColorMatrix type="matrix" values="0 0 0 0 0 0 0 0 0 0.694118 0 0 0 0 1 0 0 0 1 0"/>
<feBlend mode="normal" in2="BackgroundImageFix" result="effect1_dropShadow_9_1250"/>
<feBlend mode="normal" in="SourceGraphic" in2="effect1_dropShadow_9_1250" result="shape"/>
</filter>
<filter id="filter9_d_9_1250" x="125.112" y="166.194" width="22.9028" height="22.9028" filterUnits="userSpaceOnUse" color-interpolation-filters="sRGB">
<feFlood flood-opacity="0" result="BackgroundImageFix"/>
<feColorMatrix in="SourceAlpha" type="matrix" values="0 0 0 0 0 0 0 0 0 0 0 0 0 0 0 0 0 0 127 0" result="hardAlpha"/>
<feOffset/>
<feGaussianBlur stdDeviation="4.5"/>
<feComposite in2="hardAlpha" operator="out"/>
<feColorMatrix type="matrix" values="0 0 0 0 0 0 0 0 0 0.694118 0 0 0 0 1 0 0 0 1 0"/>
<feBlend mode="normal" in2="BackgroundImageFix" result="effect1_dropShadow_9_1250"/>
<feBlend mode="normal" in="SourceGraphic" in2="effect1_dropShadow_9_1250" result="shape"/>
</filter>
<filter id="filter10_d_9_1250" x="197.954" y="163.393" width="22.9028" height="22.9028" filterUnits="userSpaceOnUse" color-interpolation-filters="sRGB">
<feFlood flood-opacity="0" result="BackgroundImageFix"/>
<feColorMatrix in="SourceAlpha" type="matrix" values="0 0 0 0 0 0 0 0 0 0 0 0 0 0 0 0 0 0 127 0" result="hardAlpha"/>
<feOffset/>
<feGaussianBlur stdDeviation="4.5"/>
<feComposite in2="hardAlpha" operator="out"/>
<feColorMatrix type="matrix" values="0 0 0 0 0 0 0 0 0 0.694118 0 0 0 0 1 0 0 0 1 0"/>
<feBlend mode="normal" in2="BackgroundImageFix" result="effect1_dropShadow_9_1250"/>
<feBlend mode="normal" in="SourceGraphic" in2="effect1_dropShadow_9_1250" result="shape"/>
</filter>
<filter id="filter11_d_9_1250" x="196.553" y="191.409" width="22.9028" height="22.9028" filterUnits="userSpaceOnUse" color-interpolation-filters="sRGB">
<feFlood flood-opacity="0" result="BackgroundImageFix"/>
<feColorMatrix in="SourceAlpha" type="matrix" values="0 0 0 0 0 0 0 0 0 0 0 0 0 0 0 0 0 0 127 0" result="hardAlpha"/>
<feOffset/>
<feGaussianBlur stdDeviation="4.5"/>
<feComposite in2="hardAlpha" operator="out"/>
<feColorMatrix type="matrix" values="0 0 0 0 0 0 0 0 0 0.694118 0 0 0 0 1 0 0 0 1 0"/>
<feBlend mode="normal" in2="BackgroundImageFix" result="effect1_dropShadow_9_1250"/>
<feBlend mode="normal" in="SourceGraphic" in2="effect1_dropShadow_9_1250" result="shape"/>
</filter>
<filter id="filter12_d_9_1250" x="225.27" y="154.988" width="25.7044" height="25.7043" filterUnits="userSpaceOnUse" color-interpolation-filters="sRGB">
<feFlood flood-opacity="0" result="BackgroundImageFix"/>
<feColorMatrix in="SourceAlpha" type="matrix" values="0 0 0 0 0 0 0 0 0 0 0 0 0 0 0 0 0 0 127 0" result="hardAlpha"/>
<feOffset/>
<feGaussianBlur stdDeviation="4.5"/>
<feComposite in2="hardAlpha" operator="out"/>
<feColorMatrix type="matrix" values="0 0 0 0 0 0 0 0 0 0.694118 0 0 0 0 1 0 0 0 1 0"/>
<feBlend mode="normal" in2="BackgroundImageFix" result="effect1_dropShadow_9_1250"/>
<feBlend mode="normal" in="SourceGraphic" in2="effect1_dropShadow_9_1250" result="shape"/>
</filter>
<filter id="filter13_d_9_1250" x="102.699" y="154.988" width="22.9028" height="22.9028" filterUnits="userSpaceOnUse" color-interpolation-filters="sRGB">
<feFlood flood-opacity="0" result="BackgroundImageFix"/>
<feColorMatrix in="SourceAlpha" type="matrix" values="0 0 0 0 0 0 0 0 0 0 0 0 0 0 0 0 0 0 127 0" result="hardAlpha"/>
<feOffset/>
<feGaussianBlur stdDeviation="4.5"/>
<feComposite in2="hardAlpha" operator="out"/>
<feColorMatrix type="matrix" values="0 0 0 0 0 0 0 0 0 0.694118 0 0 0 0 1 0 0 0 1 0"/>
<feBlend mode="normal" in2="BackgroundImageFix" result="effect1_dropShadow_9_1250"/>
<feBlend mode="normal" in="SourceGraphic" in2="effect1_dropShadow_9_1250" result="shape"/>
</filter>
<filter id="filter14_d_9_1250" x="50.1691" y="222.226" width="22.9028" height="22.9028" filterUnits="userSpaceOnUse" color-interpolation-filters="sRGB">
<feFlood flood-opacity="0" result="BackgroundImageFix"/>
<feColorMatrix in="SourceAlpha" type="matrix" values="0 0 0 0 0 0 0 0 0 0 0 0 0 0 0 0 0 0 127 0" result="hardAlpha"/>
<feOffset/>
<feGaussianBlur stdDeviation="4.5"/>
<feComposite in2="hardAlpha" operator="out"/>
<feColorMatrix type="matrix" values="0 0 0 0 0 0 0 0 0 0.694118 0 0 0 0 1 0 0 0 1 0"/>
<feBlend mode="normal" in2="BackgroundImageFix" result="effect1_dropShadow_9_1250"/>
<feBlend mode="normal" in="SourceGraphic" in2="effect1_dropShadow_9_1250" result="shape"/>
</filter>
<filter id="filter15_d_9_1250" x="70.4807" y="206.117" width="22.9028" height="22.9028" filterUnits="userSpaceOnUse" color-interpolation-filters="sRGB">
<feFlood flood-opacity="0" result="BackgroundImageFix"/>
<feColorMatrix in="SourceAlpha" type="matrix" values="0 0 0 0 0 0 0 0 0 0 0 0 0 0 0 0 0 0 127 0" result="hardAlpha"/>
<feOffset/>
<feGaussianBlur stdDeviation="4.5"/>
<feComposite in2="hardAlpha" operator="out"/>
<feColorMatrix type="matrix" values="0 0 0 0 0 0 0 0 0 0.694118 0 0 0 0 1 0 0 0 1 0"/>
<feBlend mode="normal" in2="BackgroundImageFix" result="effect1_dropShadow_9_1250"/>
<feBlend mode="normal" in="SourceGraphic" in2="effect1_dropShadow_9_1250" result="shape"/>
</filter>
<filter id="filter16_d_9_1250" x="71.1812" y="152.887" width="22.9028" height="22.9028" filterUnits="userSpaceOnUse" color-interpolation-filters="sRGB">
<feFlood flood-opacity="0" result="BackgroundImageFix"/>
<feColorMatrix in="SourceAlpha" type="matrix" values="0 0 0 0 0 0 0 0 0 0 0 0 0 0 0 0 0 0 127 0" result="hardAlpha"/>
<feOffset/>
<feGaussianBlur stdDeviation="4.5"/>
<feComposite in2="hardAlpha" operator="out"/>
<feColorMatrix type="matrix" values="0 0 0 0 0 0 0 0 0 0.694118 0 0 0 0 1 0 0 0 1 0"/>
<feBlend mode="normal" in2="BackgroundImageFix" result="effect1_dropShadow_9_1250"/>
<feBlend mode="normal" in="SourceGraphic" in2="effect1_dropShadow_9_1250" result="shape"/>
</filter>
<filter id="filter17_d_9_1250" x="171.339" y="157.088" width="28.506" height="28.5061" filterUnits="userSpaceOnUse" color-interpolation-filters="sRGB">
<feFlood flood-opacity="0" result="BackgroundImageFix"/>
<feColorMatrix in="SourceAlpha" type="matrix" values="0 0 0 0 0 0 0 0 0 0 0 0 0 0 0 0 0 0 127 0" result="hardAlpha"/>
<feOffset/>
<feGaussianBlur stdDeviation="4.5"/>
<feComposite in2="hardAlpha" operator="out"/>
<feColorMatrix type="matrix" values="0 0 0 0 0 0 0 0 0 0.694118 0 0 0 0 1 0 0 0 1 0"/>
<feBlend mode="normal" in2="BackgroundImageFix" result="effect1_dropShadow_9_1250"/>
<feBlend mode="normal" in="SourceGraphic" in2="effect1_dropShadow_9_1250" result="shape"/>
</filter>
</defs>
</svg>
