<svg width="732" height="310" viewBox="0 0 732 310" fill="none" xmlns="http://www.w3.org/2000/svg">
<g clip-path="url(#clip0_14_39)">
<path d="M720.339 302.558H127.703L119.871 294.726H4.03027V6.82446H545.793L556.822 17.8537H720.339V302.558ZM128.254 301.215H718.996V19.2105H556.271L545.242 8.18129H5.37366V293.383H120.422L128.254 301.215Z" fill="#00B1FF"/>
<g style="mix-blend-mode:screen" opacity="0.3">
<path d="M129.651 297.856L121.805 290.024H8.73218V11.5262H543.845L554.874 22.5689H715.637V297.856H129.651Z" fill="#00B1FF"/>
<path d="M715.973 298.193H129.503L121.671 290.361H8.39624V11.1906H543.979L555.008 22.2198H715.973V298.193ZM129.785 297.521H715.302V22.9049H554.74L543.71 11.8757H9.06793V289.689H121.953L129.785 297.521Z" fill="#00EBC7"/>
</g>
<path d="M732 39.724H723.94V104.18H732V39.724Z" fill="#00EBC7"/>
<path d="M732 112.536H723.94V118.03H732V112.536Z" fill="#00EBC7"/>
<path d="M732 120.744H723.94V126.238H732V120.744Z" fill="#00EBC7"/>
<path d="M732 128.965H723.94V134.46H732V128.965Z" fill="#00EBC7"/>
<path d="M732 137.173H723.94V142.668H732V137.173Z" fill="#00EBC7"/>
<path d="M123.471 309.074L115.827 301.443H0.671631V300.1H116.391L124.425 308.12L123.471 309.074Z" fill="#00B1FF"/>
<path d="M723.698 12.4935H560.301L549.071 1.24933L550.024 0.30896L560.852 11.1501H723.698V12.4935Z" fill="#00B1FF"/>
<path d="M9.40373 22.7838H0V25.4706H9.40373V22.7838Z" fill="#00EBC7"/>
<path d="M9.40373 169.966H0V164.619H9.40373V169.966ZM9.40373 157.929H0V152.582H9.40373V157.929ZM9.40373 145.892H0V140.545H9.40373V145.892ZM9.40373 133.855H0V128.509H9.40373V133.855ZM9.40373 121.819H0V116.472H9.40373V121.819ZM9.40373 109.782H0V104.435H9.40373V109.782ZM9.40373 97.7451H0V92.3984H9.40373V97.7451ZM9.40373 85.7083H0V80.3616H9.40373V85.7083ZM9.40373 73.6715H0V68.3248H9.40373V73.6715ZM9.40373 61.6347H0V56.288H9.40373V61.6347ZM9.40373 49.5979H0V44.2513H9.40373V49.5979ZM9.40373 37.5612H0V32.2145H9.40373V37.5612Z" fill="#00EBC7"/>
<path d="M9.40373 176.656H0V179.343H9.40373V176.656Z" fill="#00EBC7"/>
<path d="M71.5625 0H264.54L279.533 14.9922H71.5625V0ZM65.5979 0H56.9867V14.9922H65.5979V0ZM46.3874 0H37.0911V14.9922H46.3874V0Z" fill="#00B1FF"/>
<path d="M182.406 291.932H180.646V283.63H182.406V291.932ZM185.831 283.63H184.071V291.932H185.831V283.63ZM189.257 283.63H187.497V291.932H189.257V283.63ZM192.683 283.63H190.923V291.932H192.683V283.63ZM196.108 283.63H194.348V291.932H196.108V283.63ZM199.534 283.63H197.774V291.932H199.534V283.63ZM202.959 283.63H201.2V291.932H202.959V283.63ZM206.385 283.63H204.625V291.932H206.385V283.63ZM209.811 283.63H208.051V291.932H209.811V283.63ZM213.236 283.63H211.477V291.932H213.236V283.63ZM216.662 283.63H214.902V291.932H216.662V283.63ZM220.088 283.63H218.328V291.932H220.088V283.63ZM223.513 283.63H221.753V291.932H223.513V283.63ZM226.939 283.63H225.179V291.932H226.939V283.63ZM230.365 283.63H228.605V291.932H230.365V283.63ZM233.79 283.63H232.03V291.932H233.79V283.63ZM237.216 283.63H235.456V291.932H237.216V283.63ZM240.642 283.63H238.882V291.932H240.642V283.63ZM244.067 283.63H242.307V291.932H244.067V283.63ZM247.493 283.63H245.733V291.932H247.493V283.63ZM250.918 283.63H249.159V291.932H250.918V283.63Z" fill="#00B1FF"/>
</g>
<defs>
<clipPath id="clip0_14_39">
<rect width="732" height="310" fill="white"/>
</clipPath>
</defs>
</svg>
