<svg width="1126" height="719" viewBox="0 0 1126 719" fill="none" xmlns="http://www.w3.org/2000/svg">
<path d="M1107.7 708.857H198.738L186.539 696.658H6.27483V10.6216H836.037L853.214 27.7985H1107.7V708.857ZM199.603 706.766H1105.61V29.8901H852.349L835.172 12.7132H8.36644V694.567H187.415L199.614 706.766H199.603Z" fill="#0068E8"/>
<path d="M1100.91 702.057H201.554L189.367 689.858H13.0638V17.4223H833.221L850.398 34.5993H1100.9V702.057H1100.91ZM201.998 701.017H1099.86V35.6392H849.965L832.788 18.4623H14.1154V688.818H189.799L201.986 701.017H201.998Z" fill="#F9FAFC"/>
<path d="M1125.85 61.8253H1113.3V162.129H1125.85V61.8253Z" fill="#4DFFFF"/>
<path d="M1125.85 175.146H1113.3V183.688H1125.85V175.146Z" fill="#4DFFFF"/>
<path d="M1125.85 187.93H1113.3V196.471H1125.85V187.93Z" fill="#4DFFFF"/>
<path d="M1125.85 200.713H1113.3V209.255H1125.85V200.713Z" fill="#4DFFFF"/>
<path d="M1125.85 213.496H1113.3V222.038H1125.85V213.496Z" fill="#4DFFFF"/>
<path d="M192.159 719L180.276 707.116H1.03998V705.025H181.141L193.643 717.528L192.159 719Z" fill="#0068E8"/>
<path d="M1112.92 19.4322H858.624L841.143 1.95143L842.615 0.479124L859.488 17.3405H1112.92V19.4322Z" fill="#0068E8"/>
<path d="M14.6413 35.4522H0V39.6354H14.6413V35.4522Z" fill="#4DFFFF"/>
<path d="M14.6413 264.536H0V256.205H14.6413V264.536ZM14.6413 245.793H0V237.462H14.6413V245.793ZM14.6413 227.051H0V218.719H14.6413V227.051ZM14.6413 208.308H0V199.977H14.6413V208.308ZM14.6413 189.565H0V181.234H14.6413V189.565ZM14.6413 170.823H0V162.491H14.6413V170.823ZM14.6413 152.08H0V143.749H14.6413V152.08ZM14.6413 133.337H0V125.006H14.6413V133.337ZM14.6413 114.595H0V106.263H14.6413V114.595ZM14.6413 95.8518H0V87.5204H14.6413V95.8518ZM14.6413 77.1091H0V68.7777H14.6413V77.1091ZM14.6413 58.3664H0V50.035H14.6413V58.3664Z" fill="#4DFFFF"/>
<path d="M14.6413 274.947H0V279.131H14.6413V274.947Z" fill="#4DFFFF"/>
<path d="M111.381 0H411.709L435.043 23.3349H111.381V0ZM102.103 0H88.7007V23.3349H102.103V0ZM72.2015 0H57.7238V23.3349H72.2015V0Z" fill="#0068E8"/>
<path d="M283.886 692.323H281.141V679.388H283.886V692.323ZM289.215 679.388H286.469V692.323H289.215V679.388ZM294.543 679.388H291.797V692.323H294.543V679.388ZM299.872 679.388H297.126V692.323H299.872V679.388ZM305.2 679.388H302.454V692.323H305.2V679.388ZM310.528 679.388H307.782V692.323H310.528V679.388ZM315.857 679.388H313.111V692.323H315.857V679.388ZM321.185 679.388H318.439V692.323H321.185V679.388ZM326.513 679.388H323.767V692.323H326.513V679.388ZM331.842 679.388H329.096V692.323H331.842V679.388ZM337.17 679.388H334.424V692.323H337.17V679.388ZM342.498 679.388H339.752V692.323H342.498V679.388ZM347.827 679.388H345.081V692.323H347.827V679.388ZM353.155 679.388H350.409V692.323H353.155V679.388ZM358.483 679.388H355.737V692.323H358.483V679.388ZM363.812 679.388H361.066V692.323H363.812V679.388ZM369.14 679.388H366.394V692.323H369.14V679.388ZM374.468 679.388H371.722V692.323H374.468V679.388ZM379.797 679.388H377.051V692.323H379.797V679.388ZM385.125 679.388H382.379V692.323H385.125V679.388ZM390.453 679.388H387.708V692.323H390.453V679.388Z" fill="#0068E8"/>
</svg>
