<svg width="737" height="96" viewBox="0 0 737 96" fill="none" xmlns="http://www.w3.org/2000/svg">
<path d="M730.255 85.5186H12.4829L5.73779 78.7735V11.7944L12.4829 5.04932H665.864L688.369 27.5415H728.444L737 36.0971V78.7735L730.255 85.5186Z" fill="url(#paint0_linear_25_35)"/>
<path d="M683.894 9.46094H617.781V13.2861H683.894V9.46094Z" fill="#0068E8"/>
<path d="M707.903 88.2089H706.602L710.427 78.3909H711.728L707.903 88.2089ZM716.165 78.3909H714.865L711.04 88.2089H712.34L716.165 78.3909ZM720.603 78.3909H719.302L715.477 88.2089H716.777L720.603 78.3909ZM725.04 78.3909H723.739L719.914 88.2089H721.215L725.04 78.3909Z" fill="#0068E8"/>
<path d="M256.53 0H87.4438V11.3736H256.53V0Z" fill="#0068E8"/>
<path d="M2.55013 43.9389H0V43.0463H2.55013V43.9389ZM2.55013 40.4962H0V39.6036H2.55013V40.4962ZM2.55013 37.0535H0V36.161H2.55013V37.0535ZM2.55013 33.6108H0V32.7183H2.55013V33.6108ZM2.55013 30.1682H0V29.2756H2.55013V30.1682ZM2.55013 26.7255H0V25.833H2.55013V26.7255ZM2.55013 23.2828H0V22.3903H2.55013V23.2828ZM2.55013 19.8401H0V18.9476H2.55013V19.8401ZM2.55013 16.3975H0V15.5049H2.55013V16.3975ZM2.55013 12.9548H0V12.0623H2.55013V12.9548Z" fill="#4DFFFF"/>
<path d="M21.3828 95.6814H19.8145V88.2605H21.3828V95.6814ZM24.4429 88.2605H22.8746V95.6814H24.4429V88.2605ZM27.5031 88.2605H25.9348V95.6814H27.5031V88.2605ZM30.5632 88.2605H28.9949V95.6814H30.5632V88.2605ZM33.6234 88.2605H32.0551V95.6814H33.6234V88.2605ZM36.6836 88.2605H35.1152V95.6814H36.6836V88.2605ZM39.7437 88.2605H38.1754V95.6814H39.7437V88.2605ZM42.8039 88.2605H41.2355V95.6814H42.8039V88.2605ZM45.864 88.2605H44.2957V95.6814H45.864V88.2605ZM48.9242 88.2605H47.3558V95.6814H48.9242V88.2605ZM51.9843 88.2605H50.416V95.6814H51.9843V88.2605ZM55.0445 88.2605H53.4761V95.6814H55.0445V88.2605ZM58.1046 88.2605H56.5363V95.6814H58.1046V88.2605ZM61.1648 88.2605H59.5965V95.6814H61.1648V88.2605ZM64.2249 88.2605H62.6566V95.6814H64.2249V88.2605ZM67.2851 88.2605H65.7168V95.6814H67.2851V88.2605ZM70.3452 88.2605H68.7769V95.6814H70.3452V88.2605ZM73.4054 88.2605H71.8371V95.6814H73.4054V88.2605ZM76.4656 88.2605H74.8972V95.6814H76.4656V88.2605ZM79.5257 88.2605H77.9574V95.6814H79.5257V88.2605ZM82.5859 88.2605H81.0175V95.6814H82.5859V88.2605ZM85.646 88.2605H84.0777V95.6814H85.646V88.2605ZM88.7062 88.2605H87.1378V95.6814H88.7062V88.2605ZM91.7663 88.2605H90.198V95.6814H91.7663V88.2605ZM94.8265 88.2605H93.2582V95.6814H94.8265V88.2605ZM97.8866 88.2605H96.3183V95.6814H97.8866V88.2605ZM100.947 88.2605H99.3785V95.6814H100.947V88.2605ZM104.007 88.2605H102.439V95.6814H104.007V88.2605ZM107.067 88.2605H105.499V95.6814H107.067V88.2605ZM110.127 88.2605H108.559V95.6814H110.127V88.2605ZM113.187 88.2605H111.619V95.6814H113.187V88.2605ZM116.248 88.2605H114.679V95.6814H116.248V88.2605ZM119.308 88.2605H117.739V95.6814H119.308V88.2605ZM122.368 88.2605H120.8V95.6814H122.368V88.2605ZM125.428 88.2605H123.86V95.6814H125.428V88.2605ZM128.488 88.2605H126.92V95.6814H128.488V88.2605ZM131.548 88.2605H129.98V95.6814H131.548V88.2605ZM134.608 88.2605H133.04V95.6814H134.608V88.2605ZM137.669 88.2605H136.1V95.6814H137.669V88.2605ZM140.729 88.2605H139.16V95.6814H140.729V88.2605ZM143.789 88.2605H142.221V95.6814H143.789V88.2605Z" fill="#0068E8"/>
<path d="M404.119 88.2605H146.99V89.5356H404.119V88.2605Z" fill="#0068E8"/>
<defs>
<linearGradient id="paint0_linear_25_35" x1="-4.92645" y1="98.5949" x2="655.426" y2="-214.522" gradientUnits="userSpaceOnUse">
<stop stop-color="#00B1FF"/>
<stop offset="1" stop-color="#00EBC7"/>
</linearGradient>
</defs>
</svg>
