<svg width="516" height="314" viewBox="0 0 516 314" fill="none" xmlns="http://www.w3.org/2000/svg">
<g clip-path="url(#clip0_55_2076)">
<path d="M64.2314 14.4238H453.603V299.576H64.2314V14.4238ZM451.553 16.4525H66.2814V297.547H451.553V16.4525Z" fill="#00EBC7"/>
<g style="mix-blend-mode:screen" opacity="0.1">
<path d="M71.4062 292.476H446.428V21.5248L71.4062 21.5247V292.476Z" fill="#0068E8"/>
<path d="M70.8936 21.0173H446.941V292.983H70.8936V21.0173ZM445.916 22.0317H71.9186V291.969H445.916V22.0317Z" fill="#00EBC7"/>
</g>
<g style="mix-blend-mode:screen" opacity="0.2">
<path d="M80.7339 256.162H108.101V283.245H80.7339V256.162ZM106.051 258.191H82.7839L82.7838 281.217H106.051V258.191Z" fill="#0068E8"/>
<path d="M106.051 256.162H133.418V283.245H106.051V256.162ZM131.368 258.191H108.101V281.217H131.368V258.191Z" fill="#0068E8"/>
<path d="M131.347 256.162H158.715V283.245H131.347V256.162ZM156.665 258.191H133.397V281.217H156.665V258.191Z" fill="#0068E8"/>
<path d="M156.665 256.162H184.011V283.245H156.665V256.162ZM181.961 258.191H158.715V281.217H181.961V258.191Z" fill="#0068E8"/>
<path d="M181.961 256.162H209.328V283.245H181.961V256.162ZM207.278 258.191H184.011V281.217H207.278V258.191Z" fill="#0068E8"/>
<path d="M207.279 256.162H234.646V283.245H207.279V256.162ZM232.596 258.191H209.329V281.217H232.596V258.191Z" fill="#0068E8"/>
<path d="M232.575 256.162H259.942V283.245H232.575V256.162ZM257.892 258.191H234.625V281.217H257.892V258.191Z" fill="#0068E8"/>
<path d="M257.892 256.162H285.26V283.245H257.892V256.162ZM283.21 258.191H259.942V281.217H283.21V258.191Z" fill="#0068E8"/>
<path d="M283.21 256.162H310.577V283.245H283.21V256.162ZM308.527 258.191H285.259V281.217H308.527V258.191Z" fill="#0068E8"/>
<path d="M308.506 256.162H335.853V283.245H308.506V256.162ZM333.803 258.191H310.556V281.217H333.803V258.191Z" fill="#0068E8"/>
<path d="M333.823 256.162H361.19V283.245H333.823V256.162ZM359.14 258.191H335.873V281.217H359.14V258.191Z" fill="#0068E8"/>
<path d="M359.12 256.162H386.487V283.245H359.12V256.162ZM384.437 258.191H361.17V281.217H384.437V258.191Z" fill="#0068E8"/>
<path d="M384.437 256.162H411.804V283.245H384.437V256.162ZM409.754 258.191H386.487V281.217H409.754V258.191Z" fill="#0068E8"/>
<path d="M409.734 256.162H437.101V283.245H409.734V256.162ZM435.051 258.191H411.784V281.217H435.051V258.191Z" fill="#0068E8"/>
<path d="M80.7339 231.128H108.101V258.191H80.7339V231.128ZM106.051 233.157H82.7839L82.7838 256.162H106.051V233.157Z" fill="#0068E8"/>
<path d="M106.051 231.128H133.418V258.191H106.051V231.128ZM131.368 233.157H108.101V256.162H131.368V233.157Z" fill="#0068E8"/>
<path d="M131.347 231.128H158.715V258.191H131.347V231.128ZM156.665 233.157H133.397V256.162H156.665V233.157Z" fill="#0068E8"/>
<path d="M156.665 231.128H184.011V258.191H156.665V231.128ZM181.961 233.157H158.715V256.162H181.961V233.157Z" fill="#0068E8"/>
<path d="M181.961 231.128H209.328V258.191H181.961V231.128ZM207.278 233.157H184.011V256.162H207.278V233.157Z" fill="#0068E8"/>
<path d="M207.278 231.128H234.646V258.191H207.278V231.128ZM232.596 233.157H209.328V256.162H232.596V233.157Z" fill="#0068E8"/>
<path d="M232.575 231.128H259.942V258.191H232.575V231.128ZM257.892 233.157H234.625V256.162H257.892V233.157Z" fill="#0068E8"/>
<path d="M257.892 231.128H285.259V258.191H257.892V231.128ZM283.209 233.157H259.942V256.162H283.209V233.157Z" fill="#0068E8"/>
<path d="M283.21 231.128H310.577V258.191H283.21V231.128ZM308.527 233.157H285.259V256.162H308.527V233.157Z" fill="#0068E8"/>
<path d="M308.506 231.128H335.853V258.191H308.506V231.128ZM333.803 233.157H310.556V256.162H333.803V233.157Z" fill="#0068E8"/>
<path d="M333.824 231.128H361.191V258.191H333.824V231.128ZM359.141 233.157H335.873V256.162H359.141V233.157Z" fill="#0068E8"/>
<path d="M359.12 231.128H386.487V258.191H359.12V231.128ZM384.437 233.157H361.17V256.162H384.437V233.157Z" fill="#0068E8"/>
<path d="M384.437 231.128H411.804V258.191H384.437V231.128ZM409.754 233.157H386.487V256.162H409.754V233.157Z" fill="#0068E8"/>
<path d="M409.734 231.128H437.101V258.191H409.734V231.128ZM435.051 233.157H411.784V256.162H435.051V233.157Z" fill="#0068E8"/>
<path d="M80.7339 206.074H108.101V233.157H80.7339V206.074ZM106.051 208.103H82.7839L82.7838 231.129H106.051V208.103Z" fill="#0068E8"/>
<path d="M106.051 206.074H133.418V233.157H106.051V206.074ZM131.368 208.103H108.101V231.129H131.368V208.103Z" fill="#0068E8"/>
<path d="M131.347 206.074H158.715V233.157H131.347V206.074ZM156.665 208.103H133.397V231.129H156.665V208.103Z" fill="#0068E8"/>
<path d="M156.665 206.074H184.011V233.157H156.665V206.074ZM181.961 208.103H158.715V231.129H181.961V208.103Z" fill="#0068E8"/>
<path d="M181.961 206.074H209.328V233.157H181.961V206.074ZM207.278 208.103H184.011V231.129H207.278V208.103Z" fill="#0068E8"/>
<path d="M207.278 206.074H234.646V233.157H207.278V206.074ZM232.596 208.103H209.328V231.129H232.596V208.103Z" fill="#0068E8"/>
<path d="M232.575 206.074H259.942V233.157H232.575V206.074ZM257.892 208.103H234.625V231.129H257.892V208.103Z" fill="#0068E8"/>
<path d="M257.892 206.074H285.259V233.157H257.892V206.074ZM283.209 208.103H259.942V231.129H283.209V208.103Z" fill="#0068E8"/>
<path d="M283.21 206.074H310.577V233.157H283.21V206.074ZM308.527 208.103H285.259V231.129H308.527V208.103Z" fill="#0068E8"/>
<path d="M308.506 206.074H335.853V233.157H308.506V206.074ZM333.803 208.103H310.556V231.129H333.803V208.103Z" fill="#0068E8"/>
<path d="M333.823 206.074H361.19V233.157H333.823V206.074ZM359.14 208.103H335.873V231.129H359.14V208.103Z" fill="#0068E8"/>
<path d="M359.12 206.074H386.487V233.157H359.12V206.074ZM384.437 208.103H361.17V231.129H384.437V208.103Z" fill="#0068E8"/>
<path d="M384.437 206.074H411.804V233.157H384.437V206.074ZM409.754 208.103H386.487V231.129H409.754V208.103Z" fill="#0068E8"/>
<path d="M409.734 206.074H437.101V233.157H409.734V206.074ZM435.051 208.103H411.784V231.129H435.051V208.103Z" fill="#0068E8"/>
<path d="M80.7339 181.04H108.101V208.123H80.7339V181.04ZM106.051 183.069H82.7839L82.7838 206.094H106.051V183.069Z" fill="#0068E8"/>
<path d="M106.051 181.04H133.418V208.123H106.051V181.04ZM131.368 183.069H108.101V206.094H131.368V183.069Z" fill="#0068E8"/>
<path d="M131.347 181.04H158.715V208.123H131.347V181.04ZM156.665 183.069H133.397V206.094H156.665V183.069Z" fill="#0068E8"/>
<path d="M156.665 181.04H184.011V208.123H156.665V181.04ZM181.961 183.069H158.715V206.094H181.961V183.069Z" fill="#0068E8"/>
<path d="M181.961 181.04H209.328V208.123H181.961V181.04ZM207.278 183.069H184.011V206.094H207.278V183.069Z" fill="#0068E8"/>
<path d="M207.278 181.04H234.646V208.123H207.278V181.04ZM232.596 183.069H209.328V206.094H232.596V183.069Z" fill="#0068E8"/>
<path d="M232.575 181.04H259.942V208.123H232.575V181.04ZM257.892 183.069H234.625V206.094H257.892V183.069Z" fill="#0068E8"/>
<path d="M257.892 181.04H285.259V208.123H257.892V181.04ZM283.209 183.069H259.942V206.094H283.209V183.069Z" fill="#0068E8"/>
<path d="M283.21 181.04H310.577V208.123H283.21V181.04ZM308.527 183.069H285.259V206.094H308.527V183.069Z" fill="#0068E8"/>
<path d="M308.506 181.04H335.853V208.123H308.506V181.04ZM333.803 183.069H310.556V206.094H333.803V183.069Z" fill="#0068E8"/>
<path d="M333.823 181.04H361.19V208.123H333.823V181.04ZM359.14 183.069H335.873V206.094H359.14V183.069Z" fill="#0068E8"/>
<path d="M359.12 181.04H386.487V208.123H359.12V181.04ZM384.437 183.069H361.17V206.094H384.437V183.069Z" fill="#0068E8"/>
<path d="M384.437 181.04H411.804V208.123H384.437V181.04ZM409.754 183.069H386.487V206.094H409.754V183.069Z" fill="#0068E8"/>
<path d="M409.734 181.04H437.101V208.123H409.734V181.04ZM435.051 183.069H411.784V206.094H435.051V183.069Z" fill="#0068E8"/>
<path d="M80.7339 155.986H108.101V183.069H80.7339V155.986ZM106.051 158.015H82.7839L82.7838 181.04H106.051V158.015Z" fill="#0068E8"/>
<path d="M106.051 155.986H133.418V183.069H106.051V155.986ZM131.368 158.015H108.101V181.04H131.368V158.015Z" fill="#0068E8"/>
<path d="M131.347 155.986H158.715V183.069H131.347V155.986ZM156.665 158.015H133.397V181.04H156.665V158.015Z" fill="#0068E8"/>
<path d="M156.665 155.986H184.011V183.069H156.665V155.986ZM181.961 158.015H158.715V181.04H181.961V158.015Z" fill="#0068E8"/>
<path d="M181.961 155.986H209.328V183.069H181.961V155.986ZM207.278 158.015H184.011V181.04H207.278V158.015Z" fill="#0068E8"/>
<path d="M207.278 155.986H234.646V183.069H207.278V155.986ZM232.596 158.015H209.328V181.04H232.596V158.015Z" fill="#0068E8"/>
<path d="M232.575 155.986H259.942V183.069H232.575V155.986ZM257.892 158.015H234.625V181.04H257.892V158.015Z" fill="#0068E8"/>
<path d="M257.892 155.986H285.259V183.069H257.892V155.986ZM283.209 158.015H259.942V181.04H283.209V158.015Z" fill="#0068E8"/>
<path d="M283.21 155.986H310.577V183.069H283.21V155.986ZM308.527 158.015H285.259V181.04H308.527V158.015Z" fill="#0068E8"/>
<path d="M308.506 155.986H335.853V183.069H308.506V155.986ZM333.803 158.015H310.556V181.04H333.803V158.015Z" fill="#0068E8"/>
<path d="M333.824 155.986H361.191V183.069H333.824V155.986ZM359.141 158.015H335.873V181.04H359.141V158.015Z" fill="#0068E8"/>
<path d="M359.12 155.986H386.487V183.069H359.12V155.986ZM384.437 158.015H361.17V181.04H384.437V158.015Z" fill="#0068E8"/>
<path d="M384.437 155.986H411.804V183.069H384.437V155.986ZM409.754 158.015H386.487V181.04H409.754V158.015Z" fill="#0068E8"/>
<path d="M409.734 155.986H437.101V183.069H409.734V155.986ZM435.051 158.015H411.784V181.04H435.051V158.015Z" fill="#0068E8"/>
<path d="M80.7339 130.931H108.101V158.014H80.7339V130.931ZM106.051 132.96H82.7839L82.7838 155.986H106.051V132.96Z" fill="#0068E8"/>
<path d="M106.051 130.931H133.418V158.014H106.051V130.931ZM131.368 132.96H108.101V155.986H131.368V132.96Z" fill="#0068E8"/>
<path d="M131.347 130.931H158.715V158.014H131.347V130.931ZM156.665 132.96H133.397V155.986H156.665V132.96Z" fill="#0068E8"/>
<path d="M156.665 130.932H184.011V158.015H156.665V130.932ZM181.961 132.96H158.715V155.986H181.961V132.96Z" fill="#0068E8"/>
<path d="M181.961 130.932H209.328V158.015H181.961V130.932ZM207.278 132.96H184.011V155.986H207.278V132.96Z" fill="#0068E8"/>
<path d="M207.278 130.932H234.646V158.015H207.278V130.932ZM232.596 132.96H209.328V155.986H232.596V132.96Z" fill="#0068E8"/>
<path d="M232.575 130.932H259.942V158.015H232.575V130.932ZM257.892 132.96H234.625V155.986H257.892V132.96Z" fill="#0068E8"/>
<path d="M257.892 130.932H285.259V158.015H257.892V130.932ZM283.209 132.96H259.942V155.986H283.209V132.96Z" fill="#0068E8"/>
<path d="M283.21 130.932H310.577V158.015H283.21V130.932ZM308.527 132.96H285.259V155.986H308.527V132.96Z" fill="#0068E8"/>
<path d="M308.506 130.932H335.853V158.015H308.506V130.932ZM333.803 132.96H310.556V155.986H333.803V132.96Z" fill="#0068E8"/>
<path d="M333.823 130.932H361.19V158.015H333.823V130.932ZM359.14 132.96H335.873V155.986H359.14V132.96Z" fill="#0068E8"/>
<path d="M359.12 130.932H386.487V158.015H359.12V130.932ZM384.437 132.96H361.17V155.986H384.437V132.96Z" fill="#0068E8"/>
<path d="M384.437 130.932H411.804V158.015H384.437V130.932ZM409.754 132.96H386.487V155.986H409.754V132.96Z" fill="#0068E8"/>
<path d="M409.734 130.931H437.101V158.014H409.734V130.931ZM435.051 132.96H411.784V155.986H435.051V132.96Z" fill="#0068E8"/>
<path d="M80.7339 105.897H108.101V132.98H80.7339V105.897ZM106.051 107.926H82.7839L82.7838 130.952H106.051V107.926Z" fill="#0068E8"/>
<path d="M106.051 105.897H133.418V132.98H106.051V105.897ZM131.368 107.926H108.101V130.952H131.368V107.926Z" fill="#0068E8"/>
<path d="M131.347 105.897H158.715V132.98H131.347V105.897ZM156.665 107.926H133.397V130.952H156.665V107.926Z" fill="#0068E8"/>
<path d="M156.665 105.897H184.011V132.98H156.665V105.897ZM181.961 107.926H158.715V130.952H181.961V107.926Z" fill="#0068E8"/>
<path d="M181.961 105.897H209.328V132.98H181.961V105.897ZM207.278 107.926H184.011V130.952H207.278V107.926Z" fill="#0068E8"/>
<path d="M207.278 105.897H234.646V132.98H207.278V105.897ZM232.596 107.926H209.328V130.952H232.596V107.926Z" fill="#0068E8"/>
<path d="M232.575 105.897H259.942V132.98H232.575V105.897ZM257.892 107.926H234.625V130.952H257.892V107.926Z" fill="#0068E8"/>
<path d="M257.892 105.897H285.259V132.98H257.892V105.897ZM283.209 107.926H259.942V130.952H283.209V107.926Z" fill="#0068E8"/>
<path d="M283.21 105.897H310.577V132.98H283.21V105.897ZM308.527 107.926H285.259V130.952H308.527V107.926Z" fill="#0068E8"/>
<path d="M308.506 105.897H335.853V132.98H308.506V105.897ZM333.803 107.926H310.556V130.952H333.803V107.926Z" fill="#0068E8"/>
<path d="M333.823 105.897H361.19V132.98H333.823V105.897ZM359.14 107.926H335.873V130.952H359.14V107.926Z" fill="#0068E8"/>
<path d="M359.12 105.897H386.487V132.98H359.12V105.897ZM384.437 107.926H361.17V130.952H384.437V107.926Z" fill="#0068E8"/>
<path d="M384.437 105.897H411.804V132.98H384.437V105.897ZM409.754 107.926H386.487V130.952H409.754V107.926Z" fill="#0068E8"/>
<path d="M409.734 105.897H437.101V132.98H409.734V105.897ZM435.051 107.926H411.784V130.952H435.051V107.926Z" fill="#0068E8"/>
<path d="M80.7339 80.8433H108.101V107.906H80.7339V80.8433ZM106.051 82.872H82.7839L82.7838 105.877H106.051V82.872Z" fill="#0068E8"/>
<path d="M106.051 80.8433H133.418V107.906H106.051V80.8433ZM131.368 82.872H108.101V105.877H131.368V82.872Z" fill="#0068E8"/>
<path d="M131.347 80.8433H158.715V107.906H131.347V80.8433ZM156.665 82.872H133.397V105.877H156.665V82.872Z" fill="#0068E8"/>
<path d="M156.665 80.8433H184.011V107.906H156.665V80.8433ZM181.961 82.872H158.715V105.877H181.961V82.872Z" fill="#0068E8"/>
<path d="M181.961 80.8433H209.328V107.906H181.961V80.8433ZM207.278 82.872H184.011V105.877H207.278V82.872Z" fill="#0068E8"/>
<path d="M207.279 80.8433H234.646V107.906H207.279V80.8433ZM232.596 82.872H209.329V105.877H232.596V82.872Z" fill="#0068E8"/>
<path d="M232.575 80.8433H259.942V107.906H232.575V80.8433ZM257.892 82.872H234.625V105.877H257.892V82.872Z" fill="#0068E8"/>
<path d="M257.892 80.8433H285.26V107.906H257.892V80.8433ZM283.21 82.872H259.942V105.877H283.21V82.872Z" fill="#0068E8"/>
<path d="M283.21 80.8433H310.577V107.906H283.21V80.8433ZM308.527 82.872H285.259V105.877H308.527V82.872Z" fill="#0068E8"/>
<path d="M308.506 80.8433H335.853V107.906H308.506V80.8433ZM333.803 82.872H310.556V105.877H333.803V82.872Z" fill="#0068E8"/>
<path d="M333.823 80.8433H361.19V107.906H333.823V80.8433ZM359.14 82.872H335.873V105.877H359.14V82.872Z" fill="#0068E8"/>
<path d="M359.12 80.8433H386.487V107.906H359.12V80.8433ZM384.437 82.872H361.17V105.877H384.437V82.872Z" fill="#0068E8"/>
<path d="M384.437 80.8433H411.804V107.906H384.437V80.8433ZM409.754 82.872H386.487V105.877H409.754V82.872Z" fill="#0068E8"/>
<path d="M409.734 80.8433H437.101V107.906H409.734V80.8433ZM435.051 82.872H411.784V105.877H435.051V82.872Z" fill="#0068E8"/>
<path d="M80.7339 55.8088H108.101V82.8917H80.7339V55.8088ZM106.051 57.8375H82.7839L82.7838 80.8631H106.051V57.8375Z" fill="#0068E8"/>
<path d="M106.051 55.8088H133.418V82.8917H106.051V55.8088ZM131.368 57.8375H108.101V80.8631H131.368V57.8375Z" fill="#0068E8"/>
<path d="M131.347 55.8088H158.715V82.8917H131.347V55.8088ZM156.665 57.8375H133.397V80.8631H156.665V57.8375Z" fill="#0068E8"/>
<path d="M156.665 55.8088H184.011V82.8917H156.665V55.8088ZM181.962 57.8375H158.715V80.8631H181.962V57.8375Z" fill="#0068E8"/>
<path d="M181.961 55.8088H209.328V82.8917H181.961V55.8088ZM207.278 57.8375H184.011V80.8631H207.278V57.8375Z" fill="#0068E8"/>
<path d="M207.279 55.8088H234.646V82.8917H207.279V55.8088ZM232.596 57.8375H209.329V80.8631H232.596V57.8375Z" fill="#0068E8"/>
<path d="M232.575 55.8088H259.942V82.8917H232.575V55.8088ZM257.892 57.8375H234.625V80.8631H257.892V57.8375Z" fill="#0068E8"/>
<path d="M257.892 55.8088H285.26V82.8917H257.892V55.8088ZM283.21 57.8375H259.942V80.8631H283.21V57.8375Z" fill="#0068E8"/>
<path d="M283.21 55.8088H310.577V82.8917H283.21V55.8088ZM308.527 57.8375H285.259V80.8631H308.527V57.8375Z" fill="#0068E8"/>
<path d="M308.506 55.8088H335.853V82.8917H308.506V55.8088ZM333.803 57.8375H310.556V80.8631H333.803V57.8375Z" fill="#0068E8"/>
<path d="M333.824 55.8088H361.191V82.8917H333.824V55.8088ZM359.141 57.8375H335.873V80.8631H359.141V57.8375Z" fill="#0068E8"/>
<path d="M359.12 55.8088H386.487V82.8917H359.12V55.8088ZM384.437 57.8375H361.17V80.8631H384.437V57.8375Z" fill="#0068E8"/>
<path d="M384.437 55.8088H411.804V82.8917H384.437V55.8088ZM409.754 57.8375H386.487V80.8631H409.754V57.8375Z" fill="#0068E8"/>
<path d="M409.734 55.8091H437.101V82.8921H409.734V55.8091ZM435.051 57.8378H411.784V80.8634H435.051V57.8378Z" fill="#0068E8"/>
<path d="M80.7339 30.7546H108.101V57.8375H80.7339V30.7546ZM106.051 32.7833H82.7839L82.7838 55.8089H106.051V32.7833Z" fill="#0068E8"/>
<path d="M106.051 30.7549H133.418V57.8379H106.051V30.7549ZM131.368 32.7836H108.101V55.8092H131.368V32.7836Z" fill="#0068E8"/>
<path d="M131.347 30.7549H158.715V57.8379H131.347V30.7549ZM156.665 32.7836H133.397V55.8092H156.665V32.7836Z" fill="#0068E8"/>
<path d="M156.665 30.7549H184.011V57.8379H156.665V30.7549ZM181.961 32.7836H158.715V55.8092H181.961V32.7836Z" fill="#0068E8"/>
<path d="M181.961 30.7549H209.328V57.8379H181.961V30.7549ZM207.278 32.7836H184.011V55.8092H207.278V32.7836Z" fill="#0068E8"/>
<path d="M207.278 30.7549H234.646V57.8379H207.278V30.7549ZM232.596 32.7836H209.328V55.8092H232.596V32.7836Z" fill="#0068E8"/>
<path d="M232.575 30.7549H259.942V57.8379H232.575V30.7549ZM257.892 32.7836H234.625V55.8092H257.892V32.7836Z" fill="#0068E8"/>
<path d="M257.892 30.7549H285.259V57.8379H257.892V30.7549ZM283.209 32.7836H259.942V55.8092H283.209V32.7836Z" fill="#0068E8"/>
<path d="M283.21 30.7549H310.577V57.8379H283.21V30.7549ZM308.527 32.7836H285.259V55.8092H308.527V32.7836Z" fill="#0068E8"/>
<path d="M308.506 30.7549H335.853V57.8379H308.506V30.7549ZM333.803 32.7836H310.556V55.8092H333.803V32.7836Z" fill="#0068E8"/>
<path d="M333.823 30.7549H361.19V57.8379H333.823V30.7549ZM359.14 32.7836H335.873V55.8092H359.14V32.7836Z" fill="#0068E8"/>
<path d="M359.12 30.7549H386.487V57.8379H359.12V30.7549ZM384.437 32.7836H361.17V55.8092H384.437V32.7836Z" fill="#0068E8"/>
<path d="M384.437 30.7549H411.804V57.8379H384.437V30.7549ZM409.754 32.7836H386.487V55.8092H409.754V32.7836Z" fill="#0068E8"/>
<path d="M409.734 30.7546H437.101V57.8375H409.734V30.7546ZM435.051 32.7833H411.784V55.8089H435.051V32.7833Z" fill="#0068E8"/>
</g>
<path d="M456.227 0.000244141L468.178 0.000245186V11.8478H466.128V2.02894H456.227V0.000244141Z" fill="#00EBC7"/>
<path d="M466.128 302.173H468.178V314H456.227V311.972H466.128V302.173Z" fill="#00EBC7"/>
<path d="M49.6558 0.000244141L61.6072 0.000245186V2.02894H51.7058V11.8478H49.6558V0.000244141Z" fill="#00EBC7"/>
<path d="M49.6558 302.173H51.7058V311.972H61.6072V314H49.6558V302.173Z" fill="#00EBC7"/>
<g filter="url(#filter0_d_55_2076)">
<path d="M309.195 256.232C310.818 256.232 312.351 256.171 313.641 256.035C320.392 255.352 325.718 252.287 325.945 252.166L326.234 251.999V251.665C326.234 246.203 323.73 240.847 319.543 237.358C315.916 234.338 307.374 233.929 305.007 233.883C305.007 233.382 304.977 232.867 304.947 232.29L304.84 230.454L289.486 250.998L289.789 251.347C292.9 254.958 301.836 256.247 309.165 256.247L309.195 256.232ZM325.065 251.301C323.867 251.938 319.148 254.305 313.519 254.867C307.116 255.504 294.933 254.7 291.018 250.907L303.839 233.747C303.839 233.974 303.839 234.187 303.839 234.399L303.809 235.021H304.431C304.537 235.021 314.991 235.067 318.814 238.238C322.653 241.439 324.974 246.294 325.081 251.301H325.065Z" fill="#00B1FF"/>
<path d="M290.29 251.878L304.962 232.26V232.047C304.764 228.512 304.446 222.595 312.487 211.989C313.489 210.669 314.535 209.198 315.613 207.62L317.206 205.268L280.14 228.983L280.291 229.423C280.913 231.243 281.748 232.761 282.749 233.929C285.935 237.646 286.603 240.954 287.24 244.155C287.665 246.279 288.075 248.297 289.152 250.361C289.319 250.694 289.546 250.998 289.82 251.332L290.29 251.893V251.878ZM303.763 231.896L290.26 249.951C290.26 249.951 290.199 249.86 290.184 249.814C289.182 247.887 288.788 245.961 288.378 243.927C287.711 240.574 287.013 237.115 283.629 233.17C282.81 232.199 282.097 230.955 281.551 229.468L312.973 209.38C312.487 210.047 312.017 210.685 311.562 211.292C303.414 222.034 303.581 228.178 303.778 231.896H303.763Z" fill="#00B1FF"/>
<path d="M240.358 256.156C246.548 256.156 248.733 252.333 248.824 252.166L248.9 252.029V251.878C248.9 251.195 248.9 250.588 248.869 250.027L248.824 249.01L237.824 256.05L239.66 256.141C239.902 256.141 240.13 256.141 240.373 256.141L240.358 256.156ZM247.716 251.711C247.352 252.257 245.683 254.457 241.769 254.897L247.701 251.104C247.701 251.301 247.701 251.498 247.701 251.711H247.716Z" fill="#00B1FF"/>
<path d="M230.996 260.404L235.791 258.72C236.913 258.326 237.778 257.764 238.355 257.067L240.707 254.199L230.996 260.404Z" fill="#00B1FF"/>
<path d="M338.432 172.238L364.074 129.512L329.83 128.283L338.432 172.238ZM362.041 130.62L338.994 169.021L331.256 129.512L362.041 130.62Z" fill="#00B1FF"/>
<path d="M317.1 205.389L318.116 203.751C321.985 197.575 325.293 191.249 327.387 187.015L327.963 185.847L316.569 188.912L317.085 205.374L317.1 205.389ZM325.763 187.668C323.882 191.415 321.212 196.438 318.147 201.475L317.783 189.807L325.763 187.653V187.668Z" fill="#00B1FF"/>
<path d="M332.879 181.462L339.327 170.72L331.028 128.313L314.703 127.722L316.25 178.003L330.224 181.098L330.406 180.689C330.998 180.947 331.665 181.174 332.469 181.356L332.879 181.462ZM338.083 170.508L332.318 180.112C331.544 179.915 330.922 179.672 330.406 179.384L329.845 179.065L329.541 179.763L317.388 177.078L315.901 128.966L330.042 129.482L338.083 170.538V170.508Z" fill="#00B1FF"/>
<path d="M316.629 190.126L327.28 187.258L327.402 187.015C328.889 184.011 329.936 181.751 330.421 180.673L330.725 180.021L316.22 176.804L316.629 190.126ZM326.461 186.257L317.752 188.609L317.434 178.276L329.056 180.855C328.509 182.024 327.629 183.905 326.461 186.272V186.257Z" fill="#00B1FF"/>
<path d="M70.6844 169.446L71.2154 167.443C72.0802 164.242 72.8692 161.511 73.6127 159.083L74.0072 157.809L68.0596 160.631L70.6692 169.446H70.6844ZM72.1106 160.009C71.6403 161.571 71.1396 163.271 70.6237 165.137L69.4706 161.253L72.0954 160.009H72.1106Z" fill="#00B1FF"/>
<path d="M78.9227 197.287L80.7586 191.825L79.7269 191.021L79.3628 191.461C78.8924 192.007 78.4372 192.553 77.9517 193.1L77.7393 193.342L78.9075 197.287H78.9227Z" fill="#00B1FF"/>
<path d="M80.3641 193.009L81.9118 188.411L78.9683 191.916L80.3641 193.009Z" fill="#00B1FF"/>
<path d="M68.4083 161.768L73.5517 159.326L73.84 158.385C75.251 153.985 76.1159 150.465 76.8897 147.355C78.3007 141.665 79.4083 137.159 82.9435 130.164L83.2014 129.664L69.6676 122.093L69.3945 122.654C66.6028 128.495 64.251 134.276 62.2028 140.345L62.1421 140.527L68.4234 161.784L68.4083 161.768ZM72.5807 158.491L69.1365 160.115L63.3407 140.527C65.2979 134.762 67.5283 129.254 70.1531 123.701L81.6235 130.119C78.24 136.946 77.1324 141.422 75.7366 147.051C74.9779 150.146 74.0979 153.651 72.7173 158.021L72.5807 158.476V158.491Z" fill="#00B1FF"/>
<path d="M399.85 72.2663L389.715 53.2249L389.214 53.4524C388.79 53.6497 388.456 53.8166 388.168 53.9835C382.599 57.2455 374.603 59.4911 363.71 60.8262H363.573L351.374 68.4732L353.529 70.6276L399.835 72.2663H399.85ZM389.199 54.7573L397.848 71.0221L354.03 69.4745L353.241 68.6856L363.968 61.9794C374.952 60.6138 383.054 58.3228 388.744 54.9849C388.881 54.909 389.017 54.8331 389.199 54.7421V54.7573Z" fill="#00B1FF"/>
<path d="M355.258 70.6884L352.285 67.7297L349.887 70.5063L355.258 70.6884Z" fill="#00B1FF"/>
<path d="M351.389 70.5517L353.134 68.5338L345.897 62.1765H345.669C344.456 62.222 333.41 62.5103 320.544 62.5103H319.816L320.65 69.4593L351.405 70.5517H351.389ZM351.496 68.64L350.874 69.3531L321.697 68.3214L321.136 63.6786C333.183 63.6786 343.5 63.4055 345.472 63.36L351.496 68.64Z" fill="#00B1FF"/>
<path d="M352.269 69.323L366.334 60.5229L363.709 60.8416C358.445 61.494 352.406 61.9341 345.745 62.1768L344.167 62.2071L352.254 69.3078L352.269 69.323ZM361.282 62.3134L352.391 67.8665L347.187 63.2995C352.285 63.0871 357.003 62.7533 361.282 62.2981V62.3134Z" fill="#00B1FF"/>
<path d="M321.834 69.5049L320.999 62.5104H320.483C295.601 62.5104 280.079 61.3876 276.787 59.3545C276.165 58.9752 275.376 58.6111 274.42 58.2773L274.192 58.2014L255.591 67.1532L321.834 69.5049ZM319.952 63.6787L320.499 68.2759L260.37 66.1518L274.253 59.4607C275.012 59.749 275.664 60.0373 276.165 60.3407C279.715 62.5407 294.447 63.6483 319.952 63.6635V63.6787Z" fill="#00B1FF"/>
<path d="M258.109 67.2592L258.246 67.1986L275.77 58.7627L274.435 58.2923C272.417 57.5944 269.701 57.0027 266.105 56.5172L265.862 56.4868L251.54 67.0317L258.124 67.2592H258.109ZM272.645 58.9599L257.867 66.0758L254.938 65.9696L266.166 57.7006C268.791 58.0648 270.93 58.4896 272.645 58.9599Z" fill="#00B1FF"/>
<path d="M452.605 259.494H455.654L455.791 259.418C456.777 258.872 457.414 258.402 457.43 258.371L457.672 258.189V257.901C457.672 256.869 457.536 255.807 457.278 254.76L456.974 253.547L452.605 259.494ZM455.351 258.326H454.926L456.398 256.338C456.459 256.763 456.489 257.188 456.504 257.613C456.261 257.78 455.867 258.038 455.351 258.326Z" fill="#00B1FF"/>
<path d="M453.485 260.283L457.354 255.034L457.293 254.776C456.489 251.514 454.456 248.327 451.072 245.065L449.646 243.685L453.5 260.283H453.485ZM456.079 254.776L454.046 257.537L451.694 247.387C453.97 249.875 455.412 252.318 456.079 254.776Z" fill="#00B1FF"/>
<path d="M371.736 197.697L371.918 197.667L404.827 192.462L404.523 191.764C402.763 187.789 401.428 184.467 400.654 182.175C398.394 175.53 399.759 169.871 401.337 163.301C401.626 162.133 401.899 160.934 402.172 159.72L402.248 159.356L391.035 150.769L341.148 182.236L342.817 182.418C344.911 182.646 347.46 183.101 348.446 184.497C348.871 185.104 349.63 186.227 350.737 187.911L350.828 188.047L371.751 197.697H371.736ZM403.128 191.537L371.903 196.483L351.602 187.122C350.525 185.498 349.812 184.421 349.372 183.814C348.385 182.418 346.504 181.796 344.532 181.462L390.959 152.18L400.928 159.811C400.685 160.904 400.427 161.966 400.184 163.013C398.637 169.476 397.18 175.575 399.547 182.54C400.29 184.724 401.534 187.82 403.143 191.522L403.128 191.537Z" fill="#00B1FF"/>
<path d="M358.49 199.791L373.829 197.363L349.584 186.181L350.722 187.895C352.178 190.095 354.105 193.054 356.26 196.377L358.49 199.791ZM369.824 196.802L359.051 198.501L357.246 195.724C355.607 193.206 354.09 190.884 352.831 188.957L369.839 196.802H369.824Z" fill="#00B1FF"/>
<path d="M342.999 182.433L343.166 182.327L392.006 151.527L362.875 129.208L338.083 170.523L340.374 182.206L340.814 182.236C341.558 182.297 342.21 182.342 342.787 182.418L342.984 182.449L342.999 182.433ZM389.958 151.421L342.711 181.22C342.286 181.174 341.846 181.129 341.345 181.098L339.312 170.735L363.194 130.923L389.943 151.421H389.958Z" fill="#00B1FF"/>
<path d="M341.588 182.282L338.994 169.006L331.681 181.189L332.469 181.371C334.427 181.827 336.778 181.978 339.054 182.115C339.646 182.145 340.238 182.191 340.814 182.236L341.573 182.297L341.588 182.282ZM338.432 172.238L340.147 181.007C339.813 180.977 339.464 180.962 339.13 180.947C337.203 180.825 335.231 180.704 333.532 180.4L338.432 172.238Z" fill="#00B1FF"/>
<path d="M450.784 261.36L452.802 260.738C453.758 260.435 454.759 259.995 455.791 259.418L457.748 258.326H453.515L450.784 261.36Z" fill="#00B1FF"/>
<path d="M398.758 72.7063L414.036 54.0139L413.763 49.3711L413.172 49.4166C406.602 49.8566 394.767 50.9642 389.229 53.4677L388.668 53.7256L398.773 72.7063H398.758ZM412.838 53.6345L398.97 70.6125L390.292 54.3021C395.905 52.0414 407.315 51.0097 412.671 50.6304L412.853 53.6497L412.838 53.6345Z" fill="#00B1FF"/>
<path d="M412.944 55.3488L418.543 48.506L417.693 47.7019C417.162 48.2026 416.646 48.7033 416.145 49.2343C415.69 49.2495 414.628 49.3102 413.172 49.4012L412.595 49.4467L412.959 55.3488H412.944ZM415.448 50.4329L413.93 52.284L413.824 50.524C414.461 50.4785 415.023 50.4481 415.432 50.4329H415.448Z" fill="#00B1FF"/>
<path d="M418.71 131.348L415.675 81.036L398.667 70.8401L381.659 98.5905L414.507 131.287L418.71 131.333V131.348ZM414.537 81.7339L417.466 130.164L414.992 130.134L383.13 98.4236L399.061 72.4484L414.537 81.7339Z" fill="#00B1FF"/>
<path d="M492.751 132.288L492.918 132.167C493.874 131.424 494.648 130.483 495.224 129.406L495.482 128.92L470.205 113.763L469.932 113.869L424.05 131.439L440.406 131.651L440.573 131.5C441.59 130.62 442.667 130.164 443.79 130.164C445.671 130.164 447.097 131.439 447.264 131.575L447.431 131.727H447.932L448.068 131.651C450.966 130.013 454.714 129.178 459.205 129.178C465.395 129.178 471.783 130.741 476.061 132.061L476.228 132.091L492.766 132.304L492.751 132.288ZM493.904 129.33C493.479 130.013 492.964 130.604 492.357 131.105L476.319 130.908C471.965 129.573 465.501 127.995 459.205 127.995C454.653 127.995 450.799 128.829 447.78 130.453C447.143 129.952 445.671 128.966 443.79 128.966C442.455 128.966 441.165 129.466 439.981 130.437L430.18 130.316L470.084 115.037L493.904 129.33Z" fill="#00B1FF"/>
<path d="M427.221 131.454L471.479 114.506L414.446 80.3076L417.526 131.333L427.206 131.454H427.221ZM468.809 114.279L427.009 130.286L418.634 130.179L415.751 82.4621L468.809 114.279Z" fill="#00B1FF"/>
<path d="M411.806 131.257L370.78 116.327L362.01 130.62L411.806 131.242V131.257ZM371.281 117.753L404.918 129.998L364.089 129.482L371.281 117.769V117.753Z" fill="#00B1FF"/>
<path d="M416.176 131.317L382.265 97.574L370.143 117.359L408.241 131.226L416.176 131.333V131.317ZM382.493 99.4554L413.293 130.119L408.453 130.058L371.887 116.752L382.493 99.4554Z" fill="#00B1FF"/>
<path d="M397.574 72.2966L415.083 71.4166L413.93 52.2842L397.574 72.2966ZM413.854 70.309L400.154 71.007L412.944 55.3642L413.839 70.3242L413.854 70.309Z" fill="#00B1FF"/>
<path d="M467.656 68.7614L476.835 68.291L476.274 67.4414C472.101 61.0386 467.975 57.2303 466.882 56.2896C467.959 50.8276 467.823 47.3531 466.442 45.6689C465.82 44.9103 464.986 44.531 463.939 44.531C459.812 44.531 453.394 50.8427 452.332 51.9352C451.512 52.0414 448.341 52.3903 444.943 52.4358L443.046 52.4662L467.641 68.7614H467.656ZM474.741 67.229L467.99 67.5628L446.839 53.5434C450.041 53.4069 452.666 53.0579 452.696 53.0579L452.893 53.0276L453.03 52.8758C453.03 52.8758 460.024 45.6993 463.954 45.6993C464.637 45.6993 465.168 45.9269 465.547 46.3972C466.336 47.3683 467.003 49.8869 465.683 56.3807L465.608 56.7296L465.881 56.9572C465.881 56.9572 470.281 60.6138 474.741 67.229Z" fill="#00B1FF"/>
<path d="M413.915 71.4773L469.644 68.6704L445.14 52.4359H444.958C444.73 52.4359 444.503 52.4359 444.275 52.4359C438.995 52.4359 436.856 51.6014 436.006 50.9035C435.46 50.4635 434.823 49.811 434.17 49.1131C431.986 46.8372 429.27 44 425.431 44C422.928 44 420.409 45.1986 417.693 47.6869L417.632 47.7476L412.838 53.6193L413.915 71.4621V71.4773ZM466.017 67.669L415.008 70.2483L414.021 54.0138L418.497 48.5366C420.94 46.3214 423.261 45.1835 425.416 45.1835C428.739 45.1835 431.272 47.8235 433.306 49.9324C433.988 50.6455 434.641 51.3283 435.248 51.829C436.704 53.0124 439.739 53.6193 444.26 53.6193C444.442 53.6193 444.609 53.6193 444.776 53.6193L466.002 67.6842L466.017 67.669Z" fill="#00B1FF"/>
<path d="M415.751 82.4623L415.008 70.2485L396.892 71.1589L415.736 82.4623H415.751ZM413.915 71.4775L414.446 80.323L400.806 72.1451L413.9 71.4775H413.915Z" fill="#00B1FF"/>
<path d="M494.936 129.952L495.224 129.406C496.787 126.462 496.559 123.109 496.408 121.911C504.874 117.602 501.354 106.253 500.838 104.766C500.944 104.159 501.02 103.537 501.081 102.839L501.141 101.913L468.809 114.294L494.936 129.952ZM499.821 103.658C499.776 104.007 499.73 104.356 499.655 104.675L499.624 104.842L499.685 104.993C499.867 105.479 504.085 117.055 495.512 121.015L495.103 121.197L495.179 121.653C495.179 121.653 495.801 125.188 494.45 128.283L471.464 114.506L499.821 103.658Z" fill="#00B1FF"/>
<path d="M483.602 79.3216L481.66 76.6816C480.977 75.7409 480.416 74.8457 479.976 73.9202C478.899 71.7202 477.654 69.5505 476.289 67.4567L476.107 67.1685L466.017 67.6843L483.602 79.3216ZM475.5 68.3671C476.759 70.3395 477.912 72.3726 478.929 74.4209C479.02 74.6181 479.126 74.8154 479.232 74.9974L469.659 68.6554L475.515 68.3671H475.5Z" fill="#00B1FF"/>
<path d="M470.084 115.037L470.357 114.931L501.051 103.188L501.081 102.808C501.688 94.5242 495.679 89.5173 489.884 84.6773C486.91 82.2041 483.845 79.64 481.66 76.651L481.599 76.5752L467.99 67.5627L413.839 70.2938L414.537 81.7186L414.795 81.8855L470.084 115.037ZM499.928 102.353L470.19 113.732L415.66 81.051L415.083 71.4317L467.656 68.7765L480.765 77.4552C483.026 80.52 486.121 83.0993 489.11 85.5876C494.845 90.3669 500.262 94.9035 499.913 102.353H499.928Z" fill="#00B1FF"/>
<path d="M417.253 134.033L417.648 133.806C417.83 133.7 418.012 133.578 418.194 133.472L418.816 133.093L418.649 130.18L413.323 130.119L417.268 134.049L417.253 134.033ZM417.602 132.455H417.572C417.572 132.455 417.481 132.531 417.435 132.562L416.191 131.318H417.541L417.602 132.455Z" fill="#00B1FF"/>
<path d="M423.519 138.964C425.552 138.964 428.071 134.686 429.042 132.88C429.512 133.199 429.952 133.502 430.362 133.79C432.516 135.277 433.958 136.264 435.293 136.264C436.507 136.264 437.523 135.49 438.692 133.684C439.283 132.789 439.905 132.046 440.573 131.469L441.741 130.468L427.009 130.286L420.424 132.804L420.727 133.381C421.016 133.942 421.243 134.807 421.425 135.945C421.729 137.948 422.427 138.949 423.519 138.949V138.964ZM428.45 131.469L428.298 131.757C427.054 134.185 424.687 137.781 423.519 137.781C423.125 137.781 422.776 137.022 422.578 135.763C422.427 134.822 422.26 134.048 422.032 133.426L427.221 131.439H428.45V131.469ZM438.813 131.621C438.434 132.046 438.069 132.531 437.736 133.062C436.567 134.868 435.854 135.095 435.308 135.095C434.322 135.095 433.017 134.2 431.029 132.819C430.468 132.425 429.846 132 429.148 131.545L429.057 131.484L438.798 131.606L438.813 131.621Z" fill="#00B1FF"/>
<path d="M447.583 131.849L447.993 131.682L448.068 131.636L449.919 130.559L446.141 130.529L447.583 131.849Z" fill="#00B1FF"/>
<path d="M485.514 134.322C488.594 134.322 491.082 133.593 492.918 132.152L494.223 131.12L472.162 130.847L476.046 132.046C479.293 133.047 481.417 133.927 481.448 133.942L481.584 133.973C482.98 134.2 484.3 134.306 485.514 134.306V134.322ZM490.46 132.258C488.275 133.199 485.377 133.396 481.842 132.835C481.63 132.744 480.993 132.486 479.976 132.122L490.46 132.258Z" fill="#00B1FF"/>
<path d="M420.955 133.851L430.18 130.316L417.465 130.149L417.678 133.76L418.512 133.26C419.013 132.956 419.514 132.683 419.908 132.683C420.045 132.683 420.363 132.683 420.728 133.381L420.97 133.851H420.955ZM424.035 131.424L421.486 132.395C421.061 131.818 420.53 131.515 419.908 131.515C419.514 131.515 419.104 131.636 418.74 131.818L418.71 131.363L424.05 131.439L424.035 131.424Z" fill="#00B1FF"/>
<path d="M401.959 160.6L402.156 159.705C402.748 157.035 403.446 153.439 403.583 149.418C403.658 147.021 403.658 145.185 403.643 143.85V142.803L389.973 151.421L401.959 160.6ZM402.475 144.912C402.475 146.095 402.475 147.567 402.414 149.373C402.293 152.862 401.747 156.049 401.216 158.552L392.021 151.512L402.475 144.912Z" fill="#00B1FF"/>
<path d="M390.959 152.179L403.643 144.184L403.613 142.621C403.562 139.546 404.862 137.093 407.512 135.262C407.998 134.928 408.544 134.549 409.151 134.124C410.258 133.335 411.199 132.744 411.927 132.364L413.096 131.742L408.483 130.058H408.377L361.297 129.466L390.959 152.195V152.179ZM402.46 143.546L391.02 150.753L364.802 130.665L408.256 131.211L410.258 131.939C409.727 132.273 409.136 132.668 408.468 133.138C407.861 133.563 407.33 133.942 406.845 134.276C402.445 137.326 402.354 137.493 402.445 142.621V143.531L402.46 143.546Z" fill="#00B1FF"/>
<path d="M415.766 134.458C416.115 134.458 416.479 134.367 416.889 134.185L418.224 133.593L413.672 131.939L414.021 133.077C414.112 133.366 414.385 134.23 415.372 134.428C415.493 134.443 415.614 134.458 415.736 134.458H415.766Z" fill="#00B1FF"/>
<path d="M416.692 134.291L416.904 134.2C417.132 134.109 417.374 133.972 417.647 133.821L418.3 133.441L414.992 130.149L404.918 130.028L411.685 132.486L411.912 132.364C412.777 131.909 413.232 131.803 413.46 131.803C413.657 131.803 413.733 131.833 413.915 132.577C413.96 132.743 413.991 132.926 414.052 133.092L414.143 133.366L416.707 134.291H416.692ZM414.871 131.666L416.009 132.789L415.098 132.455C415.098 132.455 415.068 132.349 415.053 132.288C415.007 132.106 414.962 131.879 414.871 131.651V131.666Z" fill="#00B1FF"/>
<path d="M317.009 129.224L303.49 115.75L291.246 125.006L317.009 129.224ZM303.384 117.313L313.595 127.479L294.144 124.293L303.399 117.298L303.384 117.313Z" fill="#00B1FF"/>
<path d="M292.839 125.264L304.324 116.585L275.861 88.2277L255.682 83.509L262.266 120.257L292.839 125.264ZM302.549 116.464L292.535 124.019L263.283 119.225L257.153 85.0414L275.284 89.2746L302.549 116.448V116.464Z" fill="#00B1FF"/>
<path d="M277.454 89.7904L255.014 67.4414L252.981 68.4124L255.909 84.7532L277.439 89.7752L277.454 89.7904ZM254.787 68.8524L273.722 87.7118L256.956 83.7973L254.316 69.08L254.802 68.8524H254.787Z" fill="#00B1FF"/>
<path d="M253.193 69.6262L255.894 68.3213L252.329 64.771L253.193 69.6262Z" fill="#00B1FF"/>
<path d="M427.843 263.712C432.259 263.712 437.25 263.135 440.239 262.786C441.468 262.635 442.454 262.529 442.773 262.529C444.518 262.529 449.54 261.345 450.208 261.193C451.012 261.193 451.876 261.042 452.787 260.753L452.939 260.708L455.29 258.083L427.585 262.559L427.676 263.727H427.828L427.843 263.712ZM448.736 260.329C446.991 260.723 443.972 261.36 442.788 261.36C442.636 261.36 442.394 261.375 442.075 261.406L448.736 260.329Z" fill="#00B1FF"/>
<path d="M427.737 263.712H427.783L455.973 259.145L425.158 247.083L422.563 263.318L423.14 263.409C424.384 263.606 425.917 263.697 427.692 263.712H427.737ZM451.558 258.675L427.646 262.544C426.22 262.544 424.976 262.468 423.899 262.346L426.083 248.722L451.558 258.69V258.675Z" fill="#00B1FF"/>
<path d="M423.716 263.5L426.265 247.523L406.405 239.755L400.093 244.352L400.624 244.838C402.869 246.856 405.509 249.435 408.058 251.923C412.944 256.687 417.556 261.178 419.908 262.453C420.712 262.893 421.759 263.211 423.125 263.409L423.701 263.5H423.716ZM424.961 248.267L422.745 262.149C421.805 261.967 421.046 261.725 420.485 261.421C418.27 260.222 413.505 255.565 408.893 251.074C406.526 248.767 404.083 246.4 401.959 244.443L406.587 241.075L424.976 248.267H424.961Z" fill="#00B1FF"/>
<path d="M394.206 240.817L386.028 231.759L379.079 229.043L381.203 231.076C384.314 234.08 387.682 236.766 390.686 238.617L394.221 240.802L394.206 240.817ZM385.345 232.745L387.029 234.611C386.119 233.898 385.209 233.14 384.298 232.335L385.345 232.745Z" fill="#00B1FF"/>
<path d="M400.988 245.141L407.71 240.256L383.586 230.818L390.686 238.632C392.568 239.8 394.161 240.559 395.268 240.817C396.103 241.014 397.923 242.365 400.639 244.823L400.988 245.141ZM405.297 240.559L401.079 243.624C398.303 241.136 396.588 239.907 395.541 239.664C394.57 239.436 393.099 238.723 391.384 237.661L387.803 233.701L405.297 240.544V240.559Z" fill="#00B1FF"/>
<path d="M382.508 99.4554L400.791 69.6416L372.115 89.1078L382.523 99.4554H382.508ZM396.952 73.6623L382.296 97.5741L373.951 89.2747L396.952 73.6623Z" fill="#00B1FF"/>
<path d="M363.376 130.665L371.903 116.752L345.503 107.148L328.009 119.013L330.057 129.466L363.376 130.665ZM370.158 117.359L362.738 129.466L331.028 128.328L329.314 119.559L345.669 108.468L370.158 117.374V117.359Z" fill="#00B1FF"/>
<path d="M371.28 117.769L383.13 98.4237L373.086 88.425L344.304 107.952L371.28 117.769ZM381.658 98.6058L370.78 116.342L346.868 107.633L372.949 89.9423L381.658 98.6058Z" fill="#00B1FF"/>
<path d="M331.256 129.512L329.056 118.299L313.489 128.859L331.256 129.497V129.512ZM328.251 120.272L329.814 128.283L317.115 127.828L328.251 120.272Z" fill="#00B1FF"/>
<path d="M454.592 259.858L451.194 245.171L451.072 245.05C450.405 244.398 449.767 243.836 449.267 243.381L448.781 242.941C446.961 241.287 442.318 241.105 437.827 240.923C435.778 240.847 433.852 240.771 432.365 240.559C430.969 240.362 429.421 238.951 427.904 236.478L427.069 235.127L424.961 248.267L454.577 259.858H454.592ZM450.132 245.778L452.954 257.962L426.281 247.523L427.752 238.359C429.224 240.392 430.711 241.515 432.198 241.727C433.745 241.955 435.703 242.031 437.766 242.107C441.847 242.258 446.46 242.44 447.977 243.821L448.478 244.261C448.948 244.686 449.525 245.202 450.132 245.778Z" fill="#00B1FF"/>
<path d="M426.083 248.706L428.01 236.659L427.889 236.477C425.871 233.2 424.566 229.164 424.551 229.119L424.505 228.967L424.384 228.861C424.156 228.648 423.883 228.345 423.55 227.951L423.201 227.51L405.267 240.559L426.068 248.706H426.083ZM426.781 236.902L425.158 247.083L407.71 240.255L423.019 229.119C423.185 229.316 423.352 229.483 423.504 229.635C423.762 230.393 424.961 233.868 426.796 236.917L426.781 236.902Z" fill="#00B1FF"/>
<path d="M387.788 233.716L367.154 210.866L366.228 211.58C368.686 215.297 370.689 218.286 372.343 220.683C374.861 224.34 377.835 227.844 381.203 231.076L381.294 231.152L387.803 233.701L387.788 233.716ZM371.66 217.603L383.585 230.803L381.916 230.151C378.639 226.995 375.741 223.581 373.298 220.015C372.783 219.272 372.236 218.468 371.66 217.603Z" fill="#00B1FF"/>
<path d="M417.981 219.014L417.132 217.466C413.05 209.986 408.104 199.912 404.523 191.764L404.341 191.355L369.839 196.817L417.996 219.029L417.981 219.014ZM403.628 192.644C406.966 200.185 411.427 209.304 415.265 216.465L373.829 197.363L403.628 192.644Z" fill="#00B1FF"/>
<path d="M406.587 241.075L423.959 228.436L423.58 227.951C422.123 226.145 419.893 222.519 417.132 217.451L417.041 217.284L371.903 196.468L357.777 198.698L358.278 199.457C360.523 202.901 363.452 207.377 366.228 211.564L366.289 211.64L385.361 232.745L406.602 241.06L406.587 241.075ZM422.29 228.209L406.42 239.755L386.028 231.774L367.169 210.912C364.605 207.043 361.904 202.916 359.749 199.593L371.736 197.697L416.191 218.195C418.725 222.807 420.803 226.251 422.275 228.209H422.29Z" fill="#00B1FF"/>
<path d="M372.95 89.9421L400.685 71.1283L352.33 69.4138L372.95 89.9421ZM397.059 72.1752L373.101 88.4249L355.289 70.6883L397.074 72.1752H397.059Z" fill="#00B1FF"/>
<path d="M328.252 120.272L346.868 107.648L324.17 99.3945L328.267 120.287L328.252 120.272ZM344.304 107.967L329.056 118.315L325.703 101.2L344.304 107.967Z" fill="#00B1FF"/>
<path d="M345.669 108.453L373.936 89.2746L354.044 69.4746L350.873 69.3684L323.927 100.548L345.654 108.453H345.669ZM372.1 89.1078L345.502 107.148L325.93 100.032L351.389 70.567L353.544 70.6429L372.1 89.1078Z" fill="#00B1FF"/>
<path d="M324.519 101.67L352.391 69.4138L320.514 68.291L324.519 101.67ZM349.903 70.5062L325.369 98.8938L321.849 69.5048L349.903 70.491V70.5062Z" fill="#00B1FF"/>
<path d="M315.233 129.102L329.313 119.559L325.338 99.2581L302.564 116.464L315.249 129.102H315.233ZM328.009 119.013L315.37 127.585L304.324 116.585L324.534 101.322L327.993 119.013H328.009Z" fill="#00B1FF"/>
<path d="M303.384 117.298L326.279 100.001L273.691 87.7268L303.384 117.313V117.298ZM323.578 100.563L303.49 115.735L277.439 89.7751L323.578 100.548V100.563Z" fill="#00B1FF"/>
<path d="M325.612 101.048L321.682 68.3366L257.851 66.0759L253.891 67.9877L275.285 89.2898L275.451 89.3353L325.627 101.048H325.612ZM320.65 69.4746L324.261 99.5311L275.876 88.2277L255.894 68.3214L258.109 67.2594L320.65 69.4746Z" fill="#00B1FF"/>
<path d="M254.771 68.8525L260.37 66.1518L251.752 65.8484L254.771 68.8525ZM255.591 67.1532L255.014 67.4263L254.711 67.1077L255.606 67.138L255.591 67.1532Z" fill="#00B1FF"/>
<path d="M252.936 67.4416L267.516 56.6995L266.09 56.5022C260.977 55.8043 254.847 55.3947 249.507 55.076L248.627 55.0305L252.936 67.4264V67.4416ZM264.482 57.4885L253.527 65.5602L250.311 56.3202C254.908 56.5933 260.006 56.9422 264.482 57.4885Z" fill="#00B1FF"/>
<path d="M239.902 135.353L263.42 120.044L256.926 83.8126L245.653 81.1726L235.487 102.702L239.918 135.353H239.902ZM262.13 119.483L240.813 133.366L236.686 102.9L246.305 82.5381L255.909 84.7836L262.13 119.498V119.483Z" fill="#00B1FF"/>
<path d="M257.154 85.0565L254.074 67.8965L251.282 69.2317L245.137 82.2496L257.154 85.0565ZM253.194 69.611L255.682 83.5089L246.806 81.4303L252.162 70.0965L253.194 69.5958V69.611Z" fill="#00B1FF"/>
<path d="M250.493 70.9158L254.286 69.0951L253.482 64.5889L250.493 70.9158Z" fill="#00B1FF"/>
<path d="M220.967 147.673L240.98 134.64L236.382 100.745L215.763 144.396L220.967 147.658V147.673ZM239.72 134.064L220.952 146.277L217.265 143.971L235.76 104.826L239.72 134.064Z" fill="#00B1FF"/>
<path d="M211.226 154.015L222.044 146.96L216.264 143.334L211.226 154V154.015ZM219.875 146.991L214.049 150.784L216.764 145.048L219.875 146.991Z" fill="#00B1FF"/>
<path d="M272.872 138.889L318.313 128.237L292.551 124.02L272.887 138.873L272.872 138.889ZM312.29 128.45L278 136.476L292.839 125.264L312.29 128.45Z" fill="#00B1FF"/>
<path d="M241.374 146.262L275.679 138.221L294.129 124.277L262.646 119.134L239.72 134.064L241.374 146.262ZM275.178 137.144L242.36 144.836L240.98 134.655L262.904 120.378L291.246 125.006L275.178 137.144Z" fill="#00B1FF"/>
<path d="M224.897 150.131L242.527 146.004L240.813 133.366L219.875 146.991L224.897 150.131ZM241.223 145.094L225.109 148.872L222.06 146.96L239.902 135.338L241.223 145.094Z" fill="#00B1FF"/>
<path d="M209.527 153.727L226.505 149.752L220.967 146.277L209.527 153.727ZM223.501 149.251L215.778 151.057L220.982 147.673L223.501 149.251Z" fill="#00B1FF"/>
<path d="M280.519 230.12L315.537 207.726L315.598 207.62C316.098 206.891 316.584 206.148 317.069 205.405L317.418 204.858L296.602 194.298L285.04 197.424L284.949 197.742C284.327 200.018 283.554 201.96 282.674 203.523C278.85 210.214 277.758 222.079 280.276 229.407L280.519 230.105V230.12ZM314.703 206.861L281.156 228.315C279.032 221.214 280.125 210.336 283.69 204.1C284.585 202.537 285.359 200.61 285.996 198.38L296.481 195.558L315.734 205.314C315.401 205.829 315.052 206.345 314.703 206.861Z" fill="#00B1FF"/>
<path d="M258.367 179.46L252.814 172.101L243.969 167.61L244.879 178.2L245.334 178.276C248.247 178.746 252.207 179.126 257.108 179.384L258.367 179.46ZM252.055 173.026L255.909 178.155C251.858 177.912 248.52 177.593 245.971 177.199L245.319 169.628L252.055 173.042V173.026Z" fill="#00B1FF"/>
<path d="M267.971 179.793L250.447 170.902L256.835 179.384H257.108C259.611 179.535 262.403 179.642 265.362 179.718L267.971 179.793ZM254.422 174.24L262.767 178.473C260.886 178.413 259.111 178.337 257.442 178.246L254.422 174.24Z" fill="#00B1FF"/>
<path d="M284.691 198.744L298.18 195.102L286.512 189.185L286.406 190.02C286.042 192.978 285.571 195.497 284.949 197.757L284.676 198.744H284.691ZM294.918 194.769L286.345 197.075C286.8 195.239 287.165 193.236 287.468 190.975L294.918 194.753V194.769Z" fill="#00B1FF"/>
<path d="M231.148 259.464L232.407 259.373C233.712 259.282 234.85 259.054 235.791 258.72L235.912 258.66L238.355 257.067C238.658 256.703 238.825 256.369 238.931 256.096C239.159 256.111 239.417 256.126 239.66 256.141H239.842L248.869 250.376V250.042C248.733 247.159 248.202 243.533 245.198 240.984L244.712 240.574L231.148 259.479V259.464ZM235.336 257.643C234.82 257.825 234.243 257.962 233.606 258.053L244.925 242.304C247.064 244.413 247.549 247.205 247.686 249.754L239.538 254.973C239.189 254.958 238.871 254.927 238.567 254.882L237.945 254.806L237.915 255.428C237.915 255.428 237.885 255.792 237.52 256.247L235.351 257.628L235.336 257.643Z" fill="#00B1FF"/>
<path d="M230.935 259.433H231.436C231.77 259.403 232.089 259.388 232.392 259.373H232.665L245.607 241.333L245.198 240.984C242.391 238.602 237.854 237.449 231.315 237.449C230.116 237.449 228.948 237.388 227.764 237.282L227.006 237.206L230.92 259.433H230.935ZM232.043 258.22C232.043 258.22 231.952 258.22 231.922 258.22L228.447 238.495C229.403 238.571 230.359 238.602 231.33 238.602C237.247 238.602 241.42 239.558 244.029 241.53L232.043 258.22Z" fill="#00B1FF"/>
<path d="M215.126 169.871L236.792 163.984L211.849 151.345L215.126 169.871ZM233.545 163.65L216.051 168.399L213.412 153.439L233.545 163.65Z" fill="#00B1FF"/>
<path d="M246.078 178.398L245.198 168.247L235.245 163.195L214.929 168.718L215.869 174.013L216.233 174.104C223.289 175.97 241.602 177.684 242.861 177.806C243.574 177.973 244.409 178.14 245.334 178.291L246.078 178.413V178.398ZM244.09 168.991L244.773 176.987C244.151 176.88 243.589 176.759 243.074 176.638H242.998C242.8 176.607 224.199 174.893 216.886 173.057L216.264 169.567L235.108 164.439L244.09 168.991Z" fill="#00B1FF"/>
<path d="M254.422 68.1395L249.901 55.1064L249.506 55.076C248.141 55.0002 246.791 54.9243 245.455 54.8485C242.876 54.7119 240.449 54.5753 238.233 54.4236L236.291 54.3022L254.422 68.1395ZM249.051 56.2291L252.04 64.8319L240.1 55.7133C241.769 55.8195 243.559 55.9105 245.41 56.0167C246.609 56.0774 247.822 56.1533 249.051 56.214V56.2291Z" fill="#00B1FF"/>
<path d="M316.781 205.845L317.069 205.405C317.418 204.858 317.767 204.312 318.116 203.751L318.207 203.599L317.737 188.609L294.902 194.753L316.766 205.845H316.781ZM317.024 203.28C316.811 203.629 316.584 203.963 316.371 204.312L298.18 195.087L316.629 190.111L317.039 203.265L317.024 203.28Z" fill="#00B1FF"/>
<path d="M254.422 174.24L243.271 159.432L244.09 168.991L254.422 174.225V174.24ZM244.788 163.392L250.447 170.902L245.198 168.247L244.788 163.392Z" fill="#00B1FF"/>
<path d="M317.434 178.276L315.871 127.615L275.193 137.144L275.102 137.219L242.679 161.723L317.449 178.291L317.434 178.276ZM314.748 129.072L316.22 176.804L245.395 161.116L275.694 138.221L314.733 129.072H314.748Z" fill="#00B1FF"/>
<path d="M296.48 195.558L317.782 189.822L317.388 177.078L242.603 160.509L252.055 173.042L265.24 179.733H265.377C269.473 179.854 273.964 179.9 278.713 179.9C282.764 179.9 285.92 179.854 287.225 179.839C287.164 180.476 287.119 181.311 287.058 182.282C286.937 184.315 286.77 187.091 286.406 190.035L286.36 190.445L296.48 195.573V195.558ZM316.584 188.927L296.617 194.313L287.62 189.762C287.953 186.924 288.105 184.3 288.227 182.342C288.302 180.977 288.378 179.9 288.454 179.323L288.56 178.64H287.862C287.862 178.64 284.054 178.731 278.698 178.731C274.025 178.731 269.595 178.671 265.529 178.564L252.814 172.116L245.44 162.345L316.235 178.033L316.569 188.942L316.584 188.927Z" fill="#00B1FF"/>
<path d="M243.574 162.481L278 136.476L241.223 145.094L243.574 162.481ZM272.872 138.888L244.469 160.342L242.527 145.989L272.872 138.888Z" fill="#00B1FF"/>
<path d="M244.773 162.573L242.36 144.821L223.486 149.251L244.773 162.573ZM241.374 146.262L243.271 160.251L226.49 149.752L241.374 146.262Z" fill="#00B1FF"/>
<path d="M235.108 164.439L245.471 161.617L225.094 148.857L210.938 152.179L235.108 164.439ZM242.573 161.192L235.229 163.179L214.337 152.589L224.882 150.116L242.573 161.192Z" fill="#00B1FF"/>
<path d="M245.319 169.613L244.545 160.661L233.545 163.65L245.304 169.613H245.319ZM243.498 162.163L243.969 167.625L236.792 163.984L243.498 162.163Z" fill="#00B1FF"/>
<path d="M166.923 115.174L174.206 111.229L170.276 107.102L166.938 115.174H166.923ZM172.294 110.925L169.275 112.564L170.655 109.211L172.294 110.925Z" fill="#00B1FF"/>
<path d="M191.123 128.981L173.356 110.349L166.923 113.824L191.123 128.981ZM173.129 111.806L183.84 123.033L169.26 113.899L173.129 111.806Z" fill="#00B1FF"/>
<path d="M214.2 153.165L187.8 125.506L167.742 112.943L158.654 146.505L214.2 153.165ZM187.117 126.462L211.105 151.618L160.156 145.503L168.47 114.779L187.117 126.462Z" fill="#00B1FF"/>
<path d="M168.258 114.992L171.141 108.028L128.886 63.7241L127.899 66.0607L168.258 114.992ZM169.775 108.286L167.924 112.746L129.265 65.8634V65.8331L169.775 108.286Z" fill="#00B1FF"/>
<path d="M159.822 146.657L168.986 112.807L110.132 140.694L159.822 146.657ZM167.196 114.946L158.957 145.367L114.305 140.011L167.181 114.946H167.196Z" fill="#00B1FF"/>
<path d="M169.411 114.537L128.43 64.8469L109.101 110.85L169.411 114.537ZM128.764 67.0773L166.801 113.201L110.83 109.773L128.764 67.0773Z" fill="#00B1FF"/>
<path d="M112.333 140.952L112.484 140.876L170.397 113.414L109.571 109.682L99.5269 133.654V133.791C99.4207 135.202 99.2235 136.855 98.9655 138.737L98.8745 139.329L112.317 140.937L112.333 140.952ZM165.785 114.309L112.135 139.738L100.21 138.312C100.437 136.658 100.604 135.171 100.695 133.882V133.851L110.33 110.911L165.785 114.309Z" fill="#00B1FF"/>
<path d="M151.583 172.632L215.384 152.134L158.972 145.367L151.599 172.632H151.583ZM209.906 152.665L153.268 170.857L159.822 146.657L209.906 152.665Z" fill="#00B1FF"/>
<path d="M119.964 182.782L152.919 172.192L160.141 145.504L112.135 139.753L97.6151 146.641L97.5544 146.93C95.4151 157.687 92.3806 168.414 89.2247 176.349L88.9668 177.017L119.964 182.797V182.782ZM151.948 171.281L119.888 181.584L90.5902 176.122C93.6551 168.262 96.5682 157.884 98.662 147.446L112.348 140.967L158.669 146.52L151.963 171.281H151.948Z" fill="#00B1FF"/>
<path d="M78.0278 196.255L83.9753 194.344L79.7726 191.066L78.0278 196.255ZM81.5174 193.904L79.8788 194.42L80.3643 192.993L81.5174 193.888V193.904Z" fill="#00B1FF"/>
<path d="M82.6248 194.784L122.316 182.039L89.4221 175.894L89.0731 176.774C86.9338 182.069 82.8221 187.319 79.909 190.809L79.8331 190.9L79.3779 192.25L82.6248 194.784ZM117.537 182.342L82.8524 193.479L80.7434 191.84L80.8648 191.491C85.5835 185.817 88.451 181.417 90.1352 177.229L117.521 182.342H117.537Z" fill="#00B1FF"/>
<path d="M97.3271 148.068L114.305 140.011L99.0416 138.175L98.9657 138.737C98.6167 141.195 98.1464 143.956 97.5547 146.915L97.3271 148.053V148.068ZM110.148 140.694L98.9354 146.004C99.3754 143.683 99.7547 141.483 100.058 139.48L110.148 140.694Z" fill="#00B1FF"/>
<path d="M235.76 104.826L246.806 81.4304L232.119 78.0015L235.76 104.826ZM245.137 82.2497L236.398 100.745L233.515 79.5339L245.137 82.2497Z" fill="#00B1FF"/>
<path d="M246.305 82.5227L252.966 68.4275L231.072 78.9723L246.305 82.5227ZM250.493 70.9158L245.653 81.1572L234.577 78.5779L250.493 70.9158Z" fill="#00B1FF"/>
<path d="M232.711 79.4884L252.162 70.127L254.149 65.9394L217.766 65.4387L232.711 79.5036V79.4884ZM251.282 69.247L232.923 78.0774L220.755 66.6373L252.298 67.0773L251.267 69.247H251.282Z" fill="#00B1FF"/>
<path d="M173.129 111.806L173.523 111.593L233.818 78.8965L219.511 65.4385H219.283L187.724 64.9985L169.775 108.286L173.129 111.806ZM231.831 78.6386L173.356 110.334L171.141 108.012L188.498 66.1668L219.025 66.5916L231.831 78.6386Z" fill="#00B1FF"/>
<path d="M216.764 145.033L236.686 102.884L233.287 77.8499L172.294 110.926L187.178 126.508L216.78 145.033H216.764ZM235.472 102.687L216.264 143.334L187.846 125.537L174.191 111.214L232.346 79.6857L235.472 102.687Z" fill="#00B1FF"/>
<path d="M212.804 153.424L217.265 143.971L183.825 123.033L212.804 153.424ZM215.763 144.411L212.471 151.375L191.123 128.996L215.763 144.426V144.411Z" fill="#00B1FF"/>
<path d="M170.655 109.211L188.984 65.014L127.702 64.1643L170.655 109.211ZM187.239 66.1671L170.261 107.102L130.479 65.3781L187.239 66.1671Z" fill="#00B1FF"/>
<path d="M254.999 67.1076L238.416 54.4538H238.233C233.894 54.1504 231.239 53.8621 229.661 53.4828C220.603 51.6925 211.575 50.4938 202.775 49.9021L201.137 49.7959L219.01 66.607H219.238L254.969 67.1076H254.999ZM237.991 55.5918L251.464 65.8787L219.511 65.4387L204.353 51.1918C212.577 51.8138 220.998 52.9669 229.418 54.6359C231.027 55.0152 233.667 55.3187 237.976 55.6069L237.991 55.5918Z" fill="#00B1FF"/>
<path d="M220.77 66.6372L203.003 49.9172H202.791C200.014 49.7199 197.238 49.5834 194.537 49.5227H194.142L187.239 66.1669L220.77 66.622V66.6372ZM202.502 51.0703L217.766 65.4234L188.984 65.0289L194.916 50.7062C197.389 50.7668 199.938 50.8882 202.502 51.0551V51.0703Z" fill="#00B1FF"/>
<path d="M188.498 66.1822L195.402 49.538H194.552C193.065 49.4773 191.548 49.4622 190.076 49.4622C164.328 49.4622 149.247 55.0001 149.095 55.0608L149.035 55.0911C147.153 56.0318 144.437 57.0939 140.978 58.4291C137.701 59.7036 133.968 61.1601 129.872 62.9353L129.735 62.996L127.915 65.3477L188.513 66.1822H188.498ZM193.657 50.676L187.724 64.9987L130.282 64.2098L130.479 63.9518C134.515 62.207 138.171 60.7808 141.403 59.5215C144.862 58.1711 147.608 57.1091 149.52 56.1532C150.248 55.8953 165.072 50.6304 190.061 50.6304C191.244 50.6304 192.458 50.6304 193.657 50.6608V50.676Z" fill="#00B1FF"/>
<path d="M230.723 259.418C230.966 259.418 231.209 259.418 231.436 259.418H232.119L228.22 237.312L227.78 237.266C224.381 236.963 221.392 236.189 218.934 234.975L218.797 234.899H218.646L186.662 236.553L187.755 237.509C190.82 240.195 194.248 243.699 196.585 246.188L196.676 246.279L196.782 246.324L226.884 259.19H226.975C228.326 259.357 229.6 259.433 230.738 259.433L230.723 259.418ZM230.723 258.25C229.646 258.25 228.462 258.174 227.188 258.037L197.359 245.293C195.28 243.093 192.367 240.104 189.591 237.585L218.555 236.083C221.013 237.266 223.926 238.04 227.218 238.389L230.723 258.25Z" fill="#00B1FF"/>
<path d="M164.875 183.526L216.279 169.567L213.108 151.633L151.948 171.282L149.414 180.643L150.734 179.733C156.15 176.015 160.262 172.541 162.159 170.872C162.098 173.633 163.099 177.654 164.708 182.98L164.875 183.526ZM214.928 168.717L165.664 182.1C163.919 176.258 162.902 171.889 163.494 169.537L163.691 168.733L212.182 153.151L214.928 168.702V168.717ZM162.28 169.203C161.264 170.129 157.197 173.755 151.386 177.866L152.919 172.207L162.28 169.203Z" fill="#00B1FF"/>
<path d="M206.599 214.659L206.645 213.795C206.872 209 208.617 204.312 210.453 199.335C210.893 198.137 211.348 196.938 211.773 195.739C214.185 188.912 213.912 181.219 213.745 176.607C213.7 175.241 213.654 173.83 213.715 173.117C214.064 173.375 214.731 173.694 216.233 174.088L217.129 174.316L216.082 168.384L164.556 182.373L164.723 182.949C165.254 184.694 165.831 186.575 166.453 188.563L169.29 197.666L206.614 214.644L206.599 214.659ZM213.487 171.706C213.275 171.706 213.062 171.797 212.911 171.949C212.44 172.45 212.44 173.542 212.562 176.668C212.729 181.189 212.987 188.745 210.65 195.36C210.225 196.559 209.785 197.757 209.345 198.941C207.57 203.705 205.901 208.226 205.522 212.899L170.231 196.847L167.56 188.244C167.014 186.469 166.483 184.8 166.013 183.222L215.141 169.87L215.642 172.708C214.686 172.404 214.398 172.192 214.307 172.116C214.125 171.934 213.851 171.706 213.487 171.706Z" fill="#00B1FF"/>
<path d="M187.937 237.676H188.18L220.967 235.977L218.949 234.976C214.185 232.624 212.896 229.347 212.88 229.316L212.835 229.21L212.759 229.119C208.329 224.325 206.371 219.454 206.645 213.795V213.4L168.82 196.195L169.214 197.439C171.262 204.054 172.886 209.273 173.098 209.956C173.751 229.362 178.075 231.547 182.642 233.868C182.915 234.005 183.188 234.141 183.476 234.293C184.508 234.839 185.964 235.916 187.785 237.525L187.967 237.676H187.937ZM216.643 235.021L188.347 236.478C186.541 234.9 185.069 233.822 183.992 233.261C183.704 233.109 183.431 232.973 183.142 232.836C178.879 230.682 174.858 228.633 174.236 209.85L174.206 209.698C174.206 209.698 172.704 204.828 170.686 198.349L205.431 214.144C205.264 219.94 207.297 224.947 211.803 229.847C212.046 230.409 213.245 232.851 216.613 235.021H216.643Z" fill="#00B1FF"/>
<path d="M139.673 186.454L139.855 186.363C143.436 184.466 147.093 182.236 150.734 179.733L150.916 179.611L153.283 170.842L117.537 182.327L139.658 186.454H139.673ZM149.9 178.883C146.41 181.265 142.92 183.404 139.491 185.225L122.331 182.024L151.599 172.617L149.9 178.883Z" fill="#00B1FF"/>
<path d="M94.5959 202.658L82.8525 193.464L77.269 195.254L94.5808 202.658H94.5959ZM82.6249 194.768L86.8277 198.061L80.6221 195.406L82.6249 194.768Z" fill="#00B1FF"/>
<path d="M110.694 209.547L110.952 209.395C120.116 204.054 136.381 188.639 137.564 187.531C138.338 187.152 139.097 186.758 139.855 186.363L141.342 185.574L119.904 181.569L81.5171 193.904L90.484 200.898L110.694 209.531V209.547ZM137.792 186.105C137.519 186.242 137.246 186.378 136.957 186.515L136.806 186.621C136.639 186.773 119.995 202.643 110.603 208.227L90.9998 199.851L83.9598 194.344L119.949 182.782L137.777 186.105H137.792Z" fill="#00B1FF"/>
<path d="M230.905 259.631L194.643 244.14L196.57 246.188C197.859 247.553 198.679 248.464 198.679 248.464C204.535 255.838 211.12 256.839 223.076 258.645L224.957 258.933C225.595 259.024 226.247 259.115 226.945 259.191L230.89 259.631H230.905ZM199.316 247.417L222.712 257.416C211.044 255.656 205.097 254.654 199.589 247.72C199.589 247.72 199.483 247.599 199.316 247.432V247.417Z" fill="#00B1FF"/>
<path d="M93.5488 221.32L94.0799 220.82C97.7213 217.421 101.772 214.356 105.49 212.217L106.248 211.777L90.9543 199.821L77.5571 194.101L93.564 221.32H93.5488ZM104.154 211.64C100.756 213.689 97.1295 216.435 93.8068 219.469L80.3488 196.574L90.393 200.868L104.139 211.625L104.154 211.64Z" fill="#00B1FF"/>
<path d="M105.141 212.414L105.49 212.217C106.643 211.549 107.69 211.018 108.615 210.609C109.283 210.32 110.057 209.911 110.952 209.395L111.953 208.803L86.8276 198.061L105.141 212.399V212.414ZM109.328 208.955C108.903 209.182 108.509 209.38 108.145 209.531C107.28 209.911 106.294 210.411 105.247 211.003L94.5959 202.658L109.328 208.955Z" fill="#00B1FF"/>
<path d="M128.749 67.0773L130.388 63.1931L127.277 65.2869L128.749 67.0773Z" fill="#00B1FF"/>
<path d="M110.33 110.926L129.265 65.8635L128.249 64.6345L88.6942 91.2925C86.479 93.8718 84.4458 96.5725 82.6403 99.3339C80.7589 102.217 78.9383 105.145 77.2238 108.043L76.7383 108.862L95.4762 110.015L95.6583 109.757C100.786 102.854 104.595 99.2125 106.491 97.6042C105.49 101.473 104.504 105.661 103.578 109.833L103.426 110.501L110.33 110.926ZM127.778 66.3642L109.571 109.712L104.853 109.424C105.869 104.872 106.962 100.335 108.039 96.2387L108.433 94.7518L107.159 95.5863C106.962 95.7228 102.334 98.818 94.8845 108.801L78.6955 107.815C80.2583 105.19 81.9121 102.566 83.5962 99.9711C85.3562 97.2704 87.3438 94.6304 89.5135 92.1118L127.778 66.349V66.3642Z" fill="#00B1FF"/>
<path d="M82.67 130.711L82.9431 130.164C84.43 127.206 86.2659 123.974 88.5418 120.302C90.9087 116.479 93.3059 112.928 95.6576 109.757L96.2949 108.893L77.39 107.74L77.208 108.043C74.2949 112.959 71.67 117.875 69.379 122.654L69.1362 123.155L82.6549 130.726L82.67 130.711ZM94.0797 109.924C91.91 112.898 89.7252 116.175 87.5556 119.68C85.4011 123.155 83.6411 126.25 82.1845 129.087L70.699 122.654C72.8686 118.163 75.3417 113.551 78.0576 108.938L94.0949 109.924H94.0797Z" fill="#00B1FF"/>
<path d="M99.269 137.265L110.815 109.773L103.684 109.333L103.578 109.818C101.378 119.802 99.9518 128.268 99.5421 133.669L99.269 137.265ZM109.101 110.835L101.12 129.846C101.758 124.778 102.971 118.133 104.61 110.562L109.101 110.835Z" fill="#00B1FF"/>
<path d="M128.021 66.1973L130.115 64.7863L128.415 63.5725L126.549 64.407L128.021 66.1973Z" fill="#00B1FF"/>
<path d="M85.8565 94.5849L128.992 65.5449L127.641 63.9062L127.232 64.0884C110.557 71.5988 97.9489 80.4897 88.6785 91.2773L85.8413 94.5698L85.8565 94.5849ZM126.913 65.5298L92.8661 88.4553C101.499 79.5642 112.681 72.0388 126.913 65.5298Z" fill="#00B1FF"/>
<path d="M129.204 65.5753L131.966 62.0249L129.872 62.9352C129.295 63.178 128.704 63.4511 128.112 63.709L127.171 64.1187L129.204 65.5753Z" fill="#00B1FF"/>
<path d="M77.5574 280.629L96.6747 268.4L96.083 267.884C95.1574 267.08 94.0802 266.352 92.7905 265.669C91.6829 265.077 90.4692 264.607 89.1795 264.122C83.7781 262.058 77.6484 259.722 79.2264 246.142C80.5312 235.006 89.0885 225.508 94.065 220.835L94.414 220.516L78.9533 194.207L61.2471 223.733L72.4291 280.265L72.854 280.311C74.1588 280.447 75.676 280.569 77.3602 280.629H77.5422H77.5574ZM94.7023 268.279L77.2388 279.461C75.8277 279.4 74.5533 279.309 73.4305 279.188L62.4912 223.945L78.9533 196.498L92.9423 220.288C87.7988 225.174 79.3933 234.733 78.0733 245.991C76.374 260.48 83.2471 263.105 88.7698 265.214C90.014 265.684 91.1974 266.14 92.2443 266.701C93.185 267.202 93.9892 267.717 94.7174 268.279H94.7023Z" fill="#00B1FF"/>
<path d="M73.658 280.386L62.1421 222.23L59.0014 227.48V227.602C57.3021 240.604 56.6042 257.051 56.6042 257.218C56.407 276.882 61.0952 277.868 66.0718 278.915C66.8456 279.082 67.6346 279.248 68.4084 279.491C69.4704 279.825 70.9725 280.113 72.8691 280.311L73.658 280.402V280.386ZM61.5808 225.447L72.1863 279.051C70.7449 278.869 69.5918 278.642 68.7573 278.368C67.938 278.111 67.1035 277.928 66.2994 277.762C61.6263 276.775 57.5752 275.941 57.7573 257.248C57.7573 257.097 58.4552 240.802 60.1242 227.859L61.5808 225.432V225.447Z" fill="#00B1FF"/>
<path d="M37.8509 265.032C40.2481 262.256 42.9185 257.795 45.5888 252.151L44.5571 251.604L36.9102 264.364L37.8509 265.047V265.032Z" fill="#00B1FF"/>
<path d="M83.3685 280.751C87.1009 280.751 90.0444 280.629 90.0748 280.629C95.7644 280.387 98.8444 279.643 99.4968 278.353C99.6637 278.035 99.6485 277.731 99.5879 277.504C99.9672 273.225 98.9051 270.342 96.083 267.9L95.7492 267.611L75.5244 280.553L77.3754 280.629C79.181 280.705 81.1989 280.751 83.3685 280.751ZM98.4499 277.838C98.3437 278.035 97.403 279.142 90.0292 279.461C89.9989 279.461 87.0858 279.582 83.3685 279.582C81.9423 279.582 80.5768 279.567 79.2871 279.522L95.6279 269.068C97.9493 271.222 98.7685 273.711 98.4044 277.534V277.747L98.4499 277.838Z" fill="#00B1FF"/>
<path d="M58.6069 210.335L59.2593 207.878C59.6993 206.209 60.0635 204.873 60.3366 203.842L60.6552 202.658L57.3628 204.084L58.5917 210.32L58.6069 210.335ZM58.88 204.722C58.8497 204.858 58.8042 204.995 58.7738 205.131L58.7131 204.798L58.8952 204.722H58.88Z" fill="#00B1FF"/>
<path d="M61.5957 225.447L80.3943 194.086L75.0536 196.407L73.855 197.742C68.4233 203.827 63.295 209.562 61.5653 214.569C61.1557 215.737 60.7612 217.239 60.3819 219.045L60.3516 219.166L61.5957 225.432V225.447ZM77.5116 196.62L62.157 222.246L61.5501 219.196C61.9143 217.482 62.2936 216.071 62.6729 214.978C64.3419 210.199 69.3943 204.54 74.735 198.547L75.7667 197.394L77.5267 196.635L77.5116 196.62Z" fill="#00B1FF"/>
<path d="M29.4758 274.302L29.7034 274.075C32.8744 270.843 35.0896 267.824 35.4841 267.278C36.2124 266.762 37.0165 266.003 37.851 265.032L37.9117 264.956L45.5586 252.196C49.3062 244.246 52.5227 235.066 54.6317 226.312C56.3462 219.196 57.8938 212.991 59.2441 207.877L59.2745 207.741L58.4552 203.614L43.3434 210.184L43.2676 210.457C39.96 222.762 34.4069 239.831 30.0524 248.251C26.3958 255.322 22.0717 264.789 19.0979 271.495L18.7944 272.163L29.4454 274.302H29.4758ZM36.9255 264.304C36.1214 265.229 35.3931 265.912 34.7255 266.367L34.6344 266.428L34.5737 266.519C34.5737 266.519 32.3586 269.644 29.0661 273.028L20.4634 271.298C23.422 264.653 27.5793 255.595 31.0993 248.782C35.4689 240.346 40.9917 223.369 44.3296 211.018L57.5752 205.253L58.0607 207.68C56.7255 212.778 55.1779 218.938 53.4786 226.009C51.3848 234.702 48.1986 243.791 44.5117 251.62L36.9255 264.273V264.304Z" fill="#00B1FF"/>
<path d="M58.6372 230.378L62.491 223.945L60.9737 216.238L60.382 219.06C59.8965 221.381 59.4262 224.249 59.0013 227.587L58.6372 230.363V230.378ZM61.262 223.733L60.5641 224.916C60.7006 223.991 60.8372 223.111 60.9737 222.276L61.262 223.733Z" fill="#00B1FF"/>
<path d="M21.5409 280.675L21.8443 280.493C24.3781 278.976 27.0181 276.806 29.7036 274.075L30.4623 273.301L19.3105 271.071L19.1133 271.496C18.1877 273.589 17.3381 275.486 16.6401 277.094L16.4429 277.565L21.5409 280.675ZM28.0954 274.029C25.8498 276.214 23.6498 277.989 21.5409 279.294L17.9298 277.094C18.5367 275.698 19.2347 274.12 19.9933 272.391L28.0954 274.014V274.029Z" fill="#00B1FF"/>
<path d="M57.6053 205.268L60.2604 204.115L60.3363 203.842C60.7611 202.309 61.0039 201.46 61.0798 201.187C61.7777 200.246 62.4908 198.774 63.2646 196.65L63.5832 195.8L55.8301 196.331L57.6053 205.268ZM59.2742 203.265L58.4701 203.614L57.2411 197.409L61.8536 197.09C61.2163 198.683 60.6398 199.851 60.0936 200.549L60.0329 200.64L60.0025 200.747C60.0025 200.747 59.7749 201.52 59.2894 203.265H59.2742Z" fill="#00B1FF"/>
<path d="M73.2026 198.486L82.3061 194.526L76.3585 194.92L76.2067 195.102C75.7971 195.573 75.3874 196.028 74.9778 196.483L73.2026 198.47V198.486Z" fill="#00B1FF"/>
<path d="M42.979 211.625L58.7128 204.782L57.0287 196.24L46.408 196.953L46.3321 197.409C45.7707 200.671 44.7239 205.177 43.3128 210.442L42.9942 211.61L42.979 211.625ZM57.3777 204.084L44.739 209.577C45.9377 205.01 46.8632 201.065 47.3942 198.076L56.0728 197.484L57.3777 204.084Z" fill="#00B1FF"/>
<path d="M69.6676 173.406L69.8042 172.875C70.2745 171.054 70.7448 169.248 71.2304 167.458L71.2759 167.306L69.1669 160.145L53.2965 167.671L53.2207 167.928C53.069 168.49 52.9173 169.051 52.7655 169.613L52.5986 170.235L69.6979 173.421L69.6676 173.406ZM70.0469 167.306C69.6221 168.869 69.2124 170.462 68.8028 172.055L54.04 169.294C54.1159 169.021 54.1917 168.748 54.2676 168.49L68.4235 161.784L70.0621 167.306H70.0469Z" fill="#00B1FF"/>
<path d="M75.251 196.18L79.7269 195.876L78.6648 192.28L77.9668 193.084C77.3751 193.767 76.7986 194.435 76.2068 195.102L75.2662 196.18H75.251Z" fill="#00B1FF"/>
<path d="M56.0581 197.485L63.1285 196.999L63.265 196.635C64.5698 193.069 65.905 188.169 67.5133 181.887L67.6043 181.523L52.6746 169.825L52.4471 170.675C52.1284 171.843 51.825 173.011 51.5216 174.18L51.4912 174.316L56.0733 197.469L56.0581 197.485ZM62.294 195.891L56.9988 196.256L52.6746 174.377C52.9022 173.542 53.1146 172.708 53.3422 171.858L66.2843 181.993C64.7822 187.85 63.523 192.493 62.294 195.891Z" fill="#00B1FF"/>
<path d="M67.3008 182.782L67.5284 181.917C67.8622 180.628 68.1808 179.323 68.5298 177.988C68.9546 176.304 69.3795 174.589 69.8195 172.875L69.9712 172.268L52.887 169.082L52.3408 171.069L67.2856 182.782H67.3008ZM68.5146 173.193C68.1353 174.711 67.756 176.213 67.3767 177.699C67.1187 178.731 66.8608 179.748 66.6029 180.749L53.676 170.629L53.7367 170.432L68.5146 173.193Z" fill="#00B1FF"/>
<path d="M52.8564 169.142L69.4854 161.253L62.7792 138.585L62.1875 140.33C61.3681 142.727 60.7157 144.851 60.124 146.733C59.2288 149.615 58.5157 151.906 57.7723 153.484C56.7861 155.593 55.2385 160.448 53.1902 167.898L52.8564 169.127V169.142ZM68.0744 160.631L54.6771 166.988C56.5433 160.297 57.9392 155.927 58.8495 153.985C59.6233 152.331 60.3516 150.01 61.2619 147.082C61.7019 145.686 62.1723 144.153 62.7185 142.484L68.0895 160.631H68.0744Z" fill="#00B1FF"/>
<path d="M46.1807 198.152L57.2415 197.393L52.1587 171.722L51.5063 174.18C49.0028 183.678 46.8028 192.842 46.7877 192.933V193.084C46.7877 193.995 46.6511 195.451 46.3173 197.409L46.1959 198.137L46.1807 198.152ZM55.8304 196.316L47.5918 196.878C47.8497 195.269 47.9711 194.01 47.9559 193.145C48.1532 192.326 49.9132 185.058 52.007 176.956L55.8456 196.316H55.8304Z" fill="#00B1FF"/>
<path d="M14 283.209L15.0166 283.072C17.1559 282.784 19.4469 281.919 21.829 280.478L22.6635 279.977L16.9132 276.472L16.64 277.094C15.2593 280.25 14.4097 282.268 14.4097 282.268L14 283.209ZM20.3876 279.962C18.84 280.811 17.338 281.403 15.9118 281.722C16.2456 280.933 16.7766 279.719 17.4442 278.171L20.3876 279.962Z" fill="#00B1FF"/>
<path d="M76.2373 195.664C76.2373 199.002 78.9531 201.717 82.2911 201.717C85.629 201.717 88.3449 199.002 88.3449 195.664C88.3449 192.326 85.629 189.61 82.2911 189.61C78.9531 189.61 76.2373 192.326 76.2373 195.664Z" fill="#00B1FF"/>
<path d="M290.396 193.1C290.396 196.438 293.112 199.154 296.45 199.154C299.788 199.154 302.504 196.438 302.504 193.1C302.504 189.762 299.788 187.046 296.45 187.046C293.112 187.046 290.396 189.762 290.396 193.1Z" fill="#00B1FF"/>
<path d="M228.645 102.05C228.645 105.388 231.36 108.104 234.698 108.104C238.036 108.104 240.752 105.388 240.752 102.05C240.752 98.712 238.036 95.9961 234.698 95.9961C231.36 95.9961 228.645 98.712 228.645 102.05Z" fill="#00B1FF"/>
<path d="M465.031 115.219C465.031 118.557 467.747 121.273 471.085 121.273C474.423 121.273 477.139 118.557 477.139 115.219C477.139 111.881 474.423 109.166 471.085 109.166C467.747 109.166 465.031 111.881 465.031 115.219Z" fill="#00B1FF"/>
<path d="M462.239 68.4581C462.239 71.796 464.955 74.5119 468.293 74.5119C471.631 74.5119 474.347 71.796 474.347 68.4581C474.347 65.1202 471.631 62.4043 468.293 62.4043C464.955 62.4043 462.239 65.1202 462.239 68.4581Z" fill="#00B1FF"/>
<path d="M363.982 117.586C363.982 120.924 366.698 123.64 370.036 123.64C373.374 123.64 376.09 120.924 376.09 117.586C376.09 114.248 373.374 111.532 370.036 111.532C366.698 111.532 363.982 114.248 363.982 117.586Z" fill="#00B1FF"/>
<path d="M365.333 197.53C365.333 200.868 368.049 203.584 371.387 203.584C374.725 203.584 377.441 200.868 377.441 197.53C377.441 194.192 374.725 191.476 371.387 191.476C368.049 191.476 365.333 194.192 365.333 197.53Z" fill="#00B1FF"/>
<path d="M419.681 248.904C419.681 252.242 422.397 254.958 425.735 254.958C429.072 254.958 431.788 252.242 431.788 248.904C431.788 245.566 429.072 242.85 425.735 242.85C422.397 242.85 419.681 245.566 419.681 248.904Z" fill="#00B1FF"/>
<path d="M399.334 241.439C399.334 244.777 402.05 247.493 405.388 247.493C408.726 247.493 411.442 244.777 411.442 241.439C411.442 238.101 408.726 235.385 405.388 235.385C402.05 235.385 399.334 238.101 399.334 241.439Z" fill="#00B1FF"/>
<path d="M257.958 120.378C257.958 123.716 260.673 126.432 264.011 126.432C267.349 126.432 270.065 123.716 270.065 120.378C270.065 117.04 267.349 114.324 264.011 114.324C260.673 114.324 257.958 117.04 257.958 120.378Z" fill="#00B1FF"/>
<path d="M326.294 104.477C322.951 104.477 320.241 101.767 320.241 98.4234C320.241 95.08 322.951 92.3696 326.294 92.3696C329.638 92.3696 332.348 95.08 332.348 98.4234C332.348 101.767 329.638 104.477 326.294 104.477Z" fill="#00B1FF"/>
<path d="M368.049 90.2303C368.049 93.5683 370.765 96.2841 374.102 96.2841C377.44 96.2841 380.156 93.5683 380.156 90.2303C380.156 86.8924 377.44 84.1765 374.102 84.1765C370.765 84.1765 368.049 86.8924 368.049 90.2303Z" fill="#00B1FF"/>
<path d="M409.652 82.0523C409.652 85.3903 412.368 88.1061 415.705 88.1061C419.043 88.1061 421.759 85.3903 421.759 82.0523C421.759 78.7144 419.043 75.9985 415.705 75.9985C412.368 75.9985 409.652 78.7144 409.652 82.0523Z" fill="#00B1FF"/>
<path d="M153.814 147.658C153.814 150.996 156.53 153.712 159.868 153.712C163.206 153.712 165.922 150.996 165.922 147.658C165.922 144.32 163.206 141.604 159.868 141.604C156.53 141.604 153.814 144.32 153.814 147.658Z" fill="#00B1FF"/>
<path d="M48.7446 197.56C48.7446 200.898 51.4605 203.614 54.7985 203.614C58.1364 203.614 60.8522 200.898 60.8522 197.56C60.8522 194.222 58.1364 191.506 54.7985 191.506C51.4605 191.506 48.7446 194.222 48.7446 197.56Z" fill="#00B1FF"/>
<path d="M210.043 149.919C210.043 153.256 212.759 155.972 216.097 155.972C219.435 155.972 222.151 153.256 222.151 149.919C222.151 146.581 219.435 143.865 216.097 143.865C212.759 143.865 210.043 146.581 210.043 149.919Z" fill="#00B1FF"/>
<path d="M239.918 161.935C239.918 165.273 242.633 167.989 245.971 167.989C249.309 167.989 252.025 165.273 252.025 161.935C252.025 158.597 249.309 155.882 245.971 155.882C242.633 155.882 239.918 158.597 239.918 161.935Z" fill="#00B1FF"/>
<path d="M113.486 145.246C110.142 145.246 107.432 142.535 107.432 139.192C107.432 135.849 110.142 133.138 113.486 133.138C116.829 133.138 119.54 135.849 119.54 139.192C119.54 142.535 116.829 145.246 113.486 145.246Z" fill="#00B1FF"/>
<path d="M158.487 112.959C158.487 118.664 163.115 123.276 168.804 123.276C174.494 123.276 179.137 118.649 179.137 112.959C179.137 107.269 174.524 102.642 168.804 102.642C163.084 102.642 158.487 107.269 158.487 112.959Z" fill="#00B1FF"/>
<path d="M243.423 66.4401C243.423 72.1449 248.05 76.7725 253.74 76.7725C259.43 76.7725 264.072 72.1449 264.072 66.4401C264.072 60.7352 259.46 56.1228 253.74 56.1228C248.02 56.1228 243.423 60.7504 243.423 66.4401Z" fill="#00B1FF"/>
<path d="M387.743 72.3724C387.743 78.0773 392.37 82.6897 398.06 82.6897C403.75 82.6897 408.392 78.0773 408.392 72.3724C408.392 66.6676 403.78 62.0552 398.06 62.0552C392.34 62.0552 387.743 66.6828 387.743 72.3724Z" fill="#00B1FF"/>
<path d="M306.616 127.555C306.616 133.259 311.243 137.887 316.933 137.887C322.623 137.887 327.265 133.259 327.265 127.555C327.265 121.85 322.653 117.237 316.933 117.237C311.213 117.237 306.616 121.865 306.616 127.555Z" fill="#00B1FF"/>
</g>
</g>
<defs>
<filter id="filter0_d_55_2076" x="0" y="30" width="516" height="267.209" filterUnits="userSpaceOnUse" color-interpolation-filters="sRGB">
<feFlood flood-opacity="0" result="BackgroundImageFix"/>
<feColorMatrix in="SourceAlpha" type="matrix" values="0 0 0 0 0 0 0 0 0 0 0 0 0 0 0 0 0 0 127 0" result="hardAlpha"/>
<feOffset/>
<feGaussianBlur stdDeviation="7"/>
<feComposite in2="hardAlpha" operator="out"/>
<feColorMatrix type="matrix" values="0 0 0 0 0 0 0 0 0 0.694118 0 0 0 0 1 0 0 0 1 0"/>
<feBlend mode="normal" in2="BackgroundImageFix" result="effect1_dropShadow_55_2076"/>
<feBlend mode="normal" in="SourceGraphic" in2="effect1_dropShadow_55_2076" result="shape"/>
</filter>
<clipPath id="clip0_55_2076">
<rect width="516" height="314" fill="white"/>
</clipPath>
</defs>
</svg>
