<svg width="324" height="327" viewBox="0 0 324 327" fill="none" xmlns="http://www.w3.org/2000/svg">
<g clip-path="url(#clip0_343_13033)">
<path d="M311.74 311.979H14.9258V15.0215H311.74V311.979ZM16.4792 309.867H310.187V17.1342H16.5002V309.867H16.4792Z" fill="#4DFFFF"/>
<g style="mix-blend-mode:screen" opacity="0.1">
<path d="M303.028 22.416H22.1262V304.585H303.028V22.416Z" fill="#0068E8"/>
<path d="M303.406 305.113H21.7484V21.8877H303.406V305.113ZM22.5041 304.057H302.651V22.944H22.5251V304.057H22.5041Z" fill="#4DFFFF"/>
</g>
<g style="mix-blend-mode:screen" opacity="0.2">
<path d="M293.099 60.2325H265.074V32.0283H293.099V60.2325ZM267.173 58.1199H291V34.141H267.173V58.1199Z" fill="#0068E8"/>
<path d="M267.173 60.2325H239.148V32.0283H267.173V60.2325ZM241.247 58.1199H265.074V34.141H241.247V58.1199Z" fill="#0068E8"/>
<path d="M241.268 60.2325H213.243V32.0283H241.268V60.2325ZM215.342 58.1199H239.169V34.141H215.342V58.1199Z" fill="#0068E8"/>
<path d="M215.342 60.2325H187.317V32.0283H215.342V60.2325ZM189.416 58.1199H213.243V34.141H189.416V58.1199Z" fill="#0068E8"/>
<path d="M189.416 60.2325H161.391V32.0283H189.416V60.2325ZM163.49 58.1199H187.317V34.141H163.49V58.1199Z" fill="#0068E8"/>
<path d="M163.511 60.2325H135.507V32.0283H163.511V60.2325ZM137.607 58.1199H161.412V34.141H137.607V58.1199Z" fill="#0068E8"/>
<path d="M137.586 60.2325H109.56V32.0283H137.586V60.2325ZM111.66 58.1199H135.486V34.141H111.66V58.1199Z" fill="#0068E8"/>
<path d="M111.681 60.2325H83.6556V32.0283H111.681V60.2325ZM85.7548 58.1199H109.581V34.141H85.7548V58.1199Z" fill="#0068E8"/>
<path d="M85.7548 60.2325H57.7297V32.0283H85.7548V60.2325ZM59.829 58.1199H83.6556V34.141H59.829V58.1199Z" fill="#0068E8"/>
<path d="M59.8499 60.2325H31.8248V32.0283H59.8499V60.2325ZM33.9241 58.1199H57.7507V34.141H33.9241V58.1199Z" fill="#0068E8"/>
<path d="M293.099 86.3032H265.074V58.1201H293.099V86.3032ZM267.173 84.1905H291V60.2328H267.173V84.1905Z" fill="#0068E8"/>
<path d="M267.173 86.3032H239.148V58.1201H267.173V86.3032ZM241.247 84.1905H265.074V60.2328H241.247V84.1905Z" fill="#0068E8"/>
<path d="M241.268 86.3032H213.243V58.1201H241.268V86.3032ZM215.342 84.1905H239.169V60.2328H215.342V84.1905Z" fill="#0068E8"/>
<path d="M215.342 86.3032H187.317V58.1201H215.342V86.3032ZM189.416 84.1905H213.243V60.2328H189.416V84.1905Z" fill="#0068E8"/>
<path d="M189.416 86.3032H161.391V58.1201H189.416V86.3032ZM163.49 84.1905H187.317V60.2328H163.49V84.1905Z" fill="#0068E8"/>
<path d="M163.511 86.3032H135.507V58.1201H163.511V86.3032ZM137.607 84.1905H161.412V60.2328H137.607V84.1905Z" fill="#0068E8"/>
<path d="M137.586 86.3032H109.56V58.1201H137.586V86.3032ZM111.66 84.1905H135.486V60.2328H111.66V84.1905Z" fill="#0068E8"/>
<path d="M111.681 86.3032H83.6556V58.1201H111.681V86.3032ZM85.7548 84.1905H109.581V60.2328H85.7548V84.1905Z" fill="#0068E8"/>
<path d="M85.7548 86.3032H57.7297V58.1201H85.7548V86.3032ZM59.8289 84.1905H83.6556V60.2328H59.8289V84.1905Z" fill="#0068E8"/>
<path d="M59.8499 86.3032H31.8248V58.1201H59.8499V86.3032ZM33.9241 84.1905H57.7507V60.2328H33.9241V84.1905Z" fill="#0068E8"/>
<path d="M293.099 112.395H265.074V84.1904H293.099V112.395ZM267.173 110.282H291V86.3031H267.173V110.282Z" fill="#0068E8"/>
<path d="M267.173 112.395H239.148V84.1904H267.173V112.395ZM241.247 110.282H265.074V86.3031H241.247V110.282Z" fill="#0068E8"/>
<path d="M241.268 112.395H213.243V84.1904H241.268V112.395ZM215.342 110.282H239.169V86.3031H215.342V110.282Z" fill="#0068E8"/>
<path d="M215.342 112.395H187.317V84.1904H215.342V112.395ZM189.416 110.282H213.243V86.3031H189.416V110.282Z" fill="#0068E8"/>
<path d="M189.416 112.395H161.391V84.1904H189.416V112.395ZM163.49 110.282H187.317V86.3031H163.49V110.282Z" fill="#0068E8"/>
<path d="M163.511 112.395H135.507V84.1904H163.511V112.395ZM137.607 110.282H161.412V86.3031H137.607V110.282Z" fill="#0068E8"/>
<path d="M137.586 112.395H109.56V84.1904H137.586V112.395ZM111.66 110.282H135.486V86.3031H111.66V110.282Z" fill="#0068E8"/>
<path d="M111.681 112.395H83.6556V84.1904H111.681V112.395ZM85.7548 110.282H109.581V86.3031H85.7548V110.282Z" fill="#0068E8"/>
<path d="M85.7548 112.395H57.7297V84.1904H85.7548V112.395ZM59.8289 110.282H83.6556V86.3031H59.8289V110.282Z" fill="#0068E8"/>
<path d="M59.8499 112.395H31.8248V84.1904H59.8499V112.395ZM33.9241 110.282H57.7507V86.3031H33.9241V110.282Z" fill="#0068E8"/>
<path d="M293.099 138.464H265.074V110.26H293.099V138.464ZM267.173 136.351H291V112.372H267.173V136.351Z" fill="#0068E8"/>
<path d="M267.173 138.464H239.148V110.26H267.173V138.464ZM241.247 136.351H265.074V112.372H241.247V136.351Z" fill="#0068E8"/>
<path d="M241.268 138.464H213.243V110.26H241.268V138.464ZM215.342 136.351H239.169V112.372H215.342V136.351Z" fill="#0068E8"/>
<path d="M215.342 138.464H187.317V110.26H215.342V138.464ZM189.416 136.351H213.243V112.372H189.416V136.351Z" fill="#0068E8"/>
<path d="M189.416 138.464H161.391V110.26H189.416V138.464ZM163.49 136.351H187.317V112.372H163.49V136.351Z" fill="#0068E8"/>
<path d="M163.511 138.464H135.507V110.26H163.511V138.464ZM137.607 136.351H161.412V112.372H137.607V136.351Z" fill="#0068E8"/>
<path d="M137.586 138.464H109.56V110.26H137.586V138.464ZM111.66 136.351H135.486V112.372H111.66V136.351Z" fill="#0068E8"/>
<path d="M111.681 138.464H83.6556V110.26H111.681V138.464ZM85.7548 136.351H109.581V112.372H85.7548V136.351Z" fill="#0068E8"/>
<path d="M85.7548 138.464H57.7297V110.26H85.7548V138.464ZM59.8289 136.351H83.6556V112.372H59.8289V136.351Z" fill="#0068E8"/>
<path d="M59.8499 138.464H31.8248V110.26H59.8499V138.464ZM33.9241 136.351H57.7507V112.372H33.9241V136.351Z" fill="#0068E8"/>
<path d="M293.099 164.556H265.074V136.352H293.099V164.556ZM267.173 162.443H291V138.464H267.173V162.443Z" fill="#0068E8"/>
<path d="M267.173 164.556H239.148V136.352H267.173V164.556ZM241.247 162.443H265.074V138.464H241.247V162.443Z" fill="#0068E8"/>
<path d="M241.268 164.556H213.243V136.352H241.268V164.556ZM215.342 162.443H239.169V138.464H215.342V162.443Z" fill="#0068E8"/>
<path d="M215.342 164.556H187.317V136.352H215.342V164.556ZM189.416 162.443H213.243V138.464H189.416V162.443Z" fill="#0068E8"/>
<path d="M189.416 164.556H161.391V136.352H189.416V164.556ZM163.49 162.443H187.317V138.464H163.49V162.443Z" fill="#0068E8"/>
<path d="M163.511 164.556H135.507V136.352H163.511V164.556ZM137.607 162.443H161.412V138.464H137.607V162.443Z" fill="#0068E8"/>
<path d="M137.586 164.556H109.56V136.352H137.586V164.556ZM111.66 162.443H135.486V138.464H111.66V162.443Z" fill="#0068E8"/>
<path d="M111.681 164.556H83.6556V136.352H111.681V164.556ZM85.7548 162.443H109.581V138.464H85.7548V162.443Z" fill="#0068E8"/>
<path d="M85.7548 164.556H57.7297V136.352H85.7548V164.556ZM59.8289 162.443H83.6556V138.464H59.8289V162.443Z" fill="#0068E8"/>
<path d="M59.8499 164.556H31.8248V136.352H59.8499V164.556ZM33.9241 162.443H57.7507V138.464H33.9241V162.443Z" fill="#0068E8"/>
<path d="M293.099 190.648H265.074V162.443H293.099V190.648ZM267.173 188.535H291V164.556H267.173V188.535Z" fill="#0068E8"/>
<path d="M267.173 190.648H239.148V162.443H267.173V190.648ZM241.247 188.535H265.074V164.556H241.247V188.535Z" fill="#0068E8"/>
<path d="M241.268 190.648H213.243V162.443H241.268V190.648ZM215.342 188.535H239.169V164.556H215.342V188.535Z" fill="#0068E8"/>
<path d="M215.342 190.648H187.317V162.443H215.342V190.648ZM189.416 188.535H213.243V164.556H189.416V188.535Z" fill="#0068E8"/>
<path d="M189.416 190.648H161.391V162.443H189.416V190.648ZM163.49 188.535H187.317V164.556H163.49V188.535Z" fill="#0068E8"/>
<path d="M163.511 190.648H135.507V162.443H163.511V190.648ZM137.607 188.535H161.412V164.556H137.607V188.535Z" fill="#0068E8"/>
<path d="M137.586 190.648H109.56V162.443H137.586V190.648ZM111.66 188.535H135.486V164.556H111.66V188.535Z" fill="#0068E8"/>
<path d="M111.681 190.648H83.6556V162.443H111.681V190.648ZM85.7548 188.535H109.581V164.556H85.7548V188.535Z" fill="#0068E8"/>
<path d="M85.7548 190.648H57.7297V162.443H85.7548V190.648ZM59.8289 188.535H83.6556V164.556H59.8289V188.535Z" fill="#0068E8"/>
<path d="M59.8499 190.648H31.8248V162.443H59.8499V190.648ZM33.9241 188.535H57.7507V164.556H33.9241V188.535Z" fill="#0068E8"/>
<path d="M293.099 216.718H265.074V188.514H293.099V216.718ZM267.173 214.605H291V190.626H267.173V214.605Z" fill="#0068E8"/>
<path d="M267.173 216.718H239.148V188.514H267.173V216.718ZM241.247 214.605H265.074V190.626H241.247V214.605Z" fill="#0068E8"/>
<path d="M241.268 216.718H213.243V188.514H241.268V216.718ZM215.342 214.605H239.169V190.626H215.342V214.605Z" fill="#0068E8"/>
<path d="M215.342 216.718H187.317V188.514H215.342V216.718ZM189.416 214.605H213.243V190.626H189.416V214.605Z" fill="#0068E8"/>
<path d="M189.416 216.718H161.391V188.514H189.416V216.718ZM163.49 214.605H187.317V190.626H163.49V214.605Z" fill="#0068E8"/>
<path d="M163.511 216.718H135.507V188.514H163.511V216.718ZM137.607 214.605H161.412V190.626H137.607V214.605Z" fill="#0068E8"/>
<path d="M137.586 216.718H109.56V188.514H137.586V216.718ZM111.66 214.605H135.486V190.626H111.66V214.605Z" fill="#0068E8"/>
<path d="M111.681 216.718H83.6556V188.514H111.681V216.718ZM85.7548 214.605H109.581V190.626H85.7548V214.605Z" fill="#0068E8"/>
<path d="M85.7548 216.718H57.7297V188.514H85.7548V216.718ZM59.8289 214.605H83.6556V190.626H59.8289V214.605Z" fill="#0068E8"/>
<path d="M59.8499 216.718H31.8248V188.514H59.8499V216.718ZM33.9241 214.605H57.7507V190.626H33.9241V214.605Z" fill="#0068E8"/>
<path d="M293.099 242.81H265.074V214.627H293.099V242.81ZM267.173 240.697H291V216.74H267.173V240.697Z" fill="#0068E8"/>
<path d="M267.173 242.81H239.148V214.627H267.173V242.81ZM241.247 240.697H265.074V216.74H241.247V240.697Z" fill="#0068E8"/>
<path d="M241.268 242.81H213.243V214.627H241.268V242.81ZM215.342 240.697H239.169V216.74H215.342V240.697Z" fill="#0068E8"/>
<path d="M215.342 242.81H187.317V214.627H215.342V242.81ZM189.416 240.697H213.243V216.74H189.416V240.697Z" fill="#0068E8"/>
<path d="M189.416 242.81H161.391V214.627H189.416V242.81ZM163.49 240.697H187.317V216.74H163.49V240.697Z" fill="#0068E8"/>
<path d="M163.511 242.81H135.507V214.627H163.511V242.81ZM137.607 240.697H161.412V216.74H137.607V240.697Z" fill="#0068E8"/>
<path d="M137.586 242.81H109.56V214.627H137.586V242.81ZM111.66 240.697H135.486V216.74H111.66V240.697Z" fill="#0068E8"/>
<path d="M111.681 242.81H83.6556V214.627H111.681V242.81ZM85.7548 240.697H109.581V216.74H85.7548V240.697Z" fill="#0068E8"/>
<path d="M85.7548 242.81H57.7297V214.627H85.7548V242.81ZM59.8289 240.697H83.6556V216.74H59.8289V240.697Z" fill="#0068E8"/>
<path d="M59.8499 242.81H31.8248V214.627H59.8499V242.81ZM33.9241 240.697H57.7507V216.74H33.9241V240.697Z" fill="#0068E8"/>
<path d="M293.099 268.88H265.074V240.676H293.099V268.88ZM267.173 266.767H291V242.788H267.173V266.767Z" fill="#0068E8"/>
<path d="M267.173 268.88H239.148V240.676H267.173V268.88ZM241.247 266.767H265.074V242.788H241.247V266.767Z" fill="#0068E8"/>
<path d="M241.268 268.88H213.243V240.676H241.268V268.88ZM215.342 266.767H239.169V242.788H215.342V266.767Z" fill="#0068E8"/>
<path d="M215.342 268.88H187.317V240.676H215.342V268.88ZM189.416 266.767H213.243V242.788H189.416V266.767Z" fill="#0068E8"/>
<path d="M189.416 268.88H161.391V240.676H189.416V268.88ZM163.49 266.767H187.317V242.788H163.49V266.767Z" fill="#0068E8"/>
<path d="M163.511 268.88H135.507V240.676H163.511V268.88ZM137.607 266.767H161.412V242.788H137.607V266.767Z" fill="#0068E8"/>
<path d="M137.586 268.88H109.56V240.676H137.586V268.88ZM111.66 266.767H135.486V242.788H111.66V266.767Z" fill="#0068E8"/>
<path d="M111.681 268.88H83.6556V240.676H111.681V268.88ZM85.7548 266.767H109.581V242.788H85.7548V266.767Z" fill="#0068E8"/>
<path d="M85.7548 268.88H57.7297V240.676H85.7548V268.88ZM59.8289 266.767H83.6556V242.788H59.8289V266.767Z" fill="#0068E8"/>
<path d="M59.8499 268.88H31.8248V240.676H59.8499V268.88ZM33.9241 266.767H57.7507V242.788H33.9241V266.767Z" fill="#0068E8"/>
<path d="M293.099 294.972H265.074V266.768H293.099V294.972ZM267.173 292.859H291V268.88H267.173V292.859Z" fill="#0068E8"/>
<path d="M267.173 294.972H239.148V266.768H267.173V294.972ZM241.247 292.859H265.074V268.88H241.247V292.859Z" fill="#0068E8"/>
<path d="M241.268 294.972H213.243V266.768H241.268V294.972ZM215.342 292.859H239.169V268.88H215.342V292.859Z" fill="#0068E8"/>
<path d="M215.342 294.972H187.317V266.768H215.342V294.972ZM189.416 292.859H213.243V268.88H189.416V292.859Z" fill="#0068E8"/>
<path d="M189.416 294.972H161.391V266.768H189.416V294.972ZM163.49 292.859H187.317V268.88H163.49V292.859Z" fill="#0068E8"/>
<path d="M163.511 294.972H135.507V266.768H163.511V294.972ZM137.607 292.859H161.412V268.88H137.607V292.859Z" fill="#0068E8"/>
<path d="M137.586 294.972H109.56V266.768H137.586V294.972ZM111.66 292.859H135.486V268.88H111.66V292.859Z" fill="#0068E8"/>
<path d="M111.681 294.972H83.6556V266.768H111.681V294.972ZM85.7548 292.859H109.581V268.88H85.7548V292.859Z" fill="#0068E8"/>
<path d="M85.7548 294.972H57.7297V266.768H85.7548V294.972ZM59.8289 292.859H83.6556V268.88H59.8289V292.859Z" fill="#0068E8"/>
<path d="M59.8499 294.972H31.8248V266.768H59.8499V294.972ZM33.9241 292.859H57.7507V268.88H33.9241V292.859Z" fill="#0068E8"/>
</g>
<path d="M12.2387 327H0V314.662H2.09926V324.887H12.2387V327Z" fill="#4DFFFF"/>
<path d="M2.09926 12.3169H0V0H12.2387V2.11268H2.09926V12.3169Z" fill="#4DFFFF"/>
<path d="M324 327H311.74V324.887H321.901V314.662H324V327Z" fill="#4DFFFF"/>
<path d="M324 12.3169H321.901V2.11268H311.74V0H324V12.3169Z" fill="#4DFFFF"/>
<rect x="58.2472" y="58.1338" width="209.933" height="210.733" fill="white"/>
</g>
<defs>
<clipPath id="clip0_343_13033">
<rect width="324" height="327" fill="white"/>
</clipPath>
</defs>
</svg>
