<svg width="358" height="108" viewBox="0 0 358 108" fill="none" xmlns="http://www.w3.org/2000/svg">
<path d="M349.536 96.5292H12.6337L4.18604 88.9156V13.3128L12.6337 5.69922H268.908L285.809 20.9999H336L358 40.7445V88.9156L349.552 96.5292H349.536Z" fill="#F9FAFC"/>
<path d="M291.488 10.6792H208.688V14.9969H291.488V10.6792Z" fill="#00B1FF"/>
<path d="M321.542 99.566H319.914L324.704 88.4839H326.333L321.542 99.566ZM331.89 88.4839H330.262L325.471 99.566H327.1L331.89 88.4839ZM337.448 88.4839H335.819L331.028 99.566H332.657L337.448 88.4839ZM343.005 88.4839H341.376L336.585 99.566H338.214L343.005 88.4839Z" fill="#00B1FF"/>
<path d="M164 0H45V17.1H164V0Z" fill="#00B1FF"/>
<path d="M8 79.2H0V77.6124H8V79.2ZM8 73.0764H0V71.4888H8V73.0764ZM8 66.9528H0V65.3652H8V66.9528ZM8 60.8292H0V59.2416H8V60.8292ZM8 54.7056H0V53.118H8V54.7056ZM8 48.582H0V46.9944H8V48.582ZM8 42.4584H0V40.8708H8V42.4584ZM8 36.3348H0V34.7472H8V36.3348ZM8 30.2112H0V28.6236H8V30.2112ZM8 24.0876H0V22.5H8V24.0876Z" fill="#00EBC7"/>
<path d="M23.7806 108H21.8164V99.6235H23.7806V108ZM27.6132 99.6235H25.649V108H27.6132V99.6235ZM31.4458 99.6235H29.4816V108H31.4458V99.6235ZM35.2785 99.6235H33.3142V108H35.2785V99.6235ZM39.1111 99.6235H37.1468V108H39.1111V99.6235ZM42.9437 99.6235H40.9795V108H42.9437V99.6235ZM46.7763 99.6235H44.8121V108H46.7763V99.6235ZM50.6089 99.6235H48.6447V108H50.6089V99.6235ZM54.4415 99.6235H52.4773V108H54.4415V99.6235ZM58.2741 99.6235H56.3099V108H58.2741V99.6235ZM62.1067 99.6235H60.1425V108H62.1067V99.6235ZM65.9393 99.6235H63.9751V108H65.9393V99.6235ZM69.7719 99.6235H67.8077V108H69.7719V99.6235ZM73.6046 99.6235H71.6403V108H73.6046V99.6235ZM77.4372 99.6235H75.473V108H77.4372V99.6235ZM81.2698 99.6235H79.3056V108H81.2698V99.6235ZM85.1024 99.6235H83.1382V108H85.1024V99.6235ZM88.935 99.6235H86.9708V108H88.935V99.6235ZM92.7676 99.6235H90.8034V108H92.7676V99.6235ZM96.6002 99.6235H94.636V108H96.6002V99.6235ZM100.433 99.6235H98.4686V108H100.433V99.6235ZM104.265 99.6235H102.301V108H104.265V99.6235ZM108.098 99.6235H106.134V108H108.098V99.6235ZM111.931 99.6235H109.966V108H111.931V99.6235ZM115.763 99.6235H113.799V108H115.763V99.6235ZM119.596 99.6235H117.632V108H119.596V99.6235ZM123.428 99.6235H121.464V108H123.428V99.6235ZM127.261 99.6235H125.297V108H127.261V99.6235ZM131.094 99.6235H129.13V108H131.094V99.6235ZM134.926 99.6235H132.962V108H134.926V99.6235ZM138.759 99.6235H136.795V108H138.759V99.6235ZM142.592 99.6235H140.627V108H142.592V99.6235ZM146.424 99.6235H144.46V108H146.424V99.6235ZM150.257 99.6235H148.293V108H150.257V99.6235ZM154.089 99.6235H152.125V108H154.089V99.6235ZM157.922 99.6235H155.958V108H157.922V99.6235ZM161.755 99.6235H159.79V108H161.755V99.6235ZM165.587 99.6235H163.623V108H165.587V99.6235ZM169.42 99.6235H167.456V108H169.42V99.6235ZM173.252 99.6235H171.288V108H173.252V99.6235ZM177.085 99.6235H175.121V108H177.085V99.6235Z" fill="#00B1FF"/>
<path d="M280.821 99.6235H181.093V101.063H280.821V99.6235Z" fill="#00B1FF"/>
</svg>
