<svg width="358" height="108" viewBox="0 0 358 108" fill="none" xmlns="http://www.w3.org/2000/svg">
<path d="M349.536 96.5293H12.6339L4.18616 88.9158V13.3129L12.6339 5.69934H268.908L285.809 21H336L358 40.7446V88.9158L349.552 96.5293H349.536Z" fill="#F9FAFC"/>
<path d="M291.488 10.6791H208.688V14.9968H291.488V10.6791Z" fill="#00B1FF"/>
<path d="M321.542 99.5661H319.914L324.704 88.484H326.333L321.542 99.5661ZM331.89 88.484H330.262L325.471 99.5661H327.1L331.89 88.484ZM337.448 88.484H335.819L331.028 99.5661H332.657L337.448 88.484ZM343.005 88.484H341.376L336.585 99.5661H338.214L343.005 88.484Z" fill="#00B1FF"/>
<path d="M164 0H45V17.1H164V0Z" fill="#00B1FF"/>
<path d="M8 79.2H0V77.6124H8V79.2ZM8 73.0764H0V71.4888H8V73.0764ZM8 66.9528H0V65.3652H8V66.9528ZM8 60.8292H0V59.2416H8V60.8292ZM8 54.7056H0V53.118H8V54.7056ZM8 48.582H0V46.9944H8V48.582ZM8 42.4584H0V40.8708H8V42.4584ZM8 36.3348H0V34.7472H8V36.3348ZM8 30.2112H0V28.6236H8V30.2112ZM8 24.0876H0V22.5H8V24.0876Z" fill="#00EBC7"/>
<path d="M23.7804 108H21.8162V99.6237H23.7804V108ZM27.613 99.6237H25.6488V108H27.613V99.6237ZM31.4456 99.6237H29.4814V108H31.4456V99.6237ZM35.2782 99.6237H33.314V108H35.2782V99.6237ZM39.1108 99.6237H37.1466V108H39.1108V99.6237ZM42.9434 99.6237H40.9792V108H42.9434V99.6237ZM46.776 99.6237H44.8118V108H46.776V99.6237ZM50.6087 99.6237H48.6444V108H50.6087V99.6237ZM54.4413 99.6237H52.4771V108H54.4413V99.6237ZM58.2739 99.6237H56.3097V108H58.2739V99.6237ZM62.1065 99.6237H60.1423V108H62.1065V99.6237ZM65.9391 99.6237H63.9749V108H65.9391V99.6237ZM69.7717 99.6237H67.8075V108H69.7717V99.6237ZM73.6043 99.6237H71.6401V108H73.6043V99.6237ZM77.4369 99.6237H75.4727V108H77.4369V99.6237ZM81.2695 99.6237H79.3053V108H81.2695V99.6237ZM85.1021 99.6237H83.1379V108H85.1021V99.6237ZM88.9348 99.6237H86.9705V108H88.9348V99.6237ZM92.7674 99.6237H90.8032V108H92.7674V99.6237ZM96.6 99.6237H94.6358V108H96.6V99.6237ZM100.433 99.6237H98.4684V108H100.433V99.6237ZM104.265 99.6237H102.301V108H104.265V99.6237ZM108.098 99.6237H106.134V108H108.098V99.6237ZM111.93 99.6237H109.966V108H111.93V99.6237ZM115.763 99.6237H113.799V108H115.763V99.6237ZM119.596 99.6237H117.631V108H119.596V99.6237ZM123.428 99.6237H121.464V108H123.428V99.6237ZM127.261 99.6237H125.297V108H127.261V99.6237ZM131.093 99.6237H129.129V108H131.093V99.6237ZM134.926 99.6237H132.962V108H134.926V99.6237ZM138.759 99.6237H136.794V108H138.759V99.6237ZM142.591 99.6237H140.627V108H142.591V99.6237ZM146.424 99.6237H144.46V108H146.424V99.6237ZM150.257 99.6237H148.292V108H150.257V99.6237ZM154.089 99.6237H152.125V108H154.089V99.6237ZM157.922 99.6237H155.958V108H157.922V99.6237ZM161.754 99.6237H159.79V108H161.754V99.6237ZM165.587 99.6237H163.623V108H165.587V99.6237ZM169.42 99.6237H167.455V108H169.42V99.6237ZM173.252 99.6237H171.288V108H173.252V99.6237ZM177.085 99.6237H175.121V108H177.085V99.6237Z" fill="#00B1FF"/>
<path d="M280.821 99.6237H181.093V101.063H280.821V99.6237Z" fill="#00B1FF"/>
<path d="M57.24 70V58.6H43.72V70H37.32V42H43.72V52.6H57.24V42H63.64V70H57.24ZM85.6488 42L96.9688 70H90.2088L88.0088 64.28H76.0088L73.7688 70H67.3688L78.5688 42H85.6488ZM78.3688 58.28H85.6888L82.0488 48.88L78.3688 58.28ZM103.813 42V50.68C103.813 53.48 105.013 54.8 109.373 54.8C111.013 54.8 112.573 54.52 113.893 54.04V42H120.293V70H113.893V59.84C112.333 60.32 110.333 60.64 108.333 60.64C100.333 60.64 97.4128 57.48 97.4128 51.64V42H103.813ZM142.25 42L153.57 70H146.81L144.61 64.28H132.61L130.37 70H123.97L135.17 42H142.25ZM134.97 58.28H142.29L138.65 48.88L134.97 58.28ZM175.55 42V48H166.71V70H160.31V48H151.83V42H175.55ZM185.986 42V49.84H188.386C198.266 49.84 201.746 53.4 201.746 59.68C201.746 66.6 197.146 70 188.426 70H179.586V42H185.986ZM189.506 55.84H185.986V64H189.226C193.266 64 195.146 62.68 195.146 59.72C195.146 57.08 193.546 55.84 189.506 55.84ZM223.134 42V60.84L236.014 42H243.094V70H236.694V50.72L223.694 70H216.734V42H223.134ZM269.062 42V48H256.142V70H249.742V42H269.062ZM282.699 62.16H279.579V70H273.179V42H282.699C292.539 42 296.019 45.52 296.019 51.84C296.019 58.76 291.459 62.16 282.699 62.16ZM283.819 48H279.579V56.16H283.499C287.539 56.16 289.419 54.8 289.419 51.88C289.419 49.24 287.819 48 283.819 48ZM307.649 64.28C308.609 64.28 309.129 64.04 309.489 63.48L297.569 42H304.969L312.689 56.2L318.889 42H325.609L315.849 63.52C313.409 68.92 310.969 70.32 307.809 70.32C306.249 70.32 304.689 69.92 303.969 69.6V63.16C304.889 63.84 306.329 64.28 307.649 64.28Z" fill="#495DB1"/>
</svg>
