<svg width="358" height="108" viewBox="0 0 358 108" fill="none" xmlns="http://www.w3.org/2000/svg">
<path d="M349.536 96.5292H12.6337L4.18604 88.9156V13.3128L12.6337 5.69922H268.908L285.809 20.9999H336L358 40.7445V88.9156L349.552 96.5292H349.536Z" fill="url(#paint0_linear_46_11)"/>
<path d="M291.488 10.6792H208.688V14.9969H291.488V10.6792Z" fill="#4DFFFF"/>
<path d="M321.542 99.566H319.914L324.704 88.4839H326.333L321.542 99.566ZM331.89 88.4839H330.262L325.471 99.566H327.1L331.89 88.4839ZM337.448 88.4839H335.819L331.028 99.566H332.657L337.448 88.4839ZM343.005 88.4839H341.376L336.585 99.566H338.214L343.005 88.4839Z" fill="#00EBC7"/>
<path d="M164 0H45V17.1H164V0Z" fill="#9152AE"/>
<path d="M8 79.2H0V77.6124H8V79.2ZM8 73.0764H0V71.4888H8V73.0764ZM8 66.9528H0V65.3652H8V66.9528ZM8 60.8292H0V59.2416H8V60.8292ZM8 54.7056H0V53.118H8V54.7056ZM8 48.582H0V46.9944H8V48.582ZM8 42.4584H0V40.8708H8V42.4584ZM8 36.3348H0V34.7472H8V36.3348ZM8 30.2112H0V28.6236H8V30.2112ZM8 24.0876H0V22.5H8V24.0876Z" fill="#00EBC7"/>
<path d="M23.7804 108H21.8162V99.6235H23.7804V108ZM27.613 99.6235H25.6488V108H27.613V99.6235ZM31.4456 99.6235H29.4814V108H31.4456V99.6235ZM35.2782 99.6235H33.314V108H35.2782V99.6235ZM39.1108 99.6235H37.1466V108H39.1108V99.6235ZM42.9434 99.6235H40.9792V108H42.9434V99.6235ZM46.776 99.6235H44.8118V108H46.776V99.6235ZM50.6086 99.6235H48.6444V108H50.6086V99.6235ZM54.4413 99.6235H52.4771V108H54.4413V99.6235ZM58.2739 99.6235H56.3097V108H58.2739V99.6235ZM62.1065 99.6235H60.1423V108H62.1065V99.6235ZM65.9391 99.6235H63.9749V108H65.9391V99.6235ZM69.7717 99.6235H67.8075V108H69.7717V99.6235ZM73.6043 99.6235H71.6401V108H73.6043V99.6235ZM77.4369 99.6235H75.4727V108H77.4369V99.6235ZM81.2695 99.6235H79.3053V108H81.2695V99.6235ZM85.1021 99.6235H83.1379V108H85.1021V99.6235ZM88.9348 99.6235H86.9705V108H88.9348V99.6235ZM92.7674 99.6235H90.8032V108H92.7674V99.6235ZM96.6 99.6235H94.6358V108H96.6V99.6235ZM100.433 99.6235H98.4684V108H100.433V99.6235ZM104.265 99.6235H102.301V108H104.265V99.6235ZM108.098 99.6235H106.134V108H108.098V99.6235ZM111.93 99.6235H109.966V108H111.93V99.6235ZM115.763 99.6235H113.799V108H115.763V99.6235ZM119.596 99.6235H117.631V108H119.596V99.6235ZM123.428 99.6235H121.464V108H123.428V99.6235ZM127.261 99.6235H125.297V108H127.261V99.6235ZM131.093 99.6235H129.129V108H131.093V99.6235ZM134.926 99.6235H132.962V108H134.926V99.6235ZM138.759 99.6235H136.794V108H138.759V99.6235ZM142.591 99.6235H140.627V108H142.591V99.6235ZM146.424 99.6235H144.46V108H146.424V99.6235ZM150.257 99.6235H148.292V108H150.257V99.6235ZM154.089 99.6235H152.125V108H154.089V99.6235ZM157.922 99.6235H155.958V108H157.922V99.6235ZM161.754 99.6235H159.79V108H161.754V99.6235ZM165.587 99.6235H163.623V108H165.587V99.6235ZM169.42 99.6235H167.455V108H169.42V99.6235ZM173.252 99.6235H171.288V108H173.252V99.6235ZM177.085 99.6235H175.121V108H177.085V99.6235Z" fill="#9152AE"/>
<path d="M280.821 99.6235H181.093V101.063H280.821V99.6235Z" fill="#9152AE"/>
<defs>
<linearGradient id="paint0_linear_46_11" x1="-0.973751" y1="111.289" x2="374.841" y2="34.9042" gradientUnits="userSpaceOnUse">
<stop stop-color="#00B1FF"/>
<stop offset="1" stop-color="#00EBC7"/>
</linearGradient>
</defs>
</svg>
