<svg width="888" height="115" viewBox="0 0 888 115" fill="none" xmlns="http://www.w3.org/2000/svg">
<g clip-path="url(#clip0_14_57)">
<path d="M864.947 99.2988H191.01L179.489 87.7782H9.09009V9.58398H806.011L822.234 25.8077H864.947V99.2988ZM191.82 97.3227H862.971V27.8036H821.424L805.2 11.5798H11.0662V85.8021H180.299L191.82 97.3227Z" fill="#00B1FF"/>
<g style="mix-blend-mode:screen" opacity="0.3">
<path d="M193.855 92.3825L182.334 80.8619H16.0061V16.5004H803.145L819.369 32.7439H857.606V92.3825H193.855Z" fill="#00B1FF"/>
<path d="M857.371 92.8765L193.658 92.8766L182.137 81.3559H15.5122V16.0063H803.343L819.567 32.2301H857.371V62.5434V92.8568V92.8765ZM194.072 91.8885H856.383V33.2379H819.171L802.948 17.0142H16.5002V80.3679H182.552L194.072 91.8885Z" fill="#00EBC7"/>
</g>
<path d="M886.591 25.6101H874.734V35.0361H886.591V25.6101Z" fill="#00EBC7"/>
<path d="M886.591 39.6998H874.734V49.1258H886.591V39.6998Z" fill="#00EBC7"/>
<path d="M886.591 53.7697H874.734V63.1759H886.591V53.7697Z" fill="#00EBC7"/>
<path d="M886.591 67.8591H874.734V77.2851H886.591V67.8591Z" fill="#00EBC7"/>
<path d="M184.785 108.883L173.541 97.6588H4.14966V95.6827H174.371L186.188 107.5L184.785 108.883Z" fill="#00B1FF"/>
<path d="M887.58 17.9232H827.353L810.833 1.40303L812.236 0L828.163 15.9471H887.58V17.9232Z" fill="#00B1FF"/>
<path d="M19.8598 69.9935H0V61.3185H19.8598V69.9935ZM19.8598 50.4895H0V41.8144H19.8598V50.4895ZM19.8598 30.9854H0V22.3103H19.8598V30.9854Z" fill="#00EBC7"/>
<path d="M199.397 115H192.074V102.766H199.397V115ZM213.65 102.766H206.328V115H213.65V102.766ZM227.904 102.766H220.582V115H227.904V102.766ZM242.158 102.766H234.835V115H242.158V102.766ZM256.411 102.766H249.089V115H256.411V102.766ZM270.665 102.766H263.342V115H270.665V102.766ZM284.918 102.766H277.596V115H284.918V102.766ZM299.172 102.766H291.849V115H299.172V102.766ZM313.425 102.766H306.103V115H313.425V102.766ZM327.679 102.766H320.356V115H327.679V102.766ZM341.932 102.766H334.61V115H341.932V102.766ZM356.186 102.766H348.864V115H356.186V102.766ZM370.44 102.766H363.117V115H370.44V102.766ZM384.693 102.766H377.371V115H384.693V102.766ZM398.947 102.766H391.624V115H398.947V102.766ZM413.2 102.766H405.878V115H413.2V102.766ZM427.454 102.766H420.131V115H427.454V102.766ZM441.707 102.766H434.385V115H441.707V102.766ZM455.961 102.766H448.639V115H455.961V102.766ZM470.215 102.766H462.892V115H470.215V102.766ZM484.468 102.766H477.146V115H484.468V102.766Z" fill="#00B1FF"/>
</g>
<defs>
<clipPath id="clip0_14_57">
<rect width="888" height="115" fill="white"/>
</clipPath>
</defs>
</svg>
