<svg width="368" height="367" viewBox="0 0 368 367" fill="none" xmlns="http://www.w3.org/2000/svg">
<circle cx="177.47" cy="182.492" r="137.492" fill="#00EBC7"/>
<path d="M345.635 184.049C345.635 214.653 337.431 243.358 323.066 268.069L176.978 183.852V16C207.702 16 236.501 24.1747 261.302 38.478C286.912 53.2338 308.257 74.5019 323.066 100.029C337.431 124.741 345.635 153.446 345.635 184.049Z" fill="#00B1FF" fill-opacity="0.5"/>
<g filter="url(#filter0_f_2_41)">
<circle cx="177.804" cy="182.826" r="122.826" fill="white"/>
</g>
<path d="M332.354 289.489L323.36 283.018C344.806 253.202 356.146 218.029 356.146 181.268H367.215C367.215 220.362 355.156 257.774 332.354 289.489Z" fill="#00B1FF"/>
<path d="M181.281 362.549C81.3216 362.549 0 281.228 0 181.268C0 81.308 81.3216 0 181.281 0C281.241 0 362.563 81.3216 362.563 181.281C362.563 281.241 281.241 362.563 181.281 362.563V362.549ZM181.281 2.21108C82.5424 2.21108 2.21108 82.5424 2.21108 181.268C2.21108 279.993 82.5424 360.325 181.268 360.325C279.993 360.325 360.325 279.993 360.325 181.268C360.325 82.5424 280.007 2.21108 181.281 2.21108ZM181.281 346.787C90.0167 346.787 15.7624 272.532 15.7624 181.268C15.7624 90.0031 90.0031 15.7489 181.281 15.7489C272.56 15.7489 346.8 90.0031 346.8 181.268C346.8 272.532 272.546 346.787 181.281 346.787ZM181.281 17.9735C91.2375 17.9735 17.9735 91.2376 17.9735 181.281C17.9735 271.325 91.2375 344.576 181.281 344.576C271.325 344.576 344.576 271.325 344.576 181.281C344.576 91.2376 271.325 17.9735 181.281 17.9735Z" fill="#00B1FF"/>
<path d="M181.281 344.521C180.522 344.521 179.776 344.521 179.016 344.508L179.111 337.861C179.83 337.861 180.562 337.875 181.281 337.875V344.521ZM187.399 344.413L187.155 337.766C187.874 337.739 188.593 337.712 189.312 337.671L189.651 344.304C188.891 344.345 188.145 344.372 187.386 344.399L187.399 344.413ZM169.995 344.142C169.236 344.087 168.49 344.033 167.744 343.965L168.286 337.346C169.005 337.4 169.724 337.454 170.457 337.508L169.995 344.142ZM198.672 343.613L197.966 337.006C198.685 336.925 199.404 336.844 200.123 336.762L200.91 343.355C200.164 343.45 199.418 343.531 198.672 343.613ZM158.75 342.989C158.004 342.88 157.258 342.772 156.512 342.663L157.529 336.098C158.248 336.206 158.954 336.315 159.673 336.41L158.764 342.989H158.75ZM209.849 342.039L208.696 335.501C209.415 335.379 210.12 335.243 210.826 335.107L212.074 341.632C211.341 341.768 210.595 341.917 209.849 342.039ZM147.613 341.049C146.881 340.9 146.135 340.737 145.402 340.574L146.867 334.09C147.573 334.253 148.278 334.402 148.983 334.551L147.613 341.049ZM220.904 339.679L219.29 333.235C219.996 333.059 220.687 332.883 221.393 332.693L223.102 339.109C222.37 339.299 221.651 339.489 220.918 339.679H220.904ZM136.639 338.336C135.92 338.132 135.188 337.915 134.469 337.698L136.382 331.336C137.073 331.54 137.765 331.743 138.457 331.947L136.639 338.336ZM231.77 336.545L229.708 330.224C230.4 329.993 231.078 329.776 231.77 329.532L233.913 335.826C233.208 336.071 232.489 336.301 231.77 336.545ZM125.869 334.85C125.15 334.592 124.444 334.334 123.739 334.063L126.086 327.85C126.764 328.108 127.442 328.352 128.121 328.61L125.869 334.863V334.85ZM242.351 332.679L239.868 326.521C240.533 326.25 241.198 325.978 241.862 325.693L244.44 331.811C243.748 332.11 243.042 332.394 242.351 332.679ZM115.356 330.631C114.664 330.319 113.972 330.007 113.281 329.695L116.061 323.659C116.712 323.957 117.377 324.256 118.042 324.554L115.356 330.631ZM252.66 328.081L249.757 322.112C250.408 321.8 251.046 321.475 251.683 321.149L254.681 327.077C254.016 327.416 253.338 327.755 252.66 328.081ZM105.182 325.68C104.518 325.327 103.853 324.974 103.188 324.608L106.376 318.775C107.014 319.128 107.651 319.467 108.289 319.806L105.182 325.68ZM262.63 322.777L259.307 317.025C259.931 316.659 260.555 316.293 261.179 315.927L264.583 321.637C263.932 322.017 263.295 322.397 262.644 322.777H262.63ZM95.3749 320.05C94.7374 319.657 94.0998 319.25 93.4622 318.843L97.0569 313.254C97.6674 313.648 98.2778 314.028 98.8882 314.407L95.3885 320.05H95.3749ZM272.207 316.808L268.49 311.301C269.087 310.894 269.684 310.487 270.281 310.08L274.065 315.547C273.441 315.967 272.831 316.401 272.207 316.822V316.808ZM85.9744 313.756C85.364 313.322 84.7536 312.875 84.1567 312.427L88.1041 307.082C88.6874 307.516 89.2707 307.937 89.8675 308.371L85.9744 313.756ZM281.35 310.189L277.267 304.939C277.836 304.491 278.406 304.044 278.962 303.596L283.113 308.778C282.53 309.253 281.933 309.714 281.336 310.175L281.35 310.189ZM77.0487 306.825C76.4654 306.336 75.8957 305.861 75.326 305.373L79.6396 300.327C80.1958 300.802 80.7384 301.263 81.2945 301.724L77.0487 306.838V306.825ZM290.031 302.945L285.609 297.994C286.152 297.519 286.681 297.031 287.21 296.542L291.713 301.426C291.157 301.941 290.601 302.443 290.045 302.945H290.031ZM68.6249 299.31C68.0823 298.794 67.5397 298.265 66.9971 297.736L71.6499 292.988C72.1654 293.49 72.6808 293.992 73.2099 294.494L68.6249 299.296V299.31ZM298.197 295.132L293.436 290.492C293.938 289.977 294.44 289.448 294.942 288.932L299.757 293.504C299.242 294.046 298.713 294.589 298.197 295.132ZM60.7301 291.225C60.2282 290.669 59.7263 290.113 59.2244 289.543L64.1892 285.134C64.664 285.677 65.1523 286.206 65.6406 286.749L60.7301 291.225ZM305.807 286.776L300.748 282.476C301.222 281.933 301.683 281.377 302.145 280.807L307.272 285.039C306.797 285.623 306.309 286.206 305.821 286.776H305.807ZM53.4051 282.625C52.9439 282.042 52.4691 281.445 52.0079 280.848L57.2711 276.792C57.7187 277.362 58.1528 277.931 58.614 278.501L53.4051 282.638V282.625ZM312.82 277.904L307.476 273.957C307.91 273.374 308.33 272.79 308.751 272.207L314.15 276.073C313.716 276.683 313.268 277.294 312.82 277.904ZM46.6905 273.55C46.27 272.926 45.8494 272.315 45.4289 271.678L50.9498 267.988C51.3568 268.585 51.7502 269.182 52.1707 269.779L46.6905 273.55ZM319.209 268.572L313.593 265.018C313.987 264.407 314.367 263.797 314.747 263.173L320.403 266.659C320.01 267.296 319.603 267.934 319.209 268.572ZM40.627 264.027C40.2471 263.376 39.8673 262.725 39.4875 262.074L45.2526 258.778C45.6053 259.402 45.9715 260.026 46.3378 260.65L40.6134 264.027H40.627ZM324.947 258.818L319.101 255.658C319.44 255.02 319.793 254.383 320.132 253.732L326.019 256.824C325.666 257.489 325.314 258.154 324.961 258.818H324.947ZM35.2281 254.125C34.889 253.46 34.5634 252.782 34.2379 252.104L40.22 249.201C40.532 249.852 40.8576 250.503 41.1831 251.141L35.2417 254.111L35.2281 254.125ZM329.993 248.699L323.944 245.945C324.242 245.281 324.54 244.63 324.825 243.965L330.916 246.637C330.617 247.329 330.305 248.021 329.993 248.713V248.699ZM30.5347 243.87C30.2498 243.178 29.9649 242.486 29.6801 241.781L35.8521 239.312C36.1234 239.977 36.3947 240.641 36.666 241.306L30.5347 243.856V243.87ZM334.321 238.227L328.094 235.907C328.352 235.229 328.596 234.537 328.84 233.859L335.094 236.097C334.836 236.803 334.578 237.522 334.321 238.227ZM26.5602 233.303C26.316 232.584 26.0854 231.879 25.8548 231.146L32.176 229.111C32.3931 229.803 32.6237 230.481 32.8543 231.173L26.5602 233.303ZM337.915 227.483L331.54 225.598C331.743 224.906 331.947 224.214 332.137 223.523L338.539 225.313C338.336 226.046 338.132 226.765 337.915 227.483ZM23.3317 222.478C23.1418 221.746 22.9519 221.027 22.7755 220.294L29.2324 218.693C29.4088 219.399 29.5851 220.104 29.7615 220.796L23.3317 222.478ZM340.737 216.55L334.253 215.112C334.402 214.407 334.565 213.702 334.7 212.996L341.212 214.339C341.062 215.072 340.9 215.818 340.737 216.55ZM20.8493 211.463C20.7137 210.717 20.578 209.985 20.4424 209.225L26.9942 208.099C27.1163 208.805 27.252 209.524 27.3741 210.229L20.8493 211.463ZM342.785 205.441L336.22 204.45C336.328 203.731 336.423 203.026 336.518 202.307L343.111 203.189C343.016 203.935 342.907 204.681 342.785 205.427V205.441ZM19.1537 200.286C19.0723 199.54 18.9774 198.78 18.9096 198.034L25.5157 197.356C25.5835 198.075 25.6649 198.794 25.7463 199.513L19.1402 200.286H19.1537ZM344.06 194.222L337.441 193.693C337.495 192.974 337.549 192.255 337.59 191.536L344.223 191.971C344.169 192.73 344.114 193.476 344.06 194.222ZM18.2449 189.027C18.2042 188.281 18.177 187.521 18.1499 186.775L24.7967 186.558C24.8238 187.277 24.851 188.01 24.8781 188.729L18.2449 189.041V189.027ZM344.562 182.936L337.915 182.869V180.698L344.562 180.657V182.923V182.936ZM24.7289 177.877L18.0821 177.727C18.0957 176.968 18.1228 176.222 18.1499 175.476L24.7967 175.706C24.7696 176.425 24.756 177.158 24.7289 177.877ZM337.644 172.03C337.603 171.311 337.549 170.579 337.508 169.86L344.142 169.385C344.196 170.131 344.25 170.891 344.291 171.637L337.658 172.03H337.644ZM25.3393 167.052L18.7196 166.455C18.7875 165.709 18.8553 164.949 18.9367 164.203L25.5428 164.895C25.4614 165.614 25.3936 166.333 25.3257 167.052H25.3393ZM336.64 161.232C336.545 160.514 336.45 159.795 336.355 159.089L342.934 158.153C343.043 158.899 343.138 159.645 343.233 160.391L336.64 161.232ZM26.6958 156.295L20.1304 155.237C20.2525 154.491 20.3746 153.745 20.5102 153.012L27.0621 154.165C26.94 154.871 26.8179 155.59 26.6958 156.308V156.295ZM334.89 150.53C334.755 149.824 334.606 149.119 334.456 148.414L340.954 147.016C341.117 147.749 341.266 148.495 341.415 149.241L334.904 150.53H334.89ZM28.7984 145.66L22.3279 144.154C22.5043 143.422 22.6806 142.689 22.8569 141.957L29.3003 143.557C29.1239 144.263 28.9611 144.955 28.7984 145.66ZM332.408 139.99C332.218 139.284 332.015 138.593 331.825 137.901L338.214 136.056C338.417 136.775 338.621 137.507 338.824 138.226L332.422 139.976L332.408 139.99ZM31.6334 135.201L25.2851 133.248C25.5157 132.529 25.7327 131.81 25.9633 131.078L32.2845 133.126C32.0539 133.818 31.8369 134.51 31.6334 135.201ZM329.18 129.64C328.935 128.962 328.691 128.283 328.447 127.592L334.687 125.299C334.945 126.004 335.202 126.71 335.447 127.429L329.18 129.626V129.64ZM35.201 124.933L29.0018 122.532C29.2731 121.826 29.558 121.121 29.8293 120.416L35.9878 122.898C35.7165 123.576 35.4452 124.241 35.1874 124.919L35.201 124.933ZM325.259 119.561C324.974 118.896 324.676 118.232 324.391 117.581L330.455 114.868C330.753 115.546 331.065 116.238 331.364 116.93L325.259 119.561ZM39.4739 114.949L33.4647 112.128C33.7902 111.436 34.1158 110.757 34.4414 110.079L40.4099 112.996C40.0979 113.647 39.7859 114.298 39.4739 114.949ZM320.634 109.781C320.308 109.143 319.969 108.506 319.63 107.868L325.49 104.735C325.843 105.399 326.195 106.064 326.534 106.729L320.634 109.781ZM44.4251 105.291L38.6194 102.062C38.9856 101.398 39.3654 100.747 39.7317 100.095L45.4968 103.405C45.1305 104.029 44.7778 104.667 44.4251 105.291ZM315.343 100.326C314.977 99.7157 314.597 99.0917 314.217 98.4813L319.847 94.9544C320.24 95.5919 320.647 96.2295 321.027 96.8806L315.343 100.326ZM50.041 95.9989L44.4658 92.377C44.8728 91.7395 45.2933 91.1155 45.7138 90.478L51.2211 94.1947C50.8142 94.7916 50.4208 95.402 50.0274 95.9989H50.041ZM309.415 91.2783C308.995 90.6814 308.574 90.0981 308.154 89.5149L313.526 85.6082C313.973 86.2186 314.407 86.829 314.841 87.4394L309.402 91.2647L309.415 91.2783ZM56.2809 87.1274L50.977 83.1258C51.4246 82.5289 51.8858 81.9321 52.347 81.3352L57.5967 85.4047C57.149 85.9744 56.7149 86.5577 56.2809 87.1274ZM302.877 82.6374C302.416 82.0813 301.968 81.5251 301.494 80.969L306.594 76.7096C307.082 77.2929 307.557 77.8626 308.032 78.4459L302.877 82.6374ZM63.1176 78.7036L58.0986 74.3493C58.5869 73.7796 59.0888 73.2098 59.5907 72.6537L64.5419 77.0894C64.0535 77.632 63.5788 78.1746 63.104 78.7172L63.1176 78.7036ZM295.756 74.4714C295.267 73.9423 294.765 73.4133 294.263 72.8978L299.052 68.2858C299.581 68.8284 300.096 69.371 300.612 69.9271L295.756 74.4578V74.4714ZM70.4969 70.7682L65.7898 66.0747C66.3189 65.5457 66.8615 65.0166 67.3905 64.4876L72.0297 69.2489C71.5142 69.7508 70.9988 70.2663 70.4833 70.7817L70.4969 70.7682ZM288.078 66.8072C287.549 66.3189 287.02 65.8305 286.477 65.3422L290.94 60.4317C291.496 60.9336 292.052 61.4491 292.595 61.9645L288.064 66.8208L288.078 66.8072ZM78.4052 63.3482L74.0373 58.3427C74.607 57.8544 75.1768 57.3525 75.7465 56.8641L80.0601 61.9238C79.504 62.3986 78.9614 62.8598 78.4188 63.3482H78.4052ZM279.898 59.6856C279.342 59.2244 278.772 58.7768 278.203 58.3291L282.313 53.1067C282.91 53.5814 283.493 54.0426 284.076 54.5174L279.885 59.6721L279.898 59.6856ZM86.8154 56.5114L82.8002 51.2211C83.3971 50.7599 84.0075 50.3123 84.6044 49.8646L88.5518 55.2092C87.9685 55.6297 87.3987 56.0638 86.8154 56.5114ZM271.257 53.1474C270.661 52.7268 270.064 52.3199 269.467 51.9129L273.224 46.4327C273.848 46.8532 274.459 47.2873 275.083 47.7214L271.257 53.1609V53.1474ZM95.6733 50.258L92.0244 44.71C92.6484 44.303 93.2859 43.8825 93.9235 43.4891L97.491 49.0914C96.8806 49.4713 96.2838 49.8646 95.6733 50.2716V50.258ZM262.183 47.2059C261.559 46.8261 260.935 46.4599 260.311 46.0936L263.675 40.3556C264.326 40.7355 264.977 41.1288 265.614 41.5087L262.169 47.1924L262.183 47.2059ZM104.925 44.6286L101.669 38.8364C102.32 38.4701 102.985 38.1039 103.649 37.7512L106.824 43.5977C106.186 43.9368 105.562 44.2895 104.938 44.6422L104.925 44.6286ZM252.701 41.902C252.063 41.5765 251.412 41.2509 250.761 40.9254L253.718 34.9704C254.396 35.3095 255.075 35.6486 255.739 35.9877L252.701 41.902ZM114.542 39.6503L111.693 33.641C112.372 33.3155 113.05 33.0035 113.742 32.6915L116.509 38.7414C115.858 39.0399 115.207 39.3383 114.556 39.6503H114.542ZM242.88 37.2764C242.215 36.9916 241.55 36.7067 240.886 36.4354L243.422 30.2905C244.128 30.5754 244.819 30.8738 245.525 31.1722L242.893 37.2764H242.88ZM124.472 35.3638L122.057 29.1782C122.762 28.9069 123.454 28.6356 124.173 28.3778L126.506 34.6041C125.828 34.8619 125.15 35.1196 124.485 35.3773L124.472 35.3638ZM232.76 33.3426C232.082 33.0984 231.39 32.8678 230.698 32.6372L232.801 26.3295C233.52 26.5737 234.239 26.8179 234.944 27.062L232.76 33.3426ZM134.7 31.7691L132.706 25.4343C133.424 25.2037 134.143 24.9866 134.876 24.7696L136.775 31.1315C136.083 31.335 135.391 31.552 134.7 31.7691ZM222.397 30.1277C221.705 29.9378 220.999 29.7479 220.294 29.5715L221.949 23.1418C222.682 23.3317 223.414 23.5216 224.133 23.7251L222.383 30.1413L222.397 30.1277ZM145.145 28.8933L143.598 22.4364C144.331 22.2601 145.063 22.0973 145.796 21.9345L147.247 28.4185C146.542 28.5813 145.836 28.7441 145.131 28.9069L145.145 28.8933ZM211.843 27.6453C211.138 27.5097 210.432 27.374 209.713 27.2384L210.907 20.7001C211.653 20.8358 212.386 20.9714 213.132 21.1206L211.83 27.6318L211.843 27.6453ZM155.779 26.7501L154.694 20.1982C155.44 20.0761 156.186 19.954 156.932 19.8455L157.923 26.4109C157.204 26.5194 156.498 26.628 155.779 26.7501ZM201.154 25.909C200.435 25.8141 199.73 25.7327 199.011 25.6513L199.757 19.0452C200.503 19.1266 201.263 19.2215 202.009 19.3165L201.168 25.909H201.154ZM166.536 25.3664L165.912 18.7468C166.658 18.6789 167.418 18.6111 168.164 18.5433L168.693 25.163C167.974 25.2172 167.255 25.285 166.536 25.3529V25.3664ZM190.37 24.9324C189.651 24.8917 188.932 24.851 188.213 24.8238L188.498 18.1906C189.258 18.2177 190.004 18.2584 190.763 18.2991L190.383 24.9324H190.37ZM177.361 24.7289L177.198 18.0821C177.944 18.0685 178.704 18.0549 179.464 18.0414L179.532 24.6882C178.813 24.6882 178.094 24.7153 177.375 24.7289H177.361Z" fill="#00B1FF"/>
<path d="M181.282 366.971C130.508 366.971 83.0853 346.8 47.7216 310.175L55.6842 302.484C88.9453 336.925 133.547 355.902 181.282 355.902C223.346 355.902 264 340.669 295.783 313.024L303.054 321.38C269.264 350.788 226.019 366.985 181.282 366.985V366.971Z" fill="#00B1FF"/>
<path d="M332.964 105.562C326.019 91.5901 317.148 78.6492 306.594 67.0783C289.014 47.789 266.944 32.6642 242.758 23.318L246.746 12.9815C272.533 22.9381 296.054 39.0668 314.787 59.6176C326.033 71.9481 335.474 85.7572 342.88 100.638L332.964 105.576V105.562Z" fill="#00B1FF"/>
<path d="M55.5077 58.6409L49.1593 52.4553C61.2863 40.0163 75.0547 29.3678 90.0982 20.7948C98.4135 16.0607 107.149 11.9369 116.075 8.55927L119.208 16.8474C110.703 20.0623 102.388 23.9826 94.4796 28.4997C80.1551 36.6657 67.0378 46.8123 55.4941 58.6545L55.5077 58.6409Z" fill="#00EBC7"/>
<defs>
<filter id="filter0_f_2_41" x="4.97803" y="10" width="345.652" height="345.652" filterUnits="userSpaceOnUse" color-interpolation-filters="sRGB">
<feFlood flood-opacity="0" result="BackgroundImageFix"/>
<feBlend mode="normal" in="SourceGraphic" in2="BackgroundImageFix" result="shape"/>
<feGaussianBlur stdDeviation="25" result="effect1_foregroundBlur_2_41"/>
</filter>
</defs>
</svg>
