<svg width="342" height="395" viewBox="0 0 342 395" fill="none" xmlns="http://www.w3.org/2000/svg">
<path d="M117 10C117 15.4519 239.667 134.938 301 194" stroke="#BEFFFF" stroke-width="3"/>
<path d="M323.378 383.608H39.6218V173.622H323.378V383.608ZM41.1158 382.114H321.884V175.116H41.1158V382.114Z" fill="#00EBC7"/>
<g style="mix-blend-mode:screen" opacity="0.1">
<path d="M318.149 178.851H44.8506V378.379H318.149V178.851Z" fill="#0068E8"/>
<path d="M318.523 378.753H44.4771V178.477H318.523V378.753ZM45.224 378.006H317.776V179.224H45.224V378.006Z" fill="#00EBC7"/>
</g>
<g style="mix-blend-mode:screen" opacity="0.2">
<path d="M311.352 205.592H291.408V185.648H311.352V205.592ZM292.902 204.098H309.858V187.142H292.902V204.098Z" fill="#0068E8"/>
<path d="M292.902 205.592H272.958V185.648H292.902V205.592ZM274.452 204.098H291.408V187.142H274.452V204.098Z" fill="#0068E8"/>
<path d="M274.467 205.592H254.523V185.648H274.467V205.592ZM256.017 204.098H272.973V187.142H256.017V204.098Z" fill="#0068E8"/>
<path d="M256.017 205.592H236.088V185.648H256.017V205.592ZM237.582 204.098H254.523V187.142H237.582V204.098Z" fill="#0068E8"/>
<path d="M237.582 205.592H217.638V185.648H237.582V205.592ZM219.132 204.098H236.088V187.142H219.132V204.098Z" fill="#0068E8"/>
<path d="M219.132 205.592H199.188V185.648H219.132V205.592ZM200.682 204.098H217.638V187.142H200.682V204.098Z" fill="#0068E8"/>
<path d="M200.697 205.592H180.753V185.648H200.697V205.592ZM182.247 204.098H199.203V187.142H182.247V204.098Z" fill="#0068E8"/>
<path d="M182.247 205.592H162.303V185.648H182.247V205.592ZM163.797 204.098H180.753V187.142H163.797V204.098Z" fill="#0068E8"/>
<path d="M163.797 205.592H143.853V185.648H163.797V205.592ZM145.347 204.098H162.303V187.142H145.347V204.098Z" fill="#0068E8"/>
<path d="M145.362 205.592H125.433V185.648H145.362V205.592ZM126.927 204.098H143.868V187.142H126.927V204.098Z" fill="#0068E8"/>
<path d="M126.912 205.592H106.968V185.648H126.912V205.592ZM108.462 204.098H125.418V187.142H108.462V204.098Z" fill="#0068E8"/>
<path d="M108.477 205.592H88.533V185.648H108.477V205.592ZM90.0269 204.098H106.983V187.142H90.0269V204.098Z" fill="#0068E8"/>
<path d="M90.0269 205.592H70.083V185.648H90.0269V205.592ZM71.5769 204.098H88.533V187.142H71.5769V204.098Z" fill="#0068E8"/>
<path d="M71.5918 205.592H51.6479V185.648H71.5918V205.592ZM53.1418 204.098H70.0979V187.142H53.1418V204.098Z" fill="#0068E8"/>
<path d="M311.352 224.027H291.408V204.098H311.352V224.027ZM292.902 222.533H309.858V205.592H292.902V222.533Z" fill="#0068E8"/>
<path d="M292.902 224.027H272.958V204.098H292.902V224.027ZM274.452 222.533H291.408V205.592H274.452V222.533Z" fill="#0068E8"/>
<path d="M274.467 224.027H254.523V204.098H274.467V224.027ZM256.017 222.533H272.973V205.592H256.017V222.533Z" fill="#0068E8"/>
<path d="M256.017 224.027H236.088V204.098H256.017V224.027ZM237.582 222.533H254.523V205.592H237.582V222.533Z" fill="#0068E8"/>
<path d="M237.582 224.027H217.638V204.098H237.582V224.027ZM219.132 222.533H236.088V205.592H219.132V222.533Z" fill="#0068E8"/>
<path d="M219.132 224.027H199.188V204.098H219.132V224.027ZM200.682 222.533H217.638V205.592H200.682V222.533Z" fill="#0068E8"/>
<path d="M200.697 224.027H180.753V204.098H200.697V224.027ZM182.247 222.533H199.203V205.592H182.247V222.533Z" fill="#0068E8"/>
<path d="M182.247 224.027H162.303V204.098H182.247V224.027ZM163.797 222.533H180.753V205.592H163.797V222.533Z" fill="#0068E8"/>
<path d="M163.797 224.027H143.853V204.098H163.797V224.027ZM145.347 222.533H162.303V205.592H145.347V222.533Z" fill="#0068E8"/>
<path d="M145.362 224.027H125.433V204.098H145.362V224.027ZM126.927 222.533H143.868V205.592H126.927V222.533Z" fill="#0068E8"/>
<path d="M126.912 224.027H106.968V204.098H126.912V224.027ZM108.462 222.533H125.418V205.592H108.462V222.533Z" fill="#0068E8"/>
<path d="M108.477 224.027H88.533V204.098H108.477V224.027ZM90.0269 222.533H106.983V205.592H90.0269V222.533Z" fill="#0068E8"/>
<path d="M90.027 224.027H70.083V204.098H90.027V224.027ZM71.577 222.533H88.533V205.592H71.577V222.533Z" fill="#0068E8"/>
<path d="M71.5919 224.027H51.6479V204.098H71.5919V224.027ZM53.1419 222.533H70.0979V205.592H53.1419V222.533Z" fill="#0068E8"/>
<path d="M311.352 242.477H291.408V222.533H311.352V242.477ZM292.902 240.983H309.858V224.027H292.902V240.983Z" fill="#0068E8"/>
<path d="M292.902 242.477H272.958V222.533H292.902V242.477ZM274.452 240.983H291.408V224.027H274.452V240.983Z" fill="#0068E8"/>
<path d="M274.467 242.477H254.523V222.533H274.467V242.477ZM256.017 240.983H272.973V224.027H256.017V240.983Z" fill="#0068E8"/>
<path d="M256.017 242.477H236.088V222.533H256.017V242.477ZM237.582 240.983H254.523V224.027H237.582V240.983Z" fill="#0068E8"/>
<path d="M237.582 242.477H217.638V222.533H237.582V242.477ZM219.132 240.983H236.088V224.027H219.132V240.983Z" fill="#0068E8"/>
<path d="M219.132 242.477H199.188V222.533H219.132V242.477ZM200.682 240.983H217.638V224.027H200.682V240.983Z" fill="#0068E8"/>
<path d="M200.697 242.477H180.753V222.533H200.697V242.477ZM182.247 240.983H199.203V224.027H182.247V240.983Z" fill="#0068E8"/>
<path d="M182.247 242.477H162.303V222.533H182.247V242.477ZM163.797 240.983H180.753V224.027H163.797V240.983Z" fill="#0068E8"/>
<path d="M163.797 242.477H143.853V222.533H163.797V242.477ZM145.347 240.983H162.303V224.027H145.347V240.983Z" fill="#0068E8"/>
<path d="M145.362 242.477H125.433V222.533H145.362V242.477ZM126.927 240.983H143.868V224.027H126.927V240.983Z" fill="#0068E8"/>
<path d="M126.912 242.477H106.968V222.533H126.912V242.477ZM108.462 240.983H125.418V224.027H108.462V240.983Z" fill="#0068E8"/>
<path d="M108.477 242.477H88.533V222.533H108.477V242.477ZM90.0269 240.983H106.983V224.027H90.0269V240.983Z" fill="#0068E8"/>
<path d="M90.027 242.477H70.083V222.533H90.027V242.477ZM71.577 240.983H88.533V224.027H71.577V240.983Z" fill="#0068E8"/>
<path d="M71.5919 242.477H51.6479V222.533H71.5919V242.477ZM53.1419 240.983H70.0979V224.027H53.1419V240.983Z" fill="#0068E8"/>
<path d="M311.352 260.912H291.408V240.968H311.352V260.912ZM292.902 259.418H309.858V242.462H292.902V259.418Z" fill="#0068E8"/>
<path d="M292.902 260.912H272.958V240.968H292.902V260.912ZM274.452 259.418H291.408V242.462H274.452V259.418Z" fill="#0068E8"/>
<path d="M274.467 260.912H254.523V240.968H274.467V260.912ZM256.017 259.418H272.973V242.462H256.017V259.418Z" fill="#0068E8"/>
<path d="M256.017 260.912H236.088V240.968H256.017V260.912ZM237.582 259.418H254.523V242.462H237.582V259.418Z" fill="#0068E8"/>
<path d="M237.582 260.912H217.638V240.968H237.582V260.912ZM219.132 259.418H236.088V242.462H219.132V259.418Z" fill="#0068E8"/>
<path d="M219.132 260.912H199.188V240.968H219.132V260.912ZM200.682 259.418H217.638V242.462H200.682V259.418Z" fill="#0068E8"/>
<path d="M200.697 260.912H180.753V240.968H200.697V260.912ZM182.247 259.418H199.203V242.462H182.247V259.418Z" fill="#0068E8"/>
<path d="M182.247 260.912H162.303V240.968H182.247V260.912ZM163.797 259.418H180.753V242.462H163.797V259.418Z" fill="#0068E8"/>
<path d="M163.797 260.912H143.853V240.968H163.797V260.912ZM145.347 259.418H162.303V242.462H145.347V259.418Z" fill="#0068E8"/>
<path d="M145.362 260.912H125.433V240.968H145.362V260.912ZM126.927 259.418H143.868V242.462H126.927V259.418Z" fill="#0068E8"/>
<path d="M126.912 260.912H106.968V240.968H126.912V260.912ZM108.462 259.418H125.418V242.462H108.462V259.418Z" fill="#0068E8"/>
<path d="M108.477 260.912H88.533V240.968H108.477V260.912ZM90.0269 259.418H106.983V242.462H90.0269V259.418Z" fill="#0068E8"/>
<path d="M90.027 260.912H70.083V240.968H90.027V260.912ZM71.577 259.418H88.533V242.462H71.577V259.418Z" fill="#0068E8"/>
<path d="M71.5919 260.912H51.6479V240.968H71.5919V260.912ZM53.1419 259.418H70.0979V242.462H53.1419V259.418Z" fill="#0068E8"/>
<path d="M311.352 279.362H291.408V259.418H311.352V279.362ZM292.902 277.868H309.858V260.912H292.902V277.868Z" fill="#0068E8"/>
<path d="M292.902 279.362H272.958V259.418H292.902V279.362ZM274.452 277.868H291.408V260.912H274.452V277.868Z" fill="#0068E8"/>
<path d="M274.467 279.362H254.523V259.418H274.467V279.362ZM256.017 277.868H272.973V260.912H256.017V277.868Z" fill="#0068E8"/>
<path d="M256.017 279.362H236.088V259.418H256.017V279.362ZM237.582 277.868H254.523V260.912H237.582V277.868Z" fill="#0068E8"/>
<path d="M237.582 279.362H217.638V259.418H237.582V279.362ZM219.132 277.868H236.088V260.912H219.132V277.868Z" fill="#0068E8"/>
<path d="M219.132 279.362H199.188V259.418H219.132V279.362ZM200.682 277.868H217.638V260.912H200.682V277.868Z" fill="#0068E8"/>
<path d="M200.697 279.362H180.753V259.418H200.697V279.362ZM182.247 277.868H199.203V260.912H182.247V277.868Z" fill="#0068E8"/>
<path d="M182.247 279.362H162.303V259.418H182.247V279.362ZM163.797 277.868H180.753V260.912H163.797V277.868Z" fill="#0068E8"/>
<path d="M163.797 279.362H143.853V259.418H163.797V279.362ZM145.347 277.868H162.303V260.912H145.347V277.868Z" fill="#0068E8"/>
<path d="M145.362 279.362H125.433V259.418H145.362V279.362ZM126.927 277.868H143.868V260.912H126.927V277.868Z" fill="#0068E8"/>
<path d="M126.912 279.362H106.968V259.418H126.912V279.362ZM108.462 277.868H125.418V260.912H108.462V277.868Z" fill="#0068E8"/>
<path d="M108.477 279.362H88.533V259.418H108.477V279.362ZM90.0269 277.868H106.983V260.912H90.0269V277.868Z" fill="#0068E8"/>
<path d="M90.027 279.362H70.083V259.418H90.027V279.362ZM71.577 277.868H88.533V260.912H71.577V277.868Z" fill="#0068E8"/>
<path d="M71.5919 279.362H51.6479V259.418H71.5919V279.362ZM53.1419 277.868H70.0979V260.912H53.1419V277.868Z" fill="#0068E8"/>
<path d="M311.352 297.812H291.408V277.868H311.352V297.812ZM292.902 296.318H309.858V279.362H292.902V296.318Z" fill="#0068E8"/>
<path d="M292.902 297.812H272.958V277.868H292.902V297.812ZM274.452 296.318H291.408V279.362H274.452V296.318Z" fill="#0068E8"/>
<path d="M274.467 297.812H254.523V277.868H274.467V297.812ZM256.017 296.318H272.973V279.362H256.017V296.318Z" fill="#0068E8"/>
<path d="M256.017 297.812H236.088V277.868H256.017V297.812ZM237.582 296.318H254.523V279.362H237.582V296.318Z" fill="#0068E8"/>
<path d="M237.582 297.812H217.638V277.868H237.582V297.812ZM219.132 296.318H236.088V279.362H219.132V296.318Z" fill="#0068E8"/>
<path d="M219.132 297.812H199.188V277.868H219.132V297.812ZM200.682 296.318H217.638V279.362H200.682V296.318Z" fill="#0068E8"/>
<path d="M200.697 297.812H180.753V277.868H200.697V297.812ZM182.247 296.318H199.203V279.362H182.247V296.318Z" fill="#0068E8"/>
<path d="M182.247 297.812H162.303V277.868H182.247V297.812ZM163.797 296.318H180.753V279.362H163.797V296.318Z" fill="#0068E8"/>
<path d="M163.797 297.812H143.853V277.868H163.797V297.812ZM145.347 296.318H162.303V279.362H145.347V296.318Z" fill="#0068E8"/>
<path d="M145.362 297.812H125.433V277.868H145.362V297.812ZM126.927 296.318H143.868V279.362H126.927V296.318Z" fill="#0068E8"/>
<path d="M126.912 297.812H106.968V277.868H126.912V297.812ZM108.462 296.318H125.418V279.362H108.462V296.318Z" fill="#0068E8"/>
<path d="M108.477 297.812H88.533V277.868H108.477V297.812ZM90.0269 296.318H106.983V279.362H90.0269V296.318Z" fill="#0068E8"/>
<path d="M90.027 297.812H70.083V277.868H90.027V297.812ZM71.577 296.318H88.533V279.362H71.577V296.318Z" fill="#0068E8"/>
<path d="M71.5919 297.812H51.6479V277.868H71.5919V297.812ZM53.1419 296.318H70.0979V279.362H53.1419V296.318Z" fill="#0068E8"/>
<path d="M311.352 316.247H291.408V296.303H311.352V316.247ZM292.902 314.753H309.858V297.797H292.902V314.753Z" fill="#0068E8"/>
<path d="M292.902 316.247H272.958V296.303H292.902V316.247ZM274.452 314.753H291.408V297.797H274.452V314.753Z" fill="#0068E8"/>
<path d="M274.467 316.247H254.523V296.303H274.467V316.247ZM256.017 314.753H272.973V297.797H256.017V314.753Z" fill="#0068E8"/>
<path d="M256.017 316.247H236.088V296.303H256.017V316.247ZM237.582 314.753H254.523V297.797H237.582V314.753Z" fill="#0068E8"/>
<path d="M237.582 316.247H217.638V296.303H237.582V316.247ZM219.132 314.753H236.088V297.797H219.132V314.753Z" fill="#0068E8"/>
<path d="M219.132 316.247H199.188V296.303H219.132V316.247ZM200.682 314.753H217.638V297.797H200.682V314.753Z" fill="#0068E8"/>
<path d="M200.697 316.247H180.753V296.303H200.697V316.247ZM182.247 314.753H199.203V297.797H182.247V314.753Z" fill="#0068E8"/>
<path d="M182.247 316.247H162.303V296.303H182.247V316.247ZM163.797 314.753H180.753V297.797H163.797V314.753Z" fill="#0068E8"/>
<path d="M163.797 316.247H143.853V296.303H163.797V316.247ZM145.347 314.753H162.303V297.797H145.347V314.753Z" fill="#0068E8"/>
<path d="M145.362 316.247H125.433V296.303H145.362V316.247ZM126.927 314.753H143.868V297.797H126.927V314.753Z" fill="#0068E8"/>
<path d="M126.912 316.247H106.968V296.303H126.912V316.247ZM108.462 314.753H125.418V297.797H108.462V314.753Z" fill="#0068E8"/>
<path d="M108.477 316.247H88.533V296.303H108.477V316.247ZM90.0269 314.753H106.983V297.797H90.0269V314.753Z" fill="#0068E8"/>
<path d="M90.027 316.247H70.083V296.303H90.027V316.247ZM71.577 314.753H88.533V297.797H71.577V314.753Z" fill="#0068E8"/>
<path d="M71.5919 316.247H51.6479V296.303H71.5919V316.247ZM53.1419 314.753H70.0979V297.797H53.1419V314.753Z" fill="#0068E8"/>
<path d="M311.352 334.697H291.408V314.768H311.352V334.697ZM292.902 333.203H309.858V316.262H292.902V333.203Z" fill="#0068E8"/>
<path d="M292.902 334.697H272.958V314.768H292.902V334.697ZM274.452 333.203H291.408V316.262H274.452V333.203Z" fill="#0068E8"/>
<path d="M274.467 334.697H254.523V314.768H274.467V334.697ZM256.017 333.203H272.973V316.262H256.017V333.203Z" fill="#0068E8"/>
<path d="M256.017 334.697H236.088V314.768H256.017V334.697ZM237.582 333.203H254.523V316.262H237.582V333.203Z" fill="#0068E8"/>
<path d="M237.582 334.697H217.638V314.768H237.582V334.697ZM219.132 333.203H236.088V316.262H219.132V333.203Z" fill="#0068E8"/>
<path d="M219.132 334.697H199.188V314.768H219.132V334.697ZM200.682 333.203H217.638V316.262H200.682V333.203Z" fill="#0068E8"/>
<path d="M200.697 334.697H180.753V314.768H200.697V334.697ZM182.247 333.203H199.203V316.262H182.247V333.203Z" fill="#0068E8"/>
<path d="M182.247 334.697H162.303V314.768H182.247V334.697ZM163.797 333.203H180.753V316.262H163.797V333.203Z" fill="#0068E8"/>
<path d="M163.797 334.697H143.853V314.768H163.797V334.697ZM145.347 333.203H162.303V316.262H145.347V333.203Z" fill="#0068E8"/>
<path d="M145.362 334.697H125.433V314.768H145.362V334.697ZM126.927 333.203H143.868V316.262H126.927V333.203Z" fill="#0068E8"/>
<path d="M126.912 334.697H106.968V314.768H126.912V334.697ZM108.462 333.203H125.418V316.262H108.462V333.203Z" fill="#0068E8"/>
<path d="M108.477 334.697H88.533V314.768H108.477V334.697ZM90.0269 333.203H106.983V316.262H90.0269V333.203Z" fill="#0068E8"/>
<path d="M90.027 334.697H70.083V314.768H90.027V334.697ZM71.577 333.203H88.533V316.262H71.577V333.203Z" fill="#0068E8"/>
<path d="M71.5919 334.697H51.6479V314.768H71.5919V334.697ZM53.1419 333.203H70.0979V316.262H53.1419V333.203Z" fill="#0068E8"/>
<path d="M311.352 353.132H291.408V333.188H311.352V353.132ZM292.902 351.638H309.858V334.682H292.902V351.638Z" fill="#0068E8"/>
<path d="M292.902 353.132H272.958V333.188H292.902V353.132ZM274.452 351.638H291.408V334.682H274.452V351.638Z" fill="#0068E8"/>
<path d="M274.467 353.132H254.523V333.188H274.467V353.132ZM256.017 351.638H272.973V334.682H256.017V351.638Z" fill="#0068E8"/>
<path d="M256.017 353.132H236.088V333.188H256.017V353.132ZM237.582 351.638H254.523V334.682H237.582V351.638Z" fill="#0068E8"/>
<path d="M237.582 353.132H217.638V333.188H237.582V353.132ZM219.132 351.638H236.088V334.682H219.132V351.638Z" fill="#0068E8"/>
<path d="M219.132 353.132H199.188V333.188H219.132V353.132ZM200.682 351.638H217.638V334.682H200.682V351.638Z" fill="#0068E8"/>
<path d="M200.697 353.132H180.753V333.188H200.697V353.132ZM182.247 351.638H199.203V334.682H182.247V351.638Z" fill="#0068E8"/>
<path d="M182.247 353.132H162.303V333.188H182.247V353.132ZM163.797 351.638H180.753V334.682H163.797V351.638Z" fill="#0068E8"/>
<path d="M163.797 353.132H143.853V333.188H163.797V353.132ZM145.347 351.638H162.303V334.682H145.347V351.638Z" fill="#0068E8"/>
<path d="M145.362 353.132H125.433V333.188H145.362V353.132ZM126.927 351.638H143.868V334.682H126.927V351.638Z" fill="#0068E8"/>
<path d="M126.912 353.132H106.968V333.188H126.912V353.132ZM108.462 351.638H125.418V334.682H108.462V351.638Z" fill="#0068E8"/>
<path d="M108.477 353.132H88.533V333.188H108.477V353.132ZM90.0269 351.638H106.983V334.682H90.0269V351.638Z" fill="#0068E8"/>
<path d="M90.027 353.132H70.083V333.188H90.027V353.132ZM71.577 351.638H88.533V334.682H71.577V351.638Z" fill="#0068E8"/>
<path d="M71.5919 353.132H51.6479V333.188H71.5919V353.132ZM53.1419 351.638H70.0979V334.682H53.1419V351.638Z" fill="#0068E8"/>
<path d="M311.352 371.582H291.408V351.638H311.352V371.582ZM292.902 370.088H309.858V353.132H292.902V370.088Z" fill="#0068E8"/>
<path d="M292.902 371.582H272.958V351.638H292.902V371.582ZM274.452 370.088H291.408V353.132H274.452V370.088Z" fill="#0068E8"/>
<path d="M274.467 371.582H254.523V351.638H274.467V371.582ZM256.017 370.088H272.973V353.132H256.017V370.088Z" fill="#0068E8"/>
<path d="M256.017 371.582H236.088V351.638H256.017V371.582ZM237.582 370.088H254.523V353.132H237.582V370.088Z" fill="#0068E8"/>
<path d="M237.582 371.582H217.638V351.638H237.582V371.582ZM219.132 370.088H236.088V353.132H219.132V370.088Z" fill="#0068E8"/>
<path d="M219.132 371.582H199.188V351.638H219.132V371.582ZM200.682 370.088H217.638V353.132H200.682V370.088Z" fill="#0068E8"/>
<path d="M200.697 371.582H180.753V351.638H200.697V371.582ZM182.247 370.088H199.203V353.132H182.247V370.088Z" fill="#0068E8"/>
<path d="M182.247 371.582H162.303V351.638H182.247V371.582ZM163.797 370.088H180.753V353.132H163.797V370.088Z" fill="#0068E8"/>
<path d="M163.797 371.582H143.853V351.638H163.797V371.582ZM145.347 370.088H162.303V353.132H145.347V370.088Z" fill="#0068E8"/>
<path d="M145.362 371.582H125.433V351.638H145.362V371.582ZM126.927 370.088H143.868V353.132H126.927V370.088Z" fill="#0068E8"/>
<path d="M126.912 371.582H106.968V351.638H126.912V371.582ZM108.462 370.088H125.418V353.132H108.462V370.088Z" fill="#0068E8"/>
<path d="M108.477 371.582H88.533V351.638H108.477V371.582ZM90.0269 370.088H106.983V353.132H90.0269V370.088Z" fill="#0068E8"/>
<path d="M90.027 371.582H70.083V351.638H90.027V371.582ZM71.577 370.088H88.533V353.132H71.577V370.088Z" fill="#0068E8"/>
<path d="M71.5919 371.582H51.6479V351.638H71.5919V371.582ZM53.1419 370.088H70.0979V353.132H53.1419V370.088Z" fill="#0068E8"/>
</g>
<path d="M37.7096 394.23H29V385.505H30.4939V392.736H37.7096V394.23Z" fill="#00EBC7"/>
<path d="M30.4939 171.71H29V163H37.7096V164.494H30.4939V171.71Z" fill="#00EBC7"/>
<path d="M334 394.23H325.29V392.736H332.506V385.505H334V394.23Z" fill="#00EBC7"/>
<path d="M334 171.71H332.506V164.494H325.29V163H334V171.71Z" fill="#00EBC7"/>
<g filter="url(#filter0_d_10_2655)">
<path d="M108.298 327.937L90.484 326.794L99.868 291.346L105.017 298.235V298.354C105.147 302.32 106.757 306.157 106.767 306.197L106.797 306.267V306.346C106.797 310.412 107.592 320.094 108.258 327.5L108.298 327.947V327.937ZM91.4681 326.089L107.453 327.112C106.797 319.796 106.041 310.472 106.031 306.416C105.803 305.849 104.401 302.3 104.262 298.493L100.206 293.075L91.4681 326.089Z" fill="#85D7FC"/>
<path d="M88.0982 335.791L90.6828 326.039L108.228 327.162L108.258 327.49C108.417 329.299 108.566 330.88 108.675 332.063L108.705 332.421L88.0883 335.791H88.0982ZM91.2593 326.844L89.142 334.846L107.88 331.785C107.781 330.731 107.662 329.399 107.522 327.898L91.2593 326.854V326.844Z" fill="#85D7FC"/>
<path d="M105.057 299.557L99.6195 292.28L100.902 287.429L107.324 291.535L107.005 291.873C105.604 293.344 104.938 295.521 105.017 298.334L105.057 299.557ZM100.455 292.121L104.262 297.211C104.361 294.934 104.988 293.076 106.141 291.694L101.379 288.642L100.455 292.121Z" fill="#85D7FC"/>
<path d="M80.4141 361.557L68.9127 360.523L68.8332 360.295C68.5648 359.529 68.6244 358.843 69.0221 358.227C70.1951 356.408 74.0322 356.08 74.1912 356.07C76.9547 356.02 79.2709 355.652 81.0901 354.976L81.7263 354.738L80.4141 361.557ZM69.4793 359.808L79.7878 360.732L80.7223 355.911C78.933 356.477 76.746 356.786 74.231 356.835C73.2568 356.915 70.4734 357.402 69.6682 358.644C69.4495 358.992 69.3899 359.37 69.4893 359.808H69.4793Z" fill="#85D7FC"/>
<path d="M91.4483 349.37L85.4938 346.01L85.454 345.841C85.3049 345.155 85.1657 344.419 85.0365 343.674L84.9868 343.356L90.0864 341.546L91.4483 349.37ZM86.1797 345.513L90.4144 347.908L89.49 342.58L85.8616 343.863C85.961 344.429 86.0704 344.986 86.1797 345.513Z" fill="#85D7FC"/>
<path d="M85.1259 344.121L85.0464 343.674C84.7382 341.874 84.4897 339.866 84.2412 337.331L84.2114 337.063L88.9034 334.737L90.2156 342.312L85.116 344.111L85.1259 344.121ZM85.0365 337.52C85.2552 339.697 85.4739 341.487 85.7323 343.097L89.3607 341.815L88.3269 335.89L85.0265 337.52H85.0365Z" fill="#85D7FC"/>
<path d="M93.7744 362.76L79.6387 361.488L80.8813 355.046L81.0801 354.966C87.2036 352.71 85.9311 347.799 85.8715 347.59C85.7323 347.064 85.5932 346.487 85.454 345.851L85.2751 345.016L91.2693 348.396L93.7644 362.76H93.7744ZM80.5532 360.802L92.8499 361.905L90.5834 348.883L86.3984 346.527C86.4679 346.825 86.5375 347.113 86.6171 347.392C86.6369 347.451 88.0883 353.078 81.5473 355.613L80.5433 360.802H80.5532Z" fill="#85D7FC"/>
<path d="M87.5515 266.146L70.7517 238.153L93.1879 237.348L87.5515 266.146ZM72.0838 238.879L87.1837 264.039L92.2535 238.153L72.0838 238.879Z" fill="#85D7FC"/>
<path d="M101.478 289.358L92.6212 274.596L101.866 277.081L101.488 289.358H101.478ZM94.2515 275.828L100.783 286.723L101.061 277.667L94.2415 275.828H94.2515Z" fill="#85D7FC"/>
<path d="M91.2594 272.329L86.9551 265.162L92.3927 237.378L103.089 236.99L102.075 269.933L91.2594 272.329ZM87.7702 265.013L91.6372 271.454L101.329 269.307L102.304 237.785L93.0388 238.123L87.7702 265.023V265.013Z" fill="#85D7FC"/>
<path d="M101.826 277.866L93.178 275.54L90.832 271.633L102.095 269.138L101.826 277.866ZM93.675 274.874L101.081 276.872L101.29 270.102L92.0348 272.15L93.675 274.874Z" fill="#85D7FC"/>
<path d="M252.975 268.9L246.603 249.973L254.406 253.671L254.466 253.74C257.349 257.279 260.252 260.47 263.085 263.234L263.254 263.393L262.13 267.18L252.985 268.89L252.975 268.9ZM247.905 251.444L253.492 268.025L261.524 266.524L262.379 263.631C259.596 260.907 256.752 257.766 253.919 254.297L247.905 251.444Z" fill="#85D7FC"/>
<path d="M257.578 282.558L256.375 278.98L259.317 276.673L257.578 282.558ZM257.269 279.248L257.528 280.013L257.896 278.761L257.269 279.248Z" fill="#85D7FC"/>
<path d="M256.623 279.755L252.717 268.164L262.359 266.365L258.939 277.946L256.633 279.755H256.623ZM253.73 268.76L257.001 278.482L258.263 277.498L261.266 267.359L253.73 268.76Z" fill="#85D7FC"/>
<path d="M255.52 255.062L246.931 250.986L244.565 243.958L246.613 242.815L246.812 243.074C248.899 245.718 250.102 247.537 250.5 248.631C250.728 248.949 252.2 250.986 254.446 253.75L255.52 255.072V255.062ZM247.557 250.44L252.806 252.925C250.967 250.609 249.864 249.048 249.844 249.028L249.794 248.929C249.466 247.974 248.333 246.255 246.414 243.809L245.49 244.326L247.547 250.44H247.557Z" fill="#85D7FC"/>
<path d="M47.3015 200.647L56.2183 183.887L79.0522 198.161L77.6406 199.573H77.4915L47.3015 200.647ZM56.5066 184.97L48.6037 199.832L77.3125 198.818L77.8295 198.301L56.5066 184.97Z" fill="#85D7FC"/>
<path d="M76.5173 199.613L78.4657 197.674L80.0363 199.493L76.5173 199.613Z" fill="#85D7FC"/>
<path d="M79.0522 199.524L77.909 198.201L87.4024 189.871L87.5913 190.398C87.631 190.527 87.6708 190.637 87.7006 190.726C88.6947 191.263 94.5896 194.513 99.1225 197.754L99.3114 197.883L99.202 198.798L79.0522 199.514V199.524ZM78.9826 198.271L79.3902 198.738L98.2378 198.072C93.3967 194.672 87.2533 191.362 87.1937 191.322L87.0445 191.243V191.203L78.9826 198.261V198.271Z" fill="#85D7FC"/>
<path d="M78.6447 176.968L60.5923 175.676L68.3461 161.103L68.5548 161.083C69.2109 161.023 69.8968 160.993 70.5927 160.993C73.4457 160.993 75.6127 161.49 75.7022 161.51L75.7817 161.54C78.7341 162.971 80.3147 164.761 80.4936 166.838C80.7819 170.159 77.3822 173.131 76.2987 173.986C76.6366 174.403 77.2927 175.228 78.1178 176.292L78.6447 176.968ZM61.825 174.99L76.9846 176.073C76.07 174.91 75.4636 174.165 75.4636 174.155L75.2052 173.837L75.5332 173.598C75.5332 173.598 80.0264 170.318 79.7381 166.888C79.589 165.099 78.1576 163.538 75.4934 162.236C75.1853 162.166 73.1474 161.749 70.6026 161.749C70.0062 161.749 69.4097 161.769 68.8431 161.818L61.8349 174.98L61.825 174.99Z" fill="#85D7FC"/>
<path d="M78.4856 198.718L55.8606 184.572L60.99 174.94L78.0184 176.163L78.1178 176.302C81.1696 180.218 86.4481 187.256 87.5913 190.418L87.6808 190.666L78.4856 198.728V198.718ZM56.8745 184.304L78.4061 197.764L86.7762 190.428C85.5137 187.296 80.5732 180.706 77.6208 176.908L61.4373 175.745L56.8845 184.304H56.8745Z" fill="#85D7FC"/>
<path d="M98.4167 198.837L98.5957 197.386L99.1623 197.794C99.3114 197.903 99.4605 198.002 99.6096 198.112L100.504 198.768L98.4267 198.837H98.4167Z" fill="#85D7FC"/>
<path d="M11.7138 165.307L11.5249 164.969C10.6402 163.419 9.73559 162.116 8.70176 160.864L8.02579 160.059L9.04968 160.228L17.7677 161.778L11.7138 165.307ZM9.91452 161.162C10.6501 162.116 11.3261 163.12 11.9921 164.254L15.5708 162.166L9.91452 161.162Z" fill="#85D7FC"/>
<path d="M4.20852 151.629L4.09917 151.023C3.82083 149.482 4.129 148.378 5.01372 147.732L5.302 147.524L6.99192 149.581L4.20852 151.629ZM5.20259 148.607C4.87455 148.985 4.73538 149.542 4.78508 150.267L5.89844 149.452L5.20259 148.607Z" fill="#85D7FC"/>
<path d="M17.6285 162.534L8.77132 160.963L8.68185 160.854C5.16284 156.629 4.16877 151.43 4.129 151.221C4.129 151.182 4.11906 151.142 4.10912 151.102L4.05942 150.804L6.51477 149.015L17.6285 162.554V162.534ZM9.18883 160.257L15.7199 161.421L6.37561 150.048L4.89444 151.132C5.01373 151.718 6.06744 156.44 9.17889 160.257H9.18883Z" fill="#85D7FC"/>
<path d="M79.7679 285.043L75.1753 284.318L87.6509 270.51L79.7778 285.053L79.7679 285.043ZM76.6863 283.781L79.3504 284.198L83.9132 275.789L76.6962 283.781H76.6863Z" fill="#85D7FC"/>
<path d="M67.4215 282.041L67.2326 281.842C59.1707 273.333 53.9518 266.752 53.9021 266.683L53.8425 266.613L53.8226 266.524C52.9677 262.18 51.6456 258.283 49.8662 254.953L49.7171 254.664L53.087 252.08L86.5872 273.214L67.4215 282.051V282.041ZM54.5582 266.275C55.1447 267.011 60.125 273.204 67.6004 281.107L84.9868 273.095L53.1367 253.004L50.7012 254.863C52.421 258.183 53.7232 262.011 54.5582 266.275Z" fill="#85D7FC"/>
<path d="M76.0799 284.467L68.6045 283.284L68.515 283.194C68.0776 282.737 67.6502 282.29 67.2327 281.852L66.8649 281.465L87.3229 272.031L76.0799 284.477V284.467ZM68.9723 282.568L75.7817 283.652L84.2313 274.297L68.1472 281.713C68.4156 282.002 68.694 282.29 68.9723 282.578V282.568Z" fill="#85D7FC"/>
<path d="M86.0505 273.771L52.431 252.567L71.5172 237.944L87.7603 265.013L86.0505 273.771ZM53.773 252.507L85.5137 272.528L86.9551 265.162L71.3084 239.078L53.7829 252.507H53.773Z" fill="#85D7FC"/>
<path d="M97.2238 287.807L78.9627 284.914L85.7224 272.429L97.2139 287.797L97.2238 287.807ZM80.1556 284.328L95.4743 286.753L85.8318 273.86L80.1556 284.328Z" fill="#85D7FC"/>
<path d="M101.886 288.543L96.1403 287.638L84.8178 272.488L93.6949 274.884L101.896 288.552L101.886 288.543ZM96.5677 286.922L100.385 287.529L93.1879 275.54L86.7562 273.81L96.5677 286.932V286.922Z" fill="#85D7FC"/>
<path d="M85.2949 273.651L87.1737 264.039L92.0447 272.16L85.2949 273.651ZM87.5515 266.146L86.2791 272.647L90.8518 271.633L87.5614 266.146H87.5515Z" fill="#85D7FC"/>
<path d="M94.2515 275.828L84.1716 273.114L91.6272 271.464L94.2515 275.838V275.828ZM87.3924 273.184L92.6113 274.596L91.2494 272.329L87.3825 273.184H87.3924Z" fill="#85D7FC"/>
<path d="M48.0173 200.935L38.007 188.688L38.9513 173.091L56.8744 184.294L48.0272 200.925L48.0173 200.935ZM38.7923 188.439L47.8781 199.563L55.8505 184.582L39.6372 174.443L38.7923 188.449V188.439Z" fill="#85D7FC"/>
<path d="M39.7664 174.165L25.591 173.489L15.9883 161.749L36.4065 156.719L39.7764 174.165H39.7664ZM25.9687 172.733L38.832 173.349L35.8001 157.653L17.3501 162.196L25.9687 172.733Z" fill="#85D7FC"/>
<path d="M30.79 179.861L24.9349 172.693L40.4822 173.439L30.79 179.861ZM26.6149 173.548L30.9391 178.837L38.0964 174.095L26.605 173.548H26.6149Z" fill="#85D7FC"/>
<path d="M38.7227 189.563L30.3029 179.254L39.7267 173.011L38.7227 189.563ZM31.4362 179.433L38.0766 187.565L38.8619 174.512L31.4263 179.433H31.4362Z" fill="#85D7FC"/>
<path d="M61.4272 175.735L38.9712 174.125L35.651 156.908L58.7532 151.222L58.9023 151.381C62.8388 155.476 66.1193 160.258 66.835 161.321C67.3817 161.222 67.9583 161.142 68.5547 161.093L69.2605 161.023L61.4272 175.745V175.735ZM39.6173 173.399L60.9899 174.93L67.9086 161.918C67.501 161.967 67.1034 162.037 66.7356 162.107L66.4771 162.156L66.338 161.938C66.2982 161.888 62.8289 156.58 58.5047 152.057L36.5456 157.464L39.6173 173.389V173.399Z" fill="#85D7FC"/>
<path d="M56.5067 184.98L37.7784 173.27L61.815 175L56.4967 184.98H56.5067ZM40.8103 174.254L56.2184 183.887L60.5923 175.676L40.8103 174.254Z" fill="#85D7FC"/>
<path d="M38.2257 238.809L38.0269 238.233C37.5697 236.93 37.0925 235.797 36.9533 235.479C36.4364 235.081 35.9096 234.634 35.4026 234.137L35.2733 234.018L36.9434 206.402L48.0869 199.722L59.2305 217.904L38.2257 238.809ZM36.0587 233.709C36.5358 234.157 37.013 234.564 37.4901 234.932L37.5697 234.992L37.6094 235.081C37.6094 235.081 38.0667 236.115 38.5438 237.417L58.2563 217.804L47.8185 200.786L37.679 206.87L36.0587 233.719V233.709Z" fill="#85D7FC"/>
<path d="M35.999 234.713L35.4025 234.137C30.1737 229.107 26.7939 220.399 24.8753 213.977L24.7858 213.689L37.7386 205.925L35.999 234.713ZM25.6904 214.037C27.5195 220.081 30.6409 228.063 35.3329 232.974L36.8837 207.327L25.6904 214.037Z" fill="#85D7FC"/>
<path d="M39.4683 239.306L66.348 229.524L72.0937 238.889L39.4683 239.296V239.306ZM66.0199 230.459L43.9814 238.481L70.7318 238.143L66.0199 230.459Z" fill="#85D7FC"/>
<path d="M38.3848 239.316L38.2953 239.048C38.2058 238.769 38.1164 238.501 38.017 238.233L37.9374 238.004L58.8129 217.228L66.7556 230.19L41.7944 239.276L38.3848 239.316ZM38.8321 238.203C38.8719 238.312 38.9116 238.421 38.9415 238.541L41.6553 238.511L65.6124 229.793L58.6638 218.46L38.8222 238.203H38.8321Z" fill="#85D7FC"/>
<path d="M48.7927 200.667L37.3211 200.09L38.0766 187.555L48.7927 200.667ZM38.1263 199.364L47.1027 199.822L38.7227 189.573L38.1263 199.374V199.364Z" fill="#85D7FC"/>
<path d="M26.6149 173.538L15.4018 173.002L15.3024 172.783C13.8411 169.492 12.688 167.027 11.505 164.969L11.3162 164.641L16.7438 161.47L26.605 173.538H26.6149ZM15.9088 172.256L24.925 172.683L16.5748 162.464L12.3699 164.92C13.4733 166.898 14.5568 169.214 15.9088 172.256Z" fill="#85D7FC"/>
<path d="M20.9785 186.362L20.8294 185.875C20.3721 184.433 19.8651 183.091 19.2786 181.779C18.4635 179.95 17.7378 178.3 17.0817 176.789C16.4356 175.328 15.859 173.996 15.3222 172.793L15.0737 172.226L25.9787 172.743L31.4461 179.433L20.9884 186.362H20.9785ZM16.2666 173.051C16.7338 174.105 17.2308 175.248 17.7776 176.481C18.4337 177.992 19.1693 179.642 19.9745 181.471C20.5013 182.664 20.9685 183.877 21.396 185.169L30.3029 179.274L25.591 173.509L16.2666 173.061V173.051Z" fill="#85D7FC"/>
<path d="M38.0865 200.13L23.1953 199.374L23.1655 199.036C22.8871 195.448 22.3603 190.706 20.8195 185.865L20.73 185.586L30.9391 178.827L38.7923 188.43L38.0865 200.13ZM23.911 198.649L37.3708 199.325L38.0169 188.688L30.8 179.861L21.6545 185.924C23.1058 190.587 23.6327 195.13 23.921 198.649H23.911Z" fill="#85D7FC"/>
<path d="M36.8837 207.327L37.3708 199.325L49.24 199.921L36.8936 207.327H36.8837ZM38.0865 200.13L37.7386 205.915L46.6753 200.557L38.0865 200.12V200.13Z" fill="#85D7FC"/>
<path d="M25.0145 214.444L24.8753 213.967L25.2431 213.858L24.8653 213.937C23.921 210.776 23.6923 206.989 23.4438 202.973C23.3643 201.7 23.2848 200.378 23.1754 199.036L23.1456 198.599L38.1461 199.354L37.6889 206.84L25.0145 214.434V214.444ZM23.9707 199.414C24.0601 200.617 24.1297 201.79 24.1993 202.933C24.4379 206.72 24.6566 210.299 25.4717 213.271L36.9433 206.392L37.3211 200.08L23.9707 199.404V199.414Z" fill="#85D7FC"/>
<path d="M50.0849 255.34L49.8762 254.943C48.2956 251.961 46.387 249.456 44.0609 247.279L44.5281 246.672L53.7928 252.517L50.0949 255.35L50.0849 255.34ZM46.7647 248.988C48.1067 250.549 49.2897 252.269 50.3334 254.177L52.4409 252.567L46.7647 248.988Z" fill="#85D7FC"/>
<path d="M53.1268 253.004L44.0509 247.269C43.6035 246.851 43.2059 246.503 42.8779 246.215C42.6592 246.026 42.4703 245.867 42.3212 245.728C41.675 245.131 41.0985 244.863 40.5915 244.624C39.7267 244.217 38.9811 243.869 38.9811 242.229C38.9811 241.692 38.8519 240.946 38.5934 240.002L38.494 239.664L41.6552 238.511H41.7148L72.5609 238.123L53.1268 253.014V253.004ZM44.5479 246.682L53.087 252.07L70.2646 238.908L41.7943 239.266L39.4185 240.131C39.6372 240.986 39.7465 241.682 39.7465 242.219C39.7465 243.372 40.0845 243.531 40.9196 243.919C41.4564 244.167 42.1124 244.485 42.8481 245.151C42.9972 245.29 43.1761 245.44 43.3848 245.628C43.703 245.907 44.1006 246.255 44.5479 246.672V246.682Z" fill="#85D7FC"/>
<path d="M38.6929 240.4L38.5835 240.002C38.4941 239.684 38.3947 239.366 38.2953 239.048L38.1362 238.551L43.9813 238.481L38.6929 240.4Z" fill="#85D7FC"/>
<path d="M101.578 237.964L110.435 229.137L118.457 235.201L101.578 237.964ZM110.505 230.161L103.814 236.821L116.558 234.733L110.495 230.151L110.505 230.161Z" fill="#85D7FC"/>
<path d="M117.413 235.37L109.888 229.684L128.537 211.104L134.442 209.723L134.541 209.752C137.007 210.458 139.104 211.124 140.774 211.731L141.072 211.84L137.444 232.089L117.413 235.37ZM111.051 229.604L117.612 234.555L136.778 231.423L140.198 212.337C138.617 211.77 136.679 211.164 134.422 210.508L128.915 211.79L111.051 229.594V229.604Z" fill="#85D7FC"/>
<path d="M127.503 212.138L130.903 208.749L131.112 208.808C132.305 209.126 133.458 209.444 134.541 209.753L135.963 210.16L127.503 212.138ZM131.132 209.603L129.959 210.776L132.901 210.091C132.325 209.931 131.738 209.772 131.132 209.613V209.603Z" fill="#85D7FC"/>
<path d="M16.366 142.752L16.3064 142.066C16.0877 139.302 16.1573 136.976 16.1573 136.956V136.877C17.032 133.408 17.9863 130.912 18.9904 129.481L19.1295 129.282L25.7302 130.286L25.8196 130.376C26.6348 131.171 27.5493 132.175 28.5434 133.358L28.8118 133.676L16.366 142.752ZM16.9326 137.016C16.9326 137.304 16.8929 139.104 17.032 141.31L27.6984 133.517C26.8535 132.533 26.0781 131.678 25.3822 130.992L19.5073 130.097C18.6027 131.479 17.7378 133.805 16.9426 137.006L16.9326 137.016Z" fill="#85D7FC"/>
<path d="M6.37564 150.049L4.67578 147.981L5.00382 147.742C5.85873 147.126 7.25043 146.997 8.96023 147.365L9.80519 147.543L6.37564 150.049ZM5.81896 148.16L6.50487 148.995L7.91646 147.961C7.06155 147.872 6.33588 147.931 5.81896 148.15V148.16Z" fill="#85D7FC"/>
<path d="M26.6646 131.201L18.6425 129.988L19.0003 129.481C19.6862 128.497 20.402 128 21.1276 128C21.3861 128 21.5849 128.07 21.734 128.139C21.7638 128.129 21.7837 128.119 21.8135 128.109L21.9428 128.07L23.9906 128.795C24.5274 129.173 25.1437 129.71 25.8296 130.376L26.6746 131.211L26.6646 131.201ZM20.0242 129.422L24.3783 130.078C24.0999 129.829 23.8315 129.62 23.583 129.441L21.9627 128.875L21.7141 129.074L21.4756 128.865C21.4756 128.865 21.3463 128.765 21.1276 128.765C20.7996 128.765 20.4119 128.994 20.0242 129.422Z" fill="#85D7FC"/>
<path d="M16.5251 162.405L5.88852 149.452L8.80115 147.325L8.97014 147.364C9.61629 147.504 10.0736 147.663 10.0934 147.663L10.1829 147.712C12.0021 148.985 15.1334 149.174 16.8332 149.174C17.1911 149.174 17.4993 149.174 17.7379 149.154C17.0321 147.484 16.545 145.108 16.3064 142.066L16.2865 141.857L28.3148 133.08L28.5434 133.358C30.2035 135.336 31.5356 137.155 31.5555 137.165L31.6052 137.255C31.973 138.229 32.4799 139.124 33.1161 139.919L33.1758 139.998L36.5457 157.484L16.5251 162.415V162.405ZM7.00188 149.591L16.8134 161.54L35.651 156.898L32.4501 140.316C31.804 139.491 31.2871 138.567 30.8994 137.573C30.7006 137.304 29.5872 135.803 28.1855 134.123L17.0917 142.225C17.3502 145.346 17.8969 147.812 18.6723 149.343L18.9307 149.85L18.3641 149.899C18.3045 149.899 17.708 149.949 16.8432 149.949C15.0638 149.949 11.7933 149.74 9.79522 148.378C9.68587 148.339 9.37771 148.249 8.98008 148.16L7.00188 149.601V149.591Z" fill="#85D7FC"/>
<path d="M35.8001 157.663L32.1419 138.706L33.1161 139.919C35.7702 143.239 40.7505 144.849 48.3254 144.849C51.1783 144.849 54.7371 147.046 58.9122 151.38L59.3794 151.858L35.81 157.663H35.8001ZM33.4441 141.42L36.3965 156.729L57.8784 151.44C54.0612 147.573 50.8503 145.615 48.3154 145.615C41.2873 145.615 36.4064 144.243 33.4441 141.42Z" fill="#85D7FC"/>
<path d="M26.2074 130.356L20.7599 128.457L21.8136 128.099C22.3603 127.91 23.0661 128.129 23.9906 128.785L26.2173 130.356H26.2074Z" fill="#85D7FC"/>
<path d="M84.3009 337.888L84.2512 337.331C84.1618 336.457 84.0822 335.562 84.0127 334.657L83.9729 334.17L89.8777 335.125L84.3109 337.888H84.3009ZM84.8179 335.085C84.8676 335.632 84.9173 336.168 84.967 336.705L87.3925 335.502L84.8278 335.085H84.8179Z" fill="#85D7FC"/>
<path d="M91.2594 326.844L83.3267 326.337L83.2969 326.009C82.8595 321.178 82.2133 315.581 80.7123 310.79C79.5592 307.112 77.9985 302.758 76.0799 297.847L75.9407 297.489L98.0091 288.851L100.455 292.121L91.2693 326.844H91.2594ZM84.0225 325.611L90.6729 326.039L99.6096 292.29L97.7407 289.785L76.9348 297.927C78.8037 302.698 80.3147 306.953 81.4479 310.561C82.9291 315.313 83.5951 320.81 84.0325 325.611H84.0225Z" fill="#85D7FC"/>
<path d="M88.9035 335.751L84.0325 334.966L84.0027 334.667C83.9033 333.524 83.8138 332.371 83.7243 331.208C83.5951 329.508 83.446 327.739 83.2969 326.009L83.2571 325.562L91.4682 326.089L88.9134 335.751H88.9035ZM84.7482 334.3L88.3468 334.876L90.484 326.784L84.1021 326.377C84.2413 327.967 84.3705 329.578 84.4898 331.139C84.5693 332.202 84.6588 333.256 84.7383 334.29L84.7482 334.3Z" fill="#85D7FC"/>
<path d="M100.196 293.065L97.2537 289.139L101.687 287.399L100.186 293.065H100.196ZM98.4764 289.487L99.8581 291.336L100.564 288.672L98.4764 289.487Z" fill="#85D7FC"/>
<path d="M58.6638 218.461L46.6852 198.927L65.4732 211.681L58.6538 218.461H58.6638ZM49.2002 201.561L58.8029 217.228L64.2703 211.79L49.2002 201.561Z" fill="#85D7FC"/>
<path d="M71.199 238.908L65.6123 229.793L82.9092 223.5L94.3708 231.274L93.0288 238.113L71.199 238.899V238.908ZM66.7555 230.19L71.6165 238.123L92.3926 237.378L93.5159 231.632L82.7998 224.355L66.7555 230.19Z" fill="#85D7FC"/>
<path d="M66.0298 230.459L58.2661 217.784L64.8469 211.234L83.7044 224.027L66.0398 230.459H66.0298ZM59.2304 217.904L66.3579 229.524L82.0245 223.828L64.9364 212.238L59.2304 217.914V217.904Z" fill="#85D7FC"/>
<path d="M92.2435 238.153L93.6849 230.807L103.884 237.726L92.2435 238.143V238.153ZM94.2117 232.099L93.1878 237.348L101.508 237.05L94.2117 232.099Z" fill="#85D7FC"/>
<path d="M74.6981 294.408L74.3899 293.652C73.4257 291.286 72.5907 289.318 72.0638 288.095L71.9644 287.867L75.7816 283.642L80.1556 284.338L74.6981 294.408ZM72.869 288.016C73.3362 289.119 74.0122 290.71 74.7975 292.608L78.9627 284.914L76.0799 284.457L72.869 288.006V288.016Z" fill="#85D7FC"/>
<path d="M72.3024 288.642L72.0638 288.095C71.537 286.872 71.1891 286.067 71.0897 285.839C70.2447 284.984 69.3997 284.119 68.5051 283.184L67.7098 282.359L76.6863 283.781L72.3024 288.642ZM69.857 283.483C70.4833 284.129 71.0797 284.745 71.6861 285.352L71.7358 285.401L71.7656 285.461C71.7656 285.461 72.0539 286.107 72.541 287.24L75.1753 284.328L69.857 283.483Z" fill="#85D7FC"/>
<path d="M76.2191 298.205L76.0799 297.847C75.553 296.505 74.9864 295.094 74.3999 293.652L74.3303 293.483L79.3603 284.198L96.5677 286.922L98.4863 289.487L76.2191 298.205ZM75.1852 293.533C75.7021 294.795 76.1892 296.028 76.6564 297.211L97.2636 289.149L96.1403 287.648L79.7778 285.053L75.1852 293.533Z" fill="#85D7FC"/>
<path d="M97.7407 289.785L95.4842 286.763L102.592 287.886L97.7407 289.785ZM97.2238 287.817L97.9992 288.861L99.6692 288.204L97.2139 287.817H97.2238Z" fill="#85D7FC"/>
<path d="M64.9265 212.228L46.7648 199.901L78.4459 198.778L64.9364 212.228H64.9265ZM49.1406 200.587L64.837 211.234L76.5174 199.613L49.1406 200.587Z" fill="#85D7FC"/>
<path d="M94.2118 232.099L82.0146 223.828L96.8859 218.421L94.2019 232.109L94.2118 232.099ZM83.6945 224.037L93.685 230.817L95.8819 219.604L83.7045 224.037H83.6945Z" fill="#85D7FC"/>
<path d="M82.7999 224.355L64.2803 211.79L77.3126 198.818L79.3902 198.748L97.0449 219.176L82.8098 224.355H82.7999ZM65.4831 211.681L82.9092 223.5L95.7327 218.838L79.0522 199.533L77.6506 199.583L65.4931 211.681H65.4831Z" fill="#85D7FC"/>
<path d="M96.6672 219.912L78.4061 198.778L99.2915 198.042L96.6672 219.912ZM80.0363 199.494L96.1105 218.103L98.4167 198.847L80.0363 199.494Z" fill="#85D7FC"/>
<path d="M102.741 237.884L93.516 231.632L96.1204 218.331L111.041 229.604L102.731 237.884H102.741ZM94.3709 231.274L102.651 236.89L109.888 229.683L96.6473 219.683L94.3808 231.274H94.3709Z" fill="#85D7FC"/>
<path d="M110.505 230.151L95.5041 218.818L129.959 210.776L110.505 230.161V230.151ZM97.2735 219.186L110.435 229.127L127.503 212.128L97.2735 219.186Z" fill="#85D7FC"/>
<path d="M95.9415 219.504L98.5162 198.072L99.5003 198.032L99.6097 198.112C102.204 200.01 103.785 201.511 104.431 202.694C106.171 203.042 119.978 205.826 131.122 208.808L131.768 208.977L128.935 211.8L128.825 211.83L95.9515 219.504H95.9415ZM99.2021 198.818L96.8362 218.51L128.537 211.104L130.267 209.375C118.557 206.283 104.242 203.44 104.093 203.41L103.904 203.37L103.825 203.201C103.318 202.138 101.777 200.667 99.2617 198.808H99.2021V198.818Z" fill="#85D7FC"/>
<path d="M79.4399 366.597L79.082 366.547C76.7161 366.219 75.0163 365.921 74.9964 365.921H74.9268L74.8671 365.871C71.368 363.694 69.3998 361.865 68.8431 360.285L68.6443 359.718L80.5731 360.792L79.4598 366.597H79.4399ZM75.1952 365.175C75.5232 365.235 76.9249 365.474 78.8235 365.732L79.6486 361.478L69.8272 360.593C70.5728 361.865 72.382 363.406 75.2051 365.166L75.1952 365.175Z" fill="#85D7FC"/>
<path d="M89.4899 367.432C86.1697 367.432 81.9946 366.955 79.072 366.547L78.6744 366.488L79.7878 360.722L93.4364 361.955L99.2815 365.603L98.536 365.871C97.0647 366.408 95.514 366.686 94.0229 366.965C93.6451 367.034 93.2773 367.104 92.8996 367.174C92.0248 367.343 90.8816 367.432 89.4899 367.432ZM79.579 365.842C82.4519 366.229 86.3685 366.667 89.4899 366.667C90.8319 366.667 91.9353 366.587 92.7505 366.428C93.1282 366.358 93.506 366.289 93.8738 366.219C95.1362 365.991 96.3291 365.762 97.5021 365.414L93.1779 362.71L80.4041 361.557L79.579 365.842Z" fill="#85D7FC"/>
<path d="M103.954 356.428L90.5834 348.883L89.3607 341.815L108.725 334.966L108.646 335.582C108.477 336.884 108.487 338.644 108.497 340.681C108.507 344.628 108.526 349.539 107.324 354.28L107.284 354.429L103.954 356.418V356.428ZM91.2793 348.395L103.944 355.543L106.618 353.942C107.761 349.34 107.741 344.548 107.721 340.691C107.721 338.922 107.711 337.361 107.821 336.099L90.2256 342.322L91.2793 348.395Z" fill="#85D7FC"/>
<path d="M89.49 342.58L88.1678 334.996L108.636 331.646L108.676 332.053C108.805 333.445 108.884 334.28 108.884 334.28V334.359L108.864 334.429C108.765 334.737 108.695 335.115 108.636 335.572L108.606 335.811L89.48 342.57L89.49 342.58ZM89.0625 335.632L90.0963 341.556L107.92 335.254C107.98 334.886 108.039 334.578 108.119 334.3C108.099 334.091 108.039 333.475 107.95 332.55L89.0625 335.642V335.632Z" fill="#85D7FC"/>
<path d="M93.0288 362.949L90.4144 347.908L104.709 355.98L93.0288 362.949ZM91.4483 349.37L93.5955 361.716L103.178 355.99L91.4483 349.37Z" fill="#85D7FC"/>
<path d="M152.097 241.98L136.688 231.94L140.337 211.572L140.764 211.731C143.428 212.695 145.068 213.53 145.774 214.265C146.391 214.265 148.568 214.236 151.739 214.216H151.987L154.999 220.588V220.697L152.097 241.97V241.98ZM137.533 231.582L151.5 240.678L154.204 220.717L151.5 214.991C147.862 215.011 145.605 215.041 145.605 215.041H145.416L145.297 214.892C144.959 214.464 143.925 213.729 140.933 212.615L137.533 231.582Z" fill="#85D7FC"/>
<path d="M164.503 250.052L151.391 241.513L154.403 219.315L167.922 247.915L164.513 250.052H164.503ZM152.216 241.135L164.513 249.137L166.928 247.626L154.81 221.979L152.216 241.135Z" fill="#85D7FC"/>
<path d="M170.885 254.207L163.797 249.585L167.584 247.209L170.885 254.197V254.207ZM165.218 249.605L169.036 252.09L167.256 248.332L165.218 249.605Z" fill="#85D7FC"/>
<path d="M130.495 244.296L100.723 237.318L117.602 234.554L130.485 244.286L130.495 244.296ZM104.669 237.457L127.135 242.726L117.413 235.38L104.669 237.467V237.457Z" fill="#85D7FC"/>
<path d="M151.132 249.128L128.656 243.859L116.568 234.724L137.195 231.354L152.216 241.135L151.132 249.128ZM128.984 243.153L150.486 248.193L151.391 241.523L137.026 232.169L118.457 235.211L128.984 243.163V243.153Z" fill="#85D7FC"/>
<path d="M161.928 251.662L150.377 248.959L151.5 240.678L165.218 249.605L161.938 251.662H161.928ZM151.232 248.372L161.799 250.847L163.797 249.595L152.107 241.98L151.242 248.362L151.232 248.372Z" fill="#85D7FC"/>
<path d="M171.998 254.018L160.874 251.414L164.503 249.137L171.998 254.018ZM162.842 251.086L167.902 252.269L164.493 250.052L162.842 251.086Z" fill="#85D7FC"/>
<path d="M129.382 286.018L129.501 283.91L130.853 285.789L129.382 286.018Z" fill="#85D7FC"/>
<path d="M106.777 292.111L100.355 288.006L114.938 280.61L130.217 284.725L130.157 285.898L129.849 285.948C123.686 286.892 117.205 288.234 110.564 289.914C109.093 290.292 107.89 290.948 107.006 291.883L106.787 292.111H106.777ZM101.906 288.085L106.668 291.127C107.632 290.203 108.874 289.546 110.375 289.169C116.867 287.528 123.219 286.206 129.263 285.262L115.028 281.425L101.906 288.075V288.085Z" fill="#85D7FC"/>
<path d="M129.998 285.928L129.342 285.014L143.627 266.067L149.422 263.124L147.613 284.218H147.275C141.897 284.427 136.172 284.994 130.227 285.888L129.998 285.928ZM130.297 285.024L130.346 285.093C136.102 284.228 141.669 283.682 146.907 283.473L148.548 264.426L144.134 266.663L130.297 285.014V285.024Z" fill="#85D7FC"/>
<path d="M129.969 285.451L113.914 281.127L145.188 265.271L129.969 285.451ZM116.052 280.908L129.67 284.576L142.583 267.458L116.052 280.908Z" fill="#85D7FC"/>
<path d="M168.33 264.595L154.134 260.738L170.477 252.458L168.34 264.595H168.33ZM156.262 260.52L167.723 263.631L169.453 253.829L156.262 260.52Z" fill="#85D7FC"/>
<path d="M164.741 284.924L164.373 284.874C159.105 284.218 153.339 284 147.275 284.218L146.838 284.238L148.617 263.522L155.139 260.211L168.449 263.83L164.731 284.914L164.741 284.924ZM151.858 283.373C156.133 283.373 160.258 283.612 164.105 284.069L167.574 264.387L155.228 261.037L149.343 264.019L147.673 283.443C149.085 283.393 150.486 283.373 151.848 283.373H151.858Z" fill="#85D7FC"/>
<path d="M100.733 288.672L101.101 276.872L116.061 280.898L100.743 288.662L100.733 288.672ZM101.836 277.866L101.538 287.399L113.914 281.127L101.826 277.866H101.836Z" fill="#85D7FC"/>
<path d="M142.583 267.458L149.9 257.756L149.363 264.019L142.593 267.458H142.583ZM148.906 260.351L145.198 265.271L148.637 263.532L148.916 260.351H148.906Z" fill="#85D7FC"/>
<path d="M101.3 270.102L102.323 236.91L128.974 243.153L129.044 243.203L150.287 259.257L101.3 270.112V270.102ZM103.059 237.865L102.095 269.138L148.498 258.859L128.646 243.859L103.069 237.865H103.059Z" fill="#85D7FC"/>
<path d="M115.028 281.425L101.071 277.667L101.329 269.317L150.327 258.462L144.134 266.673L115.018 281.435L115.028 281.425ZM101.856 277.081L114.938 280.61L143.627 266.067L148.458 259.665L102.075 269.943L101.856 277.091V277.081Z" fill="#85D7FC"/>
<path d="M149.691 259.754L127.135 242.716L151.232 248.362L149.691 259.754ZM130.495 244.286L149.104 258.343L150.377 248.939L130.495 244.276V244.286Z" fill="#85D7FC"/>
<path d="M148.906 259.814L150.486 248.183L162.852 251.076L148.906 259.804V259.814ZM151.132 249.127L149.89 258.293L160.884 251.414L151.132 249.127Z" fill="#85D7FC"/>
<path d="M155.238 261.037L148.448 259.198L161.799 250.837L171.073 253.014L155.238 261.037ZM150.347 258.909L155.158 260.211L168.847 253.273L161.938 251.653L150.347 258.909Z" fill="#85D7FC"/>
<path d="M148.548 264.436L149.055 258.571L156.262 260.53L148.558 264.436H148.548ZM149.741 259.555L149.432 263.134L154.134 260.748L149.741 259.555Z" fill="#85D7FC"/>
<path d="M106.21 357.7L103.178 355.99L107.552 353.386L107.324 354.28C107.085 355.235 106.797 356.149 106.489 356.994C106.469 357.054 106.439 357.114 106.419 357.173L106.22 357.7H106.21ZM104.709 355.97L105.813 356.597C106.001 356.09 106.17 355.553 106.329 355.006L104.709 355.97Z" fill="#85D7FC"/>
<path d="M91.7564 362.81L103.944 355.533L106.498 356.974L106.379 357.283C105.663 359.141 104.858 360.652 103.904 361.915L103.795 362.054L91.7664 362.8L91.7564 362.81ZM103.954 356.428L94.8679 361.845L103.387 361.318C104.202 360.215 104.908 358.903 105.534 357.322L103.954 356.428Z" fill="#85D7FC"/>
<path d="M98.367 365.941L92.0944 362.024L104.401 361.259L103.894 361.925C102.463 363.814 100.763 365.066 98.536 365.871L98.357 365.931L98.367 365.941ZM94.5398 362.641L98.4564 365.086C100.176 364.43 101.558 363.486 102.741 362.124L94.5299 362.631L94.5398 362.641Z" fill="#85D7FC"/>
<path d="M199.911 228.759L195.15 226.175L197.724 223.471L199.911 228.759ZM196.392 225.976L198.371 227.049L197.466 224.852L196.392 225.976Z" fill="#85D7FC"/>
<path d="M184.056 237.805L195.697 225.598L199.911 227.884L184.056 237.815V237.805ZM195.846 226.552L188.828 233.908L198.381 227.924L195.846 226.552Z" fill="#85D7FC"/>
<path d="M168.936 253.651L186.233 235.529L199.375 227.298L205.329 249.287L168.936 253.651ZM186.68 236.155L170.964 252.637L204.345 248.631L198.897 228.501L186.67 236.155H186.68Z" fill="#85D7FC"/>
<path d="M199.037 228.64L197.148 224.077L205.061 215.776L205.27 215.826C206.234 216.035 207.248 216.283 208.291 216.581L208.858 216.74L199.047 228.64H199.037ZM198.053 224.246L199.265 227.168L207.516 217.168C206.761 216.969 206.025 216.79 205.329 216.631L198.062 224.256L198.053 224.246Z" fill="#85D7FC"/>
<path d="M204.564 249.386L198.56 227.208L237.12 245.489L204.574 249.396L204.564 249.386ZM199.733 228.61L205.13 248.541L234.376 245.032L199.733 228.61Z" fill="#85D7FC"/>
<path d="M198.281 228.342L208.033 216.512L208.272 216.582C215.996 218.749 224.326 222.725 229.535 225.727L230.648 226.363L198.281 228.342ZM208.311 217.387L200.001 227.467L228.034 225.747C222.894 222.894 215.369 219.395 208.311 217.387Z" fill="#85D7FC"/>
<path d="M235.678 245.648L197.625 227.606L229.445 225.657L229.545 225.717C231.791 227.009 233.581 228.192 234.585 229.047L234.614 229.077C234.614 229.077 238.969 233.739 243.064 238.521L243.124 238.62L245.569 244.455L235.658 245.638L235.678 245.648ZM200.657 228.192L235.807 244.853L244.486 243.809L242.458 238.978C238.511 234.366 234.366 229.922 234.078 229.624C233.123 228.809 231.414 227.685 229.266 226.443L200.657 228.192Z" fill="#85D7FC"/>
<path d="M209.961 266.404L168.171 252.974L205.13 248.541L209.961 266.404ZM171.749 253.322L208.858 265.241L204.564 249.386L171.749 253.322Z" fill="#85D7FC"/>
<path d="M230.678 273.055L209.087 266.116L204.355 248.63L235.807 244.863L247.557 250.43L247.607 250.589L253.73 268.76L230.678 273.065V273.055ZM209.723 265.52L230.728 272.269L252.717 268.164L246.931 250.986L235.678 245.648L205.329 249.287L209.723 265.51V265.52Z" fill="#85D7FC"/>
<path d="M258.154 281.882L254.257 280.63L257.011 278.483L258.164 281.882H258.154ZM255.868 280.341L256.941 280.679L256.623 279.745L255.868 280.332V280.341Z" fill="#85D7FC"/>
<path d="M255.142 280.918L229.137 272.568L253.482 268.025L257.269 279.258L255.142 280.918ZM232.268 272.766L254.993 280.063L256.375 278.979L252.975 268.899L232.268 272.766Z" fill="#85D7FC"/>
<path d="M247.895 251.444L234.376 245.032L245.301 243.72L247.905 251.444H247.895ZM237.11 245.479L246.593 249.972L244.764 244.555L237.1 245.469L237.11 245.479Z" fill="#85D7FC"/>
<path d="M154.81 221.989L151.142 214.226H151.749C152.862 214.216 154.095 214.206 155.427 214.206H155.864L154.81 221.999V221.989ZM152.345 214.981L154.393 219.315L154.979 214.971C154.045 214.971 153.16 214.971 152.345 214.981Z" fill="#85D7FC"/>
<path d="M195.846 226.552L173.091 214.216H174.632C182.465 214.305 188.927 214.454 193.828 214.673H194.076L198.043 224.246L195.846 226.552ZM176.173 215.011L195.697 225.598L197.148 224.077L193.559 215.428C189.016 215.23 183.181 215.081 176.173 215.011Z" fill="#85D7FC"/>
<path d="M167.256 248.322L154.214 220.707L155.099 214.196H155.437C157.574 214.186 159.97 214.176 162.514 214.176C166.809 214.176 170.885 214.196 174.652 214.226H174.742L196.402 225.976L186.65 236.185L167.256 248.332V248.322ZM154.999 220.588L167.584 247.219L186.203 235.559L195.15 226.174L174.533 215.001C170.805 214.961 166.749 214.951 162.504 214.951C160.089 214.951 157.812 214.951 155.765 214.971L154.999 220.598V220.588Z" fill="#85D7FC"/>
<path d="M169.851 253.82L166.928 247.627L188.838 233.908L169.851 253.82ZM167.912 247.915L170.069 252.478L184.056 237.805L167.912 247.915Z" fill="#85D7FC"/>
<path d="M197.466 224.852L193.231 214.643L193.838 214.673C197.953 214.862 201.005 215.1 202.904 215.389C203.629 215.498 204.425 215.647 205.26 215.826L205.926 215.975L197.456 224.862L197.466 224.852ZM194.404 215.468L197.725 223.471L204.434 216.433C203.858 216.313 203.311 216.224 202.794 216.144C201.005 215.876 198.192 215.647 194.404 215.468Z" fill="#85D7FC"/>
<path d="M224.892 368.734L216.572 364.778V364.539C216.572 364.301 216.572 364.062 216.602 363.824C217.089 359.967 220.121 358.535 223.034 357.65L223.471 357.521L224.892 368.744V368.734ZM217.338 364.291L223.958 367.442L222.825 358.515C220.181 359.37 217.775 360.672 217.367 363.913C217.347 364.042 217.338 364.162 217.338 364.291Z" fill="#85D7FC"/>
<path d="M223.222 369.052H223.123C218.829 368.605 216.632 367.094 216.572 364.539V363.923L225.34 368.098L223.222 369.052ZM217.417 365.176C217.815 366.885 219.674 367.909 223.093 368.267L223.511 368.078L217.417 365.176Z" fill="#85D7FC"/>
<path d="M225.409 369.182L224.753 369.152C224.177 369.132 223.62 369.092 223.113 369.042L221.692 368.893L224.594 367.581L225.399 369.182H225.409Z" fill="#85D7FC"/>
<path d="M224.137 368.814L222.725 357.73L223.034 357.64C223.759 357.422 224.505 357.223 225.23 357.034C227.368 356.467 229.396 355.941 230.688 354.857L231.056 354.549L234.177 360.692L224.127 368.814H224.137ZM223.57 358.277L224.723 367.343L233.213 360.473L230.797 355.732C229.396 356.726 227.457 357.233 225.419 357.77C224.803 357.929 224.177 358.098 223.56 358.277H223.57Z" fill="#85D7FC"/>
<path d="M233.471 368.784H233.451L223.391 368.436L233.829 359.996L238.124 368.436L237.527 368.466C236.613 368.516 235.489 368.615 234.187 368.724L233.471 368.784ZM225.469 367.74L233.451 368.019L234.117 367.959C235.161 367.869 236.086 367.78 236.901 367.73L233.571 361.189L225.469 367.74Z" fill="#85D7FC"/>
<path d="M226.274 369.181C225.747 369.181 225.23 369.172 224.753 369.152H224.525L223.779 367.68L233.461 368.018L233.481 368.784C231.274 368.973 228.72 369.181 226.264 369.181H226.274Z" fill="#85D7FC"/>
<path d="M233.571 361.189L230.449 355.056L230.688 354.857C231.175 354.449 231.523 354.002 231.752 353.485C233.551 349.439 233.471 348.833 232.865 344.071C232.775 343.366 232.676 342.56 232.567 341.656C232.567 341.656 232.477 340.9 232.229 339.747L232.129 339.29L245.37 339.071V339.459C245.36 342.719 245.321 347.481 245.181 351.626V351.805L233.571 361.189ZM231.414 355.245L233.829 359.996L244.426 351.427C244.545 347.501 244.595 343.047 244.605 339.847L233.074 340.035C233.253 340.96 233.322 341.527 233.322 341.556C233.432 342.461 233.531 343.256 233.62 343.972C234.237 348.813 234.336 349.559 232.447 353.793C232.209 354.33 231.861 354.807 231.404 355.235L231.414 355.245Z" fill="#85D7FC"/>
<path d="M254.734 344.081L254.565 343.554C254.088 342.123 253.343 340.791 252.349 339.588L251.842 338.972L261.266 338.823L254.754 344.091L254.734 344.081ZM253.412 339.707C254.118 340.672 254.685 341.705 255.102 342.789L259.029 339.618L253.412 339.707Z" fill="#85D7FC"/>
<path d="M237.279 368.466L233.223 360.483L245.221 350.791L245.191 351.626C245.042 356.199 244.824 359.122 244.525 360.314C244.356 361.01 244.207 361.726 244.078 362.412C243.442 365.643 242.855 368.694 238.949 368.446C238.581 368.426 238.094 368.436 237.537 368.456H237.289L237.279 368.466ZM238.452 367.671C238.65 367.671 238.829 367.671 238.988 367.69C242.05 367.889 242.627 365.792 243.313 362.273C243.452 361.577 243.591 360.851 243.77 360.136C244.038 359.072 244.247 356.487 244.386 352.451L234.177 360.702L237.726 367.69C237.984 367.681 238.223 367.671 238.442 367.671H238.452Z" fill="#85D7FC"/>
<path d="M259.108 369.679H259.079L244.943 369.182L244.843 368.963C243.641 366.189 243.253 362.263 246.156 360.324C249.545 358.068 253.621 353.495 255.092 348.386C255.122 348.167 255.401 346.099 254.546 343.554L254.466 343.306L259.993 338.843L261.584 338.813L266.494 365.623L266.385 365.762C264.198 368.496 262.637 369.341 259.128 369.689H259.108V369.679ZM245.46 368.436L259.079 368.913C262.299 368.595 263.691 367.869 265.679 365.414L260.947 339.588H260.281L255.371 343.564C256.226 346.318 255.878 348.445 255.858 348.535V348.575C254.327 353.883 250.102 358.625 246.593 360.961C243.561 362.979 245.012 367.303 245.46 368.436Z" fill="#85D7FC"/>
<path d="M248.114 370.166C246.007 370.166 245.46 369.997 245.231 369.688C245.132 369.559 244.993 369.291 244.853 368.963L244.615 368.406L259.108 368.913L259.128 369.679C258.452 369.748 257.647 369.798 256.613 369.848L254.943 369.927C252.18 370.056 249.794 370.176 248.104 370.176L248.114 370.166ZM245.838 369.211C245.838 369.211 246.245 369.4 248.104 369.4C248.681 369.4 249.337 369.39 250.072 369.36L245.838 369.211Z" fill="#85D7FC"/>
<path d="M265.868 366.408L260.808 338.813L270.5 338.654L270.52 339.031C270.54 339.409 270.55 339.797 270.57 340.195C270.988 351.994 270.988 359.509 267.558 364.231C267.121 364.828 266.743 365.335 266.405 365.752L265.878 366.408H265.868ZM261.733 339.568L266.315 364.599C266.504 364.35 266.703 364.072 266.932 363.774C270.222 359.251 270.212 351.855 269.795 340.214C269.795 339.946 269.775 339.688 269.765 339.429L261.733 339.558V339.568Z" fill="#85D7FC"/>
<path d="M212.735 276.663L167.574 264.396L169.642 252.646L209.713 265.52L212.735 276.663ZM168.459 263.84L211.651 275.57L209.097 266.126L170.258 253.65L168.459 263.84Z" fill="#85D7FC"/>
<path d="M182.992 289.815L182.833 289.745C177.604 287.389 171.401 285.759 164.383 284.884L163.986 284.835L167.723 263.641L213.331 276.027L182.992 289.825V289.815ZM164.88 284.169C171.739 285.053 177.833 286.674 182.992 288.97L211.075 276.206L168.34 264.595L164.88 284.169Z" fill="#85D7FC"/>
<path d="M200.528 306.068L200.349 305.829C197.705 302.35 194.583 298.712 190.816 294.706C190.796 294.686 188.39 292.25 182.833 289.755L182.058 289.407L212.506 275.56L215.936 299.487L200.528 306.068ZM183.907 289.397C189.066 291.833 191.273 294.069 191.362 294.169C195.07 298.105 198.152 301.694 200.766 305.124L215.081 299.01L211.88 276.673L183.907 289.397Z" fill="#85D7FC"/>
<path d="M211.92 276.554L208.858 265.231L232.268 272.757L211.92 276.554ZM209.961 266.395L212.467 275.669L229.137 272.558L209.961 266.395Z" fill="#85D7FC"/>
<path d="M247.299 286.087L254.993 280.063L258.651 281.236L247.309 286.087H247.299ZM255.142 280.918L252.388 283.075L256.454 281.335L255.142 280.918Z" fill="#85D7FC"/>
<path d="M215.2 299.795L211.761 275.799L230.728 272.26L255.868 280.341L249.993 284.924L245.867 286.684L245.698 286.584C241.881 284.248 236.334 281.137 232.199 281.137C231.125 281.137 230.181 281.355 229.406 281.773C229.406 282.906 229.505 288.195 230.241 293.046L230.28 293.344L215.19 299.795H215.2ZM212.626 276.425L215.817 298.702L229.445 292.877C228.65 287.449 228.64 281.614 228.64 281.554V281.336L228.819 281.226C229.754 280.66 230.887 280.371 232.199 280.371C236.463 280.371 242.04 283.453 245.937 285.829L249.655 284.238L254.267 280.63L230.688 273.055L212.636 276.425H212.626Z" fill="#85D7FC"/>
<path d="M218.689 319.796L217.984 319.319C217.019 318.653 216.065 318.126 215.16 317.748L215.091 317.708C213.749 316.754 212.268 315.85 210.687 315.024L210.13 314.736L217.397 309.547L218.699 319.796H218.689ZM215.498 317.052C216.214 317.361 216.96 317.748 217.715 318.215L216.791 310.909L211.592 314.627C212.983 315.372 214.296 316.188 215.498 317.042V317.052Z" fill="#85D7FC"/>
<path d="M210.886 315.134L210.677 315.025C207.655 313.464 205.279 312.728 205.26 312.718L205.13 312.679L205.051 312.569C204.892 312.331 204.723 312.072 204.544 311.804C204.156 311.207 203.699 310.522 203.172 309.756L202.735 309.12L218.202 309.915L210.886 315.144V315.134ZM205.617 312.032C206.154 312.201 208.212 312.907 210.826 314.239L215.976 310.561L204.246 309.955C204.594 310.472 204.902 310.949 205.19 311.376C205.339 311.605 205.488 311.824 205.627 312.032H205.617Z" fill="#85D7FC"/>
<path d="M217.526 310.641L203.271 309.905L203.162 309.746C202.247 308.414 201.333 307.132 200.339 305.829L200.041 305.432L215.807 298.692L217.516 310.631L217.526 310.641ZM203.689 309.159L216.632 309.825L215.19 299.795L201.243 305.75C202.088 306.883 202.894 307.996 203.679 309.15L203.689 309.159Z" fill="#85D7FC"/>
<path d="M228.839 330.88L228.501 330.373C227.805 329.349 227.05 328.474 226.254 327.759L226.195 327.689C226.155 327.639 222.566 322.44 217.984 319.319L217.845 319.22L216.612 309.468L234.654 321.009L228.859 330.87L228.839 330.88ZM226.791 327.222C227.487 327.858 228.163 328.604 228.779 329.459L233.591 321.267L217.556 311.009L218.54 318.792C223.014 321.894 226.423 326.715 226.781 327.232L226.791 327.222Z" fill="#85D7FC"/>
<path d="M252.369 290.849L252.031 290.64C251.384 290.232 250.659 289.765 249.893 289.258C248.919 288.632 247.826 287.916 246.692 287.21L246.235 286.922L249.695 284.228L258.472 280.481L252.379 290.859L252.369 290.849ZM247.567 286.853C248.541 287.469 249.476 288.075 250.311 288.622C250.947 289.04 251.553 289.427 252.11 289.785L256.623 282.111L250.042 284.924L247.567 286.863V286.853Z" fill="#85D7FC"/>
<path d="M234.247 321.675L216.413 310.263L231.483 298.463L231.672 298.941C231.95 299.636 232.249 300.213 232.547 300.65C233.939 302.648 237.179 305.829 241.215 309.16L241.474 309.368L234.237 321.665L234.247 321.675ZM217.745 310.203L233.988 320.601L240.48 309.547C236.513 306.257 233.322 303.106 231.921 301.098C231.652 300.71 231.394 300.253 231.155 299.696L217.745 310.203Z" fill="#85D7FC"/>
<path d="M216.801 310.939L215.091 299.01L230.171 292.568L230.241 293.056C230.608 295.501 231.095 297.479 231.672 298.94L231.781 299.209L216.801 310.949V310.939ZM215.936 299.477L217.377 309.507L230.867 298.94C230.35 297.559 229.913 295.779 229.565 293.642L215.936 299.467V299.477Z" fill="#85D7FC"/>
<path d="M246.931 287.35L246.702 287.21C246.374 287.002 246.046 286.803 245.708 286.594L245.072 286.206L252.388 283.075L246.931 287.35ZM246.732 286.326C246.732 286.326 246.832 286.385 246.871 286.415L247.299 286.087L246.732 286.326Z" fill="#85D7FC"/>
<path d="M244.843 244.684L241.474 236.662L243.074 238.531C244.525 240.221 245.778 241.751 246.822 243.074L247.1 243.431L244.843 244.694V244.684ZM244.108 240.946L245.221 243.59L245.937 243.193C245.38 242.497 244.774 241.741 244.108 240.946Z" fill="#85D7FC"/>
<path d="M261.395 339.041L233.601 321.257L240.877 308.871L241.225 309.159C247.339 314.199 253.661 318.295 258.562 320.393C261.007 321.436 262.816 322.381 264.248 323.365L264.457 323.504L261.385 339.031L261.395 339.041ZM234.644 321.009L260.858 337.789L263.612 323.872C262.25 322.967 260.54 322.082 258.263 321.108C253.383 319.021 247.14 314.995 241.086 310.044L234.634 321.019L234.644 321.009Z" fill="#85D7FC"/>
<path d="M269.089 299.795L267.886 299.169C264.983 297.658 262.439 296.207 260.391 295.044C257.846 293.602 256.007 292.549 255.092 292.28C254.506 292.111 253.621 291.634 252.041 290.63L251.722 290.431L257.548 280.53L269.099 299.795H269.089ZM252.756 290.183C253.691 290.759 254.734 291.376 255.301 291.545C256.305 291.843 258.174 292.906 260.768 294.378C262.518 295.372 264.635 296.575 267.021 297.847L257.548 282.041L252.756 290.193V290.183Z" fill="#85D7FC"/>
<path d="M260.639 338.902L263.781 323.047L264.258 323.375C268.304 326.148 269.854 329.488 270.371 336.606L270.391 336.944L260.629 338.902H260.639ZM264.307 324.349L261.623 337.928L269.586 336.328C269.079 329.926 267.757 326.884 264.307 324.349Z" fill="#85D7FC"/>
<path d="M232.288 340.055L232.219 339.747C231.781 337.65 230.708 333.644 228.491 330.383L228.352 330.184L233.978 320.611L261.763 338.395L260.262 339.608L252.438 339.737L252.319 339.598C250.659 337.59 248.313 335.97 245.35 334.767C245.35 335.612 245.35 337.322 245.35 339.479V339.857L232.278 340.075L232.288 340.055ZM229.266 330.144C231.364 333.316 232.428 337.103 232.905 339.27L244.595 339.081C244.595 336.218 244.595 334.21 244.595 334.19V333.634L245.112 333.832C248.382 335.075 250.967 336.795 252.806 338.952L260.003 338.833L260.47 338.455L234.257 321.675L229.276 330.144H229.266Z" fill="#85D7FC"/>
<path d="M259.029 339.618L261.385 337.709L261.723 339.568L259.029 339.618Z" fill="#85D7FC"/>
<path d="M260.947 339.578L260.679 338.107L270.341 336.168L270.371 336.606C270.431 337.361 270.471 338.157 270.51 339.031L270.53 339.429L260.947 339.588V339.578ZM261.564 338.713L261.584 338.803L269.725 338.674C269.695 338.117 269.665 337.6 269.636 337.103L261.574 338.723L261.564 338.713Z" fill="#85D7FC"/>
<path d="M310.393 309.12L304.14 301.127L313.017 304.984L312.977 305.312C312.977 305.312 312.977 305.372 312.967 305.402C312.729 306.992 311.983 308.156 310.681 308.941L310.393 309.12ZM306.605 303.036L310.562 308.106C311.446 307.48 311.963 306.625 312.172 305.462L306.605 303.036Z" fill="#85D7FC"/>
<path d="M269.158 299.825L268.701 299.597C268.423 299.457 268.154 299.318 267.886 299.169L267.787 299.119L267.727 299.03L256.593 280.461L271.683 287.022L269.149 299.825H269.158ZM268.343 298.543C268.433 298.593 268.522 298.632 268.612 298.682L270.829 287.479L258.502 282.121L268.343 298.543Z" fill="#85D7FC"/>
<path d="M304.726 310.174C301.217 310.174 296.386 309.428 290.382 307.967C283.513 306.287 276.425 303.553 268.701 299.587L268.443 299.457L270.968 286.703L305.621 301.764L311.059 308.722L310.691 308.951C309.329 309.776 307.371 310.183 304.726 310.183V310.174ZM269.318 299.04C276.882 302.907 283.841 305.581 290.571 307.221C296.515 308.672 301.277 309.408 304.736 309.408C306.963 309.408 308.703 309.1 309.915 308.503L305.144 302.4L271.544 287.797L269.318 299.05V299.04Z" fill="#85D7FC"/>
<path d="M312.917 305.78L305.134 302.39L290.064 283.105L299.259 283.731L299.338 283.781C310.77 290.779 313.474 301.276 312.987 305.263L312.927 305.77L312.917 305.78ZM305.611 301.764L312.251 304.646C312.401 300.601 309.468 290.918 299 284.477L291.714 283.98L305.611 301.754V301.764Z" fill="#85D7FC"/>
<path d="M271.534 287.787L255.351 280.749L272.687 281.922L271.524 287.777L271.534 287.787ZM259.735 281.823L270.968 286.704L271.773 282.638L259.735 281.823Z" fill="#85D7FC"/>
<path d="M306.615 303.036L270.819 287.469L271.922 281.872L291.088 283.175L291.187 283.314L306.605 303.036H306.615ZM271.693 287.012L304.14 301.118L290.69 283.91L272.538 282.678L271.683 287.002L271.693 287.012Z" fill="#85D7FC"/>
<path d="M300.671 284.596L290.7 283.92L285.123 276.783L286.644 277.538C289.497 278.96 292.3 280.292 294.974 281.485C296.485 282.161 297.957 282.926 299.338 283.781L300.671 284.596ZM291.098 283.175L297.529 283.612C296.595 283.095 295.641 282.618 294.666 282.19C292.459 281.206 290.163 280.133 287.817 278.98L291.098 283.175Z" fill="#85D7FC"/>
<path d="M261.266 267.349L262.608 262.796L263.065 263.243C263.989 264.148 264.944 265.033 265.888 265.858L266.474 266.375L261.256 267.349H261.266ZM262.985 264.227L262.349 266.365L264.785 265.907C264.178 265.361 263.572 264.804 262.975 264.227H262.985Z" fill="#85D7FC"/>
<path d="M272.548 282.687L257.051 281.634L258.273 277.488L258.373 277.409L269.904 268.373L270.133 268.502C271.574 269.357 273.075 270.222 274.576 271.086L274.815 271.226L272.548 282.677V282.687ZM258.055 280.938L271.922 281.882L273.95 271.633C272.598 270.868 271.256 270.082 269.954 269.317L258.929 277.946L258.045 280.938H258.055Z" fill="#85D7FC"/>
<path d="M257.896 278.761L261.514 266.524L265.759 265.729L266.216 266.126C266.425 266.256 267.846 267.16 270.133 268.512L270.62 268.8L257.906 278.761H257.896ZM262.12 267.19L259.317 276.673L269.258 268.89C267.081 267.588 265.789 266.772 265.779 266.762L265.729 266.733L265.53 266.554L262.12 267.19Z" fill="#85D7FC"/>
<path d="M291.724 283.99L271.773 282.638L274.109 270.838L274.566 271.096C278.622 273.403 282.688 275.57 286.634 277.538L286.714 277.578L291.724 283.99ZM272.697 281.932L290.064 283.115L286.217 278.194C282.429 276.305 278.543 274.228 274.656 272.031L272.697 281.932Z" fill="#85D7FC"/>
<path d="M40.5121 156.719C40.5121 158.916 38.7327 160.685 36.5457 160.685C34.3588 160.685 32.5794 158.906 32.5794 156.719C32.5794 154.532 34.3588 152.752 36.5457 152.752C38.7327 152.752 40.5121 154.532 40.5121 156.719Z" fill="#85D7FC"/>
<path d="M42.9972 173.777C42.9972 175.974 41.2178 177.743 39.0308 177.743C36.8439 177.743 35.0645 175.964 35.0645 173.777C35.0645 171.59 36.8439 169.811 39.0308 169.811C41.2178 169.811 42.9972 171.59 42.9972 173.777Z" fill="#85D7FC"/>
<path d="M20.6703 163.021C20.6703 165.218 18.8909 166.987 16.704 166.987C14.517 166.987 12.7376 165.208 12.7376 163.021C12.7376 160.834 14.517 159.055 16.704 159.055C18.8909 159.055 20.6703 160.834 20.6703 163.021Z" fill="#85D7FC"/>
<path d="M82.611 198.291C82.611 200.488 80.8316 202.257 78.6447 202.257C76.4577 202.257 74.6783 200.478 74.6783 198.291C74.6783 196.104 76.4577 194.324 78.6447 194.324C80.8316 194.324 82.611 196.104 82.611 198.291Z" fill="#85D7FC"/>
<path d="M99.8482 219.594C99.8482 221.781 98.0688 223.56 95.8818 223.56C93.6949 223.56 91.9155 221.781 91.9155 219.594C91.9155 217.407 93.6949 215.628 95.8818 215.628C98.0688 215.628 99.8482 217.407 99.8482 219.594Z" fill="#85D7FC"/>
<path d="M75.0262 239.107C75.0262 241.304 73.2468 243.074 71.0598 243.074C68.8729 243.074 67.0935 241.294 67.0935 239.107C67.0935 236.92 68.8729 235.141 71.0598 235.141C73.2468 235.141 75.0262 236.92 75.0262 239.107Z" fill="#85D7FC"/>
<path d="M202.377 226.592C202.377 228.789 200.597 230.558 198.41 230.558C196.223 230.558 194.444 228.779 194.444 226.592C194.444 224.405 196.223 222.626 198.41 222.626C200.597 222.626 202.377 224.405 202.377 226.592Z" fill="#85D7FC"/>
<path d="M107.373 236.871C107.373 239.058 105.594 240.837 103.407 240.837C101.22 240.837 99.4406 239.058 99.4406 236.871C99.4406 234.684 101.22 232.904 103.407 232.904C105.594 232.904 107.373 234.684 107.373 236.871Z" fill="#85D7FC"/>
<path d="M152.176 261.335C152.176 263.522 150.397 265.301 148.21 265.301C146.023 265.301 144.243 263.522 144.243 261.335C144.243 259.148 146.023 257.369 148.21 257.369C150.397 257.369 152.176 259.148 152.176 261.335Z" fill="#85D7FC"/>
<path d="M216.771 275.262C216.771 277.459 214.992 279.228 212.805 279.228C210.618 279.228 208.838 277.449 208.838 275.262C208.838 273.075 210.618 271.296 212.805 271.296C214.992 271.296 216.771 273.075 216.771 275.262Z" fill="#85D7FC"/>
<path d="M220.757 310.71C220.757 312.907 218.978 314.677 216.791 314.677C214.604 314.677 212.824 312.897 212.824 310.71C212.824 308.523 214.604 306.744 216.791 306.744C218.978 306.744 220.757 308.523 220.757 310.71Z" fill="#85D7FC"/>
<path d="M261.126 280.789C261.126 282.976 259.347 284.755 257.16 284.755C254.973 284.755 253.194 282.976 253.194 280.789C253.194 278.602 254.973 276.822 257.16 276.822C259.347 276.822 261.126 278.602 261.126 280.789Z" fill="#85D7FC"/>
<path d="M238.094 360.195C238.094 362.382 236.314 364.162 234.127 364.162C231.94 364.162 230.161 362.382 230.161 360.195C230.161 358.008 231.94 356.229 234.127 356.229C236.314 356.229 238.094 358.008 238.094 360.195Z" fill="#85D7FC"/>
<path d="M265.47 338.594C265.47 340.781 263.691 342.561 261.504 342.561C259.317 342.561 257.538 340.781 257.538 338.594C257.538 336.407 259.317 334.628 261.504 334.628C263.691 334.628 265.47 336.407 265.47 338.594Z" fill="#85D7FC"/>
<path d="M239.495 245.271C239.495 247.468 237.716 249.237 235.529 249.237C233.342 249.237 231.563 247.458 231.563 245.271C231.563 243.084 233.342 241.304 235.529 241.304C237.716 241.304 239.495 243.084 239.495 245.271Z" fill="#85D7FC"/>
<path d="M104.182 289.895C104.182 292.082 102.403 293.861 100.216 293.861C98.0291 293.861 96.2497 292.082 96.2497 289.895C96.2497 287.708 98.0291 285.928 100.216 285.928C102.403 285.928 104.182 287.708 104.182 289.895Z" fill="#85D7FC"/>
<path d="M81.6368 284.149C81.6368 286.346 79.8574 288.115 77.6705 288.115C75.4835 288.115 73.7041 286.336 73.7041 284.149C73.7041 281.962 75.4835 280.182 77.6705 280.182C79.8574 280.182 81.6368 281.962 81.6368 284.149Z" fill="#85D7FC"/>
<path d="M92.8996 334.996C92.8996 337.193 91.1202 338.962 88.9333 338.962C86.7463 338.962 84.9669 337.183 84.9669 334.996C84.9669 332.809 86.7463 331.029 88.9333 331.029C91.1202 331.029 92.8996 332.809 92.8996 334.996Z" fill="#85D7FC"/>
<path d="M82.8794 360.722C82.8794 362.909 81.1 364.689 78.9131 364.689C76.7261 364.689 74.9467 362.909 74.9467 360.722C74.9467 358.535 76.7261 356.756 78.9131 356.756C81.1 356.756 82.8794 358.535 82.8794 360.722Z" fill="#85D7FC"/>
<path d="M55.5623 200.13C55.5623 203.868 52.5304 206.9 48.8026 206.9C45.0749 206.9 42.033 203.868 42.033 200.13C42.033 196.392 45.0649 193.37 48.8026 193.37C52.5403 193.37 55.5623 196.402 55.5623 200.13Z" fill="#85D7FC"/>
<path d="M92.9891 271.305C92.9891 275.043 89.9571 278.075 86.2294 278.075C82.5016 278.075 79.4597 275.043 79.4597 271.305C79.4597 267.568 82.4817 264.546 86.2294 264.546C89.977 264.546 92.9891 267.578 92.9891 271.305Z" fill="#85D7FC"/>
<path d="M174.851 252.309C174.851 256.046 171.819 259.078 168.091 259.078C164.363 259.078 161.332 256.046 161.332 252.309C161.332 248.571 164.353 245.549 168.091 245.549C171.829 245.549 174.851 248.581 174.851 252.309Z" fill="#85D7FC"/>
</g>
<path d="M300.375 201.757C304.448 201.757 307.75 198.453 307.75 194.378C307.75 190.303 304.448 187 300.375 187C296.302 187 293 190.303 293 194.378C293 198.453 296.302 201.757 300.375 201.757Z" fill="#BEFFFF"/>
<path style="mix-blend-mode:color-dodge" d="M300 228C323.196 228 342 210.539 342 189C342 167.461 323.196 150 300 150C276.804 150 258 167.461 258 189C258 210.539 276.804 228 300 228Z" fill="url(#paint0_radial_10_2655)"/>
<path d="M114.5 15C118.642 15 122 11.6421 122 7.5C122 3.35786 118.642 0 114.5 0C110.358 0 107 3.35786 107 7.5C107 11.6421 110.358 15 114.5 15Z" fill="#BEFFFF"/>
<defs>
<filter id="filter0_d_10_2655" x="-3.24249e-05" y="124" width="317.041" height="250.176" filterUnits="userSpaceOnUse" color-interpolation-filters="sRGB">
<feFlood flood-opacity="0" result="BackgroundImageFix"/>
<feColorMatrix in="SourceAlpha" type="matrix" values="0 0 0 0 0 0 0 0 0 0 0 0 0 0 0 0 0 0 127 0" result="hardAlpha"/>
<feOffset/>
<feGaussianBlur stdDeviation="2"/>
<feComposite in2="hardAlpha" operator="out"/>
<feColorMatrix type="matrix" values="0 0 0 0 0 0 0 0 0 0.694118 0 0 0 0 1 0 0 0 1 0"/>
<feBlend mode="normal" in2="BackgroundImageFix" result="effect1_dropShadow_10_2655"/>
<feBlend mode="normal" in="SourceGraphic" in2="effect1_dropShadow_10_2655" result="shape"/>
</filter>
<radialGradient id="paint0_radial_10_2655" cx="0" cy="0" r="1" gradientUnits="userSpaceOnUse" gradientTransform="translate(300.218 195.197) rotate(180) scale(42.0172 39.0832)">
<stop stop-color="white"/>
<stop offset="1" stop-opacity="0"/>
</radialGradient>
</defs>
</svg>
