<svg width="285" height="86" viewBox="0 0 285 86" fill="none" xmlns="http://www.w3.org/2000/svg">
<path d="M278.262 76.8459H10.0577L3.33258 70.7849V10.5982L10.0577 4.53717H214.075L227.529 4.53717H275.845L285 12.7374V70.7849L278.275 76.8459H278.262Z" fill="url(#paint0_linear_338_7191)"/>
<path d="M232.051 8.50146H166.134V11.9387H232.051V8.50146Z" fill="#98ABB9"/>
<path d="M255.976 79.2636H254.68L258.494 70.4412H259.79L255.976 79.2636ZM264.214 70.4412H262.918L259.104 79.2636H260.401L264.214 70.4412ZM268.639 70.4412H267.342L263.528 79.2636H264.825L268.639 70.4412ZM273.063 70.4412H271.766L267.952 79.2636H269.249L273.063 70.4412Z" fill="#00EBC7"/>
<path d="M130.559 0H35.824V13.6131H130.559V0Z" fill="#98ABB9"/>
<path d="M6.36872 63.0503H0V61.7864H6.36872V63.0503ZM6.36872 58.1753H0V56.9114H6.36872V58.1753ZM6.36872 53.3004H0V52.0365H6.36872V53.3004ZM6.36872 48.4255H0V47.1616H6.36872V48.4255ZM6.36872 43.5505H0V42.2866H6.36872V43.5505ZM6.36872 38.6756H0V37.4117H6.36872V38.6756ZM6.36872 33.8007H0V32.5368H6.36872V33.8007ZM6.36872 28.9257H0V27.6619H6.36872V28.9257ZM6.36872 24.0508H0V22.7869H6.36872V24.0508ZM6.36872 19.1759H0V17.912H6.36872V19.1759Z" fill="#00EBC7"/>
<path d="M18.9313 85.9777H17.3676V79.3094H18.9313V85.9777ZM21.9824 79.3094H20.4187V85.9777H21.9824V79.3094ZM25.0335 79.3094H23.4698V85.9777H25.0335V79.3094ZM28.0846 79.3094H26.5209V85.9777H28.0846V79.3094ZM31.1357 79.3094H29.572V85.9777H31.1357V79.3094ZM34.1868 79.3094H32.6231V85.9777H34.1868V79.3094ZM37.2379 79.3094H35.6742V85.9777H37.2379V79.3094ZM40.289 79.3094H38.7253V85.9777H40.289V79.3094ZM43.3401 79.3094H41.7764V85.9777H43.3401V79.3094ZM46.3912 79.3094H44.8275V85.9777H46.3912V79.3094ZM49.4423 79.3094H47.8786V85.9777H49.4423V79.3094ZM52.4934 79.3094H50.9297V85.9777H52.4934V79.3094ZM55.5445 79.3094H53.9808V85.9777H55.5445V79.3094ZM58.5956 79.3094H57.0319V85.9777H58.5956V79.3094ZM61.6467 79.3094H60.083V85.9777H61.6467V79.3094ZM64.6978 79.3094H63.1341V85.9777H64.6978V79.3094ZM67.7489 79.3094H66.1852V85.9777H67.7489V79.3094ZM70.8 79.3094H69.2363V85.9777H70.8V79.3094ZM73.8511 79.3094H72.2874V85.9777H73.8511V79.3094ZM76.9022 79.3094H75.3385V85.9777H76.9022V79.3094ZM79.9533 79.3094H78.3896V85.9777H79.9533V79.3094ZM83.0044 79.3094H81.4407V85.9777H83.0044V79.3094ZM86.0555 79.3094H84.4918V85.9777H86.0555V79.3094ZM89.1066 79.3094H87.5429V85.9777H89.1066V79.3094ZM92.1577 79.3094H90.594V85.9777H92.1577V79.3094ZM95.2088 79.3094H93.6451V85.9777H95.2088V79.3094ZM98.2599 79.3094H96.6962V85.9777H98.2599V79.3094ZM101.311 79.3094H99.7473V85.9777H101.311V79.3094ZM104.362 79.3094H102.798V85.9777H104.362V79.3094ZM107.413 79.3094H105.85V85.9777H107.413V79.3094ZM110.464 79.3094H108.901V85.9777H110.464V79.3094ZM113.515 79.3094H111.952V85.9777H113.515V79.3094ZM116.567 79.3094H115.003V85.9777H116.567V79.3094ZM119.618 79.3094H118.054V85.9777H119.618V79.3094ZM122.669 79.3094H121.105V85.9777H122.669V79.3094ZM125.72 79.3094H124.156V85.9777H125.72V79.3094ZM128.771 79.3094H127.207V85.9777H128.771V79.3094ZM131.822 79.3094H130.258V85.9777H131.822V79.3094ZM134.873 79.3094H133.309V85.9777H134.873V79.3094ZM137.924 79.3094H136.361V85.9777H137.924V79.3094ZM140.975 79.3094H139.412V85.9777H140.975V79.3094Z" fill="#98ABB9"/>
<path d="M223.558 79.3094H144.166V80.4551H223.558V79.3094Z" fill="#98ABB9"/>
<defs>
<linearGradient id="paint0_linear_338_7191" x1="-14.1934" y1="101.351" x2="300.219" y2="35.4798" gradientUnits="userSpaceOnUse">
<stop stop-color="#F4F4F4"/>
<stop offset="1" stop-color="#C2C2C5"/>
</linearGradient>
</defs>
</svg>
