<svg width="226" height="99" viewBox="0 0 226 99" fill="none" xmlns="http://www.w3.org/2000/svg">
<path d="M218.023 86.9991H14.5078L6.84052 80.0889V11.4707L14.5078 4.56055L144.843 4.56055H160.183H215.267L225.704 13.9096V80.0889L218.037 86.9991H218.023Z" fill="url(#paint0_linear_338_7370)"/>
<path d="M207.496 10.2607H161.893V13.681H207.496V10.2607Z" fill="#9152AE"/>
<path d="M185.033 90.3678H183.555L187.903 80.3096H189.381L185.033 90.3678ZM194.425 80.3096H192.947L188.598 90.3678H190.077L194.425 80.3096ZM199.469 80.3096H197.99L193.642 90.3678H195.121L199.469 80.3096ZM204.513 80.3096H203.034L198.686 90.3678H200.165L204.513 80.3096Z" fill="#00EBC7"/>
<path d="M148.849 0H40.8427V15.5202H148.849V0Z" fill="#00B1FF"/>
<path d="M7.26091 71.8836H0V70.4426H7.26091V71.8836ZM7.26091 66.3257H0V64.8848H7.26091V66.3257ZM7.26091 60.7678H0V59.3269H7.26091V60.7678ZM7.26091 55.21H0V53.7691H7.26091V55.21ZM7.26091 49.6521H0V48.2112H7.26091V49.6521ZM7.26091 44.0943H0V42.6533H7.26091V44.0943ZM7.26091 38.5364H0V37.0955H7.26091V38.5364ZM7.26091 32.9785H0V31.5376H7.26091V32.9785ZM7.26091 27.4207H0V25.9797H7.26091V27.4207ZM7.26091 21.8628H0V20.4219H7.26091V21.8628Z" fill="#00EBC7"/>
<path d="M21.5834 98.0224H19.8007V90.4199H21.5834V98.0224ZM25.0619 90.4199H23.2792V98.0224H25.0619V90.4199ZM28.5405 90.4199H26.7577V98.0224H28.5405V90.4199ZM32.019 90.4199H30.2363V98.0224H32.019V90.4199ZM35.4975 90.4199H33.7148V98.0224H35.4975V90.4199ZM38.9761 90.4199H37.1933V98.0224H38.9761V90.4199ZM42.4546 90.4199H40.6718V98.0224H42.4546V90.4199ZM45.9331 90.4199H44.1504V98.0224H45.9331V90.4199ZM49.4117 90.4199H47.6289V98.0224H49.4117V90.4199ZM52.8902 90.4199H51.1074V98.0224H52.8902V90.4199ZM56.3687 90.4199H54.586V98.0224H56.3687V90.4199ZM59.8472 90.4199H58.0645V98.0224H59.8472V90.4199ZM63.3258 90.4199H61.543V98.0224H63.3258V90.4199ZM66.8043 90.4199H65.0216V98.0224H66.8043V90.4199ZM70.2828 90.4199H68.5001V98.0224H70.2828V90.4199ZM73.7614 90.4199H71.9786V98.0224H73.7614V90.4199ZM77.2399 90.4199H75.4571V98.0224H77.2399V90.4199ZM80.7184 90.4199H78.9357V98.0224H80.7184V90.4199ZM84.197 90.4199H82.4142V98.0224H84.197V90.4199ZM87.6755 90.4199H85.8927V98.0224H87.6755V90.4199ZM91.154 90.4199H89.3713V98.0224H91.154V90.4199ZM94.6326 90.4199H92.8498V98.0224H94.6326V90.4199ZM98.1111 90.4199H96.3283V98.0224H98.1111V90.4199ZM101.59 90.4199H99.8069V98.0224H101.59V90.4199ZM105.068 90.4199H103.285V98.0224H105.068V90.4199ZM108.547 90.4199H106.764V98.0224H108.547V90.4199ZM112.025 90.4199H110.242V98.0224H112.025V90.4199ZM115.504 90.4199H113.721V98.0224H115.504V90.4199ZM118.982 90.4199H117.2V98.0224H118.982V90.4199Z" fill="#00B1FF"/>
<path d="M155.052 90.0674H124.27V91.2075H155.052V90.0674Z" fill="#9152AE"/>
<defs>
<linearGradient id="paint0_linear_338_7370" x1="3.64875" y1="100.395" x2="241.168" y2="67.4927" gradientUnits="userSpaceOnUse">
<stop stop-color="#00B1FF"/>
<stop offset="1" stop-color="#00EBC7"/>
</linearGradient>
</defs>
</svg>
